<?xml version="1.0" encoding="UTF-8" standalone="no"?>
<svg
   xmlns="http://www.w3.org/2000/svg"
   version="1.1"
   width="36"
   height="36"
   viewBox="0 0 36 36">
  <style>
    /**
     * Si estas usando un tema oscuro en tu sistema, se invierten los colores.
     * Puedes hacer lo mismo al revez con 'prefers-color-scheme: light'.
     *
     * También puedes seleccionar o agregar un 'id' a cada elemento y agregarles
     * estilos de forma separada. Ej: rect { color: blue }
     */
    :root { color: #222222 }
    @media (prefers-color-scheme: dark) {
      :root { color: white }
    }
  </style>
  <rect
     style="fill:none;stroke:currentColor;stroke-width:1.5;"
     width="34"
     height="34"
     x="1"
     y="1"
     ry="3.75" />
  <path
     style="fill:currentColor;"
     d="m 17.31045,25.685951 q 1.110007,0 1.816374,-0.168181 0.740003,-0.201822 1.177279,-0.504553 0.437276,-0.336362 0.605459,-0.773638 0.168181,-0.437275 0.168181,-0.975461 0,-1.143642 -1.076369,-1.883645 -1.076369,-0.773642 -3.700021,-1.648191 -1.143641,-0.40364 -2.287284,-0.908185 -1.143643,-0.538185 -2.051829,-1.311828 -0.908188,-0.807276 -1.48001,-1.917281 -0.5718203,-1.143645 -0.5718203,-2.758198 0,-1.614555 0.6054573,-2.8927439 0.605457,-1.3118255 1.715465,-2.2200123 1.110006,-0.9081867 2.690923,-1.3790985 1.580918,-0.5045485 3.565476,-0.5045485 2.354557,0 4.070021,0.5045485 1.715464,0.504548 2.825471,1.1100061 l -1.513645,4.1372946 q -0.975459,-0.504549 -2.186375,-0.874549 -1.177279,-0.403638 -2.859108,-0.403638 -1.883647,0 -2.724559,0.538185 -0.807277,0.504548 -0.807277,1.580918 0,0.639095 0.302727,1.076368 0.302729,0.437275 0.840914,0.807276 0.571821,0.336366 1.278189,0.639094 0.740004,0.269096 1.614554,0.571823 1.816374,0.672732 3.161837,1.345461 1.345462,0.639095 2.220012,1.513646 0.908186,0.874551 1.345461,2.05183 0.437276,1.17728 0.437276,2.859105 0,3.262749 -2.287285,5.07912 -2.287285,1.782738 -6.895494,1.782738 -1.547281,0 -2.791834,-0.201821 Q 13.274065,29.789611 12.298604,29.520517 11.35678,29.251426 10.650413,28.9487 9.9776829,28.64597 9.5067711,28.376875 l 1.4800079,-4.170931 q 1.042734,0.57182 2.556379,1.042732 1.54728,0.437275 3.767292,0.437275 z" />
</svg>
