<?xml version="1.0" encoding="UTF-8" standalone="no"?>
<svg
   xmlns="http://www.w3.org/2000/svg"
   xmlns:svg="http://www.w3.org/2000/svg"
   version="1.1"
   width="36"
   height="36"
   viewBox="0 0 36 36">
  <style>
    /**
     * Si estas usando un tema oscuro en tu sistema, se invierten los colores.
     * Puedes hacer lo mismo al revez con 'prefers-color-scheme: light'.
     */
    @media (prefers-color-scheme: dark) {
      :root { filter: invert(100%) }
    }
  </style>
  <rect
     style="stroke-width:0.840236;stroke:#222222;fill:none;"
     width="34.659763"
     height="34.659763"
     x="0.67011833"
     y="0.67011833"
     ry="3.5291922" />
  <path
     style="fill:#222222;"
     d="m 17.274135,26.090732 q 1.168465,0 1.912033,-0.177038 0.778976,-0.212451 1.239281,-0.531125 0.460305,-0.354077 0.637345,-0.814382 0.177039,-0.460304 0.177039,-1.026834 0,-1.203872 -1.133056,-1.982847 Q 18.97372,20.74412 16.211894,19.823513 15.008023,19.398615 13.80415,18.867498 12.600277,18.30097 11.644261,17.486583 10.688243,16.636791 10.086306,15.468328 9.4843709,14.264453 9.4843709,12.564869 q 0,-1.699585 0.6373441,-3.0450903 0.637343,-1.3809128 1.80581,-2.3369294 1.168464,-0.9560164 2.83264,-1.4517288 Q 16.424343,5.2 18.513417,5.2 q 2.47856,0 4.284369,0.5311205 1.805809,0.5311201 2.974275,1.1684647 L 24.1787,11.254771 q -1.026832,-0.531121 -2.301521,-0.920607 -1.23928,-0.4248964 -3.009683,-0.4248964 -1.982849,0 -2.868048,0.5665284 -0.849792,0.53112 -0.849792,1.664178 0,0.672753 0.31867,1.133055 0.318672,0.460304 0.885201,0.849791 0.601936,0.354081 1.345505,0.672752 0.778976,0.283268 1.699584,0.601938 1.912034,0.708161 3.328355,1.41632 1.416321,0.672753 2.336929,1.593362 0.956016,0.920609 1.41632,2.15989 0.460305,1.239281 0.460305,3.00968 0,3.434581 -2.407745,5.346612 Q 22.125035,30.8 17.274135,30.8 15.645366,30.8 14.335269,30.58755 13.025173,30.410512 11.99834,30.127246 11.006914,29.843983 10.263347,29.525314 9.555187,29.206641 9.0594746,28.923374 L 10.617427,24.53278 q 1.09765,0.601935 2.691011,1.097648 1.628768,0.460304 3.965697,0.460304 z" />
</svg>
