<?xml version="1.0" encoding="UTF-8" standalone="no"?>
<svg
   xmlns="http://www.w3.org/2000/svg"
   version="1.1"
   width="512"
   height="512"
   viewBox="0 0 512 512">
  <path
     d="m 242.53181,406.12102 q 21.68051,0 35.47717,-3.28492 14.45367,-3.9419 22.99449,-9.85477 8.5408,-6.56984 11.82572,-15.11065 3.28492,-8.54079 3.28492,-19.05254 0,-22.3375 -21.02352,-36.79116 -21.02351,-15.11065 -72.26832,-32.19226 -22.33748,-7.88382 -44.67496,-17.73858 -22.33749,-10.51176 -40.07608,-25.62241 -17.73859,-15.76764 -28.90733,-37.44814 -11.168741,-22.33747 -11.168741,-53.87275 0,-31.53528 11.825731,-56.500694 11.82572,-25.622407 33.50622,-43.360996 21.6805,-17.738589 52.55878,-26.936376 30.87828,-9.854772 69.6404,-9.854772 45.98893,0 79.49515,9.854772 33.50623,9.854771 55.18672,21.680497 l -29.5643,80.809139 q -19.05257,-9.85478 -42.70403,-17.08161 -22.99446,-7.88382 -55.84369,-7.88382 -36.79116,0 -53.21579,10.51176 -15.76762,9.85477 -15.76762,30.87828 0,12.48272 5.91285,21.02352 5.91287,8.5408 16.42463,15.76763 11.16874,6.56985 24.96542,12.48272 14.45366,5.25588 31.53527,11.16874 35.47718,13.13969 61.75657,26.27938 26.2794,12.48272 43.36099,29.56431 17.73859,17.08161 26.27941,40.07608 8.54079,22.99447 8.54079,55.84371 0,63.72752 -44.67496,99.20471 Q 332.53873,493.5 242.53181,493.5 q -30.2213,0 -54.52974,-3.9419 -24.30843,-3.28493 -43.36099,-8.5408 -18.39558,-5.25589 -32.19225,-11.16874 -13.139701,-5.91287 -22.337489,-11.16874 l 28.907329,-81.46611 q 20.36653,11.16873 49.93085,20.36652 30.2213,8.54079 73.58229,8.54079 z"
     style="fill:#333333;" />
</svg>
