<?xml version="1.0" encoding="UTF-8" standalone="no"?>
<svg
   xmlns="http://www.w3.org/2000/svg"
   version="1.1"
   width="36"
   height="29.369411">
  <path d="m 29.399589,6.5345022 c 0,0 0,1.655511 0,1.655511 0,0 -22.7314472,0 -22.7314472,0 0,0 0,-1.655511 0,-1.655511 0,-0.509389 0.1910206,-0.827756 0.4457147,-1.146124 0.318368,-0.2546941 0.5730619,-0.4457141 0.827756,-0.509388 0,0 0.3820409,0 0.3820409,0 0,0 19.4204236,0 19.4204236,0 0.127348,0 0.318368,0.06367 0.445715,0.06367 0.191021,0 0.445714,0.1910201 0.764082,0.445714 0.254694,0.318368 0.445715,0.636735 0.445715,1.146124 m -4.839188,-4.902861 c 0.127348,0 0.254695,0 0.445714,0.06367 0.191022,0 0.445716,0.127347 0.70041,0.445715 0.318366,0.254694 0.509388,0.636735 0.509388,1.146123 0,0 -16.2367485,0 -16.2367485,0 0,-0.509388 0.1273465,-0.891429 0.3820415,-1.146123 0.318367,-0.318368 0.573062,-0.445715 0.827756,-0.509388 0,0 0.382041,0 0.382041,0 0,0 12.989398,0 12.989398,0 m 8.086537,6.5583719 c 0.764083,0.700409 1.146124,1.146123 1.209797,1.464491 0.19102,0.3820409 0.19102,1.0187759 0,1.7828589 0,0 -2.419593,14.644909 -2.419593,14.644909 -0.127348,0.509387 -0.318368,0.891428 -0.700409,1.146123 -0.318368,0.318368 -0.636735,0.445715 -0.891429,0.509389 0,0 -0.445715,0 -0.445715,0 0,0 -22.7314472,0 -22.7314472,0 -1.0824498,0 -1.7828585,-0.573062 -1.9102056,-1.655512 C 4.6305892,25.509211 4.1848746,23.089617 3.4844659,18.823491 2.7840571,14.557365 2.3383425,12.074098 2.2109955,11.437363 1.9563014,10.927975 1.9563014,10.48226 2.0836484,9.9728722 2.274669,9.5271571 2.3383425,9.2087891 2.402016,9.1451162 c 0.063674,-0.06367 0.3183676,-0.318368 0.7004087,-0.636735 0,0 0.3183676,-0.318368 0.3183676,-0.318368 0,0 1.0187764,-1.018776 1.0187764,-1.018776 0,0 0,2.6106139 0,2.6106139 0,0 27.2522663,0 27.2522663,0 0,0 0,-2.6106139 0,-2.6106139 0,0 0.955103,1.018776 0.955103,1.018776 m -8.086537,8.7869458 c 0,0 0,-3.24735 0,-3.24735 0,0 -2.292247,0 -2.292247,0 0,0 0,2.610615 0,2.610615 0,0 -8.468577,0 -8.468577,0 0,0 0,-2.610615 0,-2.610615 0,0 -2.228574,0 -2.228574,0 0,0 0,3.24735 0,3.24735 0,1.08245 0.509389,1.591837 1.591838,1.591837 0,0 9.742049,0 9.742049,0 0.509388,0 0.891429,-0.127346 1.146123,-0.38204 0.318368,-0.254694 0.445715,-0.509388 0.445715,-0.764083 0,0 0.06367,-0.445714 0.06367,-0.445714" />
</svg>
