<?xml version="1.0" encoding="UTF-8" standalone="no"?>
<!-- Created with Inkscape (http://www.inkscape.org/) -->
<svg
   width="32"
   height="32"
   version="1.1"
   xmlns="http://www.w3.org/2000/svg">
  <path d="M 9.597661,3.75 C 8.4448664,3.75 8.487383,4.5041334 8.487383,5.25154 H 23.56507 C 23.56507,4.5395971 23.589038,3.75 22.454792,3.75 Z M 6.950219,6.7889207 c -0.862179,0 -1.55776,0.5072273 -1.55776,1.7976978 V 9.9165 H 26.530804 V 8.5866185 c 0,-1.2904705 -0.693707,-1.7976979 -1.555887,-1.7976978 z M 3.3441556,8.9638899 c -1.4163306,0 -2.51687113,1.4226991 -2.3216606,2.6427851 L 3.3422833,26.107098 C 3.5298335,27.279289 4.2907423,28.25 5.469224,28.25 h 21.059708 c 1.178481,0 1.939391,-0.970711 2.126941,-2.142902 l 2.32166,-14.500423 C 31.172764,10.386481 30.068481,8.9638899 28.652151,8.9638899 V 11.450108 H 3.3441556 Z M 9.940293,15.143593 h 2.108217 v 2.401332 h 7.867435 v -2.401332 h 2.108217 v 3.463352 c -2.65e-4,0.586426 -0.472051,1.061751 -1.054109,1.062018 H 10.994402 C 10.412344,19.668696 9.9405582,19.193371 9.940293,18.606945 Z" />
</svg>
