<?xml version="1.0" encoding="UTF-8" standalone="no"?>
<svg
   xmlns="http://www.w3.org/2000/svg"
   version="1.1"
   width="36"
   height="18.770248">
  <path d="m 34,3.6162117 c 0,0.33567 -0.11189,0.55944 -0.33567,0.78322 L 18.78321,17.391797 c -0.238386,0.208129 -0.55944,0.33566 -0.78321,0.33566 -0.22378,0 -0.55944,-0.11189 -0.78322,-0.33566 L 2.33566,4.3994317 C 2.097263,4.1912927 2,3.9518817 2,3.6162117 c 0,-0.22377 0.11188,-0.44755 0.33566,-0.67133 l 1.67832,-1.67832 c 0.11189,-0.11189 0.44755,-0.22377 0.67133,-0.22377 0.33567,0 0.55944,0.11188 0.78322,0.22377 L 18,12.021167 30.53146,1.2665617 c 0.22378,-0.11189 0.44756,-0.22377 0.78322,-0.22377 0.22378,0 0.55944,0.11188 0.67133,0.22377 l 1.67832,1.67832 C 33.88811,3.1686617 34,3.3924417 34,3.6162117 Z" />
</svg>
