<?xml version="1.0" encoding="UTF-8" standalone="no"?>
<!-- Created with Inkscape (http://www.inkscape.org/) -->
<svg
   width="32"
   height="32"
   version="1.1"
   xmlns="http://www.w3.org/2000/svg">
  <path d="m 31,10.606122 c 0,0.313849 -0.104897,0.523071 -0.314691,0.732304 L 16.734259,23.486162 C 16.510773,23.68076 16.209784,23.8 16,23.8 c -0.209794,0 -0.524475,-0.104615 -0.734269,-0.313838 L 1.314681,11.338426 C 1.091184,11.143818 1,10.919971 1,10.606122 1,10.3969 1.104888,10.187668 1.314681,9.9784357 L 2.888106,8.4092228 c 0.104897,-0.104616 0.419579,-0.2092227 0.629372,-0.2092227 0.314691,0 0.524475,0.1046067 0.734269,0.2092227 L 16,18.464675 27.748244,8.4092228 c 0.209794,-0.104616 0.419587,-0.2092227 0.734269,-0.2092227 0.209793,0 0.524475,0.1046067 0.629371,0.2092227 l 1.573425,1.5692129 C 30.895103,10.187668 31,10.3969 31,10.606122 Z" />
</svg>
