<?xml version="1.0" encoding="UTF-8" standalone="no"?>
<svg
   xmlns="http://www.w3.org/2000/svg"
   version="1.1"
   width="36"
   height="36">
  <path d="m 17.344066,1.9999996 c -3.559565,0 -6.446217,2.8842444 -6.446217,6.4438098 0,3.5595656 2.886652,6.4462166 6.446217,6.4462166 3.559565,0 6.446216,-2.886651 6.446216,-6.4462166 0,-3.5595654 -2.886651,-6.4438097 -6.446216,-6.4438098 z M 30.145029,13.871822 c -0.437299,0 -0.756771,0.118893 -1.035054,0.397171 l -1.86791,1.90883 4.69144,4.691441 1.908831,-1.870318 c 0.278284,-0.278282 0.397171,-0.635102 0.397171,-1.032646 0,-0.397546 -0.118893,-0.714611 -0.397171,-1.032646 L 31.177675,14.268993 C 30.85964,13.99071 30.542576,13.871822 30.145029,13.871822 Z m -12.800963,2.963141 c -6.795372,0 -12.6758627,3.873374 -15.5835727,9.527305 C 5.4952355,31.180041 11.248227,33.999665 17.344066,34 23.439905,33.999665 29.192895,31.180041 32.927637,26.362268 32.310215,25.161714 31.818378,24.397574 30.952585,23.37762 l -8.821354,8.767952 -6.03268,-0.03908 -0.06158,-6.333516 7.889373,-7.755156 c -2.118146,-0.911401 -4.128731,-1.182854 -6.582281,-1.182854 z m 9.142169,0.05776 -9.421392,9.462314 v 4.69144 h 4.691439 l 9.462313,-9.423801 z m 0.358658,1.908831 c 0.198778,0 0.279224,0.117797 0.279224,0.276816 0,0.07952 -0.0421,0.120286 -0.08185,0.199791 l -6.159768,6.12126 c -0.03976,0.0795 -0.120285,0.07943 -0.19979,0.07943 -0.159023,0 -0.238302,-0.07928 -0.238302,-0.238304 0,-0.07952 -7e-5,-0.11787 0.07943,-0.197382 l 6.162179,-6.162178 c 0.03976,-0.03977 0.119127,-0.07943 0.158868,-0.07943 z m -7.315179,7.11539 2.66466,2.664662 -1.035053,1.032645 h -1.191516 v -1.470732 h -1.470738 v -1.191515 z" />
</svg>
