<?xml version="1.0" encoding="UTF-8" standalone="no"?>
<!-- Created with Inkscape (http://www.inkscape.org/) -->
<svg
   width="32"
   height="32"
   version="1.1"
   xmlns="http://www.w3.org/2000/svg">
  <path d="m 15.394131,1.2499999 c -3.287875,0 -5.9541986,2.6589128 -5.9541986,5.9403872 0,3.2814739 2.6663236,5.9426059 5.9541986,5.9426059 3.287876,0 5.954199,-2.661132 5.954199,-5.9426059 0,-3.2814744 -2.666323,-5.9403871 -5.954199,-5.9403872 z M 27.21804,12.194336 c -0.403921,0 -0.699009,0.109604 -0.956052,0.366142 l -1.725338,1.759703 4.333358,4.324922 1.763136,-1.7242 C 30.890188,16.664362 31,16.335419 31,15.968933 31,15.602444 30.890182,15.310151 30.633144,15.016963 L 28.171868,12.560478 C 27.878107,12.303936 27.585244,12.194336 27.21804,12.194336 Z m -11.823909,2.731645 c -6.2767038,0 -11.7083565,3.570767 -14.3941309,8.782984 C 4.449682,28.15035 9.7635672,30.74969 15.394131,30.75 c 5.630565,-3.1e-4 10.944448,-2.59965 14.39413,-7.041035 -0.570296,-1.106761 -1.024593,-1.811201 -1.824303,-2.751472 l -8.14805,8.082956 -5.572226,-0.03603 -0.05688,-5.83871 7.287204,-7.149284 C 19.517531,15.17623 17.660407,14.925984 15.394129,14.925984 Z m 8.444379,0.05325 -8.702289,8.72307 v 4.324921 h 4.333357 l 8.740086,-8.687566 z m 0.331282,1.759703 c 0.183606,0 0.257912,0.108595 0.257912,0.255191 0,0.07331 -0.03889,0.110888 -0.0756,0.184181 l -5.689616,5.643039 c -0.03673,0.07329 -0.111104,0.07323 -0.184541,0.07323 -0.146885,0 -0.220113,-0.07309 -0.220113,-0.219686 0,-0.07331 -6.5e-5,-0.108661 0.07337,-0.181961 l 5.691841,-5.680758 c 0.03673,-0.03666 0.110034,-0.07323 0.146742,-0.07323 z m -6.756836,6.559502 2.461276,2.456486 -0.956051,0.951969 H 17.817609 V 25.35106 h -1.358481 v -1.098427 z" />
</svg>
