<?xml version="1.0" encoding="UTF-8" standalone="no"?>
<!-- Created with Inkscape (http://www.inkscape.org/) -->
<svg
   width="32"
   height="32"
   version="1.1"
   xmlns="http://www.w3.org/2000/svg">
  <path d="M 16.027321,1.9999999 31,8.015625 v 1.9687502 h -2.021858 c 0,0.8800568 -0.339288,1.0390628 -1.038252,1.0390628 H 4.1147531 c -1.00466,0 -1.0928957,-0.361133 -1.0928957,-1.0390629 H 0.99999985 V 8.015625 Z M 6.010928,12.007812 H 10 v 11.976564 l 3.976757,-0.0078 V 12 h 3.98907 v 11.976564 l 4.045102,0.0078 V 12.007812 H 26 v 11.976564 h 1.93989 c 0.823034,0 1.038252,0.37705 1.038252,1.039061 v 0.984375 H 3.0218574 v -0.984375 c 0,-0.728771 0.449997,-1.039061 1.0928957,-1.039061 H 6.010928 Z M 29.907103,26.992188 C 30.789159,26.992188 31,27.330615 31,27.976563 V 30 H 0.99999985 v -2.023437 c 0,-0.688881 0.26773405,-0.984375 1.09289595,-0.984375 z" />
</svg>
