<?xml version="1.0" encoding="UTF-8" standalone="no"?>
<svg
   xmlns="http://www.w3.org/2000/svg"
   version="1.1"
   width="36"
   height="33.573769">
  <path d="M 18.029143,1.8652083 34,8.276866 v 2.098361 h -2.156648 c 0,0.291439 -0.116576,0.582878 -0.291439,0.757741 -0.233151,0.233152 -0.524591,0.349727 -0.81603,0.349727 H 5.3224036 c -0.3497262,0 -0.5828773,-0.116575 -0.8160284,-0.349727 C 4.2732241,10.958105 4.1566481,10.666666 4.1566481,10.375227 H 2 V 8.276866 Z M 6.3132961,12.531875 h 4.2550099 v 12.765028 h 2.09836 V 12.531875 h 4.25501 v 12.765028 h 2.156648 V 12.531875 h 4.255009 v 12.765028 h 2.156649 V 12.531875 h 4.255009 v 12.765028 h 0.990892 c 0.291439,0 0.582879,0.116575 0.81603,0.349726 0.174863,0.174863 0.291439,0.466302 0.291439,0.757741 v 1.049181 H 4.1566481 V 26.40437 c 0,-0.291439 0.116576,-0.582878 0.3497271,-0.757741 0.2331511,-0.233151 0.4663022,-0.349726 0.8160284,-0.349726 H 6.3132961 Z M 32.834244,28.502731 c 0.349727,0 0.582879,0.116575 0.81603,0.349727 C 33.883425,29.027322 34,29.260473 34,29.551912 V 31.70856 H 2 v -2.156648 c 0,-0.291439 0.1165751,-0.52459 0.3497262,-0.699454 0.2331512,-0.233152 0.5245903,-0.349727 0.8160294,-0.349727 z" />
</svg>
