<?xml version="1.0" encoding="UTF-8" standalone="no"?>
<svg
   xmlns="http://www.w3.org/2000/svg"
   version="1.1"
   width="33.46875"
   height="36">
  <path d="m 9.296875,2 c -0.75,0 -1.4375,0.25 -2,0.8125 -0.5625,0.5625 -0.875,1.25 -0.875,2.0625 v 1.6875 h -2.25 c -0.625,0 -1.1875,0.25 -1.625,0.6875 -0.4375,0.4375 -0.6875,1 -0.6875,1.625 v 22.8125 c 0,0.625 0.25,1.1875 0.6875,1.625 0.4375,0.4375 1,0.6875 1.625,0.6875 h 25.125 c 0.625,0 1.1875,-0.25 1.625,-0.6875 0.4375,-0.4375 0.6875,-1 0.6875,-1.625 V 8.875 c 0,-0.625 -0.25,-1.1875 -0.6875,-1.625 -0.4375,-0.4375 -1,-0.6875 -1.625,-0.6875 h -2.25 V 4.875 c 0,-0.8125 -0.3125,-1.5 -0.875,-2.0625 -0.5625,-0.5625 -1.25,-0.8125 -2,-0.8125 h -1.125 c -0.8125,0 -1.5,0.25 -2.0625,0.8125 -0.5625,0.5625 -0.8125,1.25 -0.8125,2.0625 v 1.6875 h -6.875 V 4.875 c 0,-0.8125 -0.25,-1.5 -0.8125,-2.0625 C 11.921875,2.25 11.234375,2 10.421875,2 Z m 0,2.3125 h 1.125 c 0.1875,0 0.3125,0 0.4375,0.125 0.125001,0.125 0.1875,0.25 0.1875,0.4375 V 10 c 0,0.125 -0.0625,0.3125 -0.1875,0.375 -0.125,0.125 -0.25,0.1875 -0.4375,0.1875 h -1.125 c -0.125,0 -0.25,-0.0625 -0.375,-0.1875 -0.125,-0.0625 -0.1875,-0.25 -0.1875,-0.375 V 4.875 c 0,-0.1875 0.0625,-0.3125 0.1875,-0.4375 0.125,-0.125 0.25,-0.125 0.375,-0.125 z m 13.75,0 h 1.125 c 0.125,0 0.25,0 0.375,0.125 0.125,0.125 0.1875,0.25 0.1875,0.4375 V 10 c 0,0.125 -0.0625,0.3125 -0.1875,0.375 -0.125,0.125 -0.25,0.1875 -0.375,0.1875 h -1.125 c -0.1875,0 -0.3125,-0.0625 -0.4375,-0.1875 -0.125,-0.0625 -0.1875,-0.25 -0.1875,-0.375 V 4.875 c 0,-0.1875 0.0625,-0.3125 0.1875,-0.4375 0.125,-0.125 0.25,-0.125 0.4375,-0.125 z m -18.875,9.125 h 5.125 v 5.125 h -5.125 z m 6.25,0 h 5.75 v 5.125 h -5.75 z m 6.875,0 h 5.75 v 5.125 h -5.75 z m 6.875,0 h 5.125 v 5.125 h -5.125 z m -20,6.25 h 5.125 v 5.75 h -5.125 z m 6.25,0 h 5.75 v 5.75 h -5.75 z m 13.75,0 h 5.125 v 5.75 h -5.125 z M 18.8592,20.308594 h 0.01172 c 0.256522,0 0.464844,0.208322 0.464844,0.464844 v 3.445312 c 0,0.256522 -0.208322,0.462891 -0.464844,0.462891 -0.256522,0 -0.464843,-0.206369 -0.464843,-0.462891 v -2.957031 l -0.328125,0.08594 c -0.04886,0.01222 -0.117155,0.02539 -0.166016,0.02539 -0.219876,0 -0.408203,-0.184421 -0.408203,-0.404297 0,-0.189338 0.121209,-0.347375 0.310547,-0.402344 l 0.605469,-0.177734 c 0.177122,-0.04886 0.311192,-0.08008 0.439453,-0.08008 z m 1.22496,0.0625 h 2.322265 c 0.26263,0 0.427735,0.151184 0.427735,0.419922 0,0.140476 -0.05537,0.3124 -0.134766,0.458984 l -1.716797,3.115234 c -0.122153,0.225984 -0.267942,0.316407 -0.451172,0.316407 -0.250414,0 -0.482422,-0.151185 -0.482422,-0.419922 0,-0.0794 0.03512,-0.207462 0.08399,-0.292969 l 1.589844,-2.785156 H 20.08416 c -0.225984,0 -0.408203,-0.178314 -0.408203,-0.404297 0,-0.225984 0.182219,-0.408203 0.408203,-0.408203 z M 4.171875,26.5625 h 5.125 v 5.125 h -5.125 z m 6.25,0 h 5.75 v 5.125 h -5.75 z m 6.875,0 h 5.75 v 5.125 h -5.75 z m 6.875,0 h 5.125 v 5.125 h -5.125 z" />
</svg>
