<?xml version="1.0" encoding="UTF-8" standalone="no"?>
<!-- Created with Inkscape (http://www.inkscape.org/) -->
<svg
   width="32"
   height="32"
   version="1.1"
   xmlns="http://www.w3.org/2000/svg">
  <path d="m 8.9999999,0.99999996 c -1.9326486,0 -2.7058819,1.00930804 -2.7058819,2.69531234 V 5.2773435 H 4.1764708 C 2.7669658,5.2773435 2,5.9275994 2,7.4453123 V 28.832031 C 2,30.286246 2.8128545,31 4.1764708,31 H 27.823529 C 29.288316,31 30,30.213199 30,28.832031 V 7.4453123 C 30,6.0159662 29.042367,5.2773435 27.823529,5.2773435 H 25.705882 V 3.6953123 C 25.530139,1.948452 24.677461,0.99999996 23,0.99999996 h -1.058824 c -1.824454,0 -2.705882,0.92445954 -2.705882,2.69531234 V 5.2773435 H 12.764706 V 3.6953123 c 0,-1.9793336 -0.989498,-2.69531234 -2.705883,-2.69531234 z m 0,2.16796854 h 1.0588231 c 0.508884,0 0.588236,0.2118666 0.588236,0.5273438 v 4.8046874 c 0,0.4233656 -0.189301,0.5273438 -0.588236,0.5273438 H 8.9999999 c -0.4770756,0 -0.529412,-0.1552299 -0.529412,-0.5273438 V 3.6953123 c 0,-0.4382555 0.2032676,-0.5273438 0.529412,-0.5273438 z m 12.9411761,0 H 23 c 0.453249,0 0.529412,0.1621802 0.529412,0.5273438 v 4.8046874 c 0,0.446228 -0.176708,0.5273438 -0.529412,0.5273438 h -1.058824 c -0.487588,0 -0.588235,-0.1261667 -0.588235,-0.5273438 V 3.6953123 c 0,-0.4599705 0.243779,-0.5273438 0.588235,-0.5273438 z M 4.1764708,11.722656 h 4.8235291 v 4.804688 H 4.1764708 Z m 5.8823522,0 h 5.411765 v 4.804688 h -5.411765 z m 6.470588,0 h 5.411765 v 4.804688 h -5.411765 z m 6.470589,0 h 4.823529 v 4.804688 H 23 Z M 4.1764708,17.582031 h 4.8235291 v 5.390625 H 4.1764708 Z m 5.8823522,0 h 5.411765 v 5.390625 h -5.411765 z m 12.941177,0 h 4.823529 v 5.390625 H 23 Z m -5.000165,0.622624 c 0.310831,-0.08329 0.448531,0.03717 0.448531,0.435791 v 3.189632 c 0,0.240489 -0.196068,0.43396 -0.437501,0.43396 -0.241432,0 -0.437499,-0.193471 -0.437499,-0.43396 v -2.772217 c -0.148308,0.0573 -0.317196,0.07118 -0.465074,0.10437 -0.206942,0 -0.384191,-0.172894 -0.384191,-0.379028 0,-0.177505 0.114079,-0.325664 0.292279,-0.377198 0.342138,-0.09168 0.684769,-0.133625 0.983455,-0.20135 z m 1.152903,0.01824 h 2.185661 c 0.247182,0 0.402575,0.141735 0.402575,0.393677 0,0.131697 -0.05211,0.292875 -0.126839,0.430298 l -1.61581,2.920532 c -0.114967,0.21186 -0.313349,0.31962 -0.4858,0.31962 -0.235684,0 -0.510581,-0.266363 -0.38461,-0.48455 0.167484,-0.290093 1.028362,-1.877746 1.567107,-2.817858 h -1.542284 c -0.21269,0 -0.384191,-0.167169 -0.384191,-0.379028 0,-0.21186 0.171501,-0.382691 0.384191,-0.382691 z M 4.1764708,24.027341 h 4.8235291 v 4.804687 H 4.1764708 Z m 5.8823522,0 h 5.411765 v 4.804687 h -5.411765 z m 6.470588,0 h 5.411765 v 4.804687 h -5.411765 z m 6.470589,0 h 4.823529 v 4.804687 H 23 Z" />
</svg>
