<?xml version="1.0" encoding="UTF-8" standalone="no"?>
<svg
   xmlns="http://www.w3.org/2000/svg"
   version="1.1"
   width="36"
   height="36">
  <path d="M 18,2.0000005 C 9.1784852,2.0000005 2.0000005,9.1784852 2.0000005,18 2.0000005,26.821515 9.1784852,34 18,34 26.821515,34 34,26.821515 34,18 34,9.1784852 26.821515,2.0000005 18,2.0000005 Z m 0,2.5396825 c 7.448969,0 13.460317,6.011348 13.460317,13.460317 0,7.448969 -6.011348,13.460317 -13.460317,13.460317 C 10.551031,31.460317 4.539683,25.448969 4.539683,18 4.539683,10.551031 10.551031,4.539683 18,4.539683 Z m -0.149972,2.2992491 c -0.867521,0 -1.564791,0.6991088 -1.564791,1.5666294 V 9.7883142 C 13.91313,10.373538 12.186626,12.07689 12.186626,14.736435 v 0.06067 c 0,3.175507 2.595573,4.24512 4.885603,4.916862 1.801489,0.549607 3.388847,0.884479 3.388847,1.892092 v 0.06252 c 0,0.73281 -0.611125,1.220941 -1.954609,1.220941 -1.31295,0 -2.87053,-0.488418 -4.42775,-1.465498 -0.24427,-0.152669 -0.579836,-0.244555 -0.915706,-0.244555 -1.038147,0 -1.831414,0.793265 -1.831412,1.831412 0,0.732809 0.397746,1.283357 0.886286,1.588695 1.308453,0.845461 2.696061,1.379355 4.067352,1.649373 v 1.316558 c 0,0.943461 0.759238,1.702698 1.702698,1.702698 0.943461,0 1.702699,-0.759237 1.702699,-1.702698 v -1.184165 c 2.881952,-0.370737 5.491905,-1.532418 5.491905,-4.954761 v -0.06547 c 0,-3.228856 -3.194521,-4.335155 -5.484551,-5.098498 C 17.927033,15.651927 16.36982,15.22585 16.36982,14.309838 v -0.06067 c 0,-0.641209 0.580305,-1.130842 1.710053,-1.130842 0.97708,0 2.228515,0.397696 3.541466,1.038903 0.305337,0.15267 0.519155,0.213297 0.855025,0.213297 1.038148,0 1.862672,-0.793264 1.862672,-1.831413 0,-0.793875 -0.427841,-1.40544 -1.099583,-1.741312 C 22.11935,10.23774 20.907326,9.857169 19.690634,9.6743107 V 8.4055615 c 0,-0.8675206 -0.697272,-1.5666294 -1.564792,-1.5666294 z" />
</svg>
