<?xml version="1.0" encoding="UTF-8" standalone="no"?>
<!-- Created with Inkscape (http://www.inkscape.org/) -->
<svg
   xmlns="http://www.w3.org/2000/svg"
   version="1.1"
   width="36"
   height="33.425285">
  <path d="m 24.360264,1.8572995 c -0.407226,0.00356 -0.817591,0.026489 -1.080773,0.068622 -1.553475,0.24912 -2.982559,0.9647288 -4.116853,2.0615198 -0.753422,0.7285244 -1.244675,1.4001065 -1.674702,2.2895287 -0.368071,0.7612799 -0.562942,1.3843643 -0.745849,2.3844708 -0.07049,0.3851289 -0.07547,2.095208 -0.0071,2.384462 0.02604,0.110213 0.05822,0.267733 0.07156,0.350035 l 0.02418,0.149573 -5.862702,0.01076 -5.8626304,0.01067 -0.3137866,0.08931 C 4.1527288,11.83816 3.6332,12.129582 3.1719912,12.564667 2.5886935,13.114915 2.2479024,13.730791 2.044098,14.603173 2.012276,14.739449 1.999654,16.729804 2.000009,21.556203 l 4.711e-4,6.762124 0.098933,0.400747 c 0.2023289,0.81904 0.6555022,1.517768 1.3428354,2.070675 0.4703733,0.378391 1.085271,0.635751 1.8033776,0.754702 0.099182,0.01645 5.9060709,0.02685 12.9041859,0.02311 13.87838,-0.0071 12.685714,0.01129 13.365038,-0.208666 0.898214,-0.290791 1.704756,-1.02704 2.145582,-1.958516 0.367156,-0.775795 0.339076,-0.123404 0.339076,-7.874754 v -6.832809 l -0.08773,-0.30056 c -0.220044,-0.753884 -0.500239,-1.242648 -0.996871,-1.739279 -0.163644,-0.163645 -0.410311,-0.370862 -0.548213,-0.460391 -0.440826,-0.286223 -0.431875,-0.277627 -0.3948,-0.376018 0.01849,-0.04916 0.07467,-0.332764 0.124845,-0.63032 0.126346,-0.749706 0.127493,-1.8721503 0.0027,-2.6249235 C 32.005241,7.99353 32.014512,8.0303833 31.775908,7.2789256 31.143801,5.2881614 29.684548,3.5797527 27.826868,2.655655 26.999571,2.2441172 26.401926,2.058615 25.422042,1.9092551 25.171482,1.8710328 24.767438,1.854144 24.360211,1.857344 Z m 0.02196,1.7272976 c 0.190853,-8.889e-4 0.382089,0.00711 0.573102,0.025778 0.782747,0.075467 1.383484,0.2484178 2.099324,0.6043377 1.680622,0.8356088 2.874347,2.4261153 3.277156,4.3666218 0.112097,0.5400177 0.149928,1.4696974 0.0832,2.0438304 -0.313734,2.699502 -2.22872,4.856168 -4.811209,5.418275 -0.282053,0.06142 -0.557271,0.08578 -1.061991,0.09416 -0.374702,0.0062 -0.726355,0.0036 -0.781466,-0.0062 -1.125129,-0.198586 -1.757582,-0.429822 -2.507822,-0.916951 -1.628996,-1.057706 -2.669209,-2.838346 -2.820676,-4.828736 -0.161137,-2.1174665 0.662329,-4.1145952 2.237165,-5.425955 1.061502,-0.8839022 2.377182,-1.366791 3.713208,-1.3749954 z m -7.013848,9.6847899 0.180338,0.347528 c 0.400942,0.772525 0.850444,1.384178 1.474479,2.006338 0.614294,0.612444 1.167849,1.022969 1.891831,1.403093 2.672009,1.402942 5.9864,1.072649 8.295546,-0.826782 0.79472,-0.653716 1.417787,-1.389893 1.963129,-2.319271 l 0.171102,-0.291484 0.165155,0.134711 c 0.231867,0.189066 0.52096,0.580515 0.632116,0.856053 l 0.09416,0.233404 v 6.752657 c 0,6.581946 -0.0018,6.757724 -0.0776,6.953031 -0.260622,0.673253 -0.853111,1.178906 -1.522773,1.299626 -0.280347,0.05058 -24.9773397,0.0528 -25.2700152,0.0027 C 4.9908621,29.756247 4.5501955,29.519082 4.2752088,29.233918 4.0581066,29.008789 3.82128,28.525527 3.7663644,28.195563 c -0.033778,-0.203894 -0.043111,-2.008142 -0.034222,-6.789911 0.011111,-6.010515 0.017333,-6.527075 0.080267,-6.704986 0.1227822,-0.347057 0.2818933,-0.58928 0.558391,-0.850106 0.2874933,-0.271209 0.3903733,-0.336187 0.7510133,-0.474329 l 0.2239377,-0.08578 6.0112618,-0.01031 z m 0.6268,3.198728 c -2.792658,0 -5.065591,2.272933 -5.065591,5.065582 0,2.792657 2.272933,5.06551 5.065591,5.06551 2.792657,0 5.065501,-2.272853 5.065501,-5.06551 0,-2.792649 -2.272844,-5.065582 -5.065501,-5.065582 z m 0,0.837582 c 2.34,0 4.227919,1.888 4.227919,4.228 0,2.340008 -1.887919,4.227928 -4.227919,4.227928 -2.34,0 -4.228,-1.88792 -4.228,-4.227928 0,-2.34 1.888,-4.228 4.228,-4.228 z m -0.0328,0.447165 c -0.262925,-0.0062 -0.52344,0.15032 -0.598231,0.411084 -0.03111,0.108347 -0.0712,0.144409 -0.219707,0.197564 -0.52397,0.188558 -0.768455,0.557052 -1.034826,0.95992 -0.267923,0.61263 -0.204346,1.100469 -0.0062,1.663973 0.198124,0.563504 0.725707,0.871929 1.745929,1.160614 0.84488,0.239075 1.013893,0.39048 0.970489,0.869128 -0.04533,0.499725 -0.257849,0.695983 -0.750071,0.69232 -0.663235,-0.09761 -0.846654,-0.63064 -1.164093,-0.797876 -0.31744,-0.167236 -0.562271,0.04244 -0.709418,0.258659 -0.171582,0.252106 -0.07769,0.639217 0.257511,1.0616 0.136409,0.171893 0.497075,0.431511 0.75016,0.539999 0.149973,0.06427 0.18456,0.09812 0.18456,0.180729 0.159774,0.493008 0.487093,0.420747 0.711753,0.420747 0.224659,0 0.391518,-0.22264 0.429607,-0.396053 0.02169,-0.09868 0.0592,-0.129805 0.221271,-0.183627 0.403742,-0.134098 0.830311,-0.488924 1.011742,-0.841573 0.203782,-0.375664 0.199187,-0.833955 0.224471,-1.136587 -0.03163,-1.139049 -0.979038,-1.620423 -1.75728,-1.831004 -0.522178,-0.1368 -0.962195,-0.332169 -1.050009,-0.466187 -0.153795,-0.23472 -0.122817,-0.599937 0.0704,-0.829528 0.152027,-0.180667 0.402027,-0.259974 0.74272,-0.235592 0.488063,0.03739 0.469511,0.286221 0.738178,0.562774 0.0872,0.139795 0.379396,0.309324 0.533111,0.309324 0.151556,0 0.363609,-0.119475 0.477849,-0.269253 0.322444,-0.422738 -0.149609,-1.294782 -0.885333,-1.635564 -0.238507,-0.11048 -0.29024,-0.153556 -0.362391,-0.301814 -0.0429,-0.285987 -0.357983,-0.354382 -0.532098,-0.363813 z" />
</svg>
