<?xml version="1.0" encoding="UTF-8" standalone="no"?>
<!-- Created with Inkscape (http://www.inkscape.org/) -->
<svg
   width="32"
   height="32"
   version="1.1"
   xmlns="http://www.w3.org/2000/svg">
  <path d="m 22.009372,2.0500001 c -4.149348,6e-7 -7.532215,3.3836681 -7.532214,7.5339959 -10e-7,0.589981 0.07189,1.163103 0.201092,1.714579 H 4.086684 C 2.391836,11.298575 1,12.690738 1,14.385991 v 12.47464 C 1,28.555884 2.391836,29.95 4.086684,29.95 H 27.913316 C 29.608165,29.95 31,28.555884 31,26.860631 v -12.47464 c 0,-1.213058 -0.713169,-2.267406 -1.739555,-2.771058 0.181822,-0.646984 0.281141,-1.327089 0.281141,-2.030937 0,-4.1503282 -3.382867,-7.5339959 -7.532214,-7.5339959 z m 0,1.7985511 c 3.176937,0 5.732136,2.5577562 5.732136,5.7354448 0,3.177688 -2.555199,5.733492 -5.732136,5.733492 -3.176937,-1e-6 -5.734089,-2.555804 -5.734089,-5.733492 0,-3.1776883 2.557152,-5.7354444 5.734089,-5.7354448 z M 4.086684,13.099079 h 11.267084 c 1.266342,2.386009 3.774945,4.018913 6.655604,4.018913 2.808851,0 5.267127,-1.551916 6.56189,-3.841205 0.380217,0.219622 0.630612,0.62416 0.630612,1.109204 v 12.47464 c 0,0.72934 -0.559394,1.288865 -1.288558,1.288865 H 4.086684 c -0.729163,0 -1.288558,-0.559525 -1.288558,-1.288865 v -12.47464 c 0,-0.729339 0.559395,-1.286912 1.288558,-1.286912 z m 11.805936,2.68904 c -2.651525,0 -4.806717,2.157653 -4.806717,4.809805 0,2.652154 2.155192,4.811759 4.806717,4.811759 2.651526,0 4.810621,-2.159605 4.810621,-4.811759 0,-2.652152 -2.159095,-4.809805 -4.810621,-4.809805 z m 0,0.763554 c 2.238973,0 4.047247,1.806749 4.047247,4.046251 0,2.239503 -1.808274,4.048206 -4.047247,4.048205 -2.238973,0 -4.043343,-1.808702 -4.043343,-4.048205 0,-2.239502 1.80437,-4.046251 4.043343,-4.046251 z m 0,0.791424 c -0.485967,0.0074 -0.513471,0.264592 -0.513471,0.769858 -0.712996,0.175946 -1.309248,0.61847 -1.309248,1.504733 0,1.236085 2.788535,1.355432 2.788535,2.108585 0,0.873293 -1.737802,0.133359 -2.354137,-0.155979 -0.301874,-0.07903 -0.552572,0.288261 -0.508934,0.597308 0.06996,0.495458 0.853169,0.822525 1.383784,0.930914 0,0.565519 0.03148,0.805879 0.513471,0.810907 0.481997,0.005 0.509567,-0.289126 0.509567,-0.810907 0.866243,-0.111462 1.573399,-0.446577 1.573399,-1.456245 0,-1.393168 -2.711149,-1.440083 -2.711149,-2.038245 0,-1.020143 1.320252,-0.32176 1.975313,-0.09576 0.309457,0.04008 0.523735,-0.154284 0.523735,-0.466399 0,-0.497874 -0.788203,-0.782001 -1.361298,-0.928895 0,-0.481021 -0.0236,-0.777234 -0.509567,-0.769859 z" />
</svg>
