<?xml version="1.0" encoding="UTF-8" standalone="no"?>
<!-- Created with Inkscape (http://www.inkscape.org/) -->
<svg
   width="32"
   height="32"
   version="1.1"
   xmlns="http://www.w3.org/2000/svg">
  <path d="M 16,1.0000001 C 7.7298304,1.0000001 1.0000002,7.7298297 1.0000002,16 1.0000002,24.27017 7.7298304,31 16,31 24.27017,31 31,24.27017 31,16 31,7.7298297 24.27017,1.0000001 16,1.0000001 Z m 0,2.3809524 C 22.983409,3.3809525 28.619047,9.0165917 28.619047,16 28.619047,22.983409 22.983409,28.619047 16,28.619047 9.0165914,28.619047 3.3809526,22.983409 3.3809526,16 3.3809526,9.0165917 9.0165914,3.3809525 16,3.3809525 Z m -1.60759,3.6242612 v 1.29633 c -2.223851,0.548648 -3.842448,2.1455403 -3.842448,4.9091613 0,2.763621 2.536613,3.610618 4.683516,4.240376 1.688896,0.515257 3.073781,0.984964 3.073781,1.830092 0,0.845128 -0.573439,1.338541 -1.832446,1.302751 -2.64373,-0.07515 -3.717263,-1.264957 -5.00949,-1.603175 -0.941547,-0.246434 -1.8530475,0.753249 -1.7169495,1.716949 0.3071095,2.174624 2.9890335,2.697701 4.6440365,3.035689 v 1.234273 c 0,0.884495 0.711785,1.596279 1.596279,1.596279 0.884495,0 1.59628,-0.711784 1.59628,-1.596279 v -1.110155 c 2.70183,-0.347566 5.148661,-1.436642 5.148661,-4.585081 0,-3.14844 -2.994863,-4.185595 -5.141766,-4.90123 -1.66027,-0.572511 -3.120158,-0.971958 -3.120158,-1.730345 0,-0.758388 0.544036,-1.217419 1.603175,-1.217419 1.620089,0.102665 2.777755,0.999914 4.12171,1.173938 0.965206,0.124981 1.746255,-0.743685 1.746255,-1.71695 0,-0.744258 -0.401101,-1.3176003 -1.030859,-1.6324793 -1.050096,-0.525058 -2.186369,-0.881843 -3.327018,-1.053273 v -1.189452 c 0,-0.813301 -0.653692,-1.468715 -1.59628,-1.468715 -0.942589,0 -1.596279,0.655414 -1.596279,1.468715 z" />
</svg>
