<?xml version="1.0" encoding="UTF-8" standalone="no"?>
<svg
   xmlns="http://www.w3.org/2000/svg"
   version="1.1"
   width="22.717487"
   height="36">
  <path d="m 3.6907128,25.113848 c -8.888e-4,1.232427 1.0002931,2.236258 2.2368261,2.236 l 10.8410371,0.01351 c 1.238257,0.0018 2.239919,-0.997893 2.239661,-2.234426 L 19.024947,8.0998262 C 19.026747,6.8635154 18.026387,5.865738 16.790743,5.8582268 L 5.9509789,5.8511157 C 4.7153526,5.8440046 3.7130062,6.849231 3.7096106,8.0833818 Z m 7.6506642,7.475927 c 1.063262,-0.0027 1.925973,-0.858853 1.927218,-1.92167 8.89e-4,-1.062818 -0.858862,-1.925973 -1.921671,-1.927218 -1.060649,-0.0036 -1.924035,0.859085 -1.9250572,1.919955 -0.00178,1.066711 0.8588612,1.925973 1.9195102,1.928933 m 2.08736,-28.1260633 -4.1134835,-0.00267 0.00178,0.6628443 4.1112965,0.00444 z M 4.9392103,2.0000057 17.809393,2.0146724 c 2.015546,-4.445e-4 3.647502,1.6367373 3.646008,3.6520434 L 21.428379,30.3523 c -0.0018,2.017253 -1.636728,3.647493 -3.654221,3.647706 l -12.8682366,-0.0144 c -2.015315,-0.0018 -3.6494479,-1.63696 -3.6438213,-3.653777 L 1.2871668,5.6460402 c 0.00356,-2.0170394 1.6386751,-3.64727 3.6520435,-3.6459989" />
</svg>
