<?xml version="1.0" encoding="UTF-8" standalone="no"?>
<!-- Created with Inkscape (http://www.inkscape.org/) -->
<svg
   width="32"
   height="32"
   version="1.1"
   xmlns="http://www.w3.org/2000/svg">
  <path d="m 9.9589966,1.0000019 c -1.894339,-0.00119 -3.432232,1.5282732 -3.435544,3.4191747 L 6.5000126,27.55942 c -0.0053,1.890693 1.531561,3.42526 3.427732,3.426959 l 12.1093644,0.01362 c 1.898222,-2e-4 3.435791,-1.53002 3.437497,-3.421121 L 25.5,4.438637 C 25.501401,2.5493604 23.964752,1.0132074 22.068362,1.0136241 Z M 21.59766,2.7786734 c 1.162593,0.00704 2.103267,0.9427158 2.101561,2.101712 l -0.02343,22.2256096 c 2.43e-4,1.159206 -0.942367,2.095628 -2.107421,2.093929 H 10.369153 C 9.2057246,29.200165 8.2648026,28.261351 8.2656386,27.105995 l 0.02344,-22.2275556 c 0,-1.4583589 1.043745,-2.093928 2.1093734,-2.093928 z M 11.005037,23.232768 c -0.951775,6.79e-4 -1.7228839,0.769813 -1.7225419,1.718132 -3.42e-4,0.948319 0.7707669,1.717453 1.7225419,1.718133 0.952499,3.39e-4 1.724737,-0.769094 1.724395,-1.718133 3.42e-4,-0.949039 -0.771896,-1.718473 -1.724395,-1.718132 z m 5.002783,0 c -0.952499,-3.41e-4 -1.724736,0.769093 -1.724395,1.718132 -3.41e-4,0.949039 0.771896,1.718472 1.724395,1.718133 0.952499,3.39e-4 1.724736,-0.769094 1.724395,-1.718133 3.41e-4,-0.949039 -0.771896,-1.718473 -1.724395,-1.718132 z m 5.000931,0 c -0.951775,6.79e-4 -1.722883,0.769814 -1.722542,1.718132 -3.41e-4,0.948319 0.770767,1.717453 1.722542,1.718133 0.952499,3.39e-4 1.724736,-0.769094 1.724395,-1.718133 3.41e-4,-0.949039 -0.771896,-1.718473 -1.724395,-1.718132 z" />
</svg>
