<?xml version="1.0" encoding="UTF-8" standalone="no"?>
<svg
   xmlns="http://www.w3.org/2000/svg"
   version="1.1"
   width="36"
   height="27.69231">
  <path d="m 33.999998,6.3891374 c 0,0.5067912 -0.144796,1.0135734 -0.579186,1.3755645 L 18.506785,22.75113 15.683256,25.574659 c -0.43439,0.361991 -0.868778,0.579191 -1.447964,0.579191 -0.506788,0 -1.013575,-0.2172 -1.375565,-0.579191 L 2.579183,15.294116 C 2.1447945,14.859725 1.9999981,14.425343 1.9999981,13.846151 c 0,-3.042785 1.9986318,-4.7782756 4.7782803,-4.7782756 0.5067876,0 1.0135743,0.2171911 1.3755654,0.5791822 L 14.235292,15.728507 27.846151,2.1176465 c 0.361992,-0.3619912 0.868779,-0.5791858 1.375567,-0.5791858 2.951304,0 4.77828,2.0459037 4.77828,4.8506767 z" />
</svg>
