<?xml version="1.0" encoding="UTF-8" standalone="no"?>
<!-- Created with Inkscape (http://www.inkscape.org/) -->
<svg
   width="32"
   height="32"
   version="1.1"
   xmlns="http://www.w3.org/2000/svg">
  <path d="M 31,9.0323503 C 31,9.5058825 30.864254,9.9794067 30.457014,10.317644 24.913536,15.864218 19.382369,21.423019 13.828055,26.958819 13.420814,27.297054 13.013575,27.5 12.470588,27.5 c -0.475113,0 -0.950226,-0.202946 -1.289592,-0.541181 l -9.63801,-9.60588 c -0.4072393,-0.405885 -0.5429859,-0.81176 -0.5429859,-1.352943 0,-2.843101 1.8737173,-4.4647 4.4796378,-4.4647 0.4751134,0 0.950226,0.202937 1.2895926,0.541173 L 12.470588,17.758822 25.230769,5.0411767 C 25.570136,4.7029412 26.045249,4.5000001 26.520363,4.5000001 29.28721,4.5000001 31,6.4116408 31,9.0323503 Z" />
</svg>
