<?xml version="1.0" encoding="UTF-8" standalone="no"?>
<svg
   xmlns="http://www.w3.org/2000/svg"
   version="1.1"
   width="36"
   height="36">
  <path d="m 20.703196,10.621006 v 9.351597 c 0,0.219178 -0.07306,0.365297 -0.219177,0.511416 -0.146119,0.146118 -0.292238,0.219177 -0.511416,0.219177 h -6.648402 c -0.219177,0 -0.365296,-0.07306 -0.511416,-0.219177 -0.07306,-0.146119 -0.146118,-0.292238 -0.146118,-0.511416 v -1.315068 c 0,-0.219178 0.07306,-0.365297 0.146118,-0.438356 0.14612,-0.146119 0.292239,-0.21918 0.511416,-0.21918 h 4.675798 v -7.378993 c 0,-0.146119 0.07306,-0.292238 0.21918,-0.438358 0.07306,-0.146117 0.219178,-0.2191776 0.438356,-0.2191776 h 1.315068 c 0.219178,0 0.365297,0.07306 0.511416,0.2191776 0.146118,0.14612 0.219177,0.292239 0.219177,0.438358 z m 10.159903,7.378993 c 0,-2.258208 -0.580913,-4.355117 -1.659753,-6.290724 C 28.041516,9.7736669 26.464749,8.2413115 24.473043,7.1122058 22.481338,6.0637522 20.323658,5.4991994 17.999999,5.4991994 c -2.323656,0 -4.481336,0.5645528 -6.473042,1.6130064 C 9.5352512,8.2413115 7.9584851,9.7736669 6.7966556,11.709275 5.7178157,13.644882 5.136901,15.741791 5.136901,17.999999 c 0,2.258211 0.5809147,4.355119 1.6597546,6.290726 1.1618295,1.935609 2.7385956,3.467965 4.7303014,4.597071 1.991706,1.048453 4.149386,1.613005 6.473042,1.613005 2.323659,0 4.481339,-0.564552 6.473044,-1.613005 1.991706,-1.129106 3.568473,-2.661462 4.730303,-4.597071 1.07884,-1.935607 1.659753,-4.032515 1.659753,-6.290726 z m 3.136901,0 c 0,2.922376 -0.657533,5.625572 -2.118721,8.036532 -1.461187,2.484017 -3.360731,4.383561 -5.844748,5.844748 C 23.625571,33.342467 20.922375,34 17.999999,34 15.077625,34 12.37443,33.342467 9.9634704,31.881279 7.4794523,30.420092 5.5799092,28.520548 4.1187222,26.036531 2.657535,23.625571 2,20.922375 2,17.999999 2,15.077625 2.657535,12.37443 4.1187222,9.9634704 5.5799092,7.4794523 7.4794523,5.5799092 9.9634704,4.1187222 12.37443,2.657535 15.077625,2 17.999999,2 c 2.922376,0 5.625572,0.657535 8.036532,2.1187222 2.484017,1.461187 4.383561,3.3607301 5.844748,5.8447482 C 33.342467,12.37443 34,15.077625 34,17.999999 Z" />
</svg>
