<?xml version="1.0" encoding="UTF-8" standalone="no"?>
<!-- Created with Inkscape (http://www.inkscape.org/) -->
<svg
   width="32"
   height="32"
   version="1.1"
   xmlns="http://www.w3.org/2000/svg">
  <path d="M 16 1 C 7.733156 1 1 7.7331561 1 16 C 1 24.266844 7.733156 31 16 31 C 24.266844 31 31 24.266844 31 16 C 31 7.7331561 24.266844 1 16 1 z M 16 3.9765625 C 22.658304 3.9765625 28.023438 9.3416955 28.023438 16 C 28.023438 22.658304 22.658304 28.023438 16 28.023438 C 9.3416954 28.023438 3.9765625 22.658304 3.9765625 16 C 3.9765625 9.3416955 9.3416954 3.9765625 16 3.9765625 z M 15.974609 6.5722656 C 15.039082 6.5722656 14.537315 7.2737113 14.537109 7.9472656 L 14.539062 13.929688 A 2.540369 2.540369 0 0 0 13.939453 14.525391 L 11.232422 14.525391 C 10.411114 14.525998 9.7463207 15.192365 9.7460938 16.013672 C 9.7456688 16.835906 10.412141 17.503955 11.234375 17.503906 L 13.958984 17.501953 A 2.540369 2.540369 0 0 0 16 18.541016 A 2.540369 2.540369 0 0 0 18.541016 16 A 2.540369 2.540369 0 0 0 17.513672 13.958984 L 17.513672 7.9472656 C 17.513064 7.1259584 16.899112 6.5722656 15.974609 6.5722656 z " />
</svg>
