<?xml version="1.0" encoding="UTF-8" standalone="no"?>
<svg
   xmlns="http://www.w3.org/2000/svg"
   version="1.1"
   width="36"
   height="30.867188">
  <path d="m 34,13.152344 c 0,2.0625 -0.687499,4 -2.125,5.75 -1.4375,1.75 -3.374999,3.125 -5.8125,4.125 -2.499999,1.0625 -5.1875,1.5625 -8.062499,1.5625 -0.812501,0 -1.6875,-0.0625 -2.562501,-0.125 -2.375,2.0625 -4.596737,3.377669 -7.7217373,4.190169 -1.0248879,0.279375 -2.434091,0.533301 -3.2062614,0.238358 -0.3429667,-0.341119 -0.1877804,-0.853865 0.3029989,-1.491027 1.5638961,-1.709735 2.5787745,-3.380423 3.2499998,-5.3125 -1.875,-1.0625 -3.375,-2.375 -4.4375,-3.9375 -1.0625,-1.5625 -1.625,-3.1875 -1.625,-5 0,-1.5625 0.4375,-3 1.25,-4.4375002 0.875,-1.4375001 2.0000002,-2.6250001 3.4375,-3.6250001 1.4375,-1.0625 3.1250001,-1.8749999 5.125001,-2.4374999 1.937499,-0.625 4,-0.9375001 6.1875,-0.9375001 2.874999,0 5.5625,0.5000001 8.062499,1.5625001 2.437501,0.9999999 4.375,2.3749999 5.8125,4.1249999 C 33.312501,9.1523438 34,11.089844 34,13.152344 Z" />
</svg>
