<?xml version="1.0" encoding="UTF-8" standalone="no"?>
<!-- Created with Inkscape (http://www.inkscape.org/) -->
<svg
   width="32"
   height="32"
   version="1.1"
   xmlns="http://www.w3.org/2000/svg">
  <path d="M 14.828505,3 C 9.0274658,3.0621297 1,6.0126027 1,12.988862 1,16.183348 3.2815501,18.778854 6.1888475,20.544446 5.6052596,22.208031 4.7222104,23.645281 3.3625048,25.117421 2.9358049,25.666038 2.800815,26.107884 3.0990016,26.4016 3.7703524,26.655557 4.9963699,26.43682 5.8874431,26.196276 8.6044261,25.496686 10.534649,24.36457 12.599555,22.588687 19.23818,23.320308 28.721981,20.126901 28.721981,12.922222 28.721981,7.8690853 23.195768,3 14.828505,3 Z m 15.02446,10.934956 c -0.01101,6.886588 -8.593581,10.71083 -14.708618,10.190063 1.371818,1.249298 5.94561,2.202126 7.154789,2.081835 1.469012,1.263395 2.844439,2.068856 4.77735,2.566556 0.633926,0.171133 1.505882,0.326558 1.983493,0.145889 0.212136,-0.208954 0.115862,-0.522857 -0.187701,-0.913154 -0.96732,-1.04731 -1.595391,-2.07107 -2.010565,-3.254574 4.068176,-2.363656 5.282526,-7.853488 2.991252,-10.816615 z" />
</svg>
