<?xml version="1.0" encoding="UTF-8" standalone="no"?>
<svg
   xmlns="http://www.w3.org/2000/svg"
   version="1.1"
   width="36"
   height="28.293203">
  <path d="m 14.558667,1.6078329 c -1.717004,0 -3.335165,0.2495829 -4.8559397,0.7497712 C 8.1328948,2.8077737 6.8068814,3.4578605 5.6785648,4.3081807 4.5502482,5.1084821 3.6669709,6.0592057 2.9801697,7.2096389 2.3424255,8.3600723 2,9.5108192 2,10.761289 c 0,1.450547 0.4410284,2.750261 1.2750015,4.000733 0.8339731,1.25047 2.0115949,2.30106 3.4833119,3.151381 -0.5268551,1.546245 -1.3224765,2.884304 -2.5500029,4.252609 -0.3852203,0.50992 -0.5074081,0.919997 -0.2382087,1.192995 0.6060892,0.236043 1.7123594,0.03224 2.5168101,-0.191348 2.4528621,-0.650244 4.1964761,-1.70187 6.0606501,-3.352493 0.686802,0.05002 1.373361,0.09958 2.011105,0.09958 2.256633,0 4.365858,-0.401252 6.328147,-1.251572 1.913232,-0.800302 3.434744,-1.899246 4.56306,-3.299774 1.128318,-1.400528 1.667461,-2.951488 1.667461,-4.602111 0,-1.6506206 -0.539143,-3.2015832 -1.667461,-4.6021107 C 24.321558,4.7586507 22.800046,3.6577529 20.886814,2.8574515 18.924525,2.0071312 16.8153,1.6078329 14.558667,1.6078329 Z m 14.433095,6.435536 c 2.717061,9.5525201 -8.122854,14.8551791 -15.995118,14.0582101 0.850225,0.5347 1.544047,0.957661 3.135762,1.53664 1.591714,0.578978 3.052294,0.837635 5.308927,0.837635 0.637744,0 1.324303,-0.04956 2.011104,-0.09958 2.681346,1.707561 7.585361,2.759098 8.116664,2.120447 0.313734,-0.377122 0.119676,-0.511252 -0.265544,-1.021172 -0.874732,-0.999694 -1.535017,-1.452841 -2.061871,-2.999085 1.471717,-0.850321 2.64934,-1.900911 3.483312,-3.151382 C 33.558972,18.074611 34,16.772944 34,15.322397 34,14.071927 33.657574,12.923132 33.01983,11.772699 31.867367,9.5138519 29.393469,8.2761034 28.991762,8.0433689 Z" />
</svg>
