<?xml version="1.0" encoding="UTF-8" standalone="no"?>
<svg
   xmlns="http://www.w3.org/2000/svg"
   version="1.1"
   width="36"
   height="36">
  <path d="m 23.333333,18 c 0,-1.461188 -0.511416,-2.703196 -1.534247,-3.799087 C 20.703196,13.178082 19.461187,12.666667 18,12.666667 c -1.461188,0 -2.703196,0.511415 -3.799087,1.534246 -1.022831,1.095891 -1.534246,2.337899 -1.534246,3.799087 0,1.461187 0.511415,2.703196 1.534246,3.799086 1.095891,1.022831 2.337899,1.534247 3.799087,1.534247 1.461187,0 2.703196,-0.511416 3.799086,-1.534247 C 22.821917,20.703196 23.333333,19.461187 23.333333,18 Z M 34,15.73516 v 4.60274 c 0,0.219177 0,0.365296 -0.146119,0.511415 -0.07306,0.146119 -0.219178,0.219177 -0.438357,0.292237 l -3.799086,0.584475 c -0.292237,0.730593 -0.584475,1.388128 -0.876713,1.899544 0.511416,0.657534 1.24201,1.607305 2.264841,2.849314 0.146118,0.146119 0.219178,0.365297 0.219178,0.511416 0,0.219178 -0.07306,0.365297 -0.219178,0.511415 -0.365297,0.511416 -1.022831,1.242009 -2.045662,2.26484 -1.022831,0.949772 -1.680365,1.461188 -1.972603,1.461188 -0.146119,0 -0.365297,-0.07306 -0.511416,-0.219178 l -2.922374,-2.264841 c -0.584475,0.365297 -1.242009,0.584476 -1.899543,0.803654 -0.219179,1.899543 -0.438356,3.214611 -0.584476,3.872145 C 20.995434,33.853881 20.703196,34 20.3379,34 h -4.6758 c -0.146119,0 -0.365296,0 -0.511416,-0.146119 -0.146118,-0.146119 -0.219177,-0.292237 -0.219177,-0.438357 l -0.584475,-3.872145 c -0.657534,-0.219178 -1.315068,-0.438357 -1.899544,-0.730594 l -2.9223742,2.191781 c -0.1461182,0.146118 -0.2922373,0.219178 -0.5114151,0.219178 -0.2191787,0 -0.3652969,-0.07306 -0.511416,-0.219178 C 6.7488587,29.39726 5.5799084,28.22831 5.0684933,27.497716 4.9223742,27.351598 4.9223742,27.205479 4.9223742,26.986301 c 0,-0.146119 0,-0.292237 0.1461191,-0.438356 C 5.2876711,26.255708 5.652968,25.744292 6.0913244,25.159817 6.6027396,24.502283 6.9680365,23.990868 7.2602738,23.625571 6.8949769,22.968036 6.6027396,22.237443 6.3835618,21.579908 L 2.5844747,20.995434 c -0.2191778,0 -0.3652969,-0.07306 -0.4383565,-0.219179 C 2,20.630137 2,20.484018 2,20.26484 V 15.6621 C 2,15.442922 2,15.296804 2.1461182,15.150684 2.219176,15.004566 2.3652969,14.931507 2.5114151,14.858447 L 6.3835618,14.273972 C 6.6027396,13.689498 6.8949769,13.031964 7.2602738,12.374429 6.6757991,11.570776 5.9452053,10.621005 4.9954338,9.5251138 4.8493147,9.305936 4.7762551,9.1598169 4.7762551,9.0136987 c 0,-0.1461191 0.073058,-0.2922374 0.2191787,-0.511416 C 5.3607307,7.9908676 6.0182649,7.2602738 7.041096,6.3105022 8.0639271,5.2876711 8.7214613,4.7762551 9.0136987,4.7762551 c 0.1461182,0 0.3652969,0.073058 0.5114151,0.2191787 l 2.9223742,2.26484 C 13.031964,6.8949769 13.689498,6.6757991 14.347032,6.4566205 14.56621,4.5570773 14.785388,3.2420089 14.931507,2.5844747 15.004566,2.1461182 15.296804,2 15.6621,2 h 4.6758 c 0.146118,0 0.365296,0 0.511415,0.1461182 0.146119,0.1461191 0.219177,0.2922382 0.219177,0.4383565 l 0.584476,3.8721458 c 0.657534,0.2191786 1.315068,0.4383564 1.899543,0.7305937 l 2.922374,-2.1917804 c 0.146119,-0.1461191 0.292238,-0.2191787 0.511416,-0.2191787 0.219178,0 0.365297,0.073058 0.511415,0.2191787 1.826485,1.6803653 2.995434,2.8493147 3.433791,3.5799084 0.146118,0.073058 0.146118,0.2191778 0.146118,0.4383565 0,0.1461182 0,0.2922373 -0.146118,0.4383555 -0.219179,0.2922383 -0.584475,0.8036538 -1.022831,1.3881278 -0.511416,0.657535 -0.876713,1.16895 -1.168951,1.534247 0.365297,0.657535 0.657535,1.315069 0.876713,2.045662 l 3.799086,0.584475 c 0.219179,0 0.365297,0.07306 0.438357,0.219178 C 34,15.369863 34,15.515981 34,15.73516 Z" />
</svg>
