<?xml version="1.0" encoding="UTF-8" standalone="no"?>
<!-- Created with Inkscape (http://www.inkscape.org/) -->
<svg
   width="32"
   height="32"
   version="1.1"
   xmlns="http://www.w3.org/2000/svg">
  <path d="M 13.808092,0.99999903 C 13.378991,0.99999904 13.158577,1.3416825 13.099891,1.757023 12.938843,2.9065894 12.769164,4.1303331 12.598492,5.2416749 11.976342,5.439979 11.376697,5.6921501 10.805556,5.9908945 9.8731126,5.3094363 8.9449788,4.6041247 7.9805559,3.877861 7.6453882,3.6256672 7.2480133,3.5393005 6.9445929,3.8427412 L 3.8425571,6.9430278 C 3.5391418,7.246468 3.6255022,7.6438694 3.8776741,7.979058 c 0.6997537,0.9286679 1.4454753,1.9156899 2.112896,2.823232 -0.2998375,0.572233 -0.5521423,1.173441 -0.7511218,1.796955 -1.1383478,0.172543 -2.290981,0.331541 -3.4824742,0.499481 -0.4153159,0.05869 -0.7569753,0.279117 -0.75697488,0.708247 v 4.386056 c 3.58e-6,0.429125 0.34166328,0.649557 0.75697488,0.708247 1.1501399,0.161017 2.3744873,0.330654 3.486376,0.501431 0.1991516,0.621434 0.4517617,1.220688 0.751122,1.791103 -0.6866397,0.9303 -1.3901285,1.861153 -2.116798,2.827133 -0.2521776,0.33519 -0.338539,0.732591 -0.035117,1.036031 l 3.1020358,3.100286 c 0.30342,0.303435 0.7007965,0.217069 1.035963,-0.03512 0.9326757,-0.702795 1.9223845,-1.450206 2.8347541,-2.120838 0.568437,0.296772 1.164299,0.547985 1.783182,0.745317 0.172292,1.143532 0.332552,2.299167 0.501399,3.496359 0.05869,0.415342 0.279098,0.757023 0.708201,0.757023 h 4.385771 c 0.429098,-3e-6 0.647565,-0.341685 0.70625,-0.757023 0.163009,-1.156261 0.334886,-2.385274 0.5053,-3.504163 0.615087,-0.197702 1.208349,-0.447382 1.773428,-0.743367 0.934984,0.691261 1.87014,1.395982 2.842557,2.126692 0.335168,0.252193 0.730592,0.33856 1.034013,0.03512 l 3.102035,-3.100286 c 0.303416,-0.303439 0.217057,-0.700842 -0.03512,-1.036031 -0.704978,-0.936018 -1.45457,-1.929619 -2.130455,-2.842742 0.295668,-0.56529 0.545959,-1.158274 0.743318,-1.773543 1.147808,-0.173075 2.306264,-0.333896 3.507837,-0.503382 0.415316,-0.05869 0.756975,-0.279118 0.756975,-0.708247 V 13.806973 C 31,13.377844 30.658339,13.157415 30.243026,13.098726 29.086631,12.936687 27.858429,12.765845 26.73909,12.595344 26.541978,11.978603 26.291653,11.384488 25.995773,10.817899 26.6871,9.8843364 27.391938,8.9499804 28.122326,7.979058 28.374504,7.643868 28.460864,7.2464676 28.157446,6.9430278 L 25.055411,3.8427412 C 24.751991,3.5393015 24.356565,3.6256702 24.021398,3.8778615 23.089084,4.5806777 22.098529,5.3291413 21.186645,5.9986994 20.618523,5.7006146 20.0222,5.448169 19.403462,5.2494793 19.230538,4.1073634 19.06963,2.9526462 18.900113,1.757023 18.841427,1.3416825 18.622964,0.99999903 18.193863,0.99999903 Z m 2.18118,9.70863697 c 2.954546,0 5.287118,2.330772 5.287117,5.285512 0,2.954738 -2.332571,5.287461 -5.287117,5.287461 -2.954547,1e-6 -5.285167,-2.332723 -5.285167,-5.287461 0,-2.95474 2.33062,-5.285512 5.285167,-5.285512 z" />
</svg>
