<?xml version="1.0" encoding="UTF-8" standalone="no"?>
<svg
   xmlns="http://www.w3.org/2000/svg"
   version="1.1"
   width="36"
   height="28.293203">
  <path d="m 27.125,10.696842 c 0,1.6875 -0.5625,3.1875 -1.6875,4.625 -1.0625,1.375 -2.625,2.5 -4.5625,3.3125 -1.9375,0.8125 -4,1.25 -6.3125,1.25 -1,0 -2.0625,-0.125 -3.124999,-0.3125 -1.500001,1.0625 -3.125001,1.8125 -5.000001,2.3125 -0.375,0.0625 -0.9375,0.1875 -1.5,0.25 H 4.875 c -0.125,0 -0.25,0 -0.375,-0.125 -0.125,-0.125 -0.1875,-0.25 -0.1875,-0.375 0,-0.0625 0,-0.0625 0,-0.125 0,-0.0625 0,-0.0625 -0.0625,-0.125 0,0 0.0625,-0.0625 0.0625,-0.0625 l 0.0625,-0.125 0.062499,-0.0625 0.0625,-0.125 0.062499,-0.0625 0.0625,-0.125 c 0.062502,-0.0625 0.187502,-0.1875 0.437502,-0.4375 0.1875,-0.1875 0.375,-0.375 0.4375,-0.5 0.125,-0.125 0.25,-0.3125 0.4375,-0.5 0.125,-0.25 0.3125,-0.5 0.4375,-0.6875 0.125,-0.25 0.25,-0.5 0.375,-0.8125 -1.5,-0.875 -2.625,-1.9375 -3.5,-3.1875 -0.875,-1.25 -1.25,-2.5625 -1.25,-4 0,-1.6249996 0.5625,-3.1874996 1.6875,-4.5624996 1.0625,-1.375 2.625,-2.5 4.5625,-3.3125 1.9375,-0.8125 4,-1.25 6.3125,-1.25 2.25,0 4.375,0.4375 6.3125,1.25 1.9375,0.8125 3.4375,1.9375 4.5625,3.3125 1.125,1.375 1.6875,2.9375 1.6875,4.5624996 z m 6.875,4.625 c 0,1.375 -0.4375,2.75 -1.25,4 -0.875,1.25 -2,2.25 -3.5,3.125 0.125,0.3125 0.25,0.5625 0.375,0.8125 0.125,0.25 0.25,0.4375 0.4375,0.6875 0.1875,0.1875 0.3125,0.375 0.375,0.5 0.125,0.125 0.25,0.3125 0.5,0.5 0.1875,0.25 0.3125,0.375 0.375,0.5 0.0625,0 0.0625,0 0.125,0.0625 0,0.0625 0.0625,0.0625 0.0625,0.0625 0,0.0625 0.0625,0.0625 0.0625,0.125 0,0 0.0625,0.0625 0.0625,0.0625 l 0.0625,0.125 v 0.0625 0.125 0.125 c 0,0.187499 -0.125,0.312499 -0.25,0.375 -0.0625,0.125 -0.25,0.187499 -0.375,0.125 -0.562499,-0.0625 -1.125,-0.125 -1.5,-0.25 -1.875,-0.5 -3.5,-1.25 -5,-2.312501 -1.062499,0.187501 -2.125,0.312501 -3.125,0.312501 -3.25,0 -6.062499,-0.812501 -8.437499,-2.375 0.6875,0.0625 1.1875,0.0625 1.5625,0.0625 1.9375,0 3.749999,-0.25 5.499999,-0.812499 1.812501,-0.5 3.375,-1.25 4.75,-2.25 1.5,-1.125 2.625,-2.375 3.437501,-3.8125 0.75,-1.4375 1.187499,-2.9375 1.187499,-4.5625 0,-0.8749998 -0.125,-1.8124998 -0.437499,-2.6874998 1.562499,0.875 2.75,1.875 3.687499,3.1874998 C 33.5625,12.446842 34,13.821842 34,15.321842 Z" />
</svg>
