<?xml version="1.0" encoding="UTF-8" standalone="no"?>
<svg
   xmlns="http://www.w3.org/2000/svg"
   version="1.1"
   width="36"
   height="30.867188">
  <path d="m 34,13.152344 c 0,2.0625 -0.687499,4 -2.125,5.75 -1.4375,1.75 -3.374999,3.125 -5.8125,4.125 -2.499999,1.0625 -5.1875,1.5625 -8.062499,1.5625 -0.812501,0 -1.6875,-0.0625 -2.562501,-0.125 -2.375,2.0625 -5.125,3.5 -8.25,4.3125 -0.5625,0.125 -1.25,0.25 -2,0.375 -0.25,0 -0.4374999,0 -0.5625,-0.1875 -0.1875,-0.125 -0.2499999,-0.25 -0.3125,-0.5 v 0 c -0.0625,-0.0625 -0.0625,-0.125 0,-0.25 0,-0.0625 0,-0.125 0,-0.125 0,-0.0625 0.0625,-0.125 0.125,-0.1875 l 0.0625,-0.1875 0.125,-0.125 0.1875002,-0.1875 c 0.062499,-0.0625 0.2499998,-0.3125 0.4999999,-0.625 0.3125,-0.3125 0.5,-0.5 0.6249999,-0.625 0.1250001,-0.1875 0.3125001,-0.375 0.5625001,-0.75 0.2499999,-0.3125 0.4375,-0.625 0.5624999,-0.875 0.1875,-0.3125 0.3125002,-0.625 0.5,-1.0625 0.1875002,-0.4375 0.3125001,-0.875 0.5,-1.375 -1.875,-1.0625 -3.375,-2.375 -4.4375,-3.9375 -1.0625,-1.5625 -1.625,-3.1875 -1.625,-5 0,-1.5625 0.4375,-3 1.25,-4.4375002 0.875,-1.4375001 2.0000002,-2.6250001 3.4375,-3.6250001 1.4375,-1.0625 3.1250001,-1.8749999 5.125001,-2.4374999 1.937499,-0.625 4,-0.9375001 6.1875,-0.9375001 2.874999,0 5.5625,0.5000001 8.062499,1.5625001 2.437501,0.9999999 4.375,2.3749999 5.8125,4.1249999 C 33.312501,9.1523438 34,11.089844 34,13.152344 Z" />
</svg>
