<?xml version="1.0" encoding="UTF-8" standalone="no"?>
<!-- Created with Inkscape (http://www.inkscape.org/) -->
<svg
   width="32"
   height="32"
   version="1.1"
   xmlns="http://www.w3.org/2000/svg">
  <path d="M 17.48453,1.0015381 C 12.666757,0.93268847 7.898127,3.1771225 4.9409544,7.4192715 0.20947804,14.206708 1.8814369,23.576831 8.6681985,28.308777 15.45496,33.040726 24.824152,31.368598 29.555628,24.581163 A 1.0828156,1.0829232 0 0 0 29.238429,23.04214 c -0.702665,-0.435765 -1.463262,-0.823863 -2.048202,-1.404881 -0.58494,-0.581017 -1.026789,-1.291809 -1.083915,-2.612775 a 1.0828156,1.0829232 0 0 0 -0.672464,-0.95592 c -1.657324,-0.67576 -2.602368,-2.041125 -2.808877,-3.495584 -0.206506,-1.45446 0.303788,-2.96847 1.790818,-4.049075 a 1.0828156,1.0829232 0 0 0 0.410246,-1.1523035 c -0.395208,-1.498208 0.676001,-3.372784 1.251275,-4.144548 A 1.0828156,1.0829232 0 0 0 25.828383,3.6916565 C 23.283349,1.9171763 20.375194,1.0428478 17.48453,1.0015381 Z m -0.03867,2.1535454 c 2.134589,0.03227 4.261639,0.659335 6.215295,1.79462 -0.633383,1.06154 -1.265873,2.597623 -1.037393,4.319175 -1.685914,1.5205365 -2.42429,3.6230385 -2.142455,5.6080385 0.283162,1.994355 1.563106,3.818994 3.5478,4.863 0.206257,1.502743 0.854267,2.657916 1.63554,3.433949 0.447259,0.444261 0.919509,0.786208 1.349759,1.061062 C 22.782117,29.261741 15.404319,30.365759 9.9061849,26.532283 4.0794101,22.469672 2.6550634,14.48473 6.7172709,8.6573785 9.2561506,5.0152825 13.327187,3.0928275 17.445861,3.1550835 Z m -0.36493,2.326964 a 2.0396322,2.039835 0 0 0 -2.039743,2.039946 2.0396322,2.039835 0 0 0 2.039743,2.039946 2.0396322,2.039835 0 0 0 2.039742,-2.039946 2.0396322,2.039835 0 0 0 -2.039742,-2.039946 z m -4.664342,5.9548785 a 1.6817172,1.6818844 0 0 0 -1.681458,1.681625 1.6817172,1.6818844 0 0 0 1.681458,1.68223 1.6817172,1.6818844 0 0 0 1.682063,-1.68223 1.6817172,1.6818844 0 0 0 -1.682063,-1.681625 z m -1.705021,5.937354 a 2.38229,2.3825269 0 0 0 -2.38232,2.382556 2.38229,2.3825269 0 0 0 2.38232,2.381949 2.38229,2.3825269 0 0 0 2.382316,-2.381949 2.38229,2.3825269 0 0 0 -2.382316,-2.382556 z m 7.356004,4.126419 a 2.1654146,2.1656299 0 0 0 -2.165415,2.16563 2.1654146,2.1656299 0 0 0 2.165415,2.16563 2.1654146,2.1656299 0 0 0 2.165415,-2.16563 2.1654146,2.1656299 0 0 0 -2.165415,-2.16563 z" />
</svg>
