<?xml version="1.0" encoding="UTF-8" standalone="no"?>
<!-- Created with Inkscape (http://www.inkscape.org/) -->
<svg
   xmlns="http://www.w3.org/2000/svg"
   version="1.1"
   width="33"
   height="36">
  <path d="M 18.083498,2.0016404 C 12.94454,1.9282009 7.8580018,4.3222647 4.7036844,8.8472223 -0.34322388,16.087155 1.4401989,26.081953 8.6794115,31.129363 15.918624,36.176775 25.912429,34.393172 30.959337,27.153241 a 1.1550033,1.1551181 0 0 0 -0.338346,-1.641625 c -0.749509,-0.464816 -1.560813,-0.878787 -2.184749,-1.498539 -0.623936,-0.619752 -1.095241,-1.37793 -1.156176,-2.78696 a 1.1550033,1.1551181 0 0 0 -0.717295,-1.019649 c -1.767812,-0.72081 -2.775859,-2.177199 -2.996135,-3.728623 -0.220273,-1.551423 0.32404,-3.166368 1.910206,-4.319013 a 1.1550033,1.1551181 0 0 0 0.437595,-1.229124 C 25.492882,9.3316189 26.635505,7.3320718 27.249131,6.5088575 A 1.1550033,1.1551181 0 0 0 26.983609,4.8711002 C 24.268906,2.9783212 21.166873,2.0457041 18.083498,2.0016404 Z m -0.04125,2.2971146 c 2.276895,0.034415 4.545749,0.7032908 6.629648,1.9142621 -0.675608,1.1323088 -1.350264,2.7707969 -1.106552,4.6071199 -1.798308,1.621906 -2.585909,3.864575 -2.285285,5.981908 0.302039,2.127312 1.667313,4.073594 3.78432,5.1872 0.220007,1.602926 0.911218,2.835111 1.744576,3.662879 0.477076,0.473878 0.980809,0.838622 1.439743,1.131799 -4.51444,5.361934 -12.384091,6.539554 -18.2487677,2.450513 C 3.7847038,24.900984 2.2654006,16.383712 6.598422,10.16787 9.3065604,6.2829687 13.648999,4.2323491 18.042252,4.298755 Z M 17.65299,6.7808504 A 2.1756077,2.175824 0 0 0 15.477264,8.9567928 2.1756077,2.175824 0 0 0 17.65299,11.132735 2.1756077,2.175824 0 0 0 19.828715,8.9567928 2.1756077,2.175824 0 0 0 17.65299,6.7808504 Z m -4.975299,6.3518706 a 1.7938317,1.7940101 0 0 0 -1.793555,1.793734 1.7938317,1.7940101 0 0 0 1.793555,1.794378 1.7938317,1.7940101 0 0 0 1.794201,-1.794378 1.7938317,1.7940101 0 0 0 -1.794201,-1.793734 z m -1.818689,6.333178 a 2.5411094,2.5413621 0 0 0 -2.541141,2.541393 2.5411094,2.5413621 0 0 0 2.541141,2.540746 2.5411094,2.5413621 0 0 0 2.541138,-2.540746 2.5411094,2.5413621 0 0 0 -2.541138,-2.541393 z m 7.846405,4.401514 a 2.3097756,2.3100052 0 0 0 -2.309776,2.310005 2.3097756,2.3100052 0 0 0 2.309776,2.310005 2.3097756,2.3100052 0 0 0 2.309776,-2.310005 2.3097756,2.3100052 0 0 0 -2.309776,-2.310005 z" />
</svg>
