<?xml version="1.0" encoding="UTF-8" standalone="no"?>
<!-- Created with Inkscape (http://www.inkscape.org/) -->
<svg
   width="32"
   height="32"
   version="1.1"
   xmlns="http://www.w3.org/2000/svg">
  <path d="M 4.4007393,6 C 2.5348512,6 1,7.545973 1,9.4253819 V 22.574619 C 1,24.454027 2.5348512,26 4.4007393,26 H 27.599261 C 29.465148,26 31,24.454027 31,22.574619 V 9.4253819 C 31,7.5459731 29.465148,6 27.599261,6 Z m 0,2.0505288 H 27.599261 c 0.774032,0 1.364962,0.5952121 1.364962,1.3748531 V 10.36741 H 3.0338327 V 9.4253819 c 0,-0.7796409 0.5928746,-1.3748531 1.3669066,-1.3748531 z M 3.0338327,14.687818 H 28.964223 v 7.886801 c 0,0.779639 -0.59093,1.37681 -1.364962,1.376811 H 4.4007393 c -0.774032,0 -1.3669066,-0.597172 -1.3669066,-1.376811 z m 4.1668287,4.588719 c -0.2579602,0 -0.4647093,0.210207 -0.4647093,0.522915 0,0.312708 0.2067491,0.520956 0.4647093,0.520956 h 3.1965776 c 0.257959,0 0.466653,-0.208248 0.466653,-0.520956 0,-0.312708 -0.208694,-0.522915 -0.466653,-0.522915 z m 5.2634646,0 c -0.257959,0 -0.466654,0.210207 -0.466654,0.522915 0,0.312708 0.208695,0.520956 0.466654,0.520956 h 3.196578 c 0.257958,0 0.466654,-0.208248 0.466654,-0.520956 0,-0.312708 -0.208696,-0.522915 -0.466654,-0.522915 z m 5.263465,0 c -0.25796,0 -0.466653,0.210207 -0.466653,0.522915 0,0.312708 0.208693,0.520956 0.466653,0.520956 h 3.196578 c 0.25796,0 0.464709,-0.208248 0.464709,-0.520956 0,-0.312708 -0.206749,-0.522915 -0.464709,-0.522915 z m 5.263465,0 c -0.25796,0 -0.466654,0.210207 -0.466654,0.522915 0,0.312708 0.208694,0.520956 0.466654,0.520956 h 3.196578 c 0.257959,0 0.464709,-0.208248 0.464709,-0.468077 v -0.105758 c 0,-0.259829 -0.20675,-0.470036 -0.464709,-0.470036 z" />
</svg>
