<?xml version="1.0" encoding="UTF-8" standalone="no"?>
<svg
   xmlns="http://www.w3.org/2000/svg"
   version="1.1"
   width="36"
   height="23.504732">
  <path d="M 4.2999055,22.19348 C 3.8219935,22.164147 3.367726,21.995435 2.9711564,21.698902 2.8343295,21.59659 2.6029335,21.364412 2.4997688,21.225923 2.2071639,20.833033 2.0463991,20.407699 2.0090657,19.927698 1.9969768,19.771787 1.9968879,3.7458903 2.0090657,3.5818011 2.0452436,3.0919336 2.2187994,2.6423327 2.5253244,2.2443764 2.6127024,2.1308651 2.8520184,1.8953091 2.9674141,1.8090867 3.3446771,1.5273084 3.7288645,1.3747748 4.204492,1.3177969 c 0.1363114,-0.016 27.454825,-0.016 27.591048,0 0.205342,0.024889 0.408391,0.071111 0.579156,0.1320891 0.224418,0.08 0.510099,0.2399116 0.699984,0.3909341 0.09829,0.078222 0.32632,0.3082672 0.399867,0.4035563 0.305974,0.3961785 0.480214,0.8474683 0.516419,1.3374247 0.012,0.1628448 0.012,16.1784299 0,16.3412749 -0.03618,0.489956 -0.209743,0.939468 -0.516259,1.337514 -0.08107,0.105244 -0.32456,0.346667 -0.43161,0.428 -0.128329,0.09742 -0.265787,0.182667 -0.410774,0.254756 -0.256773,0.127556 -0.485112,0.195112 -0.824286,0.243823 -0.05547,0.0089 -3.03461,0.01067 -13.73719,0.01156 -7.516494,7.11e-4 -13.7134125,0 -13.7709148,-0.0089 z M 30.569426,19.981183 c 0.163156,-0.03467 0.265627,-0.06845 0.387956,-0.128178 0.162392,-0.07911 0.292579,-0.174667 0.422677,-0.311556 0.185565,-0.195201 0.303894,-0.419646 0.371307,-0.704268 l 0.02178,-0.09173 0.0027,-4.174292 0.0027,-4.210117 H 17.999985 4.2020641 l 0.00267,4.210117 0.00267,4.174292 0.021778,0.09173 c 0.033156,0.139822 0.068622,0.239111 0.1279113,0.358223 0.2219915,0.445512 0.6617968,0.747645 1.1623577,0.798579 H 18.038118 c 1.823943,0 12.474686,0 12.531939,-0.01422 z m -16.85778,-3.73278 c -0.150044,-0.02222 -0.295067,-0.197132 -0.363102,-0.327622 -0.0448,-0.08622 -0.05973,-0.145333 -0.05973,-0.237422 0,-0.215645 0.128223,-0.420082 0.336694,-0.497326 l 0.06196,-0.02311 h 1.791621 1.79163 l 0.05831,0.01867 c 0.15176,0.048 0.268089,0.184881 0.327645,0.341504 0.01876,0.04978 0.02133,0.06844 0.02133,0.160356 0,0.09155 -0.0027,0.110933 -0.02133,0.160356 -0.06098,0.160355 -0.177822,0.343798 -0.340516,0.394287 -0.04205,0.01333 -0.177218,0.01422 -1.803755,0.01511 -0.967059,7.11e-4 -1.777407,0 -1.800767,-0.0089 z m 5.934011,0 c -0.137146,-0.01867 -0.272845,-0.103201 -0.348951,-0.21769 -0.05813,-0.08711 -0.08293,-0.243354 -0.08311,-0.349843 -9.7e-5,-0.07556 0.0036,-0.09698 0.0248,-0.158756 0.0552,-0.157689 0.163939,-0.288792 0.323903,-0.342126 l 0.05831,-0.01956 h 1.787461 1.787452 l 0.05831,0.01867 c 0.171209,0.05422 0.305449,0.225326 0.341618,0.397593 0.05316,0.253156 -0.09021,0.570199 -0.341618,0.653844 l -0.05831,0.01955 h -1.762457 c -0.969353,4.45e-4 -1.77371,-6.22e-4 -1.787461,0 z m 5.910403,0 c -0.205334,-0.03467 -0.36801,-0.264421 -0.409761,-0.466555 -0.01644,-0.08 -0.01662,-0.112711 -8.89e-4,-0.1944 0.03324,-0.173956 0.159734,-0.340793 0.337689,-0.404704 l 0.05413,-0.01956 h 1.791621 1.79163 l 0.05831,0.01867 c 0.207174,0.06578 0.353867,0.287903 0.353867,0.50177 0,0.217512 -0.149644,0.487444 -0.366427,0.554555 -0.0424,0.01333 -0.174845,0.01422 -1.808234,0.016 -0.969353,7.11e-4 -1.780217,0 -1.801924,-0.0089 z M 31.808414,5.3344507 c -0.0027,-0.5763566 -0.0036,-0.5916455 -0.02178,-0.680179 -0.02836,-0.1353781 -0.06996,-0.2551116 -0.130684,-0.3760896 -0.20673,-0.4120008 -0.587192,-0.6948458 -1.056162,-0.785157 -0.0736,-0.014222 -8.948117,-0.015111 -12.599698,-0.015111 -3.050569,0 -12.4968867,6.222e-4 -12.5704602,0.015111 C 5.1255157,3.5516918 4.9122844,3.6500563 4.661817,3.886448 4.4113497,4.1228397 4.2245896,4.387792 4.2245896,4.7282273 l -0.00356,0.5978678 -0.00356,0.5979567 h 13.7818394 13.81107 z" />
</svg>
