<?xml version="1.0" encoding="UTF-8" standalone="no"?>
<!-- Created with Inkscape (http://www.inkscape.org/) -->
<svg
   width="32"
   height="32"
   version="1.1"
   xmlns="http://www.w3.org/2000/svg">
  <path d="M 16 1 A 2.25 2.25 0 0 0 13.75 3.25 L 13.75 13.75 L 3.25 13.75 A 2.25 2.25 0 0 0 1 16 A 2.25 2.25 0 0 0 3.25 18.25 L 13.75 18.25 L 13.75 28.75 A 2.25 2.25 0 0 0 16 31 A 2.25 2.25 0 0 0 18.25 28.75 L 18.25 18.25 L 28.75 18.25 A 2.25 2.25 0 0 0 31 16 A 2.25 2.25 0 0 0 28.75 13.75 L 18.25 13.75 L 18.25 3.25 A 2.25 2.25 0 0 0 16 1 z" />
</svg>
