<?xml version="1.0" encoding="UTF-8" standalone="no"?>
<!-- Created with Inkscape (http://www.inkscape.org/) -->
<svg
   width="32"
   height="32"
   version="1.1"
   xmlns="http://www.w3.org/2000/svg">
  <path d="m 15.047852,1.0000002 c -0.770618,0 -1.391602,0.6209813 -1.391602,1.3916063 V 13.65625 H 2.3916018 c -0.7706174,0 -1.3916016,0.620981 -1.3916016,1.391606 v 1.904297 c 0,0.770616 0.6209842,1.391597 1.3916016,1.391597 H 13.65625 V 29.608404 C 13.65625,30.379019 14.277234,31 15.047852,31 h 1.904297 c 0.770617,0 1.391601,-0.620981 1.391601,-1.391596 V 18.34375 H 29.608399 C 30.379016,18.34375 31,17.722769 31,16.952153 V 15.047856 C 31,14.277231 30.379016,13.65625 29.608399,13.65625 H 18.34375 V 2.3916065 c 0,-0.770625 -0.620984,-1.3916063 -1.391601,-1.3916063 z" />
</svg>
