<?xml version="1.0" encoding="UTF-8" standalone="no"?>
<svg
   xmlns="http://www.w3.org/2000/svg"
   version="1.1"
   width="36"
   height="36">
  <path d="m 16.984373,1.9999981 c -0.821992,0 -1.484375,0.66238 -1.484375,1.48438 V 15.499998 H 3.4843731 c -0.8219919,0 -1.484375,0.66238 -1.484375,1.48438 v 2.03125 c 0,0.82199 0.6623831,1.48437 1.484375,1.48437 H 15.499998 v 12.01563 c 0,0.82199 0.662383,1.48437 1.484375,1.48437 h 2.03125 c 0.821992,0 1.484375,-0.66238 1.484375,-1.48437 v -12.01563 h 12.015625 c 0.821992,0 1.484375,-0.66238 1.484375,-1.48437 v -2.03125 c 0,-0.822 -0.662383,-1.48438 -1.484375,-1.48438 H 20.499998 V 3.4843781 c 0,-0.822 -0.662383,-1.48438 -1.484375,-1.48438 z" />
</svg>
