<?xml version="1.0" encoding="UTF-8" standalone="no"?>
<!-- Created with Inkscape (http://www.inkscape.org/) -->
<svg
   width="32"
   height="32"
   version="1.1"
   xmlns="http://www.w3.org/2000/svg">
  <path d="m 4.7780823,0.99999996 c -1.0756196,0 -1.5780822,0.75264934 -1.5780822,1.58203124 V 29.417969 C 3.2000001,30.332562 4.0532313,31 4.7780823,31 H 27.221917 C 28.333012,31 28.8,30.333912 28.8,29.417969 V 10.082031 C 28.8,8.9734901 28.317428,8.2113785 27.689497,7.3867187 L 22.487672,2.1132812 C 21.66592,1.4155775 20.721808,0.99999996 19.740639,0.99999996 Z M 5.3041096,3.1679687 H 18.162557 v 6.9140623 c 0,1.16576 0.638294,1.640625 1.578082,1.640625 h 6.955252 V 28.832031 H 5.3041096 Z M 20.266667,3.2851562 c 0.320341,0.00745 0.51804,0.1285341 0.70137,0.3515625 l 5.201826,5.273437 c 0.184057,0.1932792 0.367841,0.3717843 0.409132,0.644532 H 20.266667 Z M 8.1789953,19.912964 c -0.8677415,0 -1.5671233,0.702395 -1.5671233,1.576538 v 4.570313 c 0,0.874144 0.6993819,1.578368 1.5671233,1.578368 H 23.821004 c 0.867741,0 1.567123,-0.704224 1.567123,-1.578368 v -4.570313 c 0,-0.874143 -0.699382,-1.576538 -1.567123,-1.576538 z m 9.5114967,1.80166 c 0.649282,0.350327 0.306013,1.076688 -0.132965,0.912089 -1.083227,-0.406168 -2.281243,-0.616288 -2.349261,-0.01454 -0.10187,0.901237 3.065685,0.75436 2.975366,2.154922 -0.08021,1.243718 -1.155968,1.423185 -1.87144,1.4457 -0.605113,0 -1.582611,-0.09286 -2.047383,-0.5613 -0.521395,-0.393489 8.94e-4,-1.141193 0.541538,-0.866887 0.527106,0.231319 0.788616,0.396307 1.310518,0.396307 1.311179,-0.05438 0.949297,-0.598115 0.416436,-0.72876 -1.312245,-0.218529 -2.438399,-0.741596 -2.454794,-1.649781 -0.02853,-1.580073 2.077501,-1.722918 3.611985,-1.087748 z m -6.574511,-0.472245 c 0.837849,0 1.617093,0.43117 1.987215,0.862427 0.317775,0.383082 -0.429269,1.125243 -0.834703,0.796485 -0.364527,-0.295588 -0.727813,-0.490746 -1.097717,-0.527344 -0.812211,-0.08036 -1.3753422,0.557658 -1.3753422,1.38794 0,0.830282 0.5591862,1.38794 1.3753422,1.38794 0.418782,0 0.738688,-0.280772 1.097717,-0.532838 0.585215,-0.410865 1.134628,0.440094 0.827398,0.800171 -0.380248,0.445654 -1.140538,0.864258 -1.985389,0.864258 -1.4846972,0 -2.6118721,-1.058341 -2.6118721,-2.519531 0,-1.449398 1.1112352,-2.49718 2.5844751,-2.514038 0.01085,-0.0032 0.02158,-0.0039 0.03288,-0.0037 z m 8.927854,0.556644 c 0.233988,0.65602 1.021367,2.373784 1.154338,2.664185 0.137724,-0.323647 0.972728,-2.289028 1.176256,-2.748413 0.288473,-0.677207 1.318667,-0.248391 1.079313,0.430198 -0.326074,0.849006 -1.008633,2.438231 -1.727715,3.828835 -0.144262,0.244386 -0.363715,0.352521 -0.573516,0.333252 -0.2098,-0.01927 -0.400845,-0.146404 -0.542466,-0.318603 -0.727058,-1.298447 -1.472122,-3.188803 -1.682512,-3.72171 -0.321841,-0.856154 0.825117,-1.14806 1.116302,-0.467744 z" />
</svg>
