<?xml version="1.0" encoding="UTF-8" standalone="no"?>
<!-- Created with Inkscape (http://www.inkscape.org/) -->
<svg
   xmlns="http://www.w3.org/2000/svg"
   version="1.1"
   width="30.796875"
   height="36">
  <path d="m 3.3984372,2 c -0.5,0 -0.8750011,0.1875 -1.1875,0.5 C 1.8359371,2.8125 1.7109371,3.25 1.7109371,3.6875 v 28.625 c 0,0.4375 0.125,0.875 0.5000001,1.1875 0.3124989,0.3125 0.6875,0.5 1.1875,0.5 H 27.398438 c 0.5,0 0.875,-0.1875 1.1875,-0.5 0.375,-0.3125 0.5,-0.75 0.5,-1.1875 v -20.625 c 0,-0.437501 -0.0625,-1 -0.3125,-1.5625 -0.25,-0.5625 -0.5625,-1 -0.875,-1.3125 l -5.5625,-5.625 C 22.023438,2.875 21.523438,2.625 20.960938,2.375 20.398438,2.125 19.898438,2 19.398438,2 Z m 0.5625,2.3125 H 17.710938 v 7.375 c 0,0.499999 0.125,0.9375 0.5,1.25 0.3125,0.3125 0.6875,0.5 1.1875,0.5 h 7.4375 v 18.25 H 3.9609372 Z m 16.0000008,0.125 c 0.375,0.125 0.625,0.25 0.75,0.375 l 5.5625,5.625 c 0.1875,0.125 0.3125,0.375 0.4375,0.6875 h -6.75 z M 7.0351558,22.173828 c -0.927907,0 -1.6757812,0.749221 -1.6757812,1.681641 v 4.875 c 0,0.93242 0.7478743,1.683593 1.6757812,1.683593 H 23.761719 c 0.927907,0 1.675781,-0.751173 1.675781,-1.683593 v -4.875 c 0,-0.93242 -0.747874,-1.681641 -1.675781,-1.681641 z m 8.5058602,1.416016 c 0.635823,0 1.262612,0.119246 1.779296,0.460937 0.290518,0.192125 0.363075,0.533469 0.267579,0.792969 -0.04774,0.12975 -0.140821,0.246245 -0.271485,0.304688 -0.130665,0.05844 -0.292517,0.05327 -0.458984,-0.02539 -0.563791,-0.266417 -1.085593,-0.417969 -1.496094,-0.417969 -0.324742,0 -0.537317,0.06227 -0.660156,0.146484 -0.122839,0.08421 -0.167969,0.183732 -0.167969,0.308594 0,0.08283 0.03071,0.137001 0.09766,0.197266 0.06695,0.06026 0.174609,0.117885 0.3125,0.167969 0.275782,0.100168 0.662528,0.175929 1.054688,0.279297 0.39216,0.103366 0.791677,0.235076 1.103515,0.470703 0.311836,0.235627 0.529297,0.586581 0.529297,1.076171 0,0.449916 -0.202721,0.864117 -0.58789,1.15625 -0.385169,0.292135 -0.947394,0.464844 -1.671875,0.464844 -0.647069,0 -1.331127,-0.178065 -1.828125,-0.677734 -0.261612,-0.263019 -0.309855,-0.587032 -0.183594,-0.814453 0.126263,-0.22742 0.427896,-0.330942 0.742187,-0.19336 0.563654,0.246741 0.863788,0.50586 1.421876,0.50586 0.326257,0 0.545932,-0.05646 0.671874,-0.134766 0.125943,-0.0783 0.167969,-0.166136 0.167969,-0.285156 0,-0.0859 -0.02761,-0.141159 -0.0918,-0.199219 -0.06419,-0.05806 -0.168931,-0.112068 -0.302734,-0.158203 -0.267606,-0.09228 -0.644643,-0.154142 -1.027344,-0.246094 -0.3827,-0.09195 -0.774557,-0.214074 -1.080078,-0.443359 -0.305521,-0.229285 -0.517578,-0.576549 -0.517578,-1.070313 0,-0.454006 0.18606,-0.878853 0.556641,-1.18164 0.370582,-0.302786 0.918794,-0.484375 1.640625,-0.484375 z m -5.365235,0.002 c 0.895941,0 1.729215,0.459915 2.125,0.919922 0.111115,0.129145 0.149848,0.284375 0.13086,0.425781 -0.01898,0.141406 -0.09109,0.266968 -0.19336,0.363281 -0.204543,0.192624 -0.550113,0.269223 -0.830078,0.06055 -0.236204,-0.176088 -0.419816,-0.320777 -0.597656,-0.416016 -0.177841,-0.09527 -0.346478,-0.146484 -0.576172,-0.146484 -0.8727464,0 -1.4707035,0.594835 -1.4707035,1.480469 0,0.885634 0.5979581,1.480469 1.4707035,1.480469 0.447819,0 0.80128,-0.283939 1.173828,-0.56836 0.121869,-0.093 0.274345,-0.114458 0.416016,-0.09375 0.141671,0.0207 0.277861,0.08081 0.388672,0.169922 0.110812,0.08911 0.197562,0.208737 0.224609,0.34961 0.02705,0.140872 -0.01907,0.299861 -0.144531,0.427734 -0.438099,0.446513 -1.219618,0.921875 -2.123047,0.921875 -1.5876405,0 -2.7929693,-1.128897 -2.7929693,-2.6875 0,-1.546025 1.1882839,-2.663659 2.7636723,-2.681641 0.0116,-0.0034 0.02307,-0.0042 0.03516,-0.0039 z m 8.740235,0.01172 c 0.302791,-0.03072 0.653254,0.153067 0.80664,0.582031 0.250212,0.699754 1.092185,2.532036 1.234375,2.841797 0.147273,-0.345224 1.040174,-2.44163 1.257813,-2.931641 0.134057,-0.301823 0.414006,-0.48195 0.683594,-0.486328 0.134792,-0.0021 0.269333,0.04279 0.367187,0.146484 0.09786,0.103696 0.154297,0.25679 0.154297,0.447266 0,0.21437 -0.107347,0.5356 -0.263672,0.945313 -0.156325,0.409711 -0.365404,0.893876 -0.583984,1.371093 -0.437161,0.954434 -0.903672,1.87055 -1.050782,2.119141 -0.154264,0.260678 -0.388933,0.376022 -0.613281,0.355469 -0.224347,-0.02055 -0.428638,-0.156165 -0.580078,-0.339844 -0.04813,-0.05838 -0.100093,-0.14607 -0.169922,-0.275391 -0.06982,-0.12932 -0.153154,-0.295903 -0.246094,-0.486328 -0.185879,-0.380852 -0.408533,-0.862454 -0.625,-1.351562 -0.216469,-0.489109 -0.425952,-0.98475 -0.58789,-1.396485 -0.161938,-0.411734 -0.277693,-0.724678 -0.302735,-0.902343 -0.02445,-0.173446 0.03004,-0.33201 0.128907,-0.44336 0.09887,-0.111348 0.239236,-0.177996 0.390625,-0.193359 z" />
</svg>
