<?xml version="1.0" encoding="UTF-8" standalone="no"?>
<svg
   xmlns="http://www.w3.org/2000/svg"
   version="1.1"
   width="36"
   height="28.46019">
  <path d="m 15.766284,15.407059 a 3.1566437,3.5423256 0 0 1 -3.156645,3.542338 3.1566437,3.5423256 0 0 1 -3.1566441,-3.542338 3.1566437,3.5423256 0 0 1 3.1566441,-3.54232 3.1566437,3.5423256 0 0 1 3.156645,3.54232 z m 10.714915,0 a 3.1566437,3.5423256 0 0 1 -3.156644,3.542338 3.1566437,3.5423256 0 0 1 -3.156645,-3.542338 3.1566437,3.5423256 0 0 1 3.156645,-3.54232 3.1566437,3.5423256 0 0 1 3.156644,3.54232 z M 13.461734,1.5811214 c 0,0 -1.738903,0.3043556 -3.451468,0.92208 C 8.5908757,3.0151481 7.0808215,3.463877 6.8514277,3.6932547 6.6220366,3.9226503 4.080722,6.8299747 2.8947771,12.046872 c -1.1655672,5.127262 -0.9179698,10.000187 -0.7520338,10.2876 0.1659369,0.287387 0.9196907,1.078133 3.3947849,2.441316 2.4750951,1.3632 4.6124148,2.10328 4.6124148,2.10328 l 1.897801,-3.278391 c 0,0 -2.1369207,-0.929716 -2.6063091,-1.258116 -0.2732605,-0.191164 -0.082711,-0.578036 0.3583022,-0.526329 0.3054469,0.27456 1.9722329,0.888285 3.0587509,1.189289 1.667839,0.462062 2.98906,0.677147 5.138735,0.677147 2.149675,0 3.454859,-0.25104 5.138741,-0.677147 1.09299,-0.276578 2.753297,-0.914729 3.058745,-1.189289 0.441006,-0.05173 0.631563,0.335147 0.358308,0.526329 -0.469389,0.3284 -2.606315,1.258116 -2.606315,1.258116 l 1.897801,3.278391 c 0,0 2.137319,-0.74008 4.612414,-2.10328 2.475095,-1.363183 3.216076,-2.131796 3.394785,-2.441316 0.178708,-0.309547 0.413536,-5.160338 -0.752034,-10.2876 C 31.913724,6.8299747 29.483911,4.1030058 29.142987,3.7933792 28.802062,3.4837792 27.403571,3.0151481 25.98418,2.5032014 24.271615,1.885477 22.532712,1.5811214 22.532712,1.5811214 l -0.651829,1.7455289 c 0,0 -2.068278,-0.1512 -3.88366,-0.1512 -1.815383,0 -3.883658,0.1512 -3.883658,0.1512 z" />
</svg>
