<?xml version="1.0" encoding="UTF-8" standalone="no"?>
<!-- Created with Inkscape (http://www.inkscape.org/) -->
<svg
   width="32"
   height="32"
   version="1.1"
   xmlns="http://www.w3.org/2000/svg">
  <path d="m 13.905891,17.102621 c 6e-6,1.832803 -1.324944,3.318586 -2.959354,3.318586 -1.6344101,0 -2.9593599,-1.485783 -2.9593542,-3.318586 2.7e-6,-1.832796 1.32495,-3.318569 2.9593542,-3.318569 1.634404,0 2.959351,1.485773 2.959354,3.318569 z m 10.045233,0 c 6e-6,1.832803 -1.324944,3.318586 -2.959354,3.318586 -1.63441,0 -2.95936,-1.485783 -2.959354,-3.318586 3e-6,-1.832796 1.32495,-3.318569 2.959354,-3.318569 1.634404,0 2.959351,1.485773 2.959354,3.318569 z M 11.745376,4.15 C 9.5200665,4.6340875 7.7094113,5.2076592 5.5482138,6.1287202 5.3331598,6.343626 2.9506768,9.0673093 1.8388534,13.954681 0.74613423,18.758079 0.97825673,23.323205 1.1338217,23.592464 3.3846256,25.636843 5.3891818,26.609388 8.6405718,27.85 L 10.41976,24.778689 c 0,0 -2.0033632,-0.870991 -2.4434152,-1.178647 -0.256181,-0.179089 -0.07754,-0.541525 0.335908,-0.493083 0.286357,0.257217 1.8489692,0.832176 2.8675802,1.114167 3.346282,0.864048 6.553057,0.772887 9.635133,0 1.024678,-0.259108 2.581216,-0.85695 2.867574,-1.114167 0.413443,-0.04847 0.59209,0.313977 0.335913,0.493083 -0.440052,0.307656 -2.44342,1.178647 -2.44342,1.178647 L 23.354222,27.85 c 2.848479,-1.216872 5.130894,-2.013587 7.506749,-4.257536 0.167538,-0.289995 0.38769,-4.834385 -0.705032,-9.637783 C 29.044116,9.0673093 26.766167,6.5125893 26.44655,6.2225204 24.408613,5.2104266 22.558647,4.6385421 20.249418,4.1499999 l -0.61109,1.6352724 c -2.516475,-0.181665 -4.674198,-0.1642795 -7.281861,0 z" />
</svg>
