<?xml version="1.0" encoding="UTF-8" standalone="no"?>
<!-- Created with Inkscape (http://www.inkscape.org/) -->
<svg
   xmlns="http://www.w3.org/2000/svg"
   version="1.1"
   width="36"
   height="11.501465">
  <path d="M 5.7507324,2.0000004 C 3.6790927,1.9995954 1.9995956,3.6790924 2,5.7507324 c -4.044e-4,2.07164 1.6790927,3.751137 3.7507324,3.750732 2.0707816,-8.09e-4 3.7489395,-1.67995 3.7485351,-3.750732 4.044e-4,-2.070782 -1.6777535,-3.749923 -3.7485351,-3.750732 z m 12.2492676,0 c -2.07164,-4.04e-4 -3.751136,1.679092 -3.750732,3.750732 -4.04e-4,2.07164 1.679092,3.751136 3.750732,3.750732 2.07164,4.04e-4 3.751136,-1.679092 3.750732,-3.750732 C 21.751136,3.6790924 20.07164,1.9995964 18,2.0000004 Z m 12.249268,0 c -2.070782,8.08e-4 -3.74894,1.67995 -3.748536,3.750732 -4.04e-4,2.070782 1.677754,3.749924 3.748536,3.750732 2.07164,4.04e-4 3.751136,-1.679092 3.750732,-3.750732 4.04e-4,-2.07164 -1.679092,-3.751136 -3.750732,-3.750732 z" />
</svg>
