<?xml version="1.0" encoding="UTF-8" standalone="no"?>
<!-- Created with Inkscape (http://www.inkscape.org/) -->
<svg
   width="32"
   height="32"
   version="1.1"
   xmlns="http://www.w3.org/2000/svg">
  <path d="M 4.5163116,12.483689 C 2.5741494,12.483309 0.9996209,14.057838 1,16 0.9996209,17.942163 2.5741494,19.516691 4.5163116,19.516311 6.457669,19.515553 8.030942,17.941358 8.030564,16 8.030942,14.058642 6.457669,12.484447 4.5163116,12.483689 Z M 16,12.483689 C 14.057837,12.48331 12.48331,14.057838 12.483689,16 12.48331,17.942163 14.057837,19.51669 16,19.516311 17.942162,19.51669 19.51669,17.942163 19.516311,16 19.51669,14.057838 17.942162,12.48331 16,12.483689 Z m 11.483689,0 C 25.542331,12.484446 23.969057,14.058642 23.969436,16 c -3.79e-4,1.941358 1.572895,3.515554 3.514253,3.516311 C 29.425851,19.51669 31.000379,17.942163 31,16 c 3.79e-4,-1.942162 -1.574149,-3.51669 -3.516311,-3.516311 z" />
</svg>
