<?xml version="1.0" encoding="UTF-8" standalone="no"?>
<!-- Created with Inkscape (http://www.inkscape.org/) -->
<svg
   width="32"
   height="32"
   version="1.1"
   xmlns="http://www.w3.org/2000/svg">
  <path d="m 13.667969,2.1999998 c -0.315126,0 -0.566785,0.1250696 -0.75586,0.3136807 -0.2521,0.2514812 -0.378906,0.5039458 -0.378906,0.8182973 V 11.378569 H 7.9335938 c -0.5042006,-1e-6 -0.883191,0.251563 -1.0722657,0.691655 -0.1890758,0.502963 -0.1261985,0.944268 0.2519531,1.25862 l 8.0683598,8.04659 c 0.252099,0.251483 0.503233,0.377975 0.818359,0.377975 0.315126,0 0.56626,-0.126492 0.818359,-0.377975 l 8.06836,-8.04659 c 0.37815,-0.314352 0.441029,-0.755657 0.251953,-1.25862 -0.189076,-0.440092 -0.568064,-0.691655 -1.072266,-0.691655 H 19.466797 V 3.3319778 c 0,-0.3143515 -0.126807,-0.5668161 -0.378906,-0.8182973 C 18.898815,2.3250694 18.647156,2.1999998 18.332031,2.1999998 Z M 2.765625,20.621431 c -0.5042012,0 -0.8835673,0.125448 -1.2617188,0.502669 C 1.1887808,21.438452 1,21.815463 1,22.318424 v 5.720288 c 0,0.502963 0.1887808,0.944267 0.5039062,1.258619 C 1.8820577,29.611682 2.2614238,29.8 2.765625,29.8 h 26.46875 c 0.504201,0 0.883568,-0.188318 1.261719,-0.502669 C 30.811219,28.982979 31,28.541675 31,28.038712 V 22.318424 C 31,21.815463 30.811219,21.438452 30.496094,21.1241 30.117943,20.746879 29.738576,20.621431 29.234375,20.621431 h -8.318359 l -2.458985,2.38865 C 17.763755,23.701653 16.945378,24.015417 16,24.015417 c -0.945378,0 -1.763755,-0.313764 -2.457031,-1.005336 l -2.396485,-2.38865 z m 20.148437,4.568828 a 1.1597495,1.1569005 0 0 1 1.160157,1.157306 1.1597495,1.1569005 0 0 1 -1.160157,1.157306 1.1597495,1.1569005 0 0 1 -1.160156,-1.157306 1.1597495,1.1569005 0 0 1 1.160156,-1.157306 z m 4.609376,0 a 1.1597495,1.1569005 0 0 1 1.160156,1.157306 1.1597495,1.1569005 0 0 1 -1.160156,1.157306 1.1597495,1.1569005 0 0 1 -1.160157,-1.157306 1.1597495,1.1569005 0 0 1 1.160157,-1.157306 z" />
</svg>
