<?xml version="1.0" encoding="UTF-8" standalone="no"?>
<!-- Created with Inkscape (http://www.inkscape.org/) -->
<svg
   xmlns="http://www.w3.org/2000/svg"
   version="1.1"
   width="35.999996"
   height="33.201679">
  <path d="m 26.60504,27.659664 c 0,-0.336134 -0.134454,-0.605042 -0.336134,-0.87395 -0.268908,-0.20168 -0.537815,-0.336135 -0.873949,-0.336135 -0.336135,0 -0.67227,0.134455 -0.873951,0.336135 -0.268907,0.268908 -0.403361,0.537816 -0.403361,0.87395 0,0.336134 0.134454,0.605042 0.403361,0.873949 0.201681,0.201681 0.537816,0.336134 0.873951,0.336134 0.336134,0 0.605041,-0.134453 0.873949,-0.336134 0.20168,-0.268907 0.336134,-0.537815 0.336134,-0.873949 z m 4.907563,0 c 0,-0.336134 -0.134453,-0.605042 -0.336134,-0.87395 -0.268908,-0.20168 -0.537815,-0.336135 -0.873949,-0.336135 -0.336136,0 -0.605043,0.134455 -0.873951,0.336135 -0.268907,0.268908 -0.336134,0.537816 -0.336134,0.87395 0,0.336134 0.06723,0.605042 0.336134,0.873949 0.268908,0.201681 0.537815,0.336134 0.873951,0.336134 0.336134,0 0.605041,-0.134453 0.873949,-0.336134 0.201681,-0.268907 0.336134,-0.537815 0.336134,-0.873949 z m 2.487395,-4.302521 v 6.117647 c 0,0.537815 -0.20168,1.008403 -0.537815,1.344538 -0.403361,0.336134 -0.806723,0.537815 -1.344538,0.537815 H 3.8823503 c -0.5378151,0 -0.9411761,-0.201681 -1.3445379,-0.537815 C 2.2016782,30.483193 1.9999982,30.012605 1.9999982,29.47479 v -6.117647 c 0,-0.537815 0.20168,-0.941177 0.5378142,-1.277312 0.4033618,-0.40336 0.8067228,-0.537815 1.3445379,-0.537815 h 8.9411777 l 2.554621,2.554623 c 0.739496,0.739495 1.613445,1.07563 2.621849,1.07563 1.008404,0 1.882353,-0.336135 2.621849,-1.07563 l 2.621848,-2.554623 h 8.87395 c 0.537815,0 0.941177,0.134455 1.344538,0.537815 0.336135,0.336135 0.537815,0.739497 0.537815,1.277312 z M 27.747897,12.399159 c 0.201681,0.537815 0.134454,1.008404 -0.268907,1.344538 l -8.605043,8.605042 c -0.268907,0.268908 -0.537815,0.403362 -0.873949,0.403362 -0.336134,0 -0.605042,-0.134454 -0.873949,-0.403362 L 8.521007,13.743697 C 8.117645,13.407563 8.050418,12.936974 8.252099,12.399159 8.453779,11.928571 8.857141,11.659663 9.394956,11.659663 h 4.907563 V 3.0546207 c 0,-0.3361345 0.134454,-0.6050421 0.403362,-0.8739496 0.20168,-0.2016807 0.470587,-0.3361345 0.806722,-0.3361345 h 4.97479 c 0.336134,0 0.605042,0.1344538 0.806723,0.3361345 0.268907,0.2689075 0.403361,0.5378151 0.403361,0.8739496 v 8.6050423 h 4.907563 c 0.537815,0 0.941176,0.268908 1.142857,0.739496 z" />
</svg>
