<?xml version="1.0" encoding="UTF-8" standalone="no"?>
<!-- Created with Inkscape (http://www.inkscape.org/) -->
<svg
   xmlns="http://www.w3.org/2000/svg"
   version="1.1"
   width="36"
   height="36">
  <path d="M 9.6296295,31.333333 11.555556,29.407407 6.592593,24.444444 4.6666667,26.37037 v 2.222223 h 2.7407405 v 2.74074 z M 20.740741,11.703703 c 0,-0.296296 -0.148149,-0.518518 -0.518519,-0.518518 -0.07407,0 -0.222222,0.07407 -0.296296,0.148149 L 8.4444446,22.814815 c -0.1481485,0.148148 -0.1481485,0.222222 -0.1481485,0.37037 0,0.296296 0.1481485,0.444445 0.4444445,0.444445 0.1481485,0 0.2962969,0 0.3703707,-0.148149 L 20.592592,12.074074 c 0.07407,-0.148148 0.148149,-0.222222 0.148149,-0.370371 z M 19.555555,7.6296295 28.37037,16.444445 10.740741,34 H 2 v -8.740741 z m 14.444445,2 C 34,10.37037 33.777778,11.037037 33.259259,11.555556 L 29.703704,15.037037 20.962963,6.2962961 24.444444,2.7407405 C 24.962963,2.2222222 25.555555,2 26.37037,2 c 0.740741,0 1.333334,0.2222222 1.925926,0.7407405 l 4.962963,4.9629636 C 33.777778,8.2962961 34,8.8888891 34,9.6296295 Z" />
</svg>
