<?xml version="1.0" encoding="UTF-8" standalone="no"?>
<!-- Created with Inkscape (http://www.inkscape.org/) -->
<svg
   width="32"
   height="32"
   version="1.1"
   xmlns="http://www.w3.org/2000/svg">
  <path d="M 8.1527776,28.5 9.9583338,26.694444 5.3055559,22.041666 3.5,23.847222 v 2.083334 H 6.0694442 V 28.5 Z M 18.569445,10.097222 c 0,-0.2777781 -0.13889,-0.4861111 -0.486112,-0.4861111 -0.06944,0 -0.208333,0.06944 -0.277777,0.13889 L 7.0416668,20.513889 c -0.1388892,0.138889 -0.1388892,0.208333 -0.1388892,0.347222 0,0.277777 0.1388892,0.416667 0.4166667,0.416667 0.1388892,0 0.2777783,0 0.3472225,-0.13889 L 18.430555,10.444444 c 0.06944,-0.138888 0.13889,-0.208333 0.13889,-0.347222 z M 17.458333,6.2777778 25.722222,14.541667 9.1944447,31 H 1 V 22.805555 Z M 31,8.152778 c 0,0.6944439 -0.208333,1.3194439 -0.694445,1.8055559 L 26.972222,13.222222 18.777778,5.0277777 22.041666,1.6944444 c 0.486112,-0.4861109 1.041667,-0.6944442 1.805556,-0.6944442 0.694445,0 1.25,0.2083333 1.805555,0.6944442 l 4.652778,4.6527783 C 30.791667,6.9027777 31,7.4583336 31,8.152778 Z" />
</svg>
