<?xml version="1.0" encoding="UTF-8" standalone="no"?>
<!-- Created with Inkscape (http://www.inkscape.org/) -->
<svg
   xmlns="http://www.w3.org/2000/svg"
   version="1.1"
   width="33.795273"
   height="36">
  <path d="m 31.357074,21.87536 c 0.455929,0.390795 0.651326,0.716459 0.521061,1.107255 -0.06513,0.390796 -0.390796,0.651326 -0.911857,0.781591 l -2.605305,0.716459 c -0.52106,0.130266 -0.976988,0.455928 -1.302652,0.97699 -0.390797,0.455928 -0.521062,0.976988 -0.455928,1.563182 l 0.130264,2.73557 c 0,0.521063 -0.130264,0.911856 -0.521061,1.172388 -0.325664,0.195398 -0.781592,0.195398 -1.237519,0 l -2.865836,-1.49805 c -0.521061,-0.260531 -1.042122,-0.325664 -1.563183,-0.130266 -0.586193,0.195399 -0.97699,0.521062 -1.172388,0.976991 l -1.563182,2.930967 c -0.260531,0.521061 -0.586194,0.781591 -0.911857,0.781591 -0.390795,0.06513 -0.781592,-0.195398 -1.107255,-0.586193 L 14.096928,30.79853 C 13.315337,29.691275 12.338347,29.495878 11.16596,30.082071 l -3.3640742,1.426366 c -0.7018655,0.438664 -1.1405312,0.526399 -1.491464,0.2632 C 6.0472231,31.59617 5.9594902,31.069772 6.2226937,30.367907 L 7.7790672,26.10898 C 7.9744654,25.587919 7.909333,25.066859 7.6488023,24.610931 7.3882717,24.220135 6.9323429,23.959604 6.4112825,23.894471 L 2.8941203,23.503675 C 2.3730598,23.438546 2.0473959,23.243145 1.917131,22.917482 1.7868661,22.591819 1.9822599,22.266155 2.4381923,21.87536 l 2.8658352,-2.540172 c 0.4559289,-0.325664 0.6513262,-0.781592 0.6513262,-1.367785 0,-0.521062 -0.1953973,-0.97699 -0.6513262,-1.367786 L 2.4381923,14.124578 C 1.9822634,13.733782 1.7868661,13.342986 1.917131,13.017322 1.9822599,12.626527 2.3079265,12.365996 2.8289878,12.235732 L 5.4342924,11.519273 C 5.9553537,11.389008 6.4112825,11.063344 6.802078,10.542284 7.1928735,10.086356 7.3231393,9.5652946 7.3231393,8.9791 L 7.1277411,6.2435305 c 0,-0.5861937 0.1302657,-0.9769892 0.4559279,-1.2375198 0.325664,-0.1953982 0.7815919,-0.1953982 1.2375199,0 L 11.491627,6.308663 c 0.521061,0.1953982 1.107255,0.2605306 1.628315,0.065129 0.586194,-0.1953982 0.976989,-0.5210612 1.237521,-1.0421216 l 1.563183,-2.6704379 c 0.260529,-0.4559289 0.586193,-0.7164589 0.976989,-0.6513263 0.390795,0 0.716458,0.2605308 0.976989,0.7815912 l 1.693448,2.8658361 c 0.260531,0.4559279 0.651326,0.781591 1.172388,0.9118567 0.521061,0.1953974 0.976989,0.1302649 1.49805,-0.1953982 l 3.857615,-1.7321139 c 0.601552,-0.4296801 1.459233,-0.3640232 1.717042,-0.1062159 0.257808,0.1718727 0.228162,0.9497844 -0.02964,1.6372729 l -2.027849,3.9136179 c -0.195397,0.52106 -0.195397,0.976987 0.06513,1.367784 0.26053,0.455928 0.716458,0.651325 1.302652,0.716458 l 3.777692,0.390796 c 0.586194,0.06513 0.911858,0.195398 0.97699,0.521061 0.130265,0.325663 -0.06513,0.651326 -0.521061,1.042123 l -2.865836,2.475039 c -0.390796,0.390795 -0.586193,0.846724 -0.586193,1.367785 0,0.586194 0.195397,1.042122 0.586193,1.367786 l 2.865836,2.540171 m -12.766,3.061233 v -3.452028 h -3.386897 v 3.452028 h 3.386897 m 0,-5.275742 v -8.727771 h -3.386897 v 8.727771 h 3.386897" />
</svg>
