<?xml version="1.0" encoding="UTF-8" standalone="no"?>
<!-- Created with Inkscape (http://www.inkscape.org/) -->
<svg
   width="32"
   height="32"
   version="1.1"
   xmlns="http://www.w3.org/2000/svg">
  <path d="m 26.184806,23.267593 c -1.067248,1.648376 0.723741,4.156426 -0.788679,5.120951 -1.512419,0.964526 -4.169559,-2.314192 -5.994866,-1.836464 -1.825307,0.477728 -1.843456,3.996075 -3.397386,4.389387 C 14.449944,31.334779 14.923659,29.67999 13.395166,27.954246 11.866675,26.228503 8.0899076,30.188587 6.1424451,28.865067 4.1949827,27.541548 8.4013363,24.041205 7.3890762,22.162695 6.3768161,20.284184 2.6072853,22.37167 2.0503258,20.577637 1.4933662,18.783604 5.7415506,17.962143 5.811718,15.944396 5.8818853,13.926649 1.7707247,13.092695 2.0503258,11.311153 2.3299269,9.5296107 5.3229309,10.266135 6.6003971,8.994534 7.8778633,7.7229322 6.3617544,4.5713969 7.3284079,3.8126187 8.2950615,3.0538405 10.72064,5.7718154 12.485156,5.0928525 14.249672,4.4138896 14.29312,0.80472515 16.003879,1.0082843 c 1.710758,0.2035591 1.599027,3.6776533 3.579389,4.2674596 1.980362,0.5898063 5.409333,-3.2547036 6.587854,-1.9035556 1.178522,1.3511481 -2.021454,4.3944328 -1.063271,6.3044049 0.958184,1.9099708 4.706224,0.5312158 4.849579,1.6955218 0.143354,1.164306 -2.573865,2.68106 -3.01925,4.200502 -0.445386,1.519443 3.25114,3.811466 3.054215,4.992732 -0.263098,1.578219 -2.740341,1.053869 -3.807589,2.702244 z m -8.603572,-0.800085 v -3.231075 h -3.154716 v 3.231075 h 3.154716 m 0,-4.938059 V 9.3603132 h -3.154716 v 8.1691358 h 3.154716" />
</svg>
