<?xml version="1.0" encoding="UTF-8" standalone="no"?>
<!-- Created with Inkscape (http://www.inkscape.org/) -->
<svg
   xmlns="http://www.w3.org/2000/svg"
   version="1.1"
   width="36"
   height="36">
  <path d="M 5.8128893,2 C 3.7005595,2 1.9999995,3.7005609 1.9999995,5.8128871 V 30.187112 c 0,2.112326 1.70056,3.812887 3.8128898,3.812887 H 15.315991 V 23.046112 h -4.591173 v -5.092235 h 4.591173 v -3.877073 c 0,-4.3543827 2.589947,-6.8099142 6.402391,-6.8099142 2.055877,0 4.089138,0.3910782 4.089138,0.3910782 v 4.293792 c 0,0 -1.361698,0.03048 -2.290987,0.03048 -2.142951,0 -2.889129,1.304842 -2.889129,2.727546 v 3.244091 h 4.97208 l -0.7728,5.092236 h -4.19928 V 34 h 9.559707 C 32.299441,34 34,32.299439 34,30.187113 V 5.8128871 C 34,3.7005609 32.299441,2 30.187111,2 Z" />
</svg>
