<?xml version="1.0" encoding="UTF-8" standalone="no"?>
<!-- Created with Inkscape (http://www.inkscape.org/) -->
<svg
   width="32"
   height="32"
   version="1.1"
   xmlns="http://www.w3.org/2000/svg">
  <path d="m 16.00002,1.3999998 c -8.2831981,0 -15.00002003,6.7018598 -15.00002003,14.9699222 0,6.613862 4.29761843,12.224802 10.25757703,14.20425 0.749663,0.138571 1.025401,-0.324598 1.025401,-0.71999 0,-0.356721 -0.01362,-1.535878 -0.02013,-2.786753 C 8.089807,27.972986 7.2091305,25.300343 7.2091305,25.300343 6.5267919,23.570281 5.5428658,23.109307 5.5428658,23.109307 4.1819139,22.180199 5.6453665,22.199273 5.6453665,22.199273 7.151631,22.304936 7.945169,23.74342 7.945169,23.74342 c 1.337851,2.288328 3.50928,1.626932 4.365244,1.244438 0.134875,-0.967294 0.523175,-1.628965 0.952151,-2.002801 -3.331705,-0.378278 -6.8335093,-1.661187 -6.8335093,-7.39725 0,-1.634117 0.5858635,-2.970058 1.5454143,-4.018414 -0.155737,-0.377042 -0.6700884,-1.899783 0.14465,-3.961778 0,0 1.26099,-0.4018053 4.127206,1.5350038 1.196514,-0.3316835 2.478903,-0.4983986 3.753667,-0.5043492 1.274765,0.00627 2.558578,0.1726657 3.757331,0.5043492 2.862991,-1.9368091 4.121705,-1.5350038 4.121705,-1.5350038 0.816476,2.061995 0.302226,3.584736 0.146488,3.961778 0.961776,1.048356 1.543577,2.384297 1.543577,4.018414 0,5.749947 -3.507992,7.015679 -6.848147,7.386285 0.538013,0.464553 1.016239,1.375485 1.016239,2.77213 0,2.002989 -0.0165,3.614899 -0.0165,4.10796 0,0.39861 0.268725,0.864924 1.029051,0.718169 C 26.706745,28.59067 31,22.981801 31,16.369922 31,8.1018596 24.284166,1.3999998 15.99998,1.3999998 Z M 6.2819691,22.689186 c -0.048488,0.06676 0.032604,0.201158 0.1416509,0.250185 0.106875,0.05102 0.2251753,0.02894 0.2581753,-0.04566 0.0375,-0.0746 -0.030811,-0.166203 -0.1336631,-0.226594 -0.1305145,-0.07663 -0.2232749,-0.03698 -0.2661631,0.02207 z m 0.6999798,0.811148 c 0.094626,0.10454 0.2361254,0.13569 0.3076256,0.06949 0.074747,-0.06712 0.054375,-0.206822 -0.043997,-0.312484 -0.0705,-0.07497 -0.1601634,-0.112025 -0.270082,-0.05634 -0.1099186,0.05568 -0.091797,0.19492 0.00645,0.299335 z m 0.562148,0.802293 c 0.092878,0.132646 0.245037,0.191914 0.336913,0.127918 0.09413,-0.06524 0.0935,-0.224649 0.0012,-0.359989 -0.07062,-0.09893 -0.171037,-0.156248 -0.2998875,-0.10826 -0.1288505,0.04799 -0.1299755,0.206962 -0.038225,0.340331 z m 0.7617751,0.904459 c 0.128175,0.123753 0.302262,0.147093 0.384514,0.05664 0.08737,-0.08945 0.04775,-0.261426 -0.08238,-0.381934 -0.08075,-0.0766 -0.2129976,-0.13828 -0.3579501,-0.06367 -0.1449525,0.07461 -0.075304,0.268458 0.055816,0.388965 z m 0.88079,0.354582 c -0.03425,0.118511 0.0775,0.255723 0.2471879,0.306995 0.1699,0.04978 0.3388621,-0.0038 0.375363,-0.120632 0.03525,-0.11926 -0.067698,-0.295952 -0.2851108,-0.327756 -0.217413,-0.0318 -0.3132152,0.0603 -0.3374401,0.141393 z m 2.354786,0.197522 c 0.02212,0.119259 0.182924,0.192749 0.357049,0.160813 0.177063,-0.03293 0.301526,-0.155675 0.280151,-0.275933 -0.01975,-0.10716 -0.145779,-0.195066 -0.340529,-0.172925 -0.19475,0.02214 -0.318297,0.164542 -0.296671,0.288045 z m -0.829522,-0.140896 c -0.179088,0.0038 -0.320437,0.105662 -0.320437,0.230251 0.0025,0.121505 0.146587,0.221192 0.325938,0.21745 0.178337,-0.0025 0.32235,-0.104914 0.3186,-0.228416 0,-0.122505 -0.14575,-0.223028 -0.324101,-0.219285 z" />
</svg>
