<?xml version="1.0" encoding="UTF-8" standalone="no"?>
<svg
   xmlns="http://www.w3.org/2000/svg"
   version="1.1"
   width="36"
   height="35.110996">
  <path d="m 18.000021,1.9508561 c -8.8354105,0 -16.0000195,7.1630219 -16.0000195,16.0000199 0,7.068969 4.584126,13.066003 10.9414135,15.181659 0.799641,0.148107 1.093761,-0.346934 1.093761,-0.769534 0,-0.381267 -0.01453,-1.641562 -0.02147,-2.978511 -4.4512445,0.967868 -5.3906325,-1.888682 -5.3906325,-1.888682 -0.727828,-1.849109 -1.777349,-2.341803 -1.777349,-2.341803 -1.4516818,-0.993041 0.109334,-0.972655 0.109334,-0.972655 1.606682,0.112934 2.453123,1.650402 2.453123,1.650402 1.4270405,2.44579 3.7432305,1.738883 4.6562585,1.330069 0.143867,-1.033855 0.558054,-1.741056 1.015628,-2.140616 -3.553818,-0.404307 -7.2890755,-1.775496 -7.2890755,-7.906263 0,-1.746563 0.624921,-3.174431 1.648442,-4.294926 -0.16612,-0.402987 -0.714761,-2.030509 0.154293,-4.234392 0,0 1.3450555,-0.429454 4.4023525,1.640629 1.276281,-0.354507 2.644163,-0.532694 4.003911,-0.539054 1.359749,0.0067 2.72915,0.184547 4.007819,0.539054 3.053857,-2.070083 4.396485,-1.640629 4.396485,-1.640629 0.870908,2.203883 0.322374,3.831405 0.156254,4.234392 1.025894,1.120495 1.646482,2.548363 1.646482,4.294926 0,6.145607 -3.741858,7.498436 -7.304689,7.894543 0.57388,0.49652 1.083988,1.470135 1.083988,2.962883 0,2.140817 -0.0176,3.863645 -0.0176,4.390633 0,0.42604 0.28664,0.924441 1.097654,0.767587 6.354142,-2.118042 10.933614,-8.112863 10.933614,-15.179712 0,-8.836998 -7.163556,-16.0000199 -16.00002,-16.0000199 z M 7.7695425,24.652058 c -0.05893,0.0053 -0.107601,0.03227 -0.126934,0.07813 -0.0376,0.07973 0.02627,0.189787 0.142587,0.242187 0.114,0.05453 0.240187,0.03093 0.275387,-0.0488 0.04,-0.07973 -0.02653,-0.189934 -0.142574,-0.242187 -0.0508,-0.02387 -0.102533,-0.03347 -0.14844,-0.02933 z m 0.644534,0.550787 c -0.03027,0.004 -0.058,0.0172 -0.08013,0.03707 -0.07733,0.0716 -0.058,0.220427 0.0468,0.332027 0.100934,0.111733 0.251867,0.145027 0.328134,0.07427 0.07973,-0.07173 0.058,-0.221054 -0.04693,-0.333987 -0.0752,-0.08013 -0.170841,-0.119734 -0.248041,-0.109334 z m 0.654294,0.816401 c -0.03027,0.0013 -0.0592,0.012 -0.084,0.02933 -0.100667,0.0684 -0.101867,0.238307 -0.004,0.380854 0.09907,0.141774 0.261373,0.20512 0.359374,0.13672 0.1004,-0.06973 0.09973,-0.240107 0.0013,-0.38476 -0.07533,-0.105734 -0.18244,-0.167 -0.27344,-0.16212 z m 0.765627,0.910161 c -0.05333,0.0027 -0.09947,0.02227 -0.1328,0.05853 -0.0876,0.09667 -0.04813,0.2794 0.09173,0.4082 0.13672,0.132267 0.3224125,0.157214 0.4101475,0.06053 0.0932,-0.0956 0.05093,-0.279414 -0.08787,-0.408214 -0.08613,-0.08187 -0.1923725,-0.123334 -0.2812535,-0.1192 z m 1.1328155,0.695308 c -0.1152,0.008 -0.208533,0.06373 -0.234373,0.1504 -0.03653,0.126667 0.08267,0.27332 0.263667,0.32812 0.181226,0.0532 0.361453,-0.004 0.400387,-0.128933 0.0376,-0.127467 -0.08107,-0.273587 -0.261721,-0.328121 -0.05707,-0.01787 -0.1156,-0.02493 -0.16796,-0.02147 z m 2.644536,0.05467 c -0.0228,7.74e-4 -0.04667,0.004 -0.07027,0.008 -0.18568,0.03413 -0.319934,0.166827 -0.296866,0.298828 0.0236,0.127466 0.195119,0.206013 0.380853,0.17188 0.188867,-0.0352 0.321627,-0.166387 0.298827,-0.294921 -0.02107,-0.114533 -0.153027,-0.188987 -0.312494,-0.1836 z m -1.251961,0.156254 c -0.191027,0.004 -0.3418,0.112933 -0.3418,0.246094 0.0027,0.129866 0.15636,0.236413 0.347667,0.232413 0.190227,-0.0027 0.34384,-0.112133 0.33984,-0.244133 0,-0.130934 -0.155466,-0.238374 -0.345707,-0.234374 z" />
</svg>
