<?xml version="1.0" encoding="UTF-8" standalone="no"?>
<!-- Created with Inkscape (http://www.inkscape.org/) -->
<svg
   width="32"
   height="32"
   version="1.1"
   xmlns="http://www.w3.org/2000/svg">
  <path d="m 1.3045054,16 c 2.321e-4,8.284175 6.9411306,15 14.7057276,15 8.994442,0 14.685262,-6.197909 14.685262,-15 -2.3e-4,-0.719516 -0.05223,-1.444121 -0.155594,-2.156175 -4.77518,-0.0064 -9.533139,0 -14.31908,0 v 5.101717 h 8.687828 C 23.819047,23.422693 20.228288,25.495378 16.11899,25.495216 11.274934,25.495263 6.9725934,21.244084 6.9725934,16 c 0,-4.963721 4.4696366,-9.4346223 9.0376396,-9.434401 3.174473,1.537e-4 4.559785,0.7893019 6.296165,2.328079 L 26.256589,5.0454261 C 23.477815,2.4462412 19.877757,1 16.010233,1 7.6379271,1 1.3045054,8.193303 1.3045054,16 Z" />
</svg>
