<?xml version="1.0" encoding="UTF-8" standalone="no"?>
<!-- Created with Inkscape (http://www.inkscape.org/) -->
<svg
   xmlns="http://www.w3.org/2000/svg"
   version="1.1"
   width="35.269188"
   height="36">
  <path d="m 1.9593995,18 c 2.475e-4,8.836453 7.4038725,16 15.6861095,16 9.594071,0 15.664279,-6.611103 15.664279,-16 -2.45e-4,-0.767484 -0.05571,-1.540396 -0.165967,-2.29992 -5.093525,-0.0068 -10.168681,0 -15.273685,0 v 5.441831 h 9.267017 C 25.97491,25.917539 22.144767,28.128403 17.761516,28.12823 12.594523,28.128281 8.00536,23.59369 8.00536,18 c 0,-5.294636 4.767612,-10.0635971 9.640149,-10.0633611 3.386104,1.64e-4 4.863771,0.8419226 6.715909,2.4832841 L 28.574955,6.3151212 C 25.61093,3.5426573 21.770868,2 17.645509,2 8.7150493,2 1.9593995,9.6728572 1.9593995,18 Z" />
</svg>
