<?xml version="1.0" encoding="UTF-8" standalone="no"?>
<svg
   xmlns="http://www.w3.org/2000/svg"
   version="1.1"
   width="36"
   height="30.796875">
  <path d="M 10.5625 1.7109375 C 7.875 1.7109375 5.75 2.3984375 4.25 3.8984375 C 2.75 5.3984375 2 7.398437 2 10.023438 C 2 10.835938 2.125 11.648438 2.4375 12.523438 C 2.6875 13.335938 3 14.085938 3.375 14.648438 C 3.75 15.273437 4.125 15.835938 4.5625 16.398438 C 5.0625 16.960938 5.375 17.335938 5.5625 17.585938 C 5.8125 17.773438 5.9375 17.960938 6.0625 18.023438 L 17.1875 28.773438 C 17.4375 29.023438 17.6875 29.085938 18 29.085938 C 18.3125 29.085938 18.5625 29.023438 18.8125 28.773438 L 29.9375 18.085938 C 32.625 15.335938 34 12.648438 34 10.023438 C 34 7.398437 33.25 5.3984375 31.75 3.8984375 C 30.25 2.3984375 28.125 1.7109375 25.4375 1.7109375 C 24.75 1.7109375 24 1.8359375 23.1875 2.0859375 C 22.4375 2.3359375 21.75 2.6484375 21.0625 3.0859375 C 20.375 3.5234375 19.8125 3.9609375 19.375 4.3359375 C 18.875 4.7109375 18.4375 5.0859375 18 5.5234375 C 17.5625 5.0859375 17.125 4.7109375 16.625 4.3359375 C 16.1875 3.9609375 15.625 3.5234375 14.9375 3.0859375 C 14.25 2.6484375 13.5625 2.3359375 12.8125 2.0859375 C 12 1.8359375 11.25 1.7109375 10.5625 1.7109375 z M 8.8242188 12.095703 C 9.1706566 12.110654 9.5226313 12.267835 9.7988281 12.5625 L 18.041016 21.353516 C 18.593409 21.942846 18.626628 22.854932 18.117188 23.398438 L 18.085938 23.433594 C 17.576497 23.977099 16.722315 23.938939 16.169922 23.349609 L 7.9277344 14.558594 C 7.3753408 13.969264 7.3401685 13.057177 7.8496094 12.513672 L 7.8828125 12.478516 C 8.137533 12.206763 8.4777809 12.080752 8.8242188 12.095703 z " />
</svg>
