<?xml version="1.0" encoding="UTF-8" standalone="no"?>
<!-- Created with Inkscape (http://www.inkscape.org/) -->
<svg
   width="32"
   height="32"
   version="1.1"
   xmlns="http://www.w3.org/2000/svg">
  <path d="m 9.027344,3.2000001 c -2.5195319,0 -4.511719,0.6429223 -5.9179691,2.0456621 C 1.703125,6.6484019 0.99999996,8.5187213 0.99999996,10.973516 1.0465251,13.278044 1.6616722,15.194489 3.4023436,16.93516 7.0914392,21.018666 11.266605,24.679543 15.238281,28.507763 15.472656,28.741553 15.707031,28.8 15.999999,28.8 c 0.29297,0 0.527345,-0.05844 0.76172,-0.292237 L 27.191406,18.513242 C 29.710936,15.941552 31,13.42831 31,10.973516 31,8.5187213 30.296875,6.6484019 28.890625,5.2456621 27.484374,3.8429223 25.492186,3.2 22.972655,3.2 20.147124,3.2914477 17.978789,4.9809707 15.999999,6.7652969 14.001516,4.7892955 11.78678,3.4847465 9.027344,3.2000001 Z M 8.3114011,13.347945 16.038451,21.56895 c 0.51787,0.551118 0.549013,1.404064 0.05676,1.928769 -0.492252,0.524705 -1.293048,0.489019 -1.810915,-0.06209 L 6.5572481,15.21461 c -0.517869,-0.551117 -0.6083005,-1.351947 -0.051682,-1.941767 0.5566182,-0.58982 1.3743028,-0.356431 1.8058354,0.0751 z" />
</svg>
