<?xml version="1.0" encoding="UTF-8" standalone="no"?>
<svg
   xmlns="http://www.w3.org/2000/svg"
   version="1.1"
   width="36"
   height="36">
  <path d="m 18,2 c 2.1875,0 4.25,0.4375 6.1875,1.25 2,0.875 3.6875,2 5.125,3.4375 C 30.75,8.125 31.875,9.8125 32.75,11.812501 33.5625,13.75 34,15.8125 34,18 c 0,2.1875 -0.4375,4.25 -1.25,6.1875 -0.875,2 -2,3.6875 -3.4375,5.125 C 27.875,30.75 26.1875,31.875 24.1875,32.75 22.25,33.5625 20.1875,34 18,34 15.8125,34 13.75,33.5625 11.812501,32.75 9.8125,31.875 8.125,30.75 6.6875,29.3125 5.25,27.875 4.125,26.1875 3.25,24.1875 2.4375,22.25 2,20.1875 2,18 2,15.8125 2.4375,13.75 3.25,11.812501 4.125,9.8125 5.25,8.125 6.6875,6.6875 8.125,5.25 9.8125,4.125 11.812501,3.25 13.75,2.4375 15.8125,2 18,2 Z m 0,2.3125 c -2.25,0 -4.4375,0.5 -6.4375,1.5625 L 15,9.375 c 1,-0.375 2,-0.5 3,-0.5 1,0 2,0.125 3,0.5 l 3.4375,-3.5 C 22.4375,4.8125 20.25,4.3125 18,4.3125 Z M 5.875,24.4375 9.375,21 C 9,20 8.875,19 8.875,18 c 0,-1 0.125,-2 0.5,-3 l -3.5,-3.437499 C 4.8125,13.5625 4.3125,15.75 4.3125,18 c 0,2.25 0.5,4.4375 1.5625,6.4375 z M 18,31.6875 c 2.25,0 4.4375,-0.5 6.4375,-1.5625 L 21,26.625 c -1,0.375 -2,0.5 -3,0.5 -1,0 -2,-0.125 -3,-0.5 l -3.437499,3.5 C 13.5625,31.1875 15.75,31.6875 18,31.6875 Z m 0,-6.8125 c 1.875,0 3.5,-0.6875 4.875,-2 1.3125,-1.375 2,-3 2,-4.875 0,-1.875 -0.6875,-3.5 -2,-4.875 -1.375,-1.312499 -3,-2 -4.875,-2 -1.875,0 -3.5,0.687501 -4.875,2 -1.312499,1.375 -2,3 -2,4.875 0,1.875 0.687501,3.5 2,4.875 1.375,1.3125 3,2 4.875,2 z M 26.625,21 l 3.5,3.4375 c 1.0625,-2 1.5625,-4.1875 1.5625,-6.4375 0,-2.25 -0.5,-4.4375 -1.5625,-6.4375 L 26.625,15 c 0.375,1 0.5,2 0.5,3 0,1 -0.125,2 -0.5,3 z" />
</svg>
