<?xml version="1.0" encoding="UTF-8" standalone="no"?>
<!-- Created with Inkscape (http://www.inkscape.org/) -->
<svg
   width="32"
   height="32"
   version="1.1"
   xmlns="http://www.w3.org/2000/svg">
  <path d="M 15.999999,0.99999975 C 7.7279383,1.0000001 1,7.7279379 0.9999999,15.999999 1.0000004,24.272062 7.7279386,31 15.999999,31 24.272063,31 31,24.272062 31,15.999999 31,7.7279378 24.272063,0.99999975 15.999999,0.99999975 Z m 0,2.00889365 c 2.181311,0 4.233466,0.5372105 6.036491,1.4831284 L 18.566048,7.9624639 C 17.75633,7.7030162 16.894027,7.5622546 15.999999,7.5622546 c -0.93709,1e-7 -1.838562,0.1574663 -2.681793,0.4414074 L 9.8614962,4.5449907 C 11.688739,3.5656123 13.777714,3.0088935 15.999999,3.0088934 Z m 0,6.5622548 c 3.563011,0 6.430814,2.8658428 6.430814,6.4288508 0,3.563011 -2.867803,6.430814 -6.430814,6.430814 -3.563008,0 -6.4288508,-2.867803 -6.4288507,-6.430814 -1e-7,-3.563008 2.8658427,-6.4288507 6.4288507,-6.4288508 z m 11.480514,0.341355 c 0.962717,1.8152828 1.510593,3.8855388 1.510593,6.0874958 0,2.220723 -0.556042,4.308253 -1.534136,6.134581 l -3.456709,-3.456709 c 0.283185,-0.842179 0.439446,-1.742304 0.439446,-2.677872 0,-0.915995 -0.14985,-1.798071 -0.42179,-2.624901 z m -23.0139947,0.1020138 3.4763275,3.47829 v 0.002 c -0.247107,0.791875 -0.3805911,1.633601 -0.3805911,2.50523 0,0.896203 0.1415106,1.760503 0.4021711,2.571934 L 4.4939837,22.042375 C 3.5462926,20.238047 3.0088936,18.183496 3.0088935,15.999999 c 0,-2.16098 0.5281247,-4.194638 1.4576248,-5.985482 z m 8.9144657,14.005362 c 0.825131,0.270704 1.705195,0.419828 2.619015,0.419828 0.87533,0 1.720116,-0.135276 2.515042,-0.384516 l 3.476327,3.476329 c -1.79216,0.931259 -3.8282,1.459586 -5.991369,1.459586 -2.200075,0 -4.269402,-0.54549 -6.0835719,-1.50667 z" />
</svg>
