<?xml version="1.0" encoding="UTF-8" standalone="no"?>
<!-- Created with Inkscape (http://www.inkscape.org/) -->
<svg
   width="32"
   height="32"
   version="1.1"
   xmlns="http://www.w3.org/2000/svg">
  <path d="m 15.999068,0.99999993 c -1.153716,0 -1.519195,0.47084307 -2.23777,1.09889967 C 13.56525,2.2702477 4.1041626,11.833416 3.0044899,12.924181 c -0.4309044,0.427414 -1.7131345,1.911467 -1.9220455,2.684818 -0.20891111,0.773352 -0.073154,1.759855 1.0228754,2.051158 1.0960321,0.291301 1.7235077,0.230754 2.7215129,0.230754 0,3.33313 0,6.666261 0,9.999391 C 4.8268327,29.522 4.8842157,31 7.2289278,31 c 2.3236609,0 2.9670122,-0.01275 5.9452322,0 0.005,-3.466892 0.01107,-6.433602 0.01663,-9.900493 0,-0.560879 -0.129775,-1.335084 0.790236,-1.335084 1.345986,0 2.691971,0 4.037957,0 0.920011,0 0.790236,0.774205 0.790236,1.335084 0.0055,3.466891 0.0116,6.433601 0.01662,9.900493 2.978223,-0.01275 3.621573,0 5.945233,0 2.344712,0 2.400248,-1.478 2.400248,-3.109698 0,-3.33313 0,-6.666261 0,-9.999391 0.998005,0 1.627328,0.06054 2.723359,-0.230754 1.09603,-0.291303 1.231787,-1.277806 1.022877,-2.051158 C 30.708627,14.835648 29.42455,13.351595 28.993648,12.924181 27.893974,11.833416 18.434734,2.2702477 18.238685,2.0988996 17.52011,1.470843 17.152787,0.99999993 15.999068,0.99999993 Z" />
</svg>
