<?xml version="1.0" encoding="UTF-8" standalone="no"?>
<svg
   xmlns="http://www.w3.org/2000/svg"
   version="1.1"
   width="35.491764"
   height="36">
  <path d="m 17.744896,2.0000038 c -1.220663,0 -1.607348,0.5022327 -2.36762,1.1721597 C 15.169851,3.3549348 5.1597674,13.555647 3.9962843,14.71913 c -0.4559084,0.455908 -1.8125419,2.038898 -2.0335754,2.863806 -0.2210335,0.824908 -0.077399,1.877178 1.0822294,2.187901 1.1596313,0.310722 1.8235172,0.246138 2.8794335,0.246138 v 5.219706 5.446311 c 0,1.740478 0.060713,3.317012 2.5414808,3.317012 2.4584954,0 3.1391784,-0.0136 6.2902154,0 0.0053,-3.698019 0.01171,-6.862509 0.01759,-10.560527 0,-0.59827 -0.137305,-1.424089 0.836091,-1.424089 h 2.135156 2.137111 c 0.973396,0 0.836091,0.825819 0.836091,1.424089 0.0059,3.698018 0.01228,6.862508 0.01759,10.560527 3.151039,-0.0136 3.831721,0 6.290215,0 2.480768,0 2.539527,-1.576534 2.539527,-3.317012 v -5.446311 -5.219706 c 1.055916,0 1.721756,0.06458 2.881387,-0.246138 1.159628,-0.310723 1.303263,-1.362993 1.08223,-2.187901 C 33.308003,16.758028 31.949416,15.175038 31.493509,14.71913 30.330025,13.555647 20.321896,3.3549348 20.114471,3.1721635 19.354199,2.5022365 18.965561,2.0000038 17.744896,2.0000038 Z" />
</svg>
