<?xml version="1.0" encoding="UTF-8" standalone="no"?>
<!-- Created with Inkscape (http://www.inkscape.org/) -->
<svg
   width="32"
   height="32"
   version="1.1"
   xmlns="http://www.w3.org/2000/svg">
  <path d="m 11.642458,5.1114776 c 1.05e-4,2.2754174 1.94296,4.1199828 4.339627,4.1200828 2.396668,-10e-5 4.339522,-1.8446652 4.339628,-4.1200828 -1.06e-4,-2.2754175 -1.94296,-4.11998271 -4.349596,-4.1114481 -2.406637,0.00853 -4.329623,1.8481102 -4.329659,4.1114481 z M 10.263942,11.92771 c -0.3923388,0 -0.7065365,0.149396 -1.0204094,0.372892 -0.9558457,0.907489 -1.0262825,3.71968 0,4.694042 0.3138729,0.223495 0.6280706,0.372891 1.0204094,0.372891 h 1.413172 v 8.194468 c -1.050421,0 -1.9132599,-0.02447 -2.4435563,0.54331 C 8.3700417,27.029864 8.1894215,31 10.263942,31 h 11.457465 c 2.242734,0 2.085344,-3.986852 1.055504,-4.943267 -0.72416,-0.57533 -0.975777,-0.49473 -2.46868,-0.49473 V 13.269388 c 0,-0.937883 -0.551903,-1.341678 -1.413171,-1.341678 z" />
</svg>
