<?xml version="1.0" encoding="UTF-8" standalone="no"?>
<svg
   xmlns="http://www.w3.org/2000/svg"
   version="1.1"
   width="19.29851"
   height="36">
  <path d="M 9.6054688 1.9355469 A 4.4025369 4.4025369 0 0 0 5.2363281 6.3378906 A 4.4025369 4.4025369 0 0 0 9.6386719 10.740234 A 4.4025369 4.4025369 0 0 0 14.041016 6.3378906 A 4.4025369 4.4025369 0 0 0 9.6386719 1.9355469 A 4.4025369 4.4025369 0 0 0 9.6054688 1.9355469 z M 3.8378906 13.621094 C 3.4398817 13.621094 3.1211433 13.780725 2.8027344 14.019531 C 1.8330748 14.989191 1.76162 17.994042 2.8027344 19.035156 C 3.1211433 19.273962 3.4398817 19.433594 3.8378906 19.433594 L 5.2714844 19.433594 L 5.2714844 28.189453 L 3.8378906 28.189453 C 3.4398817 28.189453 3.1211433 28.349085 2.8027344 28.587891 C 1.6911242 29.699501 1.7614131 32.480163 2.8027344 33.521484 C 3.1211433 33.839892 3.4398817 34 3.8378906 34 L 15.460938 34 C 15.858947 34 16.175732 33.839892 16.494141 33.521484 C 17.553668 32.461957 17.59092 29.68467 16.494141 28.587891 C 16.175732 28.349085 15.858947 28.189453 15.460938 28.189453 L 14.027344 28.189453 L 14.027344 15.054688 C 14.027344 14.656678 13.867236 14.337939 13.548828 14.019531 C 13.310028 13.780725 12.991759 13.621094 12.59375 13.621094 L 3.8378906 13.621094 z " />
</svg>
