<?xml version="1.0" encoding="UTF-8" standalone="no"?>
<!-- Created with Inkscape (http://www.inkscape.org/) -->
<svg
   xmlns="http://www.w3.org/2000/svg"
   version="1.1"
   width="36"
   height="36">
  <path d="M 30.420091,29.031964 V 15.515982 h -2.849315 c 0.292238,0.876712 0.438356,1.826484 0.438356,2.776256 0,1.753424 -0.438356,3.36073 -1.315068,4.821917 -0.949772,1.461188 -2.118721,2.630137 -3.652968,3.50685 -1.534247,0.876712 -3.214612,1.315068 -5.041096,1.315068 -2.703196,0 -5.041096,-0.949772 -7.013698,-2.849315 -1.972603,-1.899543 -2.922375,-4.164383 -2.922375,-6.79452 0,-0.949772 0.146119,-1.899544 0.438356,-2.776256 H 5.50685 v 13.515982 c 0,0.365296 0.146118,0.730593 0.365296,0.949771 0.292238,0.219178 0.584475,0.365297 0.949772,0.365297 h 22.283105 c 0.365297,0 0.657534,-0.146119 0.949772,-0.365297 0.219178,-0.219178 0.365296,-0.584475 0.365296,-0.949771 z M 24.502283,17.926941 c 0,-1.680365 -0.657534,-3.214612 -1.899543,-4.383562 C 21.287671,12.30137 19.826484,11.716895 18,11.716895 c -1.753424,0 -3.287671,0.584475 -4.52968,1.826484 -1.242009,1.16895 -1.899544,2.703197 -1.899544,4.383562 0,1.753424 0.657535,3.214612 1.899544,4.456621 1.242009,1.16895 2.776256,1.826484 4.52968,1.826484 1.826484,0 3.287671,-0.657534 4.60274,-1.826484 1.242009,-1.242009 1.899543,-2.703197 1.899543,-4.456621 z m 5.917808,-7.525114 v -3.43379 c 0,-0.365297 -0.146118,-0.730594 -0.438356,-1.022831 C 29.689498,5.652968 29.39726,5.50685 28.958904,5.50685 h -3.652968 c -0.365297,0 -0.730593,0.146118 -1.022831,0.438356 -0.292237,0.292237 -0.365297,0.657534 -0.365297,1.022831 v 3.43379 c 0,0.438356 0.07306,0.730594 0.365297,1.022831 0.292238,0.292237 0.657534,0.438356 1.022831,0.438356 h 3.652968 c 0.438356,0 0.730594,-0.146119 1.022831,-0.438356 0.292238,-0.292237 0.438356,-0.584475 0.438356,-1.022831 z M 34,6.091324 v 23.817352 c 0,1.16895 -0.365297,2.118721 -1.16895,2.922374 C 32.027397,33.634703 31.077626,34 29.908676,34 H 6.091324 C 4.922375,34 3.972603,33.634703 3.16895,32.83105 2.365297,32.027397 2,31.077626 2,29.908676 V 6.091324 C 2,4.922375 2.365297,3.972603 3.16895,3.16895 3.972603,2.365297 4.922375,2 6.091324,2 h 23.817352 c 1.16895,0 2.118721,0.365297 2.922374,1.16895 C 33.634703,3.972603 34,4.922375 34,6.091324 Z" />
</svg>
