<?xml version="1.0" encoding="UTF-8" standalone="no"?>
<!-- Created with Inkscape (http://www.inkscape.org/) -->
<svg
   width="32"
   height="32"
   version="1.1"
   xmlns="http://www.w3.org/2000/svg">
  <path d="M 4.8230331,1 C 2.7340591,1 1.0000001,2.7427462 1.0000001,4.8445461 V 27.155455 C 1.0000001,29.257253 2.7340591,31 4.8230331,31 H 27.176967 C 29.265942,31 31,29.257253 31,27.155455 V 4.8445461 C 31,2.7427462 29.265942,1 27.176967,1 Z M 22.853415,4.2468974 h 3.406257 c 0.749075,0 1.353545,0.6062227 1.353545,1.3598954 v 3.2860877 c 0,0.7536726 -0.60447,1.3598945 -1.353545,1.3598945 h -3.406257 c -0.749074,0 -1.351597,-0.6062219 -1.351597,-1.3598945 V 5.6067928 c 0,-0.7536727 0.602523,-1.3598954 1.351597,-1.3598954 z M 16,10.072502 c 3.273324,0 5.891327,2.634076 5.891327,5.927498 0,3.293422 -2.618003,5.927498 -5.891327,5.927498 -3.273324,0 -5.891327,-2.634076 -5.891327,-5.927498 0,-3.293423 2.618002,-5.927498 5.891327,-5.927498 z M 4.3049859,13.707381 H 7.01597 C 6.8298939,14.441483 6.7316282,15.209554 6.7316282,16 c 4e-7,5.130543 4.1691368,9.325277 9.2683718,9.325277 5.099234,0 9.268372,-4.194735 9.268372,-9.325277 0,-0.790446 -0.09827,-1.558517 -0.284341,-2.292619 h 2.710984 v 13.058132 c 0,0.316864 -0.489475,0.909209 -0.800442,0.909209 H 4.8230331 c -0.310965,0 -0.5180472,-0.592345 -0.5180472,-0.909209 z" />
</svg>
