<?xml version="1.0" encoding="UTF-8" standalone="no"?>
<!-- Created with Inkscape (http://www.inkscape.org/) -->
<svg
   width="32"
   height="32"
   version="1.1"
   xmlns="http://www.w3.org/2000/svg">
  <path d="m 9.6729794,1.1060528 c -4.87519,0 -8.5511,3.52042 -8.5511,8.56927 0,0 -0.12188005,4.0987602 -0.12188005,6.2071902 0,2.10844 0.12188005,6.44105 0.12188005,6.44105 0,5.02125 3.7129,8.59055 8.5511,8.59055 0,0 4.3198596,0.0872 6.4292596,0.0859 2.1094,-10e-4 6.22478,-0.0859 6.22478,-0.0859 5.15778,0 8.5511,-3.78733 8.5511,-8.59055 0,0 0.1214,-4.33261 0.12188,-6.44105 4.6e-4,-2.10843 -0.12188,-6.2071902 -0.12188,-6.2071902 0,-5.13987 -3.65067,-8.56927 -8.5511,-8.56927 0,0 -4.11538,-0.10608 -6.22478,-0.10608 -2.1094,0 -6.4292596,0.10608 -6.4292596,0.10608 z m 0,2.65548 c 0,0 4.3199896,-0.11716 6.4292596,-0.11681 2.10927,3.7e-4 6.22478,0.11681 6.22478,0.11681 3.28351,0.0528 5.83416,2.61543 5.88658,5.91379 0,0 0.10052,4.0988802 0.10052,6.2071902 0,2.10831 -0.10052,6.44105 -0.10052,6.44105 -0.0524,3.29836 -2.60308,5.85997 -5.88658,5.91379 0,0 -4.11551,0.0998 -6.22478,0.10072 -2.10927,9.7e-4 -6.4292596,-0.10072 -6.4292596,-0.10072 -3.28352,-0.0508 -5.8366,-2.61539 -5.88658,-5.91379 0,0 -0.10216,-4.33274 -0.10052,-6.44105 0.002,-2.10831 0.10052,-6.2071902 0.10052,-6.2071902 0.0551,-3.29831 2.60306,-5.86206 5.88658,-5.91379 z m 14.3013296,2.43002 c -0.98938,-1e-5 -1.79143,0.80572 -1.79141,1.79964 -2e-5,0.99392 0.80203,1.79966 1.79141,1.79964 0.98938,2e-5 1.79143,-0.80572 1.79142,-1.79964 10e-6,-0.99392 -0.80204,-1.79965 -1.79142,-1.79964 z m -7.87207,2.12294 c -4.2092,0 -7.7520596,3.3394902 -7.7520596,7.5680202 0,4.22853 3.5428596,7.80188 7.7520596,7.80188 4.2092,0 7.54758,-3.57335 7.54758,-7.80188 0,-4.22853 -3.33838,-7.5680202 -7.54758,-7.5680202 z m 0,2.6580202 c 2.77927,0 4.90171,2.11797 4.90171,4.91 0,2.79203 -2.12244,5.14386 -4.90171,5.14386 -2.77927,0 -5.10619,-2.35183 -5.10619,-5.14386 0,-2.79203 2.32692,-4.91 5.10619,-4.91 z" />
</svg>
