<?xml version="1.0" encoding="UTF-8" standalone="no"?>
<svg
   xmlns="http://www.w3.org/2000/svg"
   version="1.1"
   width="36"
   height="35.469028">
  <path d="M 4.9310534,1.9705022 C 3.0540356,1.9705022 2,3.1491727 2,4.7431636 V 33.498526 c 0,0 6.3033133,-5.844136 6.8748564,-6.41568 0.7181609,-0.718161 1.1926586,-0.59037 2.1198926,-0.59037 h 7.604421 v 0.0016 h 11.458627 c 1.423682,0 2.536354,-0.512111 3.169441,-1.316734 C 33.860326,24.37272 34,23.429438 34,22.652668 V 5.3959314 C 34,4.482093 33.68706,3.585937 33.036848,2.9464535 32.386635,2.30697 31.446665,1.9721022 30.40178,1.9721022 H 14.223388 v -0.0016 z M 15.165741,4.0199998 H 30.40178 c 0.632589,0 0.981064,0.1734891 1.198339,0.3871806 0.217277,0.2136916 0.351983,0.5162083 0.351983,0.988751 V 22.652668 c 0,0.510141 -0.112426,0.97704 -0.334383,1.259137 -0.221957,0.282098 -0.568733,0.534373 -1.559922,0.534373 H 20.20389 Z m 9.095546,4.1069947 v 1.6127191 h -4.225389 v 2.0478984 h 6.628469 c -0.436461,0.789594 -1.021909,1.589669 -1.665517,2.334283 -0.927297,-1.007796 -1.323134,-1.705516 -1.323134,-1.705516 l -1.777512,1.017551 c 0,0 0.531559,0.902449 1.695916,2.150292 -1.426093,1.356328 -2.691065,2.260686 -2.691065,2.260686 l 1.180741,1.673517 c 0,0 1.418953,-1.010015 2.99345,-2.518275 0.969208,0.848301 2.150885,1.746815 3.631818,2.593471 l 1.015949,-1.779111 c -1.327388,-0.758874 -2.37447,-1.5387 -3.228639,-2.270286 0.982308,-1.101576 1.894529,-2.370386 2.449478,-3.756612 h 1.59832 V 9.7397136 H 26.309184 V 8.1269945 Z M 9.1884404,8.6021705 h 1.7727116 c 1.655769,2.8655125 3.476626,7.3102565 3.476626,10.8522575 H 12.38988 c 0,-0.482793 -0.0539,-1.012826 -0.131194,-1.559922 H 7.8909053 c -0.077209,0.547096 -0.1295929,1.077129 -0.1295929,1.559922 H 5.7134146 c 0,-3.502001 1.819256,-7.986745 3.4750258,-10.8522575 z m 0.8863566,2.2654865 c -0.6852277,1.490058 -1.3338446,3.267017 -1.7711122,4.978951 h 3.5422232 c -0.437644,-1.711934 -1.085652,-3.488893 -1.771111,-4.978951 z" />
</svg>
