<?xml version="1.0" encoding="UTF-8" standalone="no"?>
<!-- Created with Inkscape (http://www.inkscape.org/) -->
<svg
   width="32"
   height="32"
   version="1.1"
   xmlns="http://www.w3.org/2000/svg">
  <path d="m 3.7478625,0.99999987 c -1.7597042,0 -2.74786254,1.12154553 -2.74786254,2.63828273 V 31 c 0,0 5.90935624,-5.560897 6.44517794,-6.104741 0.6732761,-0.683355 1.1181166,-0.561757 1.9873986,-0.561757 5.9581475,4.04e-4 11.9126285,0.0015 17.8716085,0.0015 C 29.707348,24.335002 31,22.928115 31,20.679792 V 4.2594136 C 31,2.2590656 29.459086,1.0015224 27.626669,1.0015224 19.665312,1.0025561 11.708147,1.0000022 3.7478625,0.99999987 Z M 13.342882,2.9501673 h 14.283787 c 0.98146,0 1.453427,0.5077582 1.453427,1.3092463 V 20.679792 c 0,1.268773 -0.849851,1.706587 -1.775911,1.706587 h -9.238038 z m 8.527075,3.9079469 v 1.5345581 h -3.961302 v 1.9486447 h 6.214189 c -0.409182,0.751326 -0.958039,1.512625 -1.561422,2.221151 -0.869341,-0.958953 -1.240438,-1.622857 -1.240438,-1.622857 l -1.666417,0.968235 c 0,0 0.498336,0.858711 1.589921,2.046077 -1.336962,1.290592 -2.522874,2.15112 -2.522874,2.15112 l 1.106945,1.592409 c 0,0 1.330268,-0.961064 2.806359,-2.396226 0.908633,0.807188 2.016455,1.662155 3.40483,2.467777 L 26.9922,16.076119 c -1.244426,-0.722096 -2.226066,-1.464127 -3.026849,-2.160256 0.920914,-1.048188 1.776121,-2.255504 2.296386,-3.574546 h 1.498425 V 8.3926723 H 23.78986 V 6.8581142 Z M 7.7391629,7.3102606 H 9.4010795 C 10.953364,10.036894 12.660417,14.266221 12.660417,17.636557 h -1.919904 c 0,-0.459395 -0.05053,-0.96374 -0.122995,-1.48432 H 6.5227237 c -0.072384,0.52058 -0.1214934,1.024925 -0.1214934,1.48432 H 4.4813261 c 0,-3.332275 1.7055526,-7.599663 3.2578368,-10.3262964 z M 8.5701215,9.4659493 C 7.9277215,10.88379 7.3196429,12.574627 6.9097045,14.203592 H 10.230539 C 9.8202475,12.574627 9.2127395,10.88379 8.5701215,9.4659493 Z" />
</svg>
