<?xml version="1.0" encoding="UTF-8" standalone="no"?>
<!-- Created with Inkscape (http://www.inkscape.org/) -->
<svg
   width="32"
   height="32"
   version="1.1"
   xmlns="http://www.w3.org/2000/svg">
  <path d="M 4.658536,1 C 6.679998,1 8.317073,2.6370752 8.317073,4.6585365 8.317073,6.679998 6.679998,8.317073 4.658536,8.317073 2.6370753,8.317073 1,6.679998 1,4.6585365 1,2.6370752 2.6370753,1 4.658536,1 Z M 23.461891,11.243902 C 29.356516,11.243902 31,14.37214 31,20.169207 V 31 h -5.853659 v -9.76372 c 0,-2.595119 -1.036954,-4.870427 -3.460366,-4.870427 -2.942435,0 -4.344511,1.992717 -4.344511,5.262958 V 31 h -5.85366 V 11.487804 h 5.556537 v 2.863825 c 0.449077,-0.758047 3.346332,-3.107727 6.41755,-3.107727 z M 1.7317069,11.487804 H 7.585366 V 31 H 1.7317069 Z" />
</svg>
