<?xml version="1.0" encoding="UTF-8" standalone="no"?>
<!-- Created with Inkscape (http://www.inkscape.org/) -->
<svg
   xmlns="http://www.w3.org/2000/svg"
   version="1.1"
   width="36"
   height="36">
  <path d="M 17.185935,33.9783 C 12.328805,33.718516 7.8933688,31.306619 5.0332317,27.369914 2.8777562,24.40311 1.8013262,20.697731 2.0302719,17.032872 2.3424062,12.036376 4.8977652,7.5600563 9.0527168,4.7313858 13.730024,1.547098 19.917897,1.1122045 25.008847,3.6099635 c 1.598308,0.7841732 2.896671,1.7011725 4.160119,2.9381809 0.762559,0.7466035 1.322582,1.3971119 1.884482,2.188966 2.457143,3.4627026 3.425061,7.7013836 2.723994,11.9288106 -0.722033,4.353836 -3.267665,8.251161 -6.994462,10.708413 -2.80309,1.848209 -6.248536,2.783062 -9.597045,2.603966 z m -4.13192,-5.474606 c 0.381553,-0.06581 0.888816,-0.230494 1.216623,-0.394961 0.679416,-0.340877 0.753219,-0.406816 3.293739,-2.942761 l 2.414975,-2.410624 -0.248887,0.09033 c -0.377275,0.13693 -0.822505,0.208306 -1.283541,0.208306 -0.469674,0 -0.844413,-0.06714 -1.305165,-0.233846 l -0.318904,-0.115382 -1.554009,1.546273 c -1.662067,1.653792 -1.750247,1.7268 -2.309407,1.923221 -0.272996,0.0959 -0.348275,0.105758 -0.792426,0.103802 -0.429438,-0.0019 -0.525379,-0.01445 -0.767679,-0.100516 -0.397951,-0.141353 -0.667652,-0.312067 -0.968903,-0.613289 -0.30025,-0.300222 -0.4707611,-0.569008 -0.6145996,-0.968825 -0.088055,-0.244758 -0.099713,-0.333782 -0.1005215,-0.767596 -8.237e-4,-0.442303 0.00954,-0.520492 0.1050583,-0.792351 0.2051258,-0.583831 0.2043498,-0.582953 2.9092158,-3.297043 1.393192,-1.397943 2.637617,-2.617064 2.765388,-2.709157 0.469368,-0.338302 0.925577,-0.486566 1.485395,-0.48274 0.691241,0.0047 1.208338,0.228526 1.802246,0.78002 0.441409,0.409888 0.608007,0.494771 0.972508,0.495496 0.449597,8.89e-4 0.846848,-0.246878 1.046989,-0.653025 0.1236,-0.25082 0.121316,-0.743539 -0.0045,-0.985225 -0.210482,-0.404111 -1.166243,-1.188154 -1.799706,-1.476363 -0.714389,-0.325028 -1.196725,-0.427571 -2.01747,-0.428908 -0.679266,-0.0011 -0.945857,0.03709 -1.491196,0.213697 -0.698971,0.226352 -1.215335,0.535335 -1.830961,1.095613 -0.803804,0.731538 -5.0811629,5.063018 -5.3207152,5.388037 -0.4222633,0.572917 -0.7590321,1.375552 -0.8786383,2.094094 -0.058605,0.352075 -0.055709,1.176296 0.00538,1.531695 0.3280847,1.908644 1.7936964,3.451653 3.6746095,3.86866 0.626188,0.138829 1.241623,0.149552 1.915167,0.03337 z m 6.719983,-6.828828 c 0.995574,-0.159972 1.760157,-0.538213 2.56712,-1.269957 0.385623,-0.349677 5.031626,-5.032904 5.217388,-5.259185 0.649141,-0.790752 1.019,-1.847016 1.024376,-2.92549 0.004,-0.800281 -0.131278,-1.41101 -0.466907,-2.108052 -0.659523,-1.3697169 -1.853655,-2.2966421 -3.368796,-2.6149772 -0.538933,-0.113232 -1.328545,-0.113232 -1.867479,0 -0.684312,0.1437751 -1.1996,0.3644151 -1.803266,0.772135 -0.277348,0.1873236 -0.774855,0.6627208 -2.708124,2.5877702 -1.3026,1.297058 -2.364369,2.362033 -2.359488,2.36661 0.0049,0.0046 0.153275,-0.04001 0.329764,-0.09908 0.788294,-0.263854 1.709777,-0.254216 2.450206,0.02563 0.136975,0.05177 0.280055,0.10382 0.31795,0.115669 0.0529,0.01654 0.425689,-0.333842 1.604451,-1.507977 0.938706,-0.935023 1.616251,-1.57989 1.743181,-1.659111 0.78629,-0.490739 1.6583,-0.5398376 2.484652,-0.1398955 0.640931,0.3101995 1.152558,0.9658125 1.311638,1.6807625 0.131704,0.591928 0.02123,1.282654 -0.291075,1.819973 -0.09133,0.157136 -0.830493,0.920592 -2.786866,2.878457 -2.569493,2.571456 -2.673122,2.669974 -2.964581,2.818423 -0.406541,0.207065 -0.715097,0.283882 -1.151429,0.28665 -0.447766,0.0028 -0.681446,-0.05161 -1.118377,-0.260602 -0.278129,-0.133034 -0.414938,-0.231101 -0.710376,-0.509203 -0.440166,-0.414342 -0.614793,-0.50365 -0.983753,-0.50311 -0.357705,5.19e-4 -0.602966,0.110326 -0.849925,0.380514 -0.312224,0.34159 -0.38753,0.826327 -0.191334,1.231578 0.251302,0.519072 1.235795,1.288219 2.054302,1.604946 0.847702,0.328027 1.675883,0.422643 2.516748,0.287529 z" />
</svg>
