<?xml version="1.0" encoding="UTF-8" standalone="no"?>
<!-- Created with Inkscape (http://www.inkscape.org/) -->
<svg
   width="32"
   height="32"
   version="1.1"
   xmlns="http://www.w3.org/2000/svg">
  <path d="m 10.873779,30.073617 c 3.322525,-2.799788 4.04139,-3.557439 7.821198,-7.310159 -1.549358,0.638487 -3.195627,0.44078 -4.459064,-0.07109 -1.75513,1.687448 -3.100527,2.971683 -4.8340167,4.381157 -3.132079,2.546652 -6.8850396,-2.307438 -4.5980337,-4.716059 3.0591957,-3.221869 3.5118977,-3.810598 7.5561974,-7.639551 1.77735,-1.750845 4.085455,-0.188773 5.721792,0.767381 0.677881,0.401418 1.492668,-3.56e-4 1.7754,-0.57102 0.174604,-0.352421 0.342636,-1.100834 -0.305361,-1.681791 -2.395256,-2.018955 -5.142828,-2.871915 -7.199904,-2.079297 -0.98741,0.318039 -1.716857,0.752181 -2.5865297,1.539411 -1.135503,1.027863 -7.1779665,7.113892 -7.5163744,7.570567 -1.1510461,1.668747 -1.30750505,3.155331 -1.2336239,5.094486 0.4634727,2.68178 2.5338864,4.849812 5.1909813,5.435738 1.732728,0.335389 3.376035,0.368362 4.6673387,-0.719778 z M 22.031353,19.460928 C 22.57611,18.969607 29.109319,12.362277 29.401762,12.071406 31.435287,10.04881 31.3021,7.4305231 30.256974,5.1333951 29.371578,3.1873502 27.43012,1.5762513 25.289737,1.1289682 23.338021,0.73237766 21.45609,1.2759247 20.244784,2.4096085 c -2.73846,2.5629782 -4.13391,3.9228786 -7.158825,6.9612496 1.367226,-0.737116 2.998107,-0.57582 4.376315,0.05932 1.727631,-1.481526 2.74398,-2.626404 4.729074,-4.4499789 2.625982,-2.7430208 7.496674,1.5211199 4.951684,4.7222139 -2.884588,2.9499629 -4.62849,4.9658359 -8.124852,8.0045119 -2.366332,0.767614 -3.818335,-0.46865 -5.224983,-1.338858 -0.429088,-0.265452 -1.226505,0.108105 -1.575375,0.487737 -0.441067,0.479956 -0.547447,1.161045 -0.270291,1.730452 0.355007,0.729333 1.745762,1.810035 2.902037,2.25506 2.670197,0.881961 5.216321,0.362766 7.181785,-1.380388 z" />
</svg>
