<?xml version="1.0" encoding="UTF-8" standalone="no"?>
<!-- Created with Inkscape (http://www.inkscape.org/) -->
<svg
   width="32"
   height="32"
   version="1.1"
   xmlns="http://www.w3.org/2000/svg">
  <path d="M 4.2728679,0.99999998 C 2.4646741,1.0000918 0.99913571,2.3487814 1.0000004,4.1955924 1.0001236,6.0416899 2.4653726,7.3892664 4.2728679,7.3893581 6.0803631,7.3892664 7.5456121,6.0416899 7.5457353,4.1955924 7.5466,2.3487814 6.0810616,1.0000918 4.2728679,0.99999998 Z M 23.521064,10.20247 c -2.45881,0.122306 -4.444345,1.107512 -5.887591,3.594735 v -3.093661 h -6.50557 V 31 h 6.50557 V 19.46723 c 0,-4.347643 6.794256,-5.029605 6.857009,0 V 30.999999 H 31 V 19.46723 C 31,16.526839 30.376827,14.074625 28.99206,12.496853 27.607293,10.9908 25.805929,10.20247 23.521064,10.20247 Z M 1.0190957,10.703544 V 30.999999 H 7.52664 V 10.703544 Z" />
</svg>
