<?xml version="1.0" encoding="UTF-8" standalone="no"?>
<!-- Created with Inkscape (http://www.inkscape.org/) -->
<svg
   xmlns="http://www.w3.org/2000/svg"
   version="1.1"
   width="36"
   height="34.520546">
  <path d="M 9.2328765,11.926939 V 32.602738 H 2.3652969 V 11.926939 Z M 9.6712329,5.4977159 c 0,1.0228312 -0.2922373,1.8995432 -1.0228311,2.5570774 C 7.917808,8.7123275 6.9680365,9.0776244 5.7990862,9.0776244 v 0 c -1.1689493,0 -2.1187209,-0.3652969 -2.7762551,-1.0228311 C 2.2922373,7.3972591 2,6.5205471 2,5.4977159 2,4.4748848 2.2922373,3.5981728 3.0228311,2.9406386 3.7534249,2.2831044 4.7031964,1.9178075 5.8721458,1.9178075 c 1.1689502,0 2.0456622,0.3652969 2.776256,1.0228311 0.6575342,0.6575342 1.0228311,1.5342462 1.0228311,2.5570773 z M 34,20.694062 V 32.602738 H 27.13242 V 21.497715 c 0,-1.461187 -0.219178,-2.557078 -0.803653,-3.43379 -0.584475,-0.803652 -1.461187,-1.242009 -2.630137,-1.242009 -0.876713,0 -1.607306,0.292238 -2.191781,0.730594 -0.657534,0.511415 -1.095891,1.09589 -1.388128,1.826484 -0.146118,0.365297 -0.219178,0.949771 -0.219178,1.680365 v 11.543379 h -6.867579 c 0.07306,-5.552511 0.07306,-10.082191 0.07306,-13.515982 0,-3.43379 0,-5.552511 0,-6.210045 l -0.07306,-0.949772 h 6.867579 v 2.995434 0 c 0.292237,-0.438356 0.511415,-0.876713 0.803653,-1.16895 0.292238,-0.365297 0.730593,-0.730594 1.242009,-1.095891 0.438356,-0.365296 1.095891,-0.730593 1.753425,-0.949771 0.730593,-0.219178 1.534246,-0.292237 2.410958,-0.292237 2.41096,0 4.310503,0.803653 5.77169,2.337899 C 33.342465,15.360729 34,17.698628 34,20.694062 Z" />
</svg>
