<?xml version="1.0" encoding="UTF-8" standalone="no"?>
<!-- Created with Inkscape (http://www.inkscape.org/) -->
<svg
   width="32"
   height="32"
   version="1.1"
   xmlns="http://www.w3.org/2000/svg">
  <path d="M 15.236813,30.979655 C 10.683253,30.736107 6.5250304,28.474954 3.8436518,24.784293 1.8228934,22.002914 0.81374026,18.529121 1.0283768,15.093315 1.3210028,10.409101 3.7166519,6.212551 7.6119191,3.5606722 11.996896,0.57540235 17.798027,0.16768965 22.570793,2.5093388 c 2.375214,1.2730342 4.235489,2.8032578 5.666814,4.8067004 2.303572,3.2462838 3.210995,7.2200468 2.553744,11.1832598 -0.676906,4.081721 -3.063436,7.735464 -6.557308,10.039138 -2.627897,1.732696 -5.858003,2.60912 -8.99723,2.441218 z M 12.665176,25.33567 c 2.204963,-1.868093 2.682031,-2.373618 5.190465,-4.877533 -1.028217,0.426015 -2.120748,0.2941 -2.959216,-0.04743 -1.164776,1.12591 -2.057636,1.982786 -3.208049,2.923225 -2.078576,1.699194 -4.5691935,-1.539585 -3.0514433,-3.14668 2.0302063,-2.149718 2.3306373,-2.542534 5.0145993,-5.097313 1.179522,-1.168211 2.711275,-0.125954 3.797214,0.512017 0.44987,0.267836 0.990596,-2.37e-4 1.178228,-0.381 0.115875,-0.235144 0.227387,-0.734506 -0.202649,-1.122136 -1.58959,-1.347101 -3.412991,-1.916218 -4.77815,-1.387363 -0.655285,0.212205 -1.139376,0.501876 -1.716526,1.027137 -0.753566,0.685817 -4.7635909,4.746579 -4.9881721,5.051285 -0.763881,1.113433 -0.8677135,2.105321 -0.818683,3.399177 0.3075794,1.789354 1.6815902,3.235925 3.4449462,3.626869 1.1499089,0.223782 2.2404749,0.245781 3.0974359,-0.480255 z m 4.997946,-5.890485 c 0.933351,-0.149974 1.650147,-0.504575 2.406675,-1.190585 0.361522,-0.327822 4.697225,-4.736409 4.891302,-4.930486 1.34953,-1.34953 1.261142,-3.096522 0.567553,-4.6292264 C 24.941068,7.3964343 23.652638,6.321466 22.232193,6.0230268 20.936954,5.758411 19.688028,6.1210798 18.884156,6.8775043 c -1.817353,1.7100875 -2.743431,2.6174495 -4.750887,4.6447317 0.907348,-0.491824 1.989666,-0.384202 2.9043,0.03958 1.146527,-0.988513 1.821017,-1.7524064 3.138406,-2.9691446 1.742709,-1.8302168 4.975098,1.0149316 3.286139,3.1507876 -1.91433,1.968294 -3.071654,3.313338 -5.391982,5.340824 -1.570394,0.512173 -2.534003,-0.312696 -3.467511,-0.893322 -0.284761,-0.177117 -0.813959,0.07213 -1.045483,0.325431 -0.29271,0.32024 -0.363309,0.774681 -0.179376,1.154604 0.235596,0.48663 1.158558,1.207705 1.925909,1.504637 0.79472,0.307525 1.57114,0.396228 2.359451,0.269558 z" />
</svg>
