<?xml version="1.0" encoding="UTF-8" standalone="no"?>
<!-- Created with Inkscape (http://www.inkscape.org/) -->
<svg
   xmlns="http://www.w3.org/2000/svg"
   version="1.1"
   width="26"
   height="36">
  <path d="m 18.333335,12.766359 c 0,-1.474843 -0.51142,-2.8022033 -1.53425,-3.8345939 -1.09589,-1.0323905 -2.3379,-1.5485852 -3.79908,-1.5485852 -1.46119,0 -2.7032,0.5161947 -3.79909,1.5485852 -1.0228299,1.0323906 -1.5342499,2.3597509 -1.5342499,3.8345939 0,1.474843 0.51142,2.72846 1.5342499,3.834593 1.09589,1.032391 2.3379,1.548586 3.79909,1.548586 1.46118,0 2.70319,-0.516195 3.79908,-1.548586 1.02283,-1.106133 1.53425,-2.35975 1.53425,-3.834593 z m 5.33333,0 c 0,1.548585 -0.21918,2.802203 -0.65753,3.760851 l -7.951932,16.235326 c -0.18702,0.371239 -0.498719,0.680605 -0.872758,0.928097 C 13.810414,33.938127 13.436375,34 13.000005,34 12.563626,34 12.189587,33.938127 11.815556,33.690633 11.441517,33.443141 11.129827,33.133775 10.942807,32.762536 L 2.9908651,16.52721 C 2.552515,15.568562 2.333335,14.314944 2.333335,12.766359 c 0,-3.0234299 1.02283,-5.5306638 3.14155,-7.6691876 C 7.5205451,3.0323905 10.077625,2 13.000005,2 c 2.92237,0 5.47945,1.0323905 7.52511,3.0971714 2.11872,2.1385238 3.14155,4.6457577 3.14155,7.6691876 z" />
</svg>
