<?xml version="1.0" encoding="UTF-8" standalone="no"?>
<!-- Created with Inkscape (http://www.inkscape.org/) -->
<svg
   width="32"
   height="32"
   version="1.1"
   xmlns="http://www.w3.org/2000/svg">
  <path d="M 16,0.99999981 C 10.47727,1.0002405 6.0002417,5.4636813 6,10.970455 c 0.00782,1.117161 0.2037812,2.291279 0.5798237,3.343666 2.2500035,5.31189 5.2461973,10.487352 7.7238003,15.817966 0.296367,0.632208 1.120817,0.883533 1.696376,0.867166 0.57556,0.01637 1.382926,-0.243202 1.696377,-0.867166 2.663129,-5.315774 5.473797,-10.506076 7.7238,-15.817966 C 25.796219,13.261734 25.992178,12.087616 26,10.970455 25.999758,5.4636813 21.522732,1.0002405 16,0.99999981 Z M 16,6.0565146 A 5.0652544,5.0502888 0 0 1 21.065622,11.105216 5.0652544,5.0502888 0 0 1 16,16.155873 5.0652544,5.0502888 0 0 1 10.934378,11.105216 5.0652544,5.0502888 0 0 1 16,6.0565146 Z" />
</svg>
