<?xml version="1.0" encoding="UTF-8" standalone="no"?>
<!-- Created with Inkscape (http://www.inkscape.org/) -->
<svg
   width="32"
   height="32"
   version="1.1"
   xmlns="http://www.w3.org/2000/svg">
  <path d="M 15.99907,1 C 13.347446,1 11.074736,1.8955595 9.1807198,3.7612307 7.2867032,5.6269025 6.3031823,7.9406727 6.3031823,10.552612 v 4.030152 C 4.4447333,14.582764 3.5,15.219164 3.5,16.671997 V 28.910766 C 3.4999999,30.242162 4.4318308,31 5.6209755,31 H 26.379024 C 27.936631,31 28.5,30.178917 28.5,28.910766 V 16.671997 c 0,-1.885808 -1.398362,-2.089233 -2.803182,-2.089233 v -4.030152 c 0,-2.6119393 -0.98538,-4.9257096 -2.879398,-6.7913815 C 20.923404,1.8955595 18.650695,1 15.99907,1 Z m 0,4.0301514 c 1.515214,0 2.804403,0.5958488 3.940813,1.640625 1.060652,1.0447762 1.591197,2.3146727 1.591197,3.8818356 v 4.030152 H 10.46892 v -4.030152 c 0,-1.5671632 0.530546,-2.8370594 1.591195,-3.8818356 1.136406,-1.0447763 2.423741,-1.640625 3.938955,-1.640625 z M 8.1056698,16.712281 c 0.734515,0 1.3267137,0.668807 1.3267137,1.196244 v 9.816984 c 0,0.527529 -0.5921987,1.196244 -1.3267136,1.196244 -0.7345154,0 -1.3243057,-0.668745 -1.3243057,-1.196244 v -9.816984 c 0,-0.527499 0.5897903,-1.196244 1.3243056,-1.196244 z" />
</svg>
