<?xml version="1.0" encoding="UTF-8" standalone="no"?>
<svg
   xmlns="http://www.w3.org/2000/svg"
   version="1.1"
   width="36"
   height="36">
  <path d="m 17.999024,2 c -2.78607,0 -5.174013,0.9552635 -7.164063,2.9453125 -1.9900489,1.99005 -3.0234374,4.4580716 -3.0234374,7.2441405 v 4.298828 H 7.0947268 c -0.6368161,0 -1.1141849,0.238709 -1.5917969,0.636719 -0.39801,0.477612 -0.6367188,0.954981 -0.6367188,1.591797 v 13.054687 c 0,0.636816 0.2387088,1.193787 0.6367188,1.591797 C 5.9805419,33.761291 6.4579107,34 7.0947268,34 H 28.905274 c 0.63682,0 1.114186,-0.238709 1.591797,-0.636719 0.398009,-0.39801 0.636718,-0.954981 0.636718,-1.591797 V 18.716797 c 0,-0.636816 -0.238709,-1.114185 -0.636718,-1.591797 -0.47761,-0.39801 -0.954977,-0.636719 -1.591797,-0.636719 h -0.716797 v -4.298828 c 0,-2.7860689 -1.035341,-5.2540905 -3.025391,-7.2441405 C 23.173036,2.9552635 20.785094,2 17.999024,2 Z m 0,4.2988281 c 1.59204,0 2.946595,0.635572 4.140625,1.75 1.11443,1.114428 1.671875,2.4689839 1.671875,4.1406249 v 4.298828 H 12.188477 v -4.298828 c 0,-1.671641 0.557447,-3.0261969 1.671875,-4.1406249 1.194025,-1.114428 2.546632,-1.75 4.138672,-1.75 z M 9.7054029,18.759766 c 0.7717571,0 1.3939821,0.713394 1.3939821,1.275994 v 10.471449 c 0,0.562698 -0.622225,1.275994 -1.3939821,1.275994 -0.7717576,0 -1.3914521,-0.713328 -1.3914521,-1.275994 V 20.03576 c 0,-0.562666 0.6196945,-1.275994 1.3914521,-1.275994 z" />
</svg>
