<?xml version="1.0" encoding="UTF-8" standalone="no"?>
<!-- Created with Inkscape (http://www.inkscape.org/) -->
<svg
   width="32"
   height="32"
   version="1.1"
   xmlns="http://www.w3.org/2000/svg">
  <path d="M 16,0.9999998 C 7.7268104,0.9999998 0.99999964,7.7272466 0.99999994,16.000974 0.99999994,24.2747 7.7268106,31 16,31 24.27319,31 31,24.2747 31,16.000974 31,7.7272466 24.27319,0.9999998 16,0.9999998 Z m 0,1.820308 c 7.289743,0 13.179811,5.8904506 13.17981,13.1806662 0,2.815341 -0.881282,5.420736 -2.379498,7.55993 C 24.321443,20.054872 20.295047,17.968757 16,17.967452 11.706356,17.978262 7.6866348,20.072627 5.2152786,23.582342 3.7077775,21.439083 2.8201896,18.825851 2.8201896,16.000974 2.8201894,8.7107584 8.7102582,2.8203078 16,2.8203078 Z m 0,3.977782 A 4.7941836,4.794495 0 0 0 11.205924,11.592477 4.7941836,4.794495 0 0 0 16,16.386863 4.7941836,4.794495 0 0 0 20.794076,11.592477 4.7941836,4.794495 0 0 0 16,6.7980898 Z" />
</svg>
