<?xml version="1.0" encoding="UTF-8" standalone="no"?>
<!-- Created with Inkscape (http://www.inkscape.org/) -->
<svg
   xmlns="http://www.w3.org/2000/svg"
   version="1.1"
   width="36"
   height="36">
  <path d="m 17.999995,1.9999983 c -8.836556,0 -16,7.163444 -16,15.9999997 0,3.691757 1.262994,7.081722 3.363281,9.789063 -0.0024,0.0047 -0.0054,0.009 -0.0078,0.01367 0.06341,0.08179 0.132439,0.157915 0.197266,0.238282 0.07159,0.08864 0.143368,0.176606 0.216797,0.263672 0.275151,0.326613 0.559412,0.643975 0.857421,0.945312 0.06551,0.06622 0.134522,0.128283 0.201172,0.193359 0.287224,0.280458 0.582788,0.549862 0.888672,0.806641 0.04992,0.04195 0.098,0.08561 0.148438,0.126953 0.335748,0.274928 0.683413,0.533423 1.039062,0.779297 0.09997,0.06925 0.201125,0.136108 0.302735,0.203125 0.343447,0.226051 0.69348,0.441973 1.052734,0.640625 0.106224,0.05885 0.214578,0.113433 0.322265,0.169922 0.333632,0.174677 0.672413,0.337539 1.017578,0.488281 0.113582,0.04967 0.226858,0.0994 0.341797,0.146485 0.34299,0.140396 0.692429,0.266387 1.044922,0.382812 0.139037,0.04589 0.277275,0.09262 0.417969,0.134766 0.39121,0.117397 0.78696,0.219264 1.1875,0.30664 0.1252,0.02719 0.250679,0.05194 0.376953,0.07617 0.430459,0.08311 0.864153,0.151572 1.302734,0.199219 0.08804,0.0095 0.177165,0.01346 0.265625,0.02148 0.484267,0.04448 0.971805,0.0742 1.462889,0.07423 0.491084,-2.7e-5 0.978622,-0.02974 1.462891,-0.07422 0.08846,-0.008 0.177586,-0.01202 0.265625,-0.02148 0.438581,-0.04765 0.872275,-0.116107 1.302734,-0.199219 0.126274,-0.02424 0.251753,-0.04899 0.376953,-0.07617 0.40054,-0.08738 0.79629,-0.189243 1.1875,-0.30664 0.140694,-0.04215 0.278932,-0.08888 0.417969,-0.134766 0.352493,-0.116424 0.701932,-0.242415 1.044922,-0.382812 0.114939,-0.04709 0.228215,-0.09682 0.341797,-0.146485 0.345165,-0.150741 0.683946,-0.313604 1.017578,-0.488281 0.107687,-0.05649 0.216041,-0.111069 0.322265,-0.169922 0.359254,-0.198652 0.709288,-0.414574 1.052735,-0.640625 0.101609,-0.06702 0.202761,-0.13387 0.302734,-0.203125 0.355649,-0.245874 0.703315,-0.504369 1.039063,-0.779297 0.05044,-0.04135 0.09851,-0.085 0.148437,-0.126953 0.305885,-0.256779 0.601448,-0.526183 0.888672,-0.806641 0.06665,-0.06508 0.135662,-0.127136 0.201172,-0.193359 0.298009,-0.301337 0.582271,-0.618699 0.857422,-0.945312 0.07343,-0.08707 0.145207,-0.175033 0.216797,-0.263672 0.06483,-0.08037 0.13386,-0.156489 0.197265,-0.238282 -0.0024,-0.0047 -0.0054,-0.009 -0.0078,-0.01367 2.100275,-2.707351 3.363269,-6.097315 3.363269,-9.789072 0,-8.8365567 -7.163444,-16.0000007 -16,-16.0000007 z M 17.85937,3.7792952 a 14.220283,14.220283 0 0 1 0.140625,0 14.220283,14.220283 0 0 1 14.220703,14.2207028 14.220283,14.220283 0 0 1 -2.570312,8.154297 c -2.569227,-3.674902 -6.825839,-6.082031 -11.650391,-6.082031 -4.824552,0 -9.081164,2.407129 -11.650391,6.082031 A 14.220283,14.220283 0 0 1 3.779292,17.999998 14.220283,14.220283 0 0 1 17.85937,3.7792952 Z m 0.140625,4.2558593 c -2.888236,0 -5.230469,2.3402795 -5.230469,5.2285165 0,2.888236 2.342233,5.230468 5.230469,5.230468 2.888236,0 5.230469,-2.342232 5.230469,-5.230468 0,-2.888236 -2.342233,-5.2285164 -5.230469,-5.2285165 z" />
</svg>
