<?xml version="1.0" encoding="UTF-8" standalone="no"?>
<svg
   xmlns="http://www.w3.org/2000/svg"
   version="1.1"
   width="36"
   height="36">
  <path d="m 16.957948,1.9999999 c -0.863302,0 -1.558974,0.695672 -1.558974,1.5589743 V 18.806154 c 0,0.863302 0.695672,1.558974 1.558974,1.558974 h 2.038975 c 0.863302,0 1.556923,-0.695672 1.556923,-1.558974 V 3.5589742 c 0,-0.8633023 -0.693621,-1.5589743 -1.556923,-1.5589743 z m 9.273847,3.3599999 c -1.832709,-0.1269714 -3.055883,3.234829 -1.743591,4.2071793 2.759913,1.9447809 4.621381,4.7919599 4.621539,8.7651279 1.23e-4,6.135792 -4.973951,11.109867 -11.109744,11.109744 C 11.864207,29.442174 6.890134,24.468099 6.8902563,18.332307 6.8904135,14.359139 8.9831175,11.007939 11.589743,9.433846 13.108101,8.5650662 11.014494,4.2571481 8.9189742,5.630769 5.0740252,8.3979124 2.332708,12.671813 2.3323076,18.332307 2.3325015,26.985254 9.3470524,33.999805 17.999999,34 26.652946,33.999806 33.667499,26.985254 33.667692,18.332307 33.667369,12.722362 30.527263,7.8052611 27.048204,5.645128 26.767078,5.4674593 26.49361,5.3781386 26.231795,5.3599998 Z" />
</svg>
