<?xml version="1.0" encoding="UTF-8" standalone="no"?>
<!-- Created with Inkscape (http://www.inkscape.org/) -->
<svg
   width="32"
   height="32"
   version="1.1"
   xmlns="http://www.w3.org/2000/svg">
  <path d="m 15.019531,1 c -0.812735,0 -1.46875,0.6515932 -1.46875,1.4609375 V 16.755859 c 0,0.809346 0.656015,1.460938 1.46875,1.460938 0.653646,0 1.307292,0 1.960938,0 0.812735,0 1.46875,-0.651592 1.46875,-1.460938 V 2.4609375 C 18.449219,1.6515932 17.793204,1 16.980469,1 16.326823,1 15.673177,1 15.019531,1 Z M 8.1835938,4.1542969 c -0.239903,0.01122 -0.4858249,0.089029 -0.7324219,0.25 C 3.8314374,6.9984886 1.250377,11.005797 1.25,16.3125 1.2501826,24.424621 7.8538915,30.999817 16,31 24.146109,30.999817 30.749817,24.424621 30.75,16.3125 30.749623,11.005797 28.168563,6.9984886 24.548828,4.4042969 c -0.246597,-0.1609709 -0.492519,-0.23878 -0.732422,-0.25 -1.67932,-0.078542 -3.031992,3.1017836 -1.78125,3.8144531 2.453946,1.4757091 4.42368,4.618913 4.423828,8.34375 C 26.459099,22.064793 21.776393,26.726677 16,26.726562 10.223607,26.726677 5.5409006,22.064793 5.5410156,16.3125 5.5411637,12.587663 7.510898,9.4444591 9.9648438,7.96875 11.215587,7.2560805 9.8629142,4.0757548 8.1835938,4.1542969 Z" />
</svg>
