<?xml version="1.0" encoding="UTF-8" standalone="no"?>
<!-- Created with Inkscape (http://www.inkscape.org/) -->
<svg
   width="32"
   height="32"
   version="1.1"
   xmlns="http://www.w3.org/2000/svg">
  <path d="m 1.0534488,7.9943617 c 0,-2.8830108 1.4055365,-2.9945204 3.7066077,-2.9943613 H 27.245776 c 2.46424,0 3.700775,0.092952 3.700775,2.9943613 0,0 -12.653293,9.0150553 -14.943634,9.0150573 -2.290342,0 -14.9494682,-9.0150573 -14.9494682,-9.0150573 z m -0.053449,2.1990743 v 12.572073 l 9.2844249,-6.589923 z m 11.1329839,7.04629 -11.0795352,7.559253 c 0,2.136202 1.8881091,2.202428 3.3370437,2.201 H 27.574278 c 1.448686,3.32e-4 3.372273,-0.08596 3.372273,-2.202925 L 19.960589,17.239726 c 0,0 -2.819173,1.828292 -3.957672,1.828292 -1.1385,0 -3.869933,-1.828292 -3.869933,-1.828292 z M 21.811022,16.175586 31,22.765509 V 10.193436 Z" />
</svg>
