<?xml version="1.0" encoding="UTF-8" standalone="no"?>
<svg
   xmlns="http://www.w3.org/2000/svg"
   version="1.1"
   width="36"
   height="28.207661">
  <path d="M 2,4.8161952 C 2,1.6879163 3.5046002,1.5669202 5.9678535,1.5670928 H 30.038391 C 32.676313,1.5670928 34,1.667952 34,4.8161952 c 0,0 -13.54511,10.2398488 -15.996878,10.2398508 C 15.551355,15.056046 2,4.8161952 2,4.8161952 Z M 2,7.2023523 V 22.045835 l 9.938801,-7.894559 z M 13.860432,15.305945 2,24.252299 c 0,2.317936 2.021185,2.389796 3.5722422,2.388247 H 30.390045 C 31.940836,26.640905 34,26.547273 34,24.25021 L 22.239736,15.305945 c 0,0 -3.017871,1.983832 -4.236614,1.983832 -1.218742,0 -3.354533,-1.598365 -4.14269,-1.983832 z M 24.163373,14.151276 34,22.045835 V 7.2023523 c -3.862101,2.648036 -5.977754,4.2990167 -9.836627,6.9489237 z" />
</svg>
