<?xml version="1.0" encoding="UTF-8" standalone="no"?>
<!-- Created with Inkscape (http://www.inkscape.org/) -->
<svg
   width="32"
   height="32"
   version="1.1"
   xmlns="http://www.w3.org/2000/svg">
  <path d="M 16.000001,0.9999998 C 7.7296085,0.9999998 1.0000001,7.729609 1.0000001,16 c 0,8.270391 6.7296084,15 15.0000009,15 3.482379,0 6.826892,-1.250673 9.375557,-3.249582 -0.431697,0.05528 -2.033365,-0.02784 -2.64102,-0.201424 -0.607655,-0.173581 -1.506223,-0.697761 -1.993544,-1.012813 -1.657492,0.887892 -2.724591,1.092527 -4.740993,1.092527 C 9.4779085,27.628708 4.266,22.522134 4.266,16.000043 4.266,9.4779517 9.4779085,4.2660428 16.000001,4.2660428 c 6.52209,0 11.733999,5.2119089 11.733999,11.7340002 0,2.356224 -0.350794,4.078842 -0.79963,5.400819 -0.655092,1.929469 -3.722496,1.916819 -4.286308,-0.0565 -0.256929,-0.975695 -0.277973,-4.515242 -0.277973,-6.897055 0,-2.381814 -0.282496,-3.6404 -1.329195,-4.9129713 -2.39453,-2.4884062 -6.240352,-2.1314981 -9.620363,-0.8972164 -1.340156,0.6505724 -0.62276,3.0012017 1.076662,2.6019287 1.164289,-0.116352 2.400847,-0.603528 4.606933,-0.408326 2.206087,0.195205 2.155413,1.278217 2.198433,3.170747 -1.135248,-0.388374 -2.501201,-0.426068 -4.114446,-0.426068 -3.794116,0 -6.4125584,2.019023 -6.4125584,5.622595 0,3.603572 3.4351154,5.372899 5.7913224,5.427707 2.210745,0 4.06863,-1.203828 5.174001,-2.428699 0.715305,4.179864 5.419145,5.32946 8.31662,2.625052 C 30.633462,22.452199 30.948887,18.770406 31,16 31,7.729609 24.270392,0.9999998 16.000001,0.9999998 Z M 15.233655,16.284346 c 1.857894,0 3.191672,0.329251 3.191672,2.284313 0,2.000922 -1.494239,2.9732 -3.545472,2.9732 -1.746433,0 -2.840384,-0.740436 -2.840384,-2.551555 0,-2.074273 1.970963,-2.677628 3.194184,-2.705958 z" />
</svg>
