<?xml version="1.0" encoding="UTF-8" standalone="no"?>
<!-- Created with Inkscape (http://www.inkscape.org/) -->
<svg
   width="32"
   height="32"
   version="1.1"
   xmlns="http://www.w3.org/2000/svg">
  <path d="m 16.008017,1 c -8.2682221,-1.2e-7 -15.00801797,6.736195 -15.00801707,15 0,8.263805 6.73979497,15 15.00801707,15 5.453118,0 9.558456,-2.983081 11.475169,-5.186745 -1.93321,1.116139 -4.602887,1.216632 -6.027007,0.394416 C 20.873745,26.46302 18.687851,27.5625 16.008017,27.5625 9.5988163,27.5625 4.4393373,22.405778 4.4393373,16 c 0,-6.4057775 5.159479,-11.5625001 11.5686797,-11.5625 6.359493,0 9.712906,4.2760882 10.9654,7.946598 1.252494,3.670509 0.701844,6.117215 -0.664563,7.240878 -0.850611,0.6995 -2.662261,1.15874 -3.843713,-0.274371 -0.694909,-0.84293 -0.544828,-3.496787 -0.309689,-4.81977 0.219693,-1.176236 0.865702,-4.315277 1.036093,-5.4136055 -3.20522,-0.6014837 -6.945543,-0.6865972 -9.667323,0.5155832 -2.725845,1.2315373 -4.5440523,3.6238533 -5.1062425,7.1230463 -0.3805674,2.878307 0.7864951,5.982687 4.0353585,6.316407 2.231934,0.190224 4.743264,-1.432114 6.399903,-3.333985 1.251521,2.566799 3.103714,3.767444 5.950445,3.771485 2.864036,0.0041 4.76953,-1.572534 5.681145,-3.94602 0.911614,-2.373485 0.335741,-5.870387 0.335741,-5.870387 C 29.490658,5.7012881 22.613591,1 16.008017,1 Z m 2.782737,10.605469 c -0.612877,3.336271 -1.30707,6.301303 -2.61077,7.113281 -1.572166,0.979187 -2.963181,0.455706 -3.474512,-0.324219 -0.765574,-1.167719 0.101209,-3.245999 0.969267,-4.365234 0.868059,-1.119235 2.698227,-2.248194 5.116015,-2.423828 z" />
</svg>
