<?xml version="1.0" encoding="UTF-8" standalone="no"?>
<!-- Created with Inkscape (http://www.inkscape.org/) -->
<svg
   width="32"
   height="32"
   version="1.1"
   xmlns="http://www.w3.org/2000/svg">
  <path d="m 0.99999995,7.2920145 c 0,-2.9319648 1.41056275,-3.0453678 3.71986255,-3.045206 H 27.285991 c 2.473052,0 3.714009,0.09453 3.714009,3.045206 0,0 -12.698541,9.5972515 -14.997073,9.5972535 -2.298532,0 -15.00292705,-9.5972535 -15.00292705,-9.5972535 z m 0,2.2364145 V 23.440415 L 10.317626,16.041276 Z M 12.119155,17.123485 0.99999995,25.508413 c 0,2.172475 1.89486105,2.239826 3.34897705,2.238374 h 23.26669 C 29.069534,27.747124 31,27.659371 31,25.506456 L 19.974752,17.123485 c 0,0 -2.829254,1.859337 -3.971825,1.859337 -1.142571,0 -3.144875,-1.49806 -3.883772,-1.859337 z M 21.778162,16.041276 31,23.440415 V 9.528429 c -3.62072,2.48186 -5.604145,4.029235 -9.221838,6.512847 z" />
</svg>
