<?xml version="1.0" encoding="UTF-8" standalone="no"?>
<!-- Created with Inkscape (http://www.inkscape.org/) -->
<svg
   xmlns="http://www.w3.org/2000/svg"
   version="1.1"
   width="36"
   height="36">
  <path d="M 18.000001,1.9999999 C 9.17825,1.9999999 2.0000003,9.1782497 2.0000003,18 c 0,8.82175 7.1782498,16 16.0000007,16 3.714538,0 7.282018,-1.334051 10.000594,-3.466221 -0.460477,0.05897 -2.168923,-0.0297 -2.817088,-0.214852 -0.648165,-0.185153 -1.606638,-0.744279 -2.126447,-1.080334 -1.767991,0.947085 -2.90623,1.165362 -5.057059,1.165362 -6.956898,0 -12.4039098,-5.447012 -12.4039098,-12.403909 0,-6.956897 5.4470118,-12.4039091 12.4039098,-12.4039091 6.956896,0 12.403908,5.4470121 12.403908,12.4039091 0,2.513305 -0.161835,4.245231 -0.873758,5.553199 -0.711923,1.307968 -1.60158,1.89513 -2.358847,1.906528 -1.055815,9.4e-5 -1.797322,-1.225425 -2.080038,-1.759118 -0.274058,-1.040741 -0.296504,-4.816258 -0.296504,-7.356859 0,-2.540601 -0.175013,-3.997706 -1.417809,-5.240502 -1.242796,-1.242796 -2.530648,-1.7265628 -4.984375,-1.7265628 -2.453726,0 -4.130147,0.3393326 -5.277345,0.7695318 -1.4295,0.693944 -0.664277,3.201281 1.148439,2.77539 1.241909,-0.124109 2.560904,-0.643763 4.914062,-0.435547 2.35316,0.208218 2.299107,1.363431 2.344995,3.38213 -1.210931,-0.414266 -2.667947,-0.454473 -4.388742,-0.454473 -4.047057,0 -6.840062,2.153625 -6.840062,5.997435 0,3.84381 3.664123,5.731092 6.17741,5.789554 2.358128,0 4.339872,-1.284083 5.518935,-2.590612 0.762992,4.458521 5.780421,5.684757 8.871061,2.800055 C 33.609026,24.882346 33.945479,20.9551 34,18 34,9.1782497 26.821751,1.9999999 18.000001,1.9999999 Z M 17.294923,18.134766 c 1.981753,0 3.292092,0.519737 3.292092,2.605137 0,2.134317 -1.593855,3.171413 -3.781836,3.171413 -1.862862,0 -2.973564,-0.902156 -2.973564,-2.834016 0,-2.212558 2.158538,-2.912315 3.463308,-2.942534 z" />
</svg>
