<?xml version="1.0" encoding="UTF-8" standalone="no"?>
<!-- Created with Inkscape (http://www.inkscape.org/) -->
<svg
   width="32"
   height="32"
   version="1.1"
   xmlns="http://www.w3.org/2000/svg">
  <path d="m 16,1.025 c -8.28426,0 -15,6.5169888 -15,14.55602 0,4.400306 2.00319,8.446727 4.86241,10.830149 0.72077,0.600821 -0.34941,3.739863 0.9171,4.433802 1.26652,0.693939 3.9327,-1.630783 4.93425,-1.315814 1.45778,0.458435 2.67106,0.607883 4.28624,0.607883 8.28426,0 15,-6.516999 15,-14.55602 C 31,7.5419888 24.28426,1.025 16,1.025 Z m 8.851527,10.220437 c 0.322345,0.22686 0.366963,0.577556 0.09527,1.048103 l -4.24284,6.689111 c -1.019262,1.492179 -2.67984,1.568491 -3.55837,0.689918 l -3.04427,-2.295246 c -0.709542,-0.603285 -1.215562,-0.35345 -1.59093,-0.05971 L 8.03252,20.711651 C 7.72292,20.934803 7.28728,20.968509 7.0106,20.694048 6.73397,20.419577 6.86155,19.931747 7.0458,19.703765 l 4.44987,-7.056539 c 0.3771,-0.653181 2.089428,-1.295659 3.45964,-0.15951 l 2.83658,2.136596 c 0.712191,0.553716 1.168015,0.594532 1.91841,-0.05751 l 4.21093,-3.242332 c 0.33184,-0.258601 0.607952,-0.305893 0.930297,-0.07903 z" />
</svg>
