<?xml version="1.0" encoding="UTF-8" standalone="no"?>
<svg
   xmlns="http://www.w3.org/2000/svg"
   version="1.1"
   width="30.796875"
   height="36">
  <path d="m 27.898437,8.8125 c 0.3125,0.3125 0.625,0.75 0.875,1.3125 0.25,0.5625 0.3125,1.125 0.3125,1.562501 V 32.3125 c 0,0.4375 -0.125,0.875 -0.5,1.1875 -0.3125,0.3125 -0.6875,0.5 -1.1875,0.5 H 3.3984371 c -0.5,0 -0.875,-0.1875 -1.1874996,-0.5 -0.375,-0.3125 -0.5,-0.75 -0.5,-1.1875 V 3.6875 c 0,-0.4375 0.125,-0.875 0.5,-1.1875 C 2.5234371,2.1875 2.8984371,2 3.3984371,2 H 19.398437 c 0.5,0 1,0.125 1.5625,0.375 0.5625,0.25 1.0625,0.5 1.375,0.8125 z m -7.9375,-4.375 v 6.6875 h 6.75 c -0.125,-0.3125 -0.25,-0.5625 -0.4375,-0.6875 l -5.5625,-5.625 c -0.125,-0.125 -0.375,-0.25 -0.75,-0.375 z m 6.875,27.25 v -18.25 h -7.4375 c -0.5,0 -0.875,-0.1875 -1.1875,-0.5 -0.375,-0.3125 -0.5,-0.75 -0.5,-1.249999 V 4.3125 H 3.9609375 v 27.375 z m -9.1875,-10.5625 c 0.375,0.3125 0.875,0.625 1.5,1 0.6875,-0.0625 1.375,-0.125 2.0625,-0.125 1.75,0 2.8125,0.3125 3.1875,0.875 0.1875,0.25 0.1875,0.5625 0.0625,0.9375 0,0 -0.0625,0 -0.0625,0 v 0.0625 0 c -0.0625,0.5 -0.5,0.6875 -1.3125,0.6875 -0.5625,0 -1.25,-0.125 -2,-0.375 -0.8125,-0.1875 -1.625,-0.5 -2.375,-0.9375 -2.625,0.3125 -4.937499,0.8125 -6.999999,1.5 -1.8125009,3.125 -3.2500005,4.6875 -4.3125009,4.6875 -0.1874996,0 -0.3124996,-0.0625 -0.5,-0.125 l -0.4374996,-0.25 c 0,0 0,0 -0.062498,-0.0625 -0.125,-0.125 -0.1874995,-0.312501 -0.125,-0.625 0.125,-0.5 0.4375005,-1.062501 1,-1.625 0.5625005,-0.625 1.375,-1.187501 2.375,-1.75 0.125,-0.125 0.3125005,-0.0625 0.3750005,0.125 0.0625,0 0.0625,0 0.0625,0.0625 0.625,-1 1.25,-2.1875 1.875,-3.5 0.8125,-1.625 1.4375,-3.1875 1.875,-4.6875 -0.25,-1 -0.4375,-1.9375 -0.5625,-2.875 -0.0625,-0.9375 0,-1.6875 0.125,-2.25 0.125,-0.5 0.375,-0.75 0.75,-0.75 h 0.4375 c 0.25,0 0.4375,0.125 0.625,0.312501 0.1875,0.25 0.25,0.624999 0.125,1.187499 0,0.0625 -0.0625,0.125 -0.0625,0.125 0,0.0625 0,0.125 0,0.1875 v 0.5 c 0,1.5 -0.0625,2.625 -0.25,3.4375 0.6875,1.9375 1.5625,3.375 2.624999,4.25 z M 7.3359375,28.4375 c 0.625,-0.25 1.4374996,-1.1875 2.5,-2.8125 -0.625,0.5 -1.125,1 -1.5625004,1.5 -0.4374996,0.5625 -0.75,1 -0.9374996,1.3125 z m 7.1250005,-16.375 c -0.1875,0.5 -0.1875,1.25 0,2.3125 0,-0.0625 0,-0.3125 0.125,-0.75 0,-0.0625 0,-0.3125 0.125,-0.8125 0,0 0,-0.0625 0.0625,-0.125 0,0 -0.0625,0 -0.0625,0 0,-0.0625 0,-0.0625 0,-0.0625 0,0 0,0 0,0 0,-0.25 -0.0625,-0.5 -0.25,-0.6875 0,0.0625 0,0.0625 0,0.0625 z m -2.1875,11.75 c 1.5625,-0.625 3.25,-1.125 5.062499,-1.4375 -0.0625,0 -0.125,-0.0625 -0.25,-0.125 -0.125,-0.125 -0.1875,-0.1875 -0.25,-0.25 -0.937499,-0.8125 -1.687499,-1.875 -2.312499,-3.1875 -0.3125,1.0625 -0.8125,2.25 -1.4375,3.5625 -0.375,0.625 -0.625,1.125 -0.8125,1.4375 z m 11.499999,-0.25 c -0.25,-0.3125 -1.125,-0.4375 -2.5,-0.4375 0.9375,0.3125 1.6875,0.5 2.25,0.5 0.125,0 0.25,0 0.3125,0 0,0 0,-0.0625 -0.0625,-0.0625 z" />
</svg>
