<?xml version="1.0" encoding="UTF-8" standalone="no"?>
<!-- Created with Inkscape (http://www.inkscape.org/) -->
<svg
   width="32"
   height="32"
   version="1.1"
   xmlns="http://www.w3.org/2000/svg">
  <path d="M 27.689497,7.3867187 C 28.449696,8.1827154 28.8,9.0155796 28.8,10.082032 V 29.417969 C 28.8,30.503133 28.14432,31 27.221917,31 H 4.7780819 C 3.765819,31 3.2,30.340726 3.2,29.417969 V 2.5820312 C 3.2,1.4938966 3.8402944,0.99999992 4.7780819,0.99999992 H 19.740638 c 1.278946,0 2.034448,0.39088638 2.747033,1.11328128 z M 20.266666,3.2851562 v 6.2695314 h 6.312329 C 26.4621,9.2617187 26.345205,9.0273437 26.169863,8.9101562 L 20.968036,3.6367187 C 20.851141,3.5195312 20.617351,3.4023437 20.266666,3.2851562 Z M 26.69589,28.832031 V 11.722656 h -6.955252 c -1.041055,0 -1.578082,-0.748864 -1.578082,-1.640624 V 3.1679687 H 5.3041096 V 28.832031 Z M 19.506848,19.867188 C 20.149772,19.808598 20.792694,19.75 21.435616,19.75 c 1.63653,0 2.630137,0.292969 2.980822,0.820313 0.175343,0.234375 0.175343,0.527343 0.05844,0.878906 -0.295973,0.529343 -0.870348,0.661842 -1.37739,0.659825 -1.478949,-0.0059 -2.775154,-0.59181 -3.999775,-1.187173 -2.454794,0.292969 -4.61735,0.761719 -6.546118,1.40625 -1.694978,2.929688 -3.0392687,4.394531 -4.0328773,4.394531 -0.7311351,-0.05075 -1.2186396,-0.48744 -1.0520522,-0.996085 0.502508,-1.53432 1.9221827,-2.463041 3.1561645,-3.164063 0.231501,-0.168711 0.337289,-0.041 0.409129,0.175778 1.433196,-2.486746 2.732841,-5.054051 3.50685,-7.675781 -0.23379,-0.9375 -0.409133,-1.816406 -0.526027,-2.695312 -0.119468,-1.246171 -0.02832,-2.6650597 0.818264,-2.8125004 0.863724,-0.1462238 1.146248,0.7364704 1.168951,1.8560984 0.0227,1.119629 -0.195573,2.380715 -0.350679,3.534527 0.810309,2.385281 2.024353,3.773271 3.857527,4.921874 z M 8.460275,25.785156 c 0.5500177,-0.30695 1.344291,-1.113281 2.337899,-2.636718 -0.9897661,0.766175 -1.7627104,1.512304 -2.337899,2.636718 z m 6.663013,-13.183593 c 0.247339,-0.931055 0.356389,-1.516865 0,-2.285154 -0.402833,0.486667 -0.324926,1.293399 0,2.285154 z m -2.045662,8.847656 c 1.461188,-0.585938 3.039269,-1.054688 4.734246,-1.347656 -0.799955,-0.104011 -2.067248,-2.19737 -2.630136,-3.339844 -0.573649,1.832281 -1.220241,3.083611 -2.10411,4.6875 z m 8.161482,-0.649141 c 0.8203,0.259993 1.915417,0.47358 2.732199,0.479571 -0.661025,-0.625326 -1.938761,-0.746011 -2.732199,-0.479571 z" />
</svg>
