<?xml version="1.0" encoding="UTF-8" standalone="no"?>
<!-- Created with Inkscape (http://www.inkscape.org/) -->
<svg
   width="32"
   height="32"
   version="1.1"
   xmlns="http://www.w3.org/2000/svg">
  <path d="M 3.8645801,2.2616006 C 2.2120401,3.5590885 1.1373937,6.0469855 1.001123,8.3447805 0.85483841,15.466436 15.035177,29.817655 23.62321,30.242674 c 2.078274,0.102851 4.775617,-0.867766 6.677483,-3.51611 0.36753,-0.511769 0.991298,-3.188783 0.543745,-3.51222 C 30.19704,22.746481 24.477585,19.618191 23.62321,19.42986 22.769844,19.241748 19.991861,23.142951 19.53535,23.214344 16.053696,21.535706 10.507316,16.706973 8.6330941,13.210548 9.5776551,11.735862 11.162852,9.7493655 11.21881,9.1226805 11.27687,8.4724445 8.5306871,2.4421561 8.0854391,1.969888 7.6120321,1.4677507 4.2757741,1.938752 3.8645801,2.2616006 Z" />
</svg>
