<?xml version="1.0" encoding="UTF-8" standalone="no"?>
<!-- Created with Inkscape (http://www.inkscape.org/) -->
<svg
   xmlns="http://www.w3.org/2000/svg"
   version="1.1"
   width="36"
   height="36">
  <path d="m 34,27.23383 c 0,0.39801 -0.0796,0.955224 -0.238806,1.59204 -0.159204,0.716418 -0.318408,1.19403 -0.477611,1.59204 -0.318408,0.79602 -1.19403,1.59204 -2.78607,2.38806 C 29.144279,33.60199 27.711443,34 26.278607,34 c -0.39801,0 -0.79602,0 -1.194029,-0.0796 -0.39801,-0.0796 -0.79602,-0.159204 -1.273632,-0.318408 -0.477612,-0.0796 -0.875622,-0.238806 -1.114428,-0.318408 -0.238806,-0.0796 -0.636816,-0.238806 -1.273632,-0.477612 -0.557214,-0.238806 -0.955224,-0.318408 -1.114428,-0.39801 -1.432836,-0.557214 -2.786069,-1.114428 -3.980099,-1.910448 -1.910448,-1.19403 -3.900498,-2.78607 -5.97015,-4.855721 C 8.2885581,23.572141 6.616916,21.582091 5.422886,19.592041 4.706468,18.477614 4.069652,17.12438 3.59204,15.611942 3.51244,15.532342 3.353234,15.13433 3.114428,14.497514 2.955224,13.9403 2.79602,13.462688 2.716418,13.223882 2.636818,12.985076 2.477612,12.666668 2.318408,12.189056 2.238808,11.711445 2.159204,11.233832 2.079602,10.835823 2,10.517413 2,10.119403 2,9.641791 2,8.288557 2.39801,6.855721 3.114428,5.422885 3.99005,3.910447 4.78607,2.955224 5.58209,2.636816 5.900498,2.477612 6.457712,2.318408 7.094528,2.159204 7.8109461,2.079602 8.2885581,2 8.686568,2 8.9253741,2 9.0845781,2 9.16418,2 c 0.318408,0.159204 0.716417,0.716418 1.273631,1.751243 0.159204,0.318408 0.39801,0.716418 0.636816,1.273632 0.318408,0.477612 0.557214,0.955224 0.79602,1.432836 0.238806,0.39801 0.477612,0.79602 0.716418,1.19403 0.0796,0.0796 0.159204,0.238806 0.39801,0.557214 0.238806,0.318408 0.39801,0.636816 0.477612,0.79602 0.0796,0.238806 0.159204,0.477612 0.159204,0.636816 0,0.318408 -0.238806,0.716418 -0.636816,1.19403 -0.39801,0.398009 -0.875622,0.875621 -1.432836,1.194029 -0.477612,0.39801 -0.955224,0.79602 -1.353234,1.273632 -0.477612,0.39801 -0.716417,0.716418 -0.716417,1.034826 0,0.0796 0.0796,0.318408 0.159203,0.477612 0.0796,0.238806 0.159204,0.39801 0.159204,0.477612 0.0796,0.0796 0.159204,0.318408 0.318408,0.557214 0.159204,0.238806 0.238806,0.39801 0.318408,0.39801 1.114428,2.069652 2.467662,3.900497 3.900498,5.333333 1.512438,1.512438 3.263681,2.865672 5.333333,3.9801 0.0796,0 0.238806,0.0796 0.477612,0.238806 0.238806,0.159204 0.39801,0.318408 0.557214,0.318408 0.0796,0.0796 0.238806,0.159204 0.477612,0.238806 0.159204,0.0796 0.318408,0.0796 0.477612,0.0796 0.238806,0 0.636816,-0.159204 1.034826,-0.636816 0.39801,-0.39801 0.875622,-0.875622 1.19403,-1.432836 0.39801,-0.477612 0.79602,-0.955224 1.273632,-1.353234 0.477611,-0.477612 0.796019,-0.636816 1.114427,-0.636816 0.238806,0 0.477612,0 0.636816,0.159204 0.238806,0.0796 0.557214,0.238806 0.875622,0.477612 0.318408,0.159204 0.477612,0.318408 0.557214,0.39801 0.318408,0.238806 0.79602,0.477612 1.19403,0.716418 0.39801,0.238806 0.875622,0.477612 1.432836,0.79602 0.557214,0.238806 0.955224,0.477612 1.273632,0.636816 1.034826,0.557214 1.592039,0.955224 1.671641,1.19403 C 34,26.915423 34,27.074626 34,27.23383 Z" />
</svg>
