<?xml version="1.0" encoding="UTF-8" standalone="no"?>
<svg
   xmlns="http://www.w3.org/2000/svg"
   version="1.1"
   width="36"
   height="36">
  <path d="m 34,18 c 0,2.922374 -0.657535,5.625571 -2.118722,8.036529 -1.461187,2.484019 -3.36073,4.383562 -5.844749,5.844749 C 23.625571,33.342465 20.922374,34 18,34 c -1.534247,0 -3.068493,-0.219179 -4.529681,-0.657535 0.803653,-1.242009 1.315069,-2.410958 1.607306,-3.433789 0.146119,-0.438357 0.511416,-1.899544 1.095891,-4.383562 0.292237,0.584474 0.803653,1.022831 1.534247,1.388128 0.730593,0.438356 1.534246,0.657534 2.410958,0.657534 1.680365,0 3.141553,-0.511416 4.529681,-1.461188 1.315068,-0.949771 2.337899,-2.26484 3.068492,-3.945205 0.657534,-1.680365 1.022831,-3.506849 1.022831,-5.625571 0,-1.607305 -0.365297,-3.068493 -1.242009,-4.456621 C 26.694064,10.694064 25.525114,9.5251138 23.917808,8.6484018 22.383561,7.7716889 20.557077,7.3333333 18.584475,7.3333333 c -1.461188,0 -2.776256,0.2191778 -4.091325,0.6575343 -1.242009,0.3652969 -2.337899,0.876712 -3.214611,1.6073057 -0.876712,0.6575347 -1.6073061,1.3881277 -2.2648403,2.2648397 -0.6575342,0.876713 -1.0958907,1.753425 -1.388128,2.703197 -0.2922374,0.949771 -0.4383565,1.899543 -0.4383565,2.776256 0,1.461186 0.2922374,2.776255 0.8036534,3.872146 0.5844746,1.09589 1.388128,1.826484 2.4840174,2.26484 0.365297,0.219178 0.657535,0.07306 0.730594,-0.365297 0.07306,-0.146119 0.146119,-0.365297 0.219178,-0.657535 0.07306,-0.365296 0.146119,-0.584474 0.146119,-0.657534 0.07306,-0.292237 0,-0.584474 -0.219178,-0.876712 -0.730593,-0.876712 -1.09589,-1.899543 -1.09589,-3.141553 0,-2.118721 0.730593,-3.945205 2.19178,-5.406392 1.461188,-1.534247 3.360731,-2.264841 5.69863,-2.264841 2.118722,0 3.726028,0.584476 4.968037,1.680366 1.16895,1.16895 1.753425,2.630137 1.753425,4.456621 0,2.3379 -0.511416,4.383562 -1.461188,6.063927 -0.949772,1.607306 -2.19178,2.484018 -3.652968,2.484018 -0.876712,0 -1.534246,-0.365297 -2.045661,-0.949772 -0.511416,-0.584474 -0.657535,-1.315068 -0.511416,-2.19178 0.146119,-0.438356 0.292237,-1.095891 0.584474,-1.899544 0.292238,-0.876712 0.438357,-1.534246 0.657535,-2.19178 0.146119,-0.584475 0.219178,-1.16895 0.219178,-1.534247 0,-0.730593 -0.219178,-1.315068 -0.584475,-1.753425 -0.365296,-0.438356 -0.876712,-0.730593 -1.607306,-0.730593 -0.876712,0 -1.607306,0.438356 -2.191781,1.242009 -0.584474,0.803653 -0.876712,1.753424 -0.876712,2.922375 0,1.02283 0.146119,1.899543 0.511416,2.557077 l -2.045663,8.767123 c -0.292237,0.949772 -0.365297,2.191781 -0.292237,3.652968 C 8.7214613,31.442922 6.3835618,29.470319 4.6301369,26.840182 2.876712,24.210045 2,21.214612 2,18 2,15.077625 2.6575342,12.374429 4.1187209,9.9634702 5.5799084,7.4794516 7.4794516,5.5799084 9.9634702,4.1187209 12.374429,2.6575342 15.077625,2 18,2 c 2.922374,0 5.625571,0.6575342 8.036529,2.1187209 2.484019,1.4611875 4.383562,3.3607307 5.844749,5.8447493 C 33.342465,12.374429 34,15.077625 34,18 Z" />
</svg>
