<?xml version="1.0" encoding="UTF-8" standalone="no"?>
<!-- Created with Inkscape (http://www.inkscape.org/) -->
<svg
   width="32"
   height="32"
   version="1.1"
   xmlns="http://www.w3.org/2000/svg">
  <path d="M 16,1 C 7.7157288,1 1,7.7157288 1,16 c 0.00597,5.948035 3.5259328,11.330648 8.9726562,13.720703 2.173e-4,-0.137351 0.00729,-2.513934 0.2734378,-3.378906 l 1.917968,-8.21875 c -1.363953,-2.819081 0.255893,-6.289321 2.398438,-6.300781 1.82364,0.07572 1.967558,0.83339 2.054688,2.328125 -0.194774,1.888586 -0.827046,3.35595 -1.371094,5.273437 -0.399553,1.561279 0.56233,2.735127 2.398437,2.945313 3.274407,-0.07286 4.865736,-4.8679 4.793825,-8.012977 -0.09725,-4.25342 -3.116678,-5.6452526 -6.301637,-5.7526484 -4.734307,0.2095286 -6.5485109,2.7840194 -7.3171669,5.9002074 -0.278855,1.130499 0.1073975,3.574679 0.948026,4.236511 0.5689259,0.693996 0.043419,2.847704 -0.7589345,2.440247 C 5.7109114,19.913168 5.521734,15.563755 6.2734375,12.78125 8.1209256,7.6464478 12.204444,6.2781235 16.548828,6 c 3.22207,0.027409 6.396055,1.4955257 8.355469,4.451172 1.68528,2.734198 1.331126,6.794885 0.205078,9.453125 -1.126048,2.65824 -3.752377,4.933872 -7.123047,5.068359 -1.487085,-0.08871 -2.803763,-0.59009 -3.699219,-1.917968 -0.547944,2.328764 -0.890357,3.698415 -1.027343,4.109374 -0.273972,0.958904 -1.50586,3.21875 -1.50586,3.21875 C 12.764027,30.657155 14.840257,30.991282 16,31 24.284271,31 31,24.284271 31,16 31,7.7157288 24.284271,1 16,1 Z" />
</svg>
