<?xml version="1.0" encoding="UTF-8" standalone="no"?>
<!-- Created with Inkscape (http://www.inkscape.org/) -->
<svg
   width="32"
   height="32"
   version="1.1"
   xmlns="http://www.w3.org/2000/svg">
  <path d="M 7.3652344 1.75 C 6.1940212 1.75 5.6015625 2.2753964 5.6015625 3.4492188 L 5.6015625 14.146484 C 3.216865 14.146484 1 14.274417 1 17.607422 L 1 25.091797 C 1 25.500414 1.153073 25.658203 1.5664062 25.658203 L 5.6015625 25.658203 L 5.6015625 28.550781 C 5.6015625 29.683972 5.9691673 30.25 7.3652344 30.25 L 24.634766 30.25 C 25.908866 30.25 26.398438 29.724436 26.398438 28.550781 L 26.398438 25.658203 L 30.433594 25.658203 C 30.816199 25.658203 31 25.56198 31 25.091797 L 31 17.607422 C 31 14.162771 29.180714 14.146484 26.398438 14.146484 L 26.398438 8.6054688 C 26.209502 7.49153 25.924038 6.5439693 25.138672 5.6503906 L 22.427734 2.9453125 C 21.521644 2.3007152 20.668826 1.75234 19.466797 1.75 L 7.3652344 1.75 z M 7.9335938 4.0136719 L 19.466797 4.0136719 L 19.466797 6.9082031 C 19.466797 7.951595 19.884609 8.6054688 21.167969 8.6054688 L 24.066406 8.6054688 L 24.066406 16.474609 L 7.9335938 16.474609 L 7.9335938 4.0136719 z M 27.507812 16.441406 A 1.194198 1.194198 0 0 1 28.703125 17.634766 A 1.194198 1.194198 0 0 1 27.507812 18.830078 A 1.194198 1.194198 0 0 1 26.314453 17.634766 A 1.194198 1.194198 0 0 1 27.507812 16.441406 z M 7.9335938 23.394531 L 24.066406 23.394531 L 24.066406 27.986328 L 7.9335938 27.986328 L 7.9335938 23.394531 z " />
</svg>
