<?xml version="1.0" encoding="UTF-8" standalone="no"?>
<!-- Created with Inkscape (http://www.inkscape.org/) -->
<svg
   xmlns="http://www.w3.org/2000/svg"
   version="1.1"
   width="36"
   height="33.126049">
  <path d="M 9.3949559,28.865546 H 26.60504 V 23.957982 H 9.3949559 Z m 0,-12.302521 H 26.60504 V 9.1680661 h -3.092437 c -0.470588,0 -0.941176,-0.1344534 -1.277311,-0.5378152 C 21.899157,8.2941167 21.697477,7.8235291 21.697477,7.3529407 V 4.2605031 H 9.3949559 Z m 22.1176471,1.210083 c 0,-0.336134 -0.134453,-0.605041 -0.336134,-0.873949 -0.268908,-0.20168 -0.537815,-0.336134 -0.873949,-0.336134 -0.336136,0 -0.605043,0.134454 -0.873951,0.336134 -0.268907,0.268908 -0.336134,0.537815 -0.336134,0.873949 0,0.336135 0.06723,0.67227 0.336134,0.873951 0.268908,0.268907 0.537815,0.403361 0.873951,0.403361 0.336134,0 0.605041,-0.134454 0.873949,-0.403361 0.201681,-0.201681 0.336134,-0.537816 0.336134,-0.873951 z m 2.487395,0 v 8.000001 c 0,0.201681 -0.06723,0.336134 -0.20168,0.470588 -0.134454,0.06723 -0.268908,0.134454 -0.403362,0.134454 h -4.302521 v 3.092437 c 0,0.537815 -0.201681,0.941176 -0.537815,1.277311 -0.403361,0.403361 -0.806723,0.537815 -1.344538,0.537815 H 8.789914 c -0.5378151,0 -0.9411769,-0.134454 -1.3445378,-0.537815 C 7.1092411,30.411764 6.907561,30.008403 6.907561,29.470588 V 26.378151 H 2.6050399 c -0.1344542,0 -0.2689076,-0.06723 -0.4033618,-0.134454 -0.1344533,-0.134454 -0.20168,-0.268907 -0.20168,-0.470588 v -8.000001 c 0,-1.008402 0.4033609,-1.882353 1.0756294,-2.554621 0.739496,-0.739496 1.6134454,-1.142857 2.621849,-1.142857 H 6.907561 V 3.6554613 c 0,-0.5378151 0.2016801,-0.9411769 0.5378152,-1.2773111 C 7.8487371,1.9747893 8.2520989,1.840335 8.789914,1.840335 h 12.907563 c 0.470589,0 1.075631,0.067227 1.680672,0.3361352 0.605042,0.2689066 1.075631,0.6050418 1.478992,0.941176 l 2.890756,2.8907566 c 0.336134,0.4033609 0.67227,0.8739494 0.941177,1.4789912 0.268908,0.6050427 0.403361,1.2100845 0.403361,1.6806721 V 14.07563 h 1.210085 c 1.008402,0 1.882353,0.403361 2.621848,1.142857 0.672269,0.672268 1.07563,1.546219 1.07563,2.554621 z" />
</svg>
