<?xml version="1.0" encoding="UTF-8" standalone="no"?>
<svg
   xmlns="http://www.w3.org/2000/svg"
   version="1.1"
   width="36"
   height="30.230854">
  <path d="m 8.7989182,21.526043 c 0,0 -2.1279106,2.149938 -3.0205326,3.046177 l -0.8319998,0.831956 c -0.1122667,0.112346 -0.2984,0.2424 -0.3516444,0.396488 -0.108,0.313174 0.1822222,0.547591 0.3772444,0.74264 0.5118221,0.511796 1.0683553,0.998382 1.5599996,1.52944 0.1949333,0.210613 0.4174221,0.559298 0.7579554,0.461769 0.2325333,-0.06658 0.376711,-0.331174 0.5362665,-0.493556 0.4106666,-0.417991 0.8256887,-0.828844 1.2415997,-1.241697 1.517777,-1.506933 3.072622,-2.989688 4.543466,-4.542132 0.844267,-0.8912 1.752178,-1.723262 2.619911,-2.590978 3.333421,-3.333386 6.680354,-6.657776 9.987375,-10.0175178 C 27.312781,8.5368903 28.403625,7.4072017 29.535092,6.3333441 29.881847,6.004242 30.197581,5.6424198 30.551625,5.3208466 30.812514,5.0840555 31.212958,4.7708823 31.385936,4.4577535 31.552869,4.1555224 31.208603,3.8749536 31.018114,3.6840825 30.525758,3.1906782 30.029225,2.702145 29.533314,2.2116384 29.34807,2.028234 29.156959,1.7312652 28.880781,1.6849452 c -0.235556,-0.039467 -0.366489,0.1432355 -0.511822,0.2953599 -0.319734,0.3347199 -0.6688,0.6423199 -0.984178,0.9805243 -0.896533,0.9613953 -1.872088,1.8503729 -2.79351,2.7874126 -0.268356,0.2727822 -0.529156,0.5539999 -0.808,0.8162221 -0.09102,0.0856 -0.207022,0.2543732 -0.328978,0.2910755 C 23.253227,6.9160729 22.860427,6.6787663 22.660338,6.6228907 21.946294,6.4234597 21.238116,6.2416553 20.510027,6.104722 18.72345,5.7687131 16.84265,5.8545354 15.064251,6.1771664 11.167007,6.883984 7.5498518,9.1817257 4.6323414,11.774232 c -0.6702221,0.595502 -1.309333,1.217769 -1.9143996,1.879502 -0.3289777,0.359858 -0.676622,0.756204 -0.7132443,1.269573 -0.072,1.006506 0.6982221,1.677466 1.355022,2.328062 1.0669331,1.056773 2.1942217,2.00615 3.393777,2.907066 M 28.573581,9.5845789 26.643537,11.616152 c 0,0 0.776711,0.61232 1.013422,0.771431 0.782311,0.525858 1.555911,1.189751 2.222133,1.855866 0.186489,0.186418 0.936177,0.722631 0.7536,0.986116 -0.621245,0.897075 -1.742133,1.674168 -2.604,2.326301 -2.39111,1.80928 -4.954043,3.162089 -7.902487,3.773688 -1.225066,0.223849 -2.207999,0.21296 -3.415821,0.155663 l -2.305422,2.421563 c 1.453066,0.322685 3.06551,0.506418 4.415732,0.418952 4.315199,-0.295503 8.070487,-2.354338 11.434842,-4.942035 1.075644,-0.827351 2.152444,-1.775386 3.033422,-2.811768 0.408,-0.479956 0.811288,-1.00424 0.688711,-1.681982 -0.145423,-0.80416 -0.794934,-1.356693 -1.346845,-1.913724 C 31.378469,11.712179 28.573581,9.5845789 28.573581,9.5845789 M 12.48514,10.006952 c 0,0 -0.463644,0.802694 -0.6256,1.239814 -0.367911,0.993724 -0.506667,2.278746 -0.316889,3.28455 0.189689,1.005778 0.547645,1.94296 1.401511,2.911937 -0.708711,0.680391 -1.342933,1.38336 -2.078844,2.004782 C 9.5750958,18.682337 8.9786515,18.364266 7.6987407,17.356933 6.4190076,16.349573 5.3447857,15.384782 5.3450523,15.136196 6.3304743,14.143609 8.2531406,12.407903 9.5121625,11.543272 10.16834,11.096437 10.877407,10.707246 11.586562,10.352525 11.847896,10.221859 12.48514,10.006952 12.48514,10.006952 m 12.018309,3.686142 c 0,0 -0.882756,0.86944 -1.292978,1.279626 -0.984444,0.984391 -1.959555,1.985493 -2.956533,2.956711 -0.345155,0.336364 -0.677333,0.717484 -1.038577,1.033884 -0.327733,0.287022 -0.970667,1.026942 -0.970667,1.026942 0,0 2.416,0.242018 4.589244,-1.894524 2.17351,-2.13656 1.669511,-4.402639 1.669511,-4.402639 z" />
</svg>
