<?xml version="1.0" encoding="UTF-8" standalone="no"?>
<!-- Created with Inkscape (http://www.inkscape.org/) -->
<svg
   width="32"
   height="32"
   version="1.1"
   xmlns="http://www.w3.org/2000/svg">
  <path d="m 7.3592284,21.988636 c -1.1998897,1.203565 -2.3999079,2.406959 -3.6058784,3.604419 -0.4894704,0.46434 -0.3708073,0.656633 0.023961,1.058731 0.4790533,0.475674 0.9999551,0.927917 1.4601224,1.421494 0.5335828,0.503697 0.8641615,0.37013 1.2113608,-0.02954 C 13.624858,20.721156 21.739106,12.808043 28.060662,6.6016096 28.599364,6.0577524 28.567237,5.781015 28.155865,5.4059363 27.695031,4.9473555 27.230289,4.4933024 26.766128,4.037415 26.26964,3.4485376 25.897874,3.5362161 25.676319,3.822409 24.125115,5.3279018 22.48338,7.0431278 21.076309,8.3535563 13.12172,5.2835126 5.0656839,10.654777 1,15.851912 c 0.00105,1.037344 3.0761125,3.725566 4.5482057,4.917513 M 25.86784,10.889983 24.061365,12.778171 c 1.401812,0.971553 3.311667,2.681629 3.733754,3.358383 -2.598867,2.790511 -6.60749,4.971139 -9.833821,5.669462 -1.146632,0.20805 -2.066635,0.197929 -3.197127,0.144675 l -2.15782,2.250653 c 5.646763,1.829486 14.08669,-2.379873 17.674969,-6.817167 0.220949,-0.300628 0.765776,-0.971799 0.71541,-1.399236 C 30.840043,15.522872 29.73269,14.329212 29.216115,13.811495 28.04394,12.636666 25.86784,10.889983 25.86784,10.889983 m -15.058396,0.392563 c -0.750141,1.255 -1.1137974,2.887716 -0.8821472,4.20504 0.1775442,0.934792 0.5125832,1.805829 1.3117802,2.706418 -0.663335,0.63237 -1.256952,1.285724 -1.9457477,1.863287 C 7.1977501,18.844313 5.7584607,17.825578 4.1264925,16.049775 6.0895246,14.105691 8.458109,12.169546 10.809444,11.282546 m 11.24885,3.425981 c -1.978916,2.03638 -4.251497,4.109489 -5.858045,5.852716 0,0 2.261319,0.224936 4.295422,-1.76081 2.034354,-1.985765 1.562623,-4.091906 1.562623,-4.091906 z" />
</svg>
