<?xml version="1.0" encoding="UTF-8" standalone="no"?>
<!-- Created with Inkscape (http://www.inkscape.org/) -->
<svg
   width="32"
   height="32"
   version="1.1"
   xmlns="http://www.w3.org/2000/svg">
  <path d="m 16.001952,7.3777837 c -7.8939039,10e-8 -15.00195251,7.8119343 -15.00195251,8.3956233 0,1.345171 7.43473191,8.848809 15.00195251,8.848809 7.186151,0 15.001317,-6.950859 14.998047,-8.676911 -0.0014,-0.748029 -6.530384,-8.5675214 -14.998047,-8.5675213 z m 5.178408,3.7446283 c 3.952577,1.689752 6.61805,4.713526 6.61805,4.936189 0,0.392292 -6.179153,5.828884 -11.798411,5.828884 -5.917241,0 -11.8726393,-5.661438 -11.8726393,-5.916786 0,-0.135039 2.808068,-3.017377 6.6141413,-4.727178 a 6.2487488,6.0083339 0 0 0 -0.9884089,3.240656 6.2487488,6.0083339 0 0 0 6.2488599,6.008594 6.2487488,6.0083339 0 0 0 6.248861,-6.008594 6.2487488,6.0083339 0 0 0 -1.070453,-3.361765 z" />
</svg>
