<?xml version="1.0" encoding="UTF-8" standalone="no"?>
<!-- Created with Inkscape (http://www.inkscape.org/) -->
<svg
   width="32"
   height="32"
   version="1.1"
   xmlns="http://www.w3.org/2000/svg">
  <path d="M 8.0383627,3.5000951 C 4.1393629,3.5404628 0.99997333,6.6940792 1,10.570356 c -3.1211e-4,3.1513 2.0972324,5.92242 5.1432656,6.794898 1.9106326,0.508941 2.5920862,1.102218 2.6603092,2.670414 0.1185617,2.725298 -1.9332035,5.34444 -5.1193531,5.935136 -0.6977082,0.1269 -1.1591185,0.792383 -1.0302468,1.485765 0.1284758,0.692155 0.7981999,1.149365 1.4945564,1.022205 1.2440529,-0.227276 2.7363217,-0.588169 4.2505164,-1.610568 1.5141943,-1.022402 3.0159503,-2.666561 4.4976183,-5.324983 1.566097,-2.809908 1.999266,-5.626486 2.18205,-7.137613 C 15.576644,6.6509116 12.931654,3.6459399 8.1120933,3.5000951 c -0.024582,-1.266e-4 -0.049156,-1.266e-4 -0.073739,0 z m 16.4022523,0.00199 c -3.705838,-0.037746 -6.750597,2.8974985 -6.827132,6.5809479 -0.06253,2.994532 1.875412,5.668646 4.752689,6.557177 1.805535,0.520915 2.441127,1.097674 2.474985,2.589191 0.05884,2.592042 -1.942535,5.039812 -4.981854,5.538931 -0.665506,0.106969 -1.117094,0.731257 -1.008327,1.392658 0.108413,0.660235 0.736668,1.107657 1.400898,1.000416 1.186654,-0.191689 2.612105,-0.506142 4.07117,-1.448127 1.459062,-0.941984 2.917584,-2.475103 4.378051,-4.972358 1.54369,-2.639561 2.01239,-5.307042 2.215929,-6.739431 0.581211,-7.0407225 -1.926445,-10.2716213 -6.406663,-10.4994049 -0.02335,-6.005e-4 -0.04639,3.651e-4 -0.06975,0 z" />
</svg>
