<?xml version="1.0" encoding="UTF-8" standalone="no"?>
<svg
   xmlns="http://www.w3.org/2000/svg"
   version="1.1"
   width="36"
   height="30.045595">
  <path d="m 9.4747696,1.6693014 c -4.1407537,0.043124 -7.4747981,3.4120942 -7.4747697,7.5530722 -3.315e-4,3.3664974 2.2272693,6.3268504 5.4621688,7.2589074 2.0290996,0.543696 2.7528063,1.177486 2.8252593,2.85277 0.125913,2.911403 -2.0530699,5.709401 -5.4367739,6.340434 -0.7409689,0.135566 -1.2309884,0.846494 -1.0941262,1.587224 0.1364418,0.739422 0.8476915,1.227853 1.5872249,1.092011 1.3211893,-0.242797 2.9059848,-0.628334 4.5140657,-1.720552 1.6080805,-1.092218 3.2029515,-2.848654 4.7764885,-5.688613 1.663202,-3.001791 2.123229,-6.010706 2.317347,-7.625025 0.194118,-1.61432 0.15449,-3.3754779 0.15449,-4.0971564 -1.98e-4,-4.1713647 -3.381708,-7.5528743 -7.5530722,-7.5530722 -0.026107,-1.353e-4 -0.052204,-1.353e-4 -0.078311,0 z m 17.4192584,0.00212 c -3.935615,-0.040323 -7.169162,3.0953623 -7.250442,7.0303462 -0.06641,3.1990229 1.991696,6.0557439 5.047375,7.0049519 1.917486,0.556489 2.592488,1.172633 2.628444,2.766002 0.06249,2.769046 -2.062979,5.383968 -5.290749,5.917173 -0.70677,0.114273 -1.186358,0.781191 -1.070847,1.487759 0.115136,0.70532 0.782345,1.183297 1.487759,1.068731 1.260232,-0.204778 2.774066,-0.540705 4.323599,-1.547015 1.54953,-1.006311 3.098487,-2.644123 4.649509,-5.311911 1.639405,-2.81981 2.137166,-5.669447 2.353325,-7.199651 0.216159,-1.530203 0.212274,-3.2039794 0.226444,-3.8897578 0.08171,-3.9638624 -3.066492,-7.2445375 -7.030346,-7.3266283 -0.0248,-6.413e-4 -0.04926,3.901e-4 -0.07407,0 z" />
</svg>
