<?xml version="1.0" encoding="UTF-8" standalone="no"?>
<!-- Created with Inkscape (http://www.inkscape.org/) -->
<svg
   width="32"
   height="32"
   version="1.1"
   xmlns="http://www.w3.org/2000/svg">
  <path d="M 1.1002256,16.480977 C 0.85906225,15.748434 0.23727816,16.409099 10.725657,6.2537172 11.892829,5.1236024 12.190513,4.9866478 12.824349,5.288167 c 0.618273,0.3578432 0.642939,0.7404059 0.642939,6.212061 8.852403,-0.161296 16.418911,1.985167 17.475106,11.472218 0.129613,1.572022 0.06035,1.969181 -0.41309,2.368536 -0.546633,0.4611 -1.185722,0.314757 -1.903865,-0.43596 -3.806449,-5.09241 -10.355216,-4.883942 -15.008871,-4.560038 0,4.913878 0.0096,6.012348 -0.772979,6.465292 -0.395947,0.188353 -1.314277,-0.340154 -1.61288,-0.599908 -0.903212,-0.7857 -8.2306115,-7.652461 -10.1304834,-9.729391 z" />
</svg>
