<?xml version="1.0" encoding="UTF-8" standalone="no"?>
<!-- Created with Inkscape (http://www.inkscape.org/) -->
<svg
   xmlns="http://www.w3.org/2000/svg"
   version="1.1"
   width="36"
   height="26.106028">
  <path d="M 13.604388,24.533149 C 13.449698,24.463798 10.825463,22.033237 7.7727559,19.131906 3.6526412,15.216094 2.1926233,13.766595 2.1069069,13.506874 1.849666,12.727424 1.1864296,13.430394 12.374034,2.6247265 13.619018,1.4222464 13.936548,1.276522 14.61264,1.5973486 c 0.66493,0.3155289 0.685801,0.4278311 0.685801,3.6899806 v 2.9198614 l 2.380828,0.061769 c 4.559015,0.1182826 7.440861,0.700288 10.229708,2.0659484 3.796554,1.85912 5.599231,4.872495 6.029578,10.079107 0.138254,1.672684 0.06437,2.095275 -0.440629,2.520202 -0.583076,0.490626 -1.26477,0.334912 -2.03079,-0.463877 -1.060117,-1.105471 -2.948922,-2.496551 -4.398694,-3.239581 -2.57686,-1.320683 -6.830669,-2.082654 -10.040339,-1.798493 -0.776159,0.06871 -1.482853,0.152434 -1.57043,0.186041 -0.137467,0.05275 -0.159232,0.475132 -0.159232,3.090004 0,3.36647 -0.02052,3.483323 -0.665279,3.789284 -0.422343,0.200414 -0.643966,0.208074 -1.028774,0.03556 z" />
</svg>
