<?xml version="1.0" encoding="UTF-8" standalone="no"?>
<!-- Created with Inkscape (http://www.inkscape.org/) -->
<svg
   width="32"
   height="32"
   version="1.1"
   xmlns="http://www.w3.org/2000/svg">
  <path d="m 13.660838,1.0000001 c -6.9720994,4e-7 -12.6608375,5.6828059 -12.6608379,12.6476339 0,6.964828 5.6887383,12.647634 12.6608379,12.647634 2.738784,0 5.276896,-0.879006 7.352211,-2.366054 1.469452,1.467918 4.119398,4.48441 6.007439,6.374658 C 27.462642,30.746496 28.031145,31 28.662795,31 29.936348,30.97944 30.969814,29.916188 31,28.661322 31,28.029003 30.747257,27.522013 30.305103,27.07939 28.41556,25.191818 25.472691,22.048103 24.210175,20.786904 c 1.564693,-2.104556 2.109543,-4.326889 2.109543,-7.13927 0,-6.9648282 -5.686781,-12.6476338 -12.65888,-12.6476339 z m 0,3.4043802 c 5.130529,0 9.252902,4.1180742 9.252903,9.2432537 0,5.125179 -4.122374,9.243254 -9.252903,9.243254 -5.1305303,-1e-6 -9.2548611,-4.118075 -9.2548611,-9.243254 2e-7,-5.1251794 4.1243309,-9.2432535 9.2548611,-9.2432537 z" />
</svg>
