<?xml version="1.0" encoding="UTF-8" standalone="no"?>
<svg
   xmlns="http://www.w3.org/2000/svg"
   version="1.1"
   width="36"
   height="35.92437">
  <path d="m 25.350052,15.508403 c 0,-2.766782 -0.922261,-5.072433 -2.843637,-6.9938094 -1.921376,-1.9213763 -4.227028,-2.8436369 -6.99381,-2.8436369 -2.689927,0 -4.995578,0.9222606 -6.9169547,2.8436369 -1.9213764,1.9213764 -2.920492,4.2270274 -2.920492,6.9938094 0,2.689927 0.9991156,4.995579 2.920492,6.916955 1.9213767,1.921376 4.2270277,2.920492 6.9169547,2.920492 2.766782,0 5.072434,-0.999116 6.99381,-2.920492 1.921376,-1.921376 2.843637,-4.227028 2.843637,-6.916955 z M 34,31.441176 c 0,0.672269 -0.268908,1.277311 -0.739496,1.747899 -0.470588,0.470588 -1.07563,0.739496 -1.747899,0.739496 -0.672269,0 -1.277311,-0.268908 -1.747899,-0.739496 L 23.17647,26.60084 c -2.285714,1.613445 -4.840336,2.420168 -7.663865,2.420168 -1.815126,0 -3.563025,-0.336135 -5.243698,-1.07563 C 8.5882352,27.205882 7.1764705,26.264705 5.9663865,25.054621 4.7563025,23.844537 3.815126,22.432773 3.0756302,20.7521 2.4033613,19.071428 2,17.323529 2,15.508403 2,13.62605 2.4033613,11.878151 3.0756302,10.264706 3.815126,8.5840336 4.7563025,7.105042 5.9663865,5.894958 7.1764705,4.684874 8.5882352,3.7436975 10.268907,3.0042017 11.94958,2.3319329 13.697479,1.9957984 15.512605,1.9957984 c 1.882353,0 3.630252,0.3361345 5.310924,1.0084033 1.613446,0.7394958 3.092437,1.6806723 4.302521,2.8907563 1.210084,1.210084 2.151261,2.6890756 2.890756,4.369748 0.672269,1.613445 1.075631,3.361344 1.075631,5.243697 0,2.823529 -0.806723,5.378151 -2.420168,7.663865 l 6.588235,6.588236 C 33.731092,30.231092 34,30.768907 34,31.441176 Z" />
</svg>
