<?xml version="1.0" encoding="UTF-8" standalone="no"?>
<!-- Created with Inkscape (http://www.inkscape.org/) -->
<svg
   xmlns="http://www.w3.org/2000/svg"
   version="1.1"
   width="36"
   height="36">
  <path d="M 27.351562 2 C 25.525078 2 23.918584 2.5853222 22.603516 3.9003906 C 21.288447 5.2154591 20.703125 6.821953 20.703125 8.6484375 L 20.703125 9.3789062 L 13.177734 13.105469 C 11.935725 11.93652 10.401863 11.351564 8.6484375 11.351562 C 6.821953 11.351562 5.2154591 11.936885 3.9003906 13.251953 C 2.5853222 14.567022 2 16.173516 2 18 C 2 19.826484 2.5853222 21.432978 3.9003906 22.748047 C 5.2154591 24.063115 6.821953 24.648438 8.6484375 24.648438 C 10.401863 24.648438 11.935725 24.06348 13.177734 22.894531 L 20.703125 26.621094 L 20.703125 27.351562 C 20.703125 29.178046 21.288447 30.784541 22.603516 32.099609 C 23.918584 33.414677 25.525079 34 27.351562 34 C 29.178046 34 30.784541 33.414677 32.099609 32.099609 C 33.414677 30.784541 34 29.178047 34 27.351562 C 34 25.525078 33.414677 23.918584 32.099609 22.603516 C 30.784541 21.288447 29.178047 20.703125 27.351562 20.703125 C 25.598138 20.703125 24.064275 21.288082 22.822266 22.457031 L 15.296875 18.730469 L 15.296875 18 L 15.296875 17.269531 L 22.822266 13.542969 C 24.064275 14.711919 25.598139 15.296875 27.351562 15.296875 C 29.178046 15.296875 30.784541 14.711553 32.099609 13.396484 C 33.414677 12.081415 34 10.474921 34 8.6484375 C 34 6.821953 33.414677 5.2154591 32.099609 3.9003906 C 30.784541 2.5853222 29.178047 2 27.351562 2 z M 27.347656 5.0410156 A 3.5841823 3.5841823 0 0 1 27.349609 5.0410156 A 3.5841823 3.5841823 0 0 1 27.408203 5.0410156 A 3.5841823 3.5841823 0 0 1 30.992188 8.625 A 3.5841823 3.5841823 0 0 1 27.408203 12.208984 A 3.5841823 3.5841823 0 0 1 23.822266 8.625 A 3.5841823 3.5841823 0 0 1 27.347656 5.0410156 z M 8.5585938 14.410156 A 3.5841823 3.5841823 0 0 1 8.6191406 14.410156 A 3.5841823 3.5841823 0 0 1 12.205078 17.996094 A 3.5841823 3.5841823 0 0 1 8.6191406 21.580078 A 3.5841823 3.5841823 0 0 1 5.0351562 17.996094 A 3.5841823 3.5841823 0 0 1 8.5585938 14.410156 z M 27.349609 23.757812 A 3.5841823 3.5841823 0 0 1 27.408203 23.757812 A 3.5841823 3.5841823 0 0 1 30.992188 27.341797 A 3.5841823 3.5841823 0 0 1 27.408203 30.925781 A 3.5841823 3.5841823 0 0 1 23.822266 27.341797 A 3.5841823 3.5841823 0 0 1 27.349609 23.757812 z " />
</svg>
