<?xml version="1.0" encoding="UTF-8" standalone="no"?>
<!-- Created with Inkscape (http://www.inkscape.org/) -->
<svg
   width="32"
   height="32"
   version="1.1"
   xmlns="http://www.w3.org/2000/svg">
  <path d="m 24.738173,0.99999989 c -4.257681,0 -6.455051,3.72867921 -6.146624,6.87423141 l -7.18041,3.5778467 C 10.281984,10.398671 8.7719471,9.7979138 7.1813178,9.7979138 c -3.6408041,0 -6.18131796,2.9252682 -6.18131796,6.2189692 0,3.441311 2.69057686,6.174152 6.04802116,6.215848 1.6418364,0 3.196805,-0.585113 4.359771,-1.682237 l 7.217619,3.59645 C 18.235688,27.763186 21.117232,30.95507 24.73523,31 28.440621,31 30.958402,28.155545 31,24.790229 31,21.2439 28.26498,18.57685 24.803123,18.564206 c -1.641824,-0.006 -3.071405,0.57354 -4.234371,1.670663 l -7.187228,-3.532402 v -1.37117 l 7.168458,-3.538903 c 1.183897,1.139254 3.01514,1.63313 4.153331,1.63313 3.48688,0 6.260188,-2.854501 6.260188,-6.1855986 0,-3.5198769 -2.791364,-6.23992551 -6.225328,-6.23992551 z m 3.408918,6.21792761 c -1.03e-4,1.8577148 -1.50253,3.3636645 -3.355898,3.3637665 -1.854083,9.1e-4 -3.357623,-1.505336 -3.357726,-3.3637664 -1.46e-4,-1.8364503 1.469124,-3.3336438 3.340123,-3.3486419 1.871,-0.014998 3.373399,1.4909446 3.373501,3.3486418 z M 7.1809951,12.662723 c 1.8716972,-0.01602 3.3755349,1.491346 3.3746259,3.350493 -1.02e-4,1.858431 -1.5036435,3.364677 -3.3577263,3.363767 C 5.3445263,19.37688 3.8420999,17.87093 3.8419973,16.013216 3.8408373,14.176755 5.3092979,12.678739 7.1809951,12.662723 Z m 20.9661109,12.12195 c -1.03e-4,1.857715 -1.50253,3.363665 -3.355898,3.363768 -1.854083,9.09e-4 -3.357624,-1.505337 -3.357726,-3.363768 -1.3e-4,-1.837152 1.470237,-3.334632 3.340665,-3.349148 1.87043,-0.01451 3.372857,1.491433 3.372959,3.349148 z" />
</svg>
