<?xml version="1.0" encoding="UTF-8" standalone="no"?>
<!-- Created with Inkscape (http://www.inkscape.org/) -->
<svg
   width="32"
   height="32"
   version="1.1"
   xmlns="http://www.w3.org/2000/svg">
  <path d="M 5.6033115,5.25 C 5.0034028,5.2503891 4.5224871,5.7350357 4.5220974,6.3329957 4.5215104,6.9316441 5.0027115,7.417366 5.6033115,7.4177561 H 20.61913 l 0.300433,3.8155199 c -6.21e-4,0.0047 -9e-4,10.368084 -9e-4,10.368084 h -9.118782 c -0.601996,-0.741762 -1.50789,-1.17282 -2.4650559,-1.17295 -0.9546853,0.0023 -1.8575446,0.433106 -2.4579507,1.172951 H 5.9867928 v -3.664502 c -3.479e-4,-0.598646 -0.4876521,-1.083576 -1.0882503,-1.08299 -0.5999087,3.87e-4 -1.0861328,0.485033 -1.0865234,1.082994 v 4.747494 c -5.263e-4,0.598624 0.4859488,1.084311 1.0865234,1.084759 h 1.2776377 c 0.095531,1.670272 1.480274,2.97706 3.1587042,2.980884 1.6784296,-0.0038 3.0631716,-1.310612 3.1587036,-2.980884 h 9.396605 c 0.09553,1.670272 1.480274,2.97706 3.158704,2.980884 1.678429,-0.0038 3.063172,-1.310612 3.158703,-2.980884 h 1.705878 C 30.51405,23.768667 31.000527,23.282981 31,22.684357 v -6.600532 c -1.7e-4,-0.217769 -0.06616,-0.430438 -0.189345,-0.610286 L 27.662569,10.866397 C 27.460141,10.57086 27.124404,10.393964 26.765391,10.393689 H 23.093509 L 22.792176,6.3329957 C 22.791726,5.735061 22.305536,5.2504487 21.705653,5.25 Z M 1.8441372,8.5886981 C 1.3800087,8.5882471 0.99954697,8.9633891 1.0000002,9.4260111 1.0003009,9.8881 1.3805423,10.262414 1.8441372,10.261962 H 14.064132 c 0.463062,-3.01e-4 0.838373,-0.374393 0.838674,-0.8359509 4.53e-4,-0.462089 -0.375079,-0.837013 -0.838674,-0.837313 z m 0,2.8491509 c -0.4635949,-4.53e-4 -0.8438363,0.37386 -0.844137,0.83595 3.007e-4,0.46209 0.3805421,0.836404 0.844137,0.835951 h 7.7010473 c 0.4630615,-3e-4 0.8383725,-0.374393 0.8386745,-0.835951 -3.02e-4,-0.461558 -0.375613,-0.83565 -0.8386745,-0.83595 z m 21.2476008,1.123596 h 3.098537 l 2.634908,3.855746 v 5.18417 h -1.311261 c -0.601967,-0.741763 -1.507862,-1.172819 -2.465027,-1.17295 -0.710695,0.0025 -1.399944,0.242891 -1.957157,0.682604 z M 1.8441371,14.19434 c -0.463595,-4.51e-4 -0.843835,0.373862 -0.844137,0.83595 -4.5333e-4,0.462623 0.3800085,0.837764 0.844137,0.837312 H 5.1110083 C 5.5746031,15.867303 5.9501352,15.49238 5.9496819,15.03029 5.9493805,14.568733 5.5740688,14.19464 5.1110083,14.19434 Z m 7.4907455,7.929117 c 0.8120774,1.67e-4 1.4703544,0.656307 1.4705224,1.465747 8.1e-4,0.810131 -0.657754,1.467345 -1.4705224,1.467513 -0.81277,-1.68e-4 -1.4713335,-0.657382 -1.4705235,-1.467513 1.676e-4,-0.80944 0.6584454,-1.46558 1.4705235,-1.465747 z m 15.7140124,0 c 0.812077,1.67e-4 1.470354,0.656307 1.470522,1.465747 8.1e-4,0.810131 -0.657753,1.467345 -1.470522,1.467513 -0.81277,-1.68e-4 -1.471332,-0.657382 -1.470523,-1.467513 1.69e-4,-0.80944 0.658446,-1.46558 1.470523,-1.465747 z" />
</svg>
