<?xml version="1.0" encoding="UTF-8" standalone="no"?>
<!-- Created with Inkscape (http://www.inkscape.org/) -->
<svg
   xmlns="http://www.w3.org/2000/svg"
   version="1.1"
   width="36"
   height="36">
  <path d="m 6.9101991,6.495984 c -0.6399026,4.165e-4 -1.1528794,0.5190567 -1.153295,1.1589583 -6.262e-4,0.6406381 0.512655,1.1604296 1.153295,1.1608466 H 22.927072 l 0.321422,4.0755951 c -6.62e-4,0.005 -0.0013,0.01005 -0.0019,0.0151 V 23.994242 H 13.519893 C 12.877764,23.200452 11.911477,22.73916 10.890501,22.73902 9.8721696,22.74142 8.9091196,23.202505 8.2686865,23.994243 H 7.3192458 v -3.92153 C 7.3188747,19.432077 6.7990836,18.913133 6.1584455,18.91376 5.5185429,18.914175 4.9999038,19.432814 4.9994872,20.072717 v 5.080487 c -5.614e-4,0.640613 0.5183454,1.160366 1.1589583,1.160846 H 7.521259 c 0.1019002,1.787427 1.578959,3.185875 3.369285,3.189966 1.790324,-0.0041 3.267383,-1.402539 3.369283,-3.189966 h 10.023046 c 0.1019,1.787427 1.578959,3.185875 3.369284,3.189966 1.790324,-0.0041 3.267383,-1.402539 3.369283,-3.189966 h 1.819603 C 33.481654,26.313569 34.000562,25.793817 34,25.153204 v -7.063499 c -1.81e-4,-0.233044 -0.07057,-0.46063 -0.201968,-0.653093 l -3.357958,-4.930291 c -0.215923,-0.316267 -0.574043,-0.50557 -0.95699,-0.505864 H 25.56641 L 25.244988,7.6549423 C 25.244508,7.0150676 24.725905,6.4964642 24.08603,6.495984 Z m -4.009786,3.572878 c -0.4950704,-4.83e-4 -0.9008962,0.400972 -0.9004128,0.896043 3.208e-4,0.4945 0.4059116,0.895069 0.9004128,0.894585 H 15.935074 c 0.493933,-3.22e-4 0.894265,-0.400653 0.894586,-0.894585 4.83e-4,-0.494501 -0.400084,-0.895722 -0.894586,-0.896043 z m 0,3.048993 c -0.4945012,-4.84e-4 -0.900092,0.400083 -0.9004128,0.894585 3.208e-4,0.494501 0.4059116,0.895069 0.9004128,0.894585 h 8.2144509 c 0.493932,-3.21e-4 0.894264,-0.400654 0.894586,-0.894585 -3.22e-4,-0.493932 -0.400654,-0.894264 -0.894586,-0.894585 z m 22.6641079,1.202406 h 3.305106 l 2.810568,4.126192 v 5.547794 h -1.398678 c -0.642098,-0.793791 -1.608386,-1.255082 -2.629362,-1.255223 -0.758075,0.0027 -1.493274,0.259928 -2.087634,0.730483 z M 2.900413,16.06769 c -0.4945013,-4.84e-4 -0.9000906,0.400084 -0.9004128,0.894583 -4.835e-4,0.495072 0.4053424,0.896526 0.9004128,0.896043 h 3.4846627 c 0.4945011,-3.2e-4 0.8950687,-0.40154 0.8945852,-0.896043 -3.215e-4,-0.493931 -0.400654,-0.894262 -0.8945852,-0.894583 z m 7.990129,8.485272 c 0.866215,1.79e-4 1.568378,0.702342 1.568557,1.568557 8.64e-4,0.866954 -0.701604,1.570266 -1.568557,1.570446 -0.866955,-1.8e-4 -1.5694228,-0.703492 -1.5685588,-1.570446 1.788e-4,-0.866215 0.7023418,-1.568378 1.5685588,-1.568557 z m 16.761613,0 c 0.866215,1.79e-4 1.568378,0.702342 1.568557,1.568557 8.64e-4,0.866954 -0.701604,1.570266 -1.568557,1.570446 -0.866955,-1.8e-4 -1.569421,-0.703492 -1.568558,-1.570446 1.8e-4,-0.866215 0.702342,-1.568378 1.568558,-1.568557 z" />
</svg>
