<?xml version="1.0" encoding="UTF-8" standalone="no"?>
<!-- Created with Inkscape (http://www.inkscape.org/) -->
<svg
   xmlns="http://www.w3.org/2000/svg"
   version="1.1"
   width="36"
   height="30.40336">
  <path d="M 3.2773438 1.6894531 C 2.9412093 1.6894531 2.6059778 1.8228893 2.4042969 2.0917969 C 2.1353893 2.2934769 2 2.5623024 2 2.8984375 C 2 3.2345718 2.1353893 3.5717566 2.4042969 3.7734375 C 2.6059778 4.0423451 2.9412095 4.1757812 3.2773438 4.1757812 L 7.1757812 4.1757812 L 10.537109 19.974609 C 10.537109 20.041839 10.471209 20.242811 10.269531 20.511719 C 10.06785 20.847853 9.9324614 21.116679 9.8652344 21.318359 C 9.7307802 21.52004 9.6637511 21.72328 9.5292969 21.992188 C 9.4620709 22.261094 9.3945312 22.46125 9.3945312 22.595703 C 9.3945312 22.931837 9.5287878 23.201796 9.7304688 23.470703 C 9.9993764 23.672384 10.269335 23.806641 10.605469 23.806641 L 11.771484 23.806641 A 2.4693027 2.4693027 0 0 0 9.3945312 26.273438 A 2.4693027 2.4693027 0 0 0 11.863281 28.742188 A 2.4693027 2.4693027 0 0 0 14.333984 26.273438 A 2.4693027 2.4693027 0 0 0 11.955078 23.806641 L 28.996094 23.806641 A 2.4693027 2.4693027 0 0 0 26.617188 26.273438 A 2.4693027 2.4693027 0 0 0 29.085938 28.742188 A 2.4693027 2.4693027 0 0 0 31.556641 26.273438 A 2.4693027 2.4693027 0 0 0 29.177734 23.806641 L 30.302734 23.806641 C 30.638868 23.806641 30.906873 23.672384 31.175781 23.470703 C 31.377462 23.201796 31.511719 22.931837 31.511719 22.595703 C 31.511719 22.259569 31.377462 21.991564 31.175781 21.722656 C 30.906873 21.520976 30.638868 21.386719 30.302734 21.386719 L 12.621094 21.386719 C 12.957228 20.781677 13.091797 20.311055 13.091797 20.109375 C 13.091797 20.042145 13.025897 19.572348 12.824219 18.765625 L 32.857422 16.478516 C 33.193556 16.411286 33.462381 16.27672 33.664062 16.007812 C 33.865744 15.806131 34 15.537306 34 15.201172 L 34 5.3867188 C 34 5.0505845 33.864611 4.7806264 33.595703 4.5117188 C 33.394022 4.3100378 33.05879 4.1757812 32.722656 4.1757812 L 9.6640625 4.1757812 C 9.6640625 4.0413271 9.6629321 3.9075794 9.5957031 3.6386719 C 9.5284754 3.436991 9.5301176 3.2360159 9.4628906 3.1015625 C 9.4628906 2.9671083 9.395352 2.7641809 9.328125 2.5625 C 9.2608983 2.36082 9.1930471 2.2262502 9.0585938 2.0917969 C 8.9913662 2.0245702 8.8571105 1.8914456 8.7226562 1.8242188 C 8.5209763 1.7569916 8.3872278 1.6894531 8.1855469 1.6894531 L 3.2773438 1.6894531 z M 11.707031 6.7539062 L 30.306641 6.7539062 C 30.927432 6.7539062 31.425781 7.2542087 31.425781 7.875 L 31.425781 13.261719 C 31.425781 13.882511 30.924192 14.319476 30.306641 14.382812 L 13.482422 16.107422 C 12.867156 16.170522 12.226117 15.627296 12.099609 15.019531 L 10.658203 8.0957031 C 10.531696 7.4879384 11.086239 6.7539064 11.707031 6.7539062 z M 11.824219 25.396484 A 0.87676555 0.87676555 0 0 1 11.863281 25.396484 A 0.87676555 0.87676555 0 0 1 12.740234 26.273438 A 0.87676555 0.87676555 0 0 1 11.863281 27.150391 A 0.87676555 0.87676555 0 0 1 10.986328 26.273438 A 0.87676555 0.87676555 0 0 1 11.824219 25.396484 z M 29.048828 25.396484 A 0.87676555 0.87676555 0 0 1 29.085938 25.396484 A 0.87676555 0.87676555 0 0 1 29.962891 26.273438 A 0.87676555 0.87676555 0 0 1 29.085938 27.150391 A 0.87676555 0.87676555 0 0 1 28.210938 26.273438 A 0.87676555 0.87676555 0 0 1 29.048828 25.396484 z " />
</svg>
