<?xml version="1.0" encoding="UTF-8" standalone="no"?>
<!-- Created with Inkscape (http://www.inkscape.org/) -->
<svg
   width="32"
   height="32"
   version="1.1"
   xmlns="http://www.w3.org/2000/svg">
  <path d="m 2.1975104,3.2499997 c -0.8133399,0 -1.1966175,0.4047321 -1.1975099,1.1395929 -0.001071,0.8818953 0.632369,1.2088344 1.1975099,1.2040284 h 3.654785 l 3.1512447,14.89203 C 8.7092,21.080589 8.3526752,21.794589 8.0587164,22.387427 7.8218973,22.938771 7.9434725,23.488389 8.247315,23.78108 c 0.5599741,0.428485 1.1599898,0.316657 1.913452,0.316657 -1.2436809,0.0468 -2.2280012,1.073885 -2.2283936,2.325211 2.862e-4,1.285076 1.0363348,2.326765 2.3144536,2.327052 1.278834,7.29e-4 2.315998,-1.041257 2.316284,-2.327052 -4.29e-4,-1.252014 -0.985824,-2.279377 -2.230225,-2.325211 h 15.975953 c -1.244401,0.04583 -2.229796,1.073197 -2.230225,2.325211 2.86e-4,1.285077 1.036335,2.326765 2.314454,2.327052 1.278834,7.29e-4 2.315998,-1.041257 2.316284,-2.327052 -4.29e-4,-1.252014 -0.985825,-2.279378 -2.230226,-2.325211 h 1.054688 c 0.721435,0 1.133423,-0.423054 1.133423,-1.141435 0,-0.874005 -0.589673,-1.139592 -1.133423,-1.139592 H 10.957277 c 0.315125,-0.570315 0.441284,-1.013924 0.441284,-1.204029 0,-0.06338 -0.06178,-0.506203 -0.250855,-1.266623 L 29.928834,17.19022 c 0.769434,-0.111264 1.071167,-0.622881 1.071167,-1.204028 V 6.7350553 c 0,-0.814589 -0.54322,-1.1414343 -1.19751,-1.1414343 H 8.1850591 C 8.0099992,4.914952 7.9400928,4.2991251 7.7347107,3.7544519 7.5693085,3.3158054 7.0854538,3.2499997 6.7989506,3.2499997 Z M 9.9899022,7.7955914 27.829095,7.9015221 c 0.444741,0.00264 0.81113,0.3076581 0.812555,0.6894295 v 5.7711214 c 0.0019,0.517765 -0.405304,0.882208 -0.917575,0.935034 L 11.616526,16.986258 C 11.156744,17.03367 10.677701,16.62551 10.583162,16.168861 L 9.149491,8.8766055 C 9.0481227,8.3869628 9.4924791,7.7926377 9.9899022,7.7955914 Z M 10.235697,25.606089 c 0.465228,-0.0099 0.833371,0.360289 0.833273,0.816859 9.7e-5,0.45657 -0.368046,0.826717 -0.822144,0.826619 -0.4540977,9.8e-5 -0.8222408,-0.370049 -0.8221436,-0.826619 -5.281e-4,-0.442565 0.3457867,-0.806999 0.8110146,-0.816859 z m 16.147155,-3.8e-5 c 0.464313,-0.0099 0.832456,0.360289 0.832358,0.816859 9.7e-5,0.456569 -0.368046,0.826716 -0.822143,0.826619 -0.453383,-9.18e-4 -0.820411,-0.370767 -0.820313,-0.826619 -5.28e-4,-0.442565 0.345786,-0.806999 0.810098,-0.816859 z" />
</svg>
