<?xml version="1.0" encoding="UTF-8" standalone="no"?>
<!-- Created with Inkscape (http://www.inkscape.org/) -->
<svg
   xmlns="http://www.w3.org/2000/svg"
   version="1.1"
   width="36"
   height="29.410709">
  <path d="m 15.071426,25.776782 c 0,0.07147 0,0.214284 0,0.428578 0.07143,0.214284 0.07143,0.428568 0.07143,0.571422 -0.07143,0.142862 -0.07143,0.285715 -0.07143,0.428578 -0.07143,0.214284 -0.142857,0.357137 -0.214285,0.428568 -0.142858,0.07147 -0.285715,0.142854 -0.428572,0.142854 H 7.9285691 c -1.642857,0 -3.0000002,-0.571422 -4.2142856,-1.714285 C 2.5714266,24.919642 1.9999981,23.49107 1.9999981,21.919642 V 7.4910706 c 0,-1.5714285 0.5714285,-3.0000001 1.7142854,-4.1428571 C 4.9285689,2.2053557 6.2857121,1.6339272 7.9285691,1.6339272 h 6.4999999 c 0.142857,0 0.357144,0.071431 0.428572,0.2142862 0.142857,0.1428569 0.214285,0.2857138 0.214285,0.4285707 0,0.071431 0,0.2142863 0,0.4285716 0.07143,0.2142862 0.07143,0.4285716 0.07143,0.5714285 -0.07143,0.1428578 -0.07143,0.2857147 -0.07143,0.4285716 -0.07143,0.2142862 -0.142857,0.3571431 -0.214285,0.4285715 -0.142858,0.071431 -0.285715,0.1428569 -0.428572,0.1428569 H 7.9285691 c -0.9285716,0 -1.7142854,0.2857147 -2.3571424,0.9285716 C 4.9285689,5.8482128 4.6428551,6.6339275 4.6428551,7.4910706 V 21.919642 c 0,0.857143 0.2857138,1.642857 0.9285716,2.285714 0.642857,0.642858 1.4285708,0.928571 2.3571424,0.928571 h 6.3571429 l 0.214286,0.07143 h 0.214285 l 0.214286,0.142857 0.142857,0.214286 z M 33.999998,14.705356 c 0,0.357143 -0.142857,0.642857 -0.357142,0.928572 L 22.499998,26.70536 c -0.214286,0.285706 -0.5,0.428568 -0.857143,0.428568 -0.357143,0 -0.714285,-0.142862 -0.928571,-0.428568 -0.285714,-0.214294 -0.428572,-0.571432 -0.428572,-0.928578 v -5.85714 h -9.142857 c -0.357143,0 -0.642857,-0.142857 -0.928571,-0.357143 C 9.9999977,19.276785 9.8571408,18.99107 9.8571408,18.633928 v -7.857143 c 0,-0.357144 0.1428569,-0.642857 0.3571432,-0.928572 0.285714,-0.2142853 0.571428,-0.3571422 0.928571,-0.3571422 h 9.142857 V 3.6339273 c 0,-0.3571431 0.142858,-0.7142854 0.428572,-0.9285716 0.214286,-0.2857138 0.571428,-0.4285716 0.928571,-0.4285716 0.357143,0 0.642857,0.1428578 0.857143,0.4285716 L 33.642856,13.776785 c 0.214285,0.285714 0.357142,0.571428 0.357142,0.928571 z" />
</svg>
