<?xml version="1.0" encoding="UTF-8" standalone="no"?>
<!-- Created with Inkscape (http://www.inkscape.org/) -->
<svg
   width="32"
   height="32"
   version="1.1"
   xmlns="http://www.w3.org/2000/svg">
  <path d="m 12.919904,28.5 c 0.20667,0 0.476561,0.02652 0.476561,-0.474609 v -1.59375 c 0,-0.450356 -0.269891,-0.484375 -0.476561,-0.484375 H 6.6506948 c -0.895569,0 -1.585786,-0.27368 -2.205795,-0.894532 -0.620009,-0.62085 -0.964793,-1.383135 -0.964793,-2.210937 0,-4.561198 0,-9.122396 0,-13.683594 0,-0.827801 0.344784,-1.590086 0.964793,-2.210937 0.620009,-0.620852 1.310226,-0.894532 2.205795,-0.894532 h 6.2692092 c 0.20667,0 0.476561,-0.03402 0.476561,-0.484375 V 3.974609 C 13.396465,3.473476 13.126574,3.5 12.919904,3.5 H 6.6506948 c -1.584467,0 -2.893092,0.55056 -3.995331,1.654297 -1.1022369,1.103737 -1.6553199,2.486271 -1.6553199,4.003906 0,4.561198 0,9.122396 0,13.683594 0,1.517636 0.553083,2.90017 1.6553199,4.003906 C 3.7576028,27.94944 5.0662278,28.5 6.6506948,28.5 Z M 19.13067,4.1152344 c -0.341066,0 -0.614134,0.1369325 -0.886987,0.4101562 -0.204641,0.2049175 -0.340401,0.545189 -0.340401,0.8867188 V 11.013672 H 9.1715186 c -0.3410665,0 -0.614134,0.136879 -0.886987,0.341797 -0.2728544,0.273224 -0.3404008,0.547141 -0.3404008,0.888672 v 7.511718 c 0,0.341529 0.067548,0.615449 0.3404008,0.888672 0.2728531,0.204918 0.5459205,0.341797 0.886987,0.341797 h 8.7317634 v 5.601563 c 0,0.341531 0.13576,0.681806 0.340401,0.886718 0.272853,0.273226 0.54592,0.410157 0.886987,0.410157 0.341067,0 0.614133,-0.136931 0.886988,-0.410157 L 30.591474,16.888672 C 30.864328,16.615447 30.999956,16.341531 30.999956,16 c 0,-0.341529 -0.135629,-0.615449 -0.408482,-0.888672 L 20.017657,4.5253906 C 19.744802,4.2521669 19.471737,4.1152344 19.13067,4.1152344 Z" />
</svg>
