<?xml version="1.0" encoding="UTF-8" standalone="no"?>
<!-- Created with Inkscape (http://www.inkscape.org/) -->
<svg
   width="32"
   height="32"
   version="1.1"
   xmlns="http://www.w3.org/2000/svg">
  <path d="m 19.08014,3.4999998 c -0.20667,0 -0.476561,-0.026524 -0.476561,0.4746094 v 1.59375 c 0,0.4503554 0.269891,0.484375 0.476561,0.484375 h 6.269209 c 0.895569,0 1.585786,0.2736795 2.205795,0.8945312 0.620009,0.6208508 0.964793,1.3831356 0.964793,2.2109375 0,4.5611981 0,9.1223961 0,13.6835941 0,0.827801 -0.344784,1.590086 -0.964793,2.210937 -0.620009,0.620852 -1.310226,0.894532 -2.205795,0.894532 H 19.08014 c -0.20667,0 -0.476561,0.03402 -0.476561,0.484375 v 1.59375 c 0,0.501133 0.269891,0.474609 0.476561,0.474609 h 6.269209 c 1.584467,0 2.893092,-0.55056 3.995331,-1.654297 C 30.446917,25.741966 31,24.359432 31,22.841797 31,18.280599 31,13.719401 31,9.1582029 31,7.6405668 30.446917,6.2580333 29.34468,5.1542967 28.242441,4.0505599 26.933816,3.4999998 25.349349,3.4999998 Z m -6.8936,0.6152344 c -0.341067,0 -0.614134,0.1369325 -0.886987,0.4101562 -0.204641,0.2049175 -0.340401,0.545189 -0.340401,0.8867188 V 11.013672 H 2.2273879 c -0.3410665,0 -0.6141339,0.136879 -0.886987,0.341797 -0.2728544,0.273224 -0.3404007,0.547141 -0.3404007,0.888672 v 7.511718 c 0,0.341529 0.067548,0.615449 0.3404007,0.888672 0.2728531,0.204918 0.5459205,0.341797 0.886987,0.341797 h 8.7317641 v 5.601563 c 0,0.341531 0.13576,0.681806 0.340401,0.886718 0.272853,0.273226 0.54592,0.410157 0.886987,0.410157 0.341067,0 0.614132,-0.136931 0.886987,-0.410157 L 23.647344,16.888672 C 23.920197,16.615447 24.055826,16.341531 24.055826,16 c 0,-0.341529 -0.135629,-0.615449 -0.408482,-0.888672 L 13.073527,4.5253904 C 12.800672,4.2521667 12.527607,4.1152342 12.18654,4.1152342 Z" />
</svg>
