<?xml version="1.0" encoding="UTF-8" standalone="no"?>
<!-- Created with Inkscape (http://www.inkscape.org/) -->
<svg
   xmlns="http://www.w3.org/2000/svg"
   version="1.1"
   width="36"
   height="30.08219">
  <path d="m 26.694064,15.041096 c 0,0.365297 -0.146119,0.657534 -0.438356,0.949772 L 14.931507,27.315064 c -0.292238,0.29224 -0.584475,0.438365 -0.949772,0.438365 -0.365297,0 -0.657534,-0.146125 -0.949771,-0.438365 -0.219179,-0.219173 -0.365297,-0.584471 -0.365297,-0.949769 V 20.374429 H 3.3150684 c -0.3652968,0 -0.6575342,-0.146119 -0.9497715,-0.365296 C 2.0730596,19.716895 2,19.424657 2,19.059361 v -8.03653 C 2,10.657534 2.0730578,10.365297 2.3652969,10.073059 2.6575342,9.8538808 2.9497716,9.7077626 3.3150684,9.7077626 H 12.666667 V 3.716895 c 0,-0.3652969 0.146118,-0.7305938 0.365297,-0.9497715 0.292237,-0.2922374 0.584474,-0.4383565 0.949771,-0.4383565 0.365297,0 0.657534,0.1461191 0.949772,0.4383565 L 26.255708,14.091325 c 0.292237,0.292237 0.438356,0.584474 0.438356,0.949771 z M 34,7.6621004 V 22.420091 c 0,1.607306 -0.584476,3.068493 -1.753425,4.237444 -1.16895,1.168951 -2.557078,1.753422 -4.237443,1.753422 h -6.648401 c -0.219179,0 -0.365297,-0.07307 -0.511416,-0.219173 -0.146119,-0.146124 -0.146119,-0.29224 -0.146119,-0.438355 0,-0.07307 -0.07306,-0.219183 -0.07306,-0.438365 0,-0.219173 0,-0.438355 0,-0.584471 0,-0.146116 0.07306,-0.29224 0.07306,-0.438356 0,-0.219182 0.07306,-0.365297 0.219178,-0.438355 0.07306,-0.07307 0.219178,-0.146116 0.438357,-0.146116 h 6.648401 c 0.949772,0 1.680365,-0.292241 2.3379,-0.949776 0.657534,-0.657534 1.02283,-1.461186 1.02283,-2.337899 V 7.6621004 c 0,-0.876712 -0.365296,-1.6803654 -1.02283,-2.3378996 -0.657535,-0.6575342 -1.388128,-0.9497716 -2.3379,-0.9497716 H 21.506849 L 21.287671,4.3013697 H 20.995434 L 20.849315,4.1552506 20.703196,3.9360728 V 3.716895 c 0,-0.073058 -0.07306,-0.2191786 -0.07306,-0.4383564 0,-0.2191778 0,-0.4383565 0,-0.5844747 0,-0.1461191 0.07306,-0.2922373 0.07306,-0.4383565 0,-0.2191777 0.07306,-0.3652968 0.219178,-0.4383564 0.07306,-0.073059 0.219178,-0.1461182 0.438357,-0.1461182 h 6.648401 c 1.680365,0 3.068493,0.5844746 4.237443,1.7534249 C 33.415524,4.593607 34,6.0547946 34,7.6621004 Z" />
</svg>
