<?xml version="1.0" encoding="UTF-8" standalone="no"?>
<!-- Created with Inkscape (http://www.inkscape.org/) -->
<svg
   xmlns="http://www.w3.org/2000/svg"
   version="1.1"
   width="36"
   height="35.789062">
   <defs>
    <style>
      #path { transform-origin:center; transform: rotate(0deg); animation: spin .8s infinite linear }
      @keyframes spin { to { transform: rotate(360deg) } }
    </style>
  </defs>
  <path id="path" d="m 34,17.800781 c 0,2.1875 -0.4375,4.25 -1.25,6.1875 -0.875,2 -2,3.6875 -3.4375,5.125 -1.4375,1.4375 -3.125,2.5625 -5.125,3.4375 -1.9375,0.8125 -4,1.25 -6.1875,1.25 -2.1875,0 -4.25,-0.4375 -6.1875,-1.25 -2,-0.875 -3.6875,-2 -5.125,-3.4375 -1.4375,-1.4375 -2.5625,-3.125 -3.4375,-5.125 -0.8125,-1.9375 -1.25,-4 -1.25,-6.1875 0,-2.625 0.625,-5.125 1.8125,-7.374999 C 5,8.1132813 6.625,6.2382812 8.75,4.7382812 c 2.0625,-1.4999999 4.959107,-2.5620535 7.570724,-2.75 l -0.948858,4.625 c -2.625,0.5 -4.496866,1.8125006 -6.184366,3.9375008 -1.75,2.124999 -2.625,4.499999 -2.625,7.249999 0,1.5625 0.3125,3 0.9375,4.4375 0.5625,1.4375 1.375,2.625 2.4375,3.625 1.000001,1.0625 2.1875,1.875 3.625,2.4375 1.4375,0.625 2.875,0.9375 4.4375,0.9375 1.5625,0 3,-0.3125 4.4375,-0.9375 1.4375,-0.5625 2.625,-1.375 3.625,-2.4375 1.0625,-1 1.875,-2.1875 2.4375,-3.625 0.625,-1.4375 0.9375,-2.875 0.9375,-4.4375 0,-2.75 -0.875,-5.125 -2.625,-7.249999 C 25.125,8.4257817 22.621866,7.1132812 19.996866,6.6132812 l 0.948858,-4.625 c 1.827561,0.4896935 4.241776,1.2500001 6.304276,2.75 2.125,1.5 3.75,3.3750001 4.9375,5.6875008 C 33.375,12.675781 34,15.175781 34,17.800781 Z" />
</svg>
