<?xml version="1.0" encoding="UTF-8" standalone="no"?>
<!-- Created with Inkscape (http://www.inkscape.org/) -->
<svg
   xmlns="http://www.w3.org/2000/svg"
   version="1.1"
   width="36"
   height="36">
  <path d="M 18,2 A 16,15.999996 0 0 0 2,18 16,15.999996 0 0 0 18,34 16,15.999996 0 0 0 34,18 16,15.999996 0 0 0 18,2 Z m -1.60802,8.586264 c 0.31445,0.002 0.58136,0.0079 0.7501,0.01549 4.16486,0.196898 7.84597,1.052344 10.7847,2.506219 0.74056,0.366377 1.17766,0.623807 1.35478,0.797923 0.58007,0.570251 0.57737,1.501472 -0.006,2.077081 -0.33877,0.334251 -0.82899,0.490874 -1.29433,0.413569 -0.1992,-0.03305 -0.33723,-0.09018 -0.6936,-0.286596 -2.59524,-1.430689 -5.6962,-2.247289 -9.60045,-2.528261 -0.71034,-0.05111 -2.57144,-0.07104 -3.33298,-0.03572 -2.03182,0.09423 -3.81549,0.361167 -5.3368,0.798663 -0.51823,0.149029 -0.83913,0.13269 -1.24493,-0.06344 C 7.52461,14.161373 7.25139,13.903973 7.12818,13.674288 6.82181,13.103209 6.93103,12.382689 7.39232,11.932041 c 0.21297,-0.208047 0.4403,-0.323043 0.88551,-0.447885 1.57486,-0.44161 3.25622,-0.710554 5.36646,-0.858445 0.43305,-0.03039 1.80437,-0.04657 2.74771,-0.03937 z m -1.07713,5.425327 c 0.53534,9.8e-5 1.07331,0.0089 1.36159,0.02713 2.88975,0.180115 5.44415,0.751955 7.83309,1.753515 0.89258,0.374221 2.25768,1.090231 2.54265,1.33365 0.30884,0.263804 0.47025,0.702908 0.40656,1.106028 -0.0745,0.471822 -0.47582,0.901582 -0.94045,1.007214 -0.17093,0.03887 -0.49859,0.02881 -0.65347,-0.02013 -0.0752,-0.02368 -0.31719,-0.147082 -0.53779,-0.274164 -4.0853,-2.353552 -10.01111,-3.112749 -14.89541,-1.908371 -0.15883,0.03917 -0.43914,0.113121 -0.62296,0.164358 -0.369,0.10285 -0.61754,0.120768 -0.845,0.06098 -0.54576,-0.143579 -0.92649,-0.627694 -0.92649,-1.178054 0,-0.340389 0.11974,-0.632065 0.35575,-0.866792 0.18458,-0.183578 0.36848,-0.277311 0.76326,-0.388992 1.51558,-0.428753 3.00737,-0.673534 4.81296,-0.789714 0.27765,-0.01786 0.81036,-0.02674 1.34571,-0.02664 z m 0.39946,5.142263 c 0.57191,0.0039 1.13355,0.0298 1.68407,0.07686 2.72588,0.233306 5.2592,1.017948 7.43781,2.303716 0.39829,0.235053 0.57003,0.451655 0.62672,0.790356 0.0699,0.417535 -0.17358,0.859412 -0.57426,1.042131 -0.18492,0.08436 -0.55926,0.101538 -0.72806,0.03345 -0.0596,-0.02398 -0.28156,-0.142523 -0.49333,-0.263359 -1.99473,-1.138223 -4.17668,-1.771581 -6.81034,-1.976905 -0.50002,-0.03897 -2.1339,-0.03888 -2.69526,2.76e-4 -1.35664,0.09452 -2.63146,0.277962 -4.00059,0.575648 -0.3764,0.08179 -0.59258,0.08821 -0.78412,0.02319 C 9.02281,23.638998 8.78373,23.360345 8.7099,22.981694 8.6553,22.701492 8.7566,22.385878 8.97414,22.158966 c 0.21687,-0.226251 0.32547,-0.263962 1.33913,-0.464915 1.87722,-0.372139 3.68532,-0.552738 5.40104,-0.540256 z" />
</svg>
