<?xml version="1.0" encoding="UTF-8" standalone="no"?>
<!-- Created with Inkscape (http://www.inkscape.org/) -->
<svg
   width="32"
   height="32"
   version="1.1"
   xmlns="http://www.w3.org/2000/svg">
  <path d="M 16,1.0000001 C 7.7157273,1 0.99999783,7.7157293 0.99999993,16 0.99999772,24.284271 7.7157272,31 16,31 24.284273,31 31.000002,24.284271 31,16 31.000002,7.7157294 24.284273,1.0000001 16,1.0000001 Z M 26.576462,12.161775 c 0.543816,0.534611 0.541285,1.40763 -0.0056,1.947264 -0.317597,0.31336 -0.777178,0.460194 -1.213434,0.387721 C 20.036607,11.642788 12.814562,11.043622 7.5788375,12.573087 7.0929718,12.712807 6.7921281,12.697489 6.4116906,12.513617 5.414178,11.832972 5.4821339,11.017372 6.0553,10.311288 6.2549593,10.116244 6.4680812,10.008436 6.8854656,9.891396 11.731994,8.3279678 21.521805,8.6992488 26.576462,12.161775 Z m -2.090043,4.893748 c 0.289537,0.247316 0.440859,0.658976 0.38115,1.036901 -0.06984,0.442333 -0.446082,0.845233 -0.881672,0.944263 -0.452753,0.104448 -0.766944,-0.124584 -1.116807,-0.275899 -5.087285,-2.706282 -10.291224,-2.823771 -14.5484713,-1.635012 -0.3459375,0.09642 -0.5789437,0.11322 -0.7921875,0.05717 -0.51165,-0.134605 -0.8685844,-0.588463 -0.8685844,-1.104425 0.096741,-0.759924 0.5293041,-0.928677 1.0490719,-1.177298 5.3797833,-1.580445 12.4272903,-0.657728 16.7775003,2.1543 z m -2.077491,4.133009 c 0.373397,0.220362 0.534403,0.423427 0.58755,0.740959 0.06553,0.391439 -0.162731,0.805698 -0.538369,0.976998 -0.173362,0.07909 -0.524306,0.09519 -0.682556,0.03136 C 17.115481,20.169261 12.456287,20.596556 8.6510031,21.37753 8.2981281,21.45421 8.0954593,21.46023 7.9158906,21.39927 7.1511752,21.060526 7.1309665,20.33192 7.5382562,19.899031 7.7415718,19.68692 7.8433843,19.651566 8.7936906,19.463173 13.314902,18.497017 18.28922,18.733513 22.408928,21.188532 Z" />
</svg>
