<?xml version="1.0" encoding="UTF-8" standalone="no"?>
<!-- Created with Inkscape (http://www.inkscape.org/) -->
<svg
   width="32"
   height="32"
   version="1.1"
   xmlns="http://www.w3.org/2000/svg">
  <path d="m 15.824226,1.8758278 c 0,0 -0.71197,-0.034343 -1.082409,0.9400287 l -3.744078,7.9580815 -9.4058574,1.361069 c -0.5667021,0.08304 -0.7924063,0.777261 -0.3822577,1.175732 l 6.8053459,6.610356 -1.6081853,9.336356 c -0.098,0.563662 0.4959026,0.922792 1.0039092,0.656386 l 8.4135323,-4.3361 c 1.702458,1.085261 5.046955,2.888747 7.294509,4.3361 1.440691,0.760168 3.284748,-0.656569 3.013274,-2.257771 v -0.002 l -1.325388,-7.757856 5.611182,-5.486572 c 1.16992,-1.137033 0.46954,-3.312773 -1.147913,-3.547582 L 21.464834,9.7236948 17.42578,2.928896 C 16.764889,1.8052823 15.824226,1.8758278 15.824226,1.8758278 Z m 0.0019,3.7304906 3.814855,6.5975856 7.781166,1.135724 -5.670855,5.546607 1.206932,7.412348 -7.134028,-4.33276 z" />
</svg>
