<?xml version="1.0" encoding="UTF-8" standalone="no"?>
<!-- Created with Inkscape (http://www.inkscape.org/) -->
<svg
   xmlns="http://www.w3.org/2000/svg"
   version="1.1"
   width="36"
   height="34.336136">
  <path d="m 34,13.739495 c 0,0.268908 -0.20168,0.605043 -0.537815,0.941177 l -6.92437,6.789917 1.613445,9.613445 c 0,0.06723 0,0.20168 0,0.336134 0,0.268907 -0.06724,0.537815 -0.20168,0.672269 -0.134455,0.201681 -0.268908,0.336135 -0.537816,0.336135 -0.268907,0 -0.537815,-0.134454 -0.806721,-0.268909 l -8.605044,-4.504201 -8.6050414,4.504201 c -0.268907,0.134455 -0.5378149,0.268909 -0.8067228,0.268909 -0.2689071,0 -0.4705882,-0.134454 -0.6050417,-0.336135 -0.1344536,-0.134454 -0.2016804,-0.403362 -0.2016804,-0.672269 0,-0.06723 0,-0.201681 0.067231,-0.336134 L 9.4621844,21.470589 2.4705882,14.680672 C 2.2016803,14.277311 2,14.008403 2,13.739495 2,13.268907 2.4033614,12.932774 3.07563,12.865546 l 9.680672,-1.411764 4.302521,-8.7394959 c 0.268908,-0.5378151 0.537815,-0.8067227 0.941176,-0.8067227 0.403362,0 0.672269,0.2689076 0.941177,0.8067227 l 4.302521,8.7394959 9.680673,1.411764 C 33.596638,12.932777 34,13.268907 34,13.739495 Z" />
</svg>
