<?xml version="1.0" encoding="UTF-8" standalone="no"?>
<!-- Created with Inkscape (http://www.inkscape.org/) -->
<svg
   width="32"
   height="32"
   version="1.1"
   xmlns="http://www.w3.org/2000/svg">
  <path d="m 15.998162,1.7501832 a 0.69990681,0.69746284 0.38821008 0 0 -0.624988,0.3886646 l -4.257733,8.5935882 -9.5173988,1.376928 a 0.69990681,0.69746284 0.38821008 0 0 -0.3867115,1.18943 l 6.8865894,6.689328 -1.6269225,9.445135 a 0.69990681,0.69746284 0.38821008 0 0 1.0156059,0.736314 l 8.5135115,-4.460854 8.509607,4.460854 a 0.69990681,0.69746284 0.38821008 0 0 1.015606,-0.734361 l -1.62497,-9.445135 6.886589,-6.687375 a 0.69990681,0.69746284 0.38821008 0 0 -0.386711,-1.191384 l -9.5174,-1.37888 -4.255779,-8.5935882 A 0.69990681,0.69746284 0.38821008 0 0 15.998162,1.7501832 Z m 0,2.2733948 3.790944,7.656107 a 0.69990681,0.69746284 0.38821008 0 0 0.527334,0.378898 l 8.48031,1.230445 -6.134651,5.956921 a 0.69990681,0.69746284 0.38821008 0 0 -0.203121,0.617175 l 1.447239,8.415858 -7.581889,-3.972581 a 0.69990681,0.69746284 0.38821008 0 0 -0.324213,-0.08008 z" />
</svg>
