<?xml version="1.0" encoding="UTF-8" standalone="no"?>
<!-- Created with Inkscape (http://www.inkscape.org/) -->
<svg
   xmlns="http://www.w3.org/2000/svg"
   version="1.1"
   width="36"
   height="36">
  <path d="m 18,2.7402344 c -0.403361,0 -0.672499,0.2688261 -0.941406,0.8066406 l -4.302735,8.738281 -9.6796871,1.41211 C 2.4039035,13.764494 2,14.101678 2,14.572266 c 0,0.268907 0.2017954,0.536092 0.4707031,0.939453 l 6.9921875,6.791015 -1.6132812,9.613282 c -0.06723,0.134452 -0.068359,0.268707 -0.068359,0.335937 0,0.268907 0.066718,0.537421 0.2011719,0.671875 0.1344528,0.201681 0.336562,0.335938 0.6054687,0.335938 0.2689078,0 0.5377339,-0.133124 0.8066406,-0.267578 L 18,28.488281 l 8.605469,4.503907 c 0.268909,0.134454 0.537731,0.267578 0.80664,0.267578 0.26891,0 0.40265,-0.134257 0.53711,-0.335938 0.13448,-0.134454 0.201172,-0.402968 0.201172,-0.671875 v -0.335937 l -1.613282,-9.613282 6.925782,-6.791015 C 33.79903,15.175585 34,14.841173 34,14.572266 c 0,-0.470588 -0.403903,-0.80777 -1.076172,-0.875 L 23.244141,12.285156 18.941406,3.546875 C 18.672499,3.0090605 18.403362,2.7402344 18,2.7402344 Z m 0,1.9238281 c 0.351352,0 0.586079,0.2346571 0.820312,0.703125 0,0 3.596298,7.2938045 3.903152,7.5667955 0.306854,0.272991 8.873052,1.413294 8.873052,1.413294 0.585585,0.05856 0.743328,0.358048 0.743328,0.767957 0,0.234236 -0.175954,0.527521 -0.46875,0.820313 0,0 -6.174195,5.683657 -6.291016,6.201172 -0.116821,0.517515 1.40625,8.373047 1.40625,8.373047 v 0.292968 c 0,0.234234 -0.05864,0.46882 -0.175781,0.585938 -0.117118,0.175675 -0.234514,0.292969 -0.46875,0.292969 -0.234237,0 -0.468889,-0.117257 -0.703125,-0.234375 L 18,27.4375 Z" />
</svg>
