<?xml version="1.0" encoding="UTF-8" standalone="no"?>
<!-- Created with Inkscape (http://www.inkscape.org/) -->
<svg
   xmlns="http://www.w3.org/2000/svg"
   version="1.1"
   width="36"
   height="34.386555">
  <path d="M 18 1.9101562 C 17.696687 1.9101562 17.391861 2.0329727 17.171875 2.2285156 C 16.951889 2.4240585 16.799131 2.6712689 16.654297 2.9609375 L 16.652344 2.9628906 L 12.59375 11.208984 L 3.4570312 12.541016 L 3.4804688 12.539062 C 3.0845117 12.578714 2.7309489 12.698116 2.4550781 12.923828 C 2.1792073 13.14954 2 13.502449 2 13.869141 C 2 14.372322 2.2832462 14.669989 2.5371094 15.050781 L 2.5664062 15.09375 L 9.2011719 21.535156 L 7.6835938 30.568359 C 7.6055097 30.775056 7.6054688 30.957365 7.6054688 31.013672 C 7.6054688 31.337757 7.664688 31.666011 7.9257812 31.957031 C 8.1302943 32.23809 8.4689777 32.476562 8.8730469 32.476562 C 9.295422 32.476562 9.6122886 32.294443 9.8730469 32.164062 L 9.8769531 32.162109 L 18 27.910156 L 26.123047 32.162109 L 26.126953 32.164062 C 26.387711 32.294443 26.704579 32.476562 27.126953 32.476562 C 27.338141 32.476562 27.55516 32.410602 27.714844 32.298828 C 27.847849 32.205728 27.921936 32.096338 27.994141 31.994141 C 28.284773 31.695117 28.328125 31.350631 28.328125 31.013672 L 28.328125 30.646484 L 26.798828 21.535156 L 33.333984 15.125 L 33.335938 15.125 C 33.70755 14.75334 34 14.372322 34 13.869141 C 34 13.502448 33.820793 13.14954 33.544922 12.923828 C 33.269051 12.698116 32.915536 12.578662 32.519531 12.539062 L 32.542969 12.541016 L 23.40625 11.208984 L 19.347656 2.9628906 L 19.345703 2.9609375 C 19.200913 2.6712188 19.048111 2.4240583 18.828125 2.2285156 C 18.608139 2.0329729 18.303313 1.9101563 18 1.9101562 z M 18 2.8808594 C 18.08782 2.8808594 18.110226 2.8879091 18.183594 2.953125 C 18.256964 3.0183409 18.362591 3.1626833 18.478516 3.3945312 L 22.761719 12.095703 L 32.412109 13.501953 L 32.423828 13.503906 C 32.679719 13.529496 32.848969 13.606188 32.931641 13.673828 C 33.014311 13.741468 33.03125 13.779505 33.03125 13.869141 C 33.03125 13.887481 32.930625 14.157265 32.650391 14.4375 L 25.759766 21.195312 L 27.359375 30.728516 L 27.359375 31.013672 C 27.359375 31.193609 27.263658 31.363304 27.304688 31.322266 L 27.271484 31.357422 L 27.244141 31.396484 C 27.192741 31.473584 27.161493 31.501603 27.158203 31.503906 C 27.154903 31.506206 27.176523 31.505859 27.126953 31.505859 C 27.029243 31.505859 26.82379 31.427829 26.568359 31.300781 L 26.560547 31.296875 L 18 26.816406 L 18 2.8808594 z " />
</svg>
