<?xml version="1.0" encoding="UTF-8" standalone="no"?>
<!-- Created with Inkscape (http://www.inkscape.org/) -->
<svg
   width="32"
   height="32"
   version="1.1"
   xmlns="http://www.w3.org/2000/svg">
  <path d="m 15.998159,1.7501287 c -0.265426,9.695e-4 -0.507452,0.1514801 -0.624956,0.3886448 l -4.257517,8.5931515 -9.5169156,1.376858 c -0.5733166,0.08401 -0.80162782,0.786246 -0.3866919,1.189369 L 8.098318,19.98714 6.4714781,29.431795 c -0.099144,0.570242 0.5016181,1.005794 1.0155543,0.736277 l 8.5130796,-4.460628 8.509174,4.460628 c 0.513077,0.268745 1.112807,-0.164906 1.015555,-0.734324 l -1.624888,-9.444655 6.886239,-6.687035 c 0.417697,-0.40299 0.188728,-1.1084 -0.386691,-1.191324 L 20.882585,10.731925 16.627022,2.1387735 C 16.508877,1.9003639 16.26498,1.7496324 15.998159,1.7501287 Z" />
</svg>
