<?xml version="1.0" encoding="UTF-8" standalone="no"?>
<svg
   xmlns="http://www.w3.org/2000/svg"
   version="1.1"
   width="36"
   height="36">
  <path d="M 16.18105,16.147368 V 7.5242101 c 0,-0.202105 -0.0674,-0.336842 -0.2021,-0.471579 -0.13474,-0.06737 -0.269477,-0.1347369 -0.471582,-0.1347369 -0.134737,0 -0.269474,0.06737 -0.404211,0.1347369 -0.134737,0.134737 -0.202106,0.269474 -0.202106,0.471579 v 8.6231579 c 0,0.202105 0.06737,0.336842 0.202106,0.40421 0.134737,0.134737 0.269474,0.202107 0.404211,0.202107 0.202105,0 0.336842,-0.06737 0.471582,-0.202107 0.13473,-0.06737 0.2021,-0.202105 0.2021,-0.40421 z m 12.934741,6.736842 c 0,0.336842 -0.13474,0.673685 -0.404211,0.87579 -0.20211,0.269473 -0.538949,0.40421 -0.875789,0.40421 h -8.21895 l -1.01052,9.296843 c 0,0.134737 -0.06741,0.269473 -0.202111,0.40421 C 18.336806,33.932632 18.2021,34 18,34 v 0 c -0.33684,0 -0.53895,-0.202105 -0.60632,-0.538947 L 15.91158,24.16421 H 8.1642092 c -0.336842,0 -0.673684,-0.134737 -0.875789,-0.40421 -0.269474,-0.202105 -0.404211,-0.538948 -0.404211,-0.87579 0,-1.549474 0.538948,-2.96421 1.549474,-4.24421 1.0105261,-1.280001 2.1557888,-1.886316 3.4357888,-1.886316 V 6.9178942 c -0.673684,0 -1.28,-0.2694731 -1.751579,-0.7410521 -0.4715788,-0.471579 -0.7410517,-1.077895 -0.7410517,-1.751579 0,-0.673685 0.2694729,-1.212632 0.7410517,-1.7515791 C 10.589472,2.202105 11.195788,2 11.869472,2 H 24.13053 c 0.67368,0 1.28,0.202105 1.75157,0.673684 0.471581,0.5389471 0.741061,1.077894 0.741061,1.7515791 0,0.673684 -0.26948,1.28 -0.741061,1.751579 -0.47157,0.471579 -1.07789,0.7410521 -1.75157,0.7410521 v 9.8357898 c 1.28,0 2.425261,0.606315 3.435791,1.886316 1.01052,1.28 1.54947,2.694736 1.54947,4.24421 z" />
</svg>
