<?xml version="1.0" encoding="UTF-8" standalone="no"?>
<!-- Created with Inkscape (http://www.inkscape.org/) -->
<svg
   width="32"
   height="32"
   version="1.1"
   xmlns="http://www.w3.org/2000/svg">
  <path d="M 14.346395,14.263158 V 6.2660099 c -0.0064,-0.4537003 -0.245645,-0.655484 -0.630172,-0.655484 -0.384526,0 -0.567158,0.2593349 -0.567158,0.655484 v 7.9971481 c -0.01345,0.415429 0.218333,0.568422 0.567158,0.568422 0.348825,0 0.630172,-0.197856 0.630172,-0.568422 z M 26.35,20.578947 c 0,0.80042 -0.490154,1.2 -1.19733,1.2 h -7.592389 l -0.945255,8.715791 C 16.563831,30.918408 16.241772,31 16.047866,31 v 0 c -0.315085,0 -0.504141,-0.189473 -0.567161,-0.505262 L 14.094327,21.778947 H 6.8473298 c -0.8119066,0 -1.1973299,-0.523924 -1.1973299,-1.2 0,-3.094375 1.7424036,-5.747368 4.6632831,-5.747368 V 5.6105259 c -1.6329332,0 -2.3316397,-1.029502 -2.3316397,-2.3368417 0,-1.4990084 1.0192271,-2.27368422 2.3316397,-2.27368422 h 11.469165 c 1.522992,0 2.331643,0.96919372 2.331643,2.27368422 0,1.5089825 -1.074492,2.3368417 -2.331643,2.3368417 v 9.2210531 c 2.889864,0 4.522889,2.37282 4.567552,5.747368 z" />
</svg>
