<?xml version="1.0" encoding="UTF-8" standalone="no"?>
<!-- Created with Inkscape (http://www.inkscape.org/) -->
<svg
   width="32"
   height="32"
   version="1.1"
   xmlns="http://www.w3.org/2000/svg">
  <path d="m 2.9853796,4.0000001 c -0.5516142,0 -0.9919577,0.1648359 -1.378087,0.5514649 -0.441291,0.4418613 -0.6072925,0.8845882 -0.6072925,1.4369157 v 6.5729183 c 0,1.321783 0.1553442,2.147236 1.434534,3.423355 L 13.686964,27.309101 c 0.900555,0.898394 1.923074,0.943724 2.869068,0 l 7.721569,-7.788471 c 0.919671,-0.917462 0.88445,-1.935192 0,-2.817519 L 13.025171,5.4369157 C 12.030789,4.4449214 11.06559,4.0000001 9.5507569,4.0000001 Z m 9.1016024,0 c 1.269858,0.1559388 2.245375,0.265197 3.419914,1.4369156 L 26.815773,16.703111 c 0.82062,0.81865 1.019124,1.800841 0,2.817519 l -7.44712,7.456427 c 0.550633,0.541299 1.001663,0.881421 1.765431,0.883509 0.551613,0 1.048405,-0.164835 1.434533,-0.551465 l 7.778017,-7.788471 c 0.845271,-0.843242 0.896659,-1.923013 0,-2.817519 L 19.037756,5.4369157 C 18.176376,4.5776027 16.993314,4.0000001 15.617843,4.0000001 Z M 6.0568784,7.0136393 A 2.0090692,2.0042463 0 0 1 8.0656153,9.0175541 2.0090692,2.0042463 0 0 1 6.0568784,11.02341 2.0090692,2.0042463 0 0 1 4.046195,9.0175541 2.0090692,2.0042463 0 0 1 6.0568784,7.0136393 Z" />
</svg>
