<?xml version="1.0" encoding="UTF-8" standalone="no"?>
<!-- Created with Inkscape (http://www.inkscape.org/) -->
<svg
   xmlns="http://www.w3.org/2000/svg"
   version="1.1"
   width="36"
   height="28.693727">
  <path d="M 9.557196,6.9667903 C 9.557196,6.3763842 9.3210341,5.8450182 8.907749,5.4317342 8.494465,5.0184502 7.9631,4.7822882 7.3726941,4.7822882 c -0.5904061,0 -1.1217711,0.236162 -1.5350551,0.649446 -0.413284,0.413284 -0.590406,0.94465 -0.590406,1.5350561 0,0.5904049 0.177122,1.1217709 0.590406,1.5350549 0.413284,0.413284 0.944649,0.649446 1.5350551,0.649446 0.5904059,0 1.1217709,-0.236162 1.5350549,-0.649446 0.4132851,-0.413284 0.649447,-0.94465 0.649447,-1.5350549 z m 18.00738,9.7416967 c 0,0.590406 -0.236163,1.06273 -0.649447,1.476015 l -8.265682,8.324723 c -0.472325,0.413284 -0.94465,0.590406 -1.535056,0.590406 -0.590406,0 -1.121771,-0.177122 -1.535055,-0.590406 L 3.535056,14.405904 C 3.062731,13.99262 2.708487,13.461254 2.413285,12.693727 2.118082,11.98524 2,11.335793 2,10.745387 V 3.7195572 c 0,-0.590406 0.177122,-1.062731 0.649447,-1.535055 0.413284,-0.413284 0.885609,-0.590406 1.476015,-0.590406 h 7.02583 c 0.590406,0 1.239852,0.118081 2.00738,0.413284 0.708487,0.295203 1.239852,0.649446 1.712177,1.121771 l 12.04428,12.0442808 c 0.413284,0.413284 0.649447,0.944649 0.649447,1.535055 z m 6.435424,0 c 0,0.590406 -0.177122,1.06273 -0.590406,1.476015 l -8.324723,8.324723 c -0.413284,0.413284 -0.944649,0.590406 -1.535055,0.590406 -0.354244,0 -0.708487,-0.05904 -0.94465,-0.236163 -0.295203,-0.118081 -0.590406,-0.413284 -0.944649,-0.708487 l 7.970479,-7.970479 c 0.413285,-0.413285 0.590406,-0.885609 0.590406,-1.476015 0,-0.590406 -0.177121,-1.121771 -0.590406,-1.535055 L 17.527676,3.1291512 c -0.413285,-0.472325 -1.00369,-0.826568 -1.712178,-1.121771 -0.708487,-0.295203 -1.357933,-0.413284 -1.948339,-0.413284 h 3.778598 c 0.590406,0 1.239852,0.118081 1.948339,0.413284 0.708487,0.295203 1.298893,0.649446 1.712177,1.121771 L 33.409594,15.173432 C 33.822878,15.586716 34,16.118081 34,16.708487 Z" />
</svg>
