<?xml version="1.0" encoding="UTF-8" standalone="no"?>
<!-- Created with Inkscape (http://www.inkscape.org/) -->
<svg
   width="32"
   height="32"
   version="1.1"
   xmlns="http://www.w3.org/2000/svg">
  <path d="M 26.410808,27.258852 C 26.4547,27.085998 30.533432,7.5302446 30.908569,5.7363544 31.100718,4.6559206 31.001043,4.0382921 30.504244,3.5320619 30.003879,3.2114909 29.484838,3.5646267 29.185158,3.6490203 20.108836,7.1087527 9.8906024,11.170556 1.5797006,14.383496 0.66681021,14.76061 0.85998803,15.37894 1.9629617,15.841545 c 2.3337444,0.72203 4.6238315,1.389676 6.7158854,2.066993 0.4028729,0.131535 0.7341595,-0.06507 0.8486527,-0.138649 5.9339532,-2.922098 11.7130342,-7.244532 14.6789622,-8.9358956 0.55769,-0.3180308 0.629121,0.2069986 0.460464,0.3734462 -3.96237,3.9104684 -11.346724,10.1331934 -11.615402,10.3842614 -0.264176,0.246863 -0.02655,0.544977 0.105125,0.650949 3.983071,2.929449 7.103144,5.378334 10.984418,8.092658 1.026596,0.590623 1.932932,0.176118 2.269741,-1.076456 z" />
</svg>
