<?xml version="1.0" encoding="UTF-8" standalone="no"?>
<!-- Created with Inkscape (http://www.inkscape.org/) -->
<svg
   xmlns="http://www.w3.org/2000/svg"
   version="1.1"
   width="36"
   height="34.503284">
  <path d="m 7.111599,26.214442 c 0,-0.350109 -0.070018,-0.630197 -0.3501094,-0.910284 -0.2800871,-0.210066 -0.560175,-0.350109 -0.9102844,-0.350109 -0.3501093,0 -0.6301964,0.140043 -0.9102844,0.350109 -0.2100657,0.280087 -0.3501093,0.560175 -0.3501093,0.910284 0,0.35011 0.1400436,0.630198 0.3501093,0.910285 0.280088,0.280088 0.5601751,0.350109 0.9102844,0.350109 0.3501094,0 0.6301973,-0.07002 0.9102844,-0.350109 0.280088,-0.280087 0.3501094,-0.560175 0.3501094,-0.910285 z m 3.221007,-10.223194 v 12.814004 c 0,0.350109 -0.140044,0.630197 -0.3501094,0.840262 -0.280088,0.280088 -0.5601751,0.420132 -0.9102844,0.420132 H 3.3304178 c -0.3501093,0 -0.7002186,-0.140044 -0.9102844,-0.420132 C 2.1400455,29.435449 2.0000019,29.155361 2.0000019,28.805252 V 15.991248 c 0,-0.35011 0.1400436,-0.700219 0.4201315,-0.910284 0.2100658,-0.280088 0.5601751,-0.420132 0.9102844,-0.420132 h 5.7417944 c 0.3501093,0 0.6301964,0.140044 0.9102844,0.420132 0.2100654,0.210065 0.3501094,0.560174 0.3501094,0.910284 z m 23.667396,0 c 0,1.12035 -0.35011,2.100656 -1.050329,2.940919 0.210066,0.630197 0.280088,1.12035 0.280088,1.540481 0.07002,0.980307 -0.280088,1.960613 -0.840263,2.730853 0.210066,0.770241 0.210066,1.540482 0,2.380744 -0.210066,0.70022 -0.560175,1.330416 -1.12035,1.82057 0.140044,1.540481 -0.210066,2.730853 -0.980306,3.641137 -0.840263,1.050328 -2.170679,1.540482 -3.921225,1.540482 h -2.59081 c -0.840262,0 -1.820569,-0.07002 -2.870897,-0.280088 -1.050329,-0.210066 -1.820569,-0.420131 -2.450766,-0.560175 -0.560175,-0.210066 -1.330416,-0.490153 -2.380744,-0.840262 -1.680525,-0.560175 -2.730853,-0.840263 -3.150984,-0.840263 -0.35011,0 -0.700219,-0.140044 -0.910285,-0.420132 C 11.733043,29.435449 11.593,29.155361 11.593,28.805252 V 15.921226 c 0,-0.280088 0.140043,-0.560175 0.420131,-0.840262 0.210066,-0.280088 0.490153,-0.35011 0.840262,-0.420132 0.280088,0 0.840263,-0.420131 1.540482,-1.190372 0.630197,-0.770241 1.330416,-1.540481 1.960612,-2.380744 0.910285,-1.1903711 1.610504,-1.960612 2.030635,-2.4507657 0.280088,-0.2100649 0.490154,-0.5601751 0.630197,-0.9102844 0.210066,-0.4201307 0.280087,-0.77024 0.35011,-0.9803057 0.07003,-0.280088 0.140043,-0.6301973 0.280087,-1.1903724 0.07003,-0.5601751 0.210065,-0.9803066 0.280088,-1.2603937 0.07002,-0.2800871 0.140043,-0.6301973 0.350109,-1.050328 0.210066,-0.3501093 0.420132,-0.7002186 0.700219,-0.9803066 0.210065,-0.2800871 0.560175,-0.3501093 0.910284,-0.3501093 0.560175,0 1.12035,0.070027 1.610503,0.2100658 0.490154,0.1400435 0.910285,0.2800871 1.190372,0.4901529 0.35011,0.2100657 0.630198,0.4901528 0.840263,0.840263 0.210065,0.2800871 0.35011,0.6301964 0.490153,0.8402622 0.07002,0.2800871 0.140044,0.6301973 0.210066,1.0503279 0.07002,0.3501093 0.07002,0.7002195 0.140044,0.9102844 0,0.1400444 0,0.4201315 0,0.7702409 0,0.4901537 -0.07003,0.9803066 -0.210066,1.4704594 -0.140044,0.5601751 -0.280087,0.9102844 -0.350109,1.2603937 -0.140044,0.2800876 -0.35011,0.6301976 -0.560176,1.1203506 -0.07003,0.07003 -0.140043,0.140044 -0.210065,0.350109 -0.07002,0.140044 -0.210066,0.280088 -0.210066,0.420131 -0.07002,0.140044 -0.140044,0.280088 -0.210066,0.490153 h 5.601751 c 0.980307,0 1.890591,0.35011 2.660832,1.12035 0.77024,0.770241 1.12035,1.680526 1.12035,2.730854 z" />
</svg>
