<?xml version="1.0" encoding="UTF-8" standalone="no"?>
<!-- Created with Inkscape (http://www.inkscape.org/) -->
<svg
   width="32"
   height="32"
   version="1.1"
   xmlns="http://www.w3.org/2000/svg">
  <path d="m 19.732376,1.7553274 c -1.018952,0.1572024 -1.514982,1.054346 -1.847656,2.2131025 -0.312094,1.2304074 -0.430602,2.9567976 -1.451172,4.0332426 -1.361368,1.5461863 -2.430115,2.9584225 -3.759766,4.4887655 -0.659591,0.715604 -1.076265,1.071905 -1.449219,1.104597 -0.771781,0 -1.1875,0.361412 -1.1875,1.171067 v 11.970695 c 0,0.829221 0.439764,1.073316 1.423829,1.073316 4.242533,1.215737 5.550363,2.439887 12.492187,2.439887 1.64898,0 2.9038,-0.455262 3.695313,-1.431088 0.72555,-0.845712 1.053793,-1.951007 0.921874,-3.382215 0.887852,-1.125873 1.443933,-2.292868 1.056641,-3.904209 0.65886,-1.123353 1.029793,-2.564796 0.527344,-3.968727 1.23814,-1.503402 1.031509,-4.074167 -0.06641,-5.268826 -0.725552,-0.715603 -1.58243,-1.04008 -2.50586,-1.04008 h -5.277343 c 1.050934,-1.6305174 1.681174,-3.1503326 1.671874,-5.0772326 0.0032,-2.7640969 -1.485734,-4.5378579 -4.24414,-4.422295 z M 2.25386,13.595035 c -0.7951597,0 -1.25390617,0.405267 -1.25390617,1.237538 v 11.904224 c 0,0.803444 0.28881927,1.171068 1.25390617,1.171068 h 5.4082032 c 0.7351789,0 1.1875,-0.382608 1.1875,-1.171068 V 14.832573 c 0,-0.716146 -0.3181676,-1.237538 -1.1875,-1.237538 z m 2.3574219,9.515168 a 1.276243,1.2774927 0 0 1 1.2773438,1.276639 1.276243,1.2774927 0 0 1 -1.2773438,1.278595 1.276243,1.2774927 0 0 1 -1.2753906,-1.278595 1.276243,1.2774927 0 0 1 1.2753906,-1.276639 z" />
</svg>
