<?xml version="1.0" encoding="UTF-8" standalone="no"?>
<!-- Created with Inkscape (http://www.inkscape.org/) -->
<svg
   width="32"
   height="32"
   version="1.1"
   xmlns="http://www.w3.org/2000/svg">
  <path d="M 17.114315,0.9999999 V 21.875 c 0,2.608333 -2.119357,4.675 -4.720764,4.675 -2.6097168,0 -4.7207628,-2.041666 -4.7207628,-4.675 0,-2.483333 1.820154,-4.641666 5.1945008,-4.641666 V 12.8 C 5.5118762,12.8 3.2927838,18.525 3.2512277,21.858333 3.1681157,26.891667 7.3154062,31 12.343684,31 c 5.019967,0 9.100768,-4.108333 9.100768,-9.141667 0,-3.949999 0,-7.941666 0,-11.8999989 1.65393,1.7249999 3.490705,3.2499989 7.305548,3.2499989 V 8.1083331 c -5.219436,-0.475 -6.715453,-4.1083332 -7.305548,-7.1083332 z" />
</svg>
