<?xml version="1.0" encoding="UTF-8" standalone="no"?>
<!-- Created with Inkscape (http://www.inkscape.org/) -->
<svg
   xmlns="http://www.w3.org/2000/svg"
   version="1.1"
   width="30.681477"
   height="36">
  <path d="m 16.532506,2 v 22.266667 c 0,2.782222 -2.266667,4.986666 -5.048889,4.986666 -2.7911109,0 -5.0488887,-2.177777 -5.0488887,-4.986666 0,-2.648889 1.9466667,-4.951111 5.5555547,-4.951111 v -4.728889 c -7.8666658,0 -10.2399991,6.106666 -10.2844435,9.662222 C 1.6169506,29.617778 6.0525061,34 11.430284,34 c 5.368888,0 9.733333,-4.382222 9.733333,-9.751111 0,-4.213333 0,-8.471111 0,-12.693333 1.768889,1.84 3.733333,3.466666 7.813333,3.466666 V 9.5822222 C 23.394728,9.0755556 21.794728,5.2 21.163617,2 Z" />
</svg>
