<?xml version="1.0" encoding="UTF-8" standalone="no"?>
<!-- Created with Inkscape (http://www.inkscape.org/) -->
<svg
   width="32"
   height="32"
   version="1.1"
   xmlns="http://www.w3.org/2000/svg">
  <path d="M 11.980469,1 C 10.717246,1 10.089844,2.2608314 10.089844,3.7949219 8.6352567,3.7967916 6.7647053,3.9594196 5.7421875,4.1953125 4.7196698,4.4312053 4.5429687,4.7775745 4.5429688,5.4335938 c -1.2315932,0 -1.34375,0.5185065 -1.34375,1.5566406 8.5338542,0 17.0677082,0 25.6015622,0 0,-1.0381341 -0.112157,-1.5566406 -1.34375,-1.5566406 0,-0.6560193 -0.176701,-1.0023885 -1.199219,-1.2382813 C 25.235295,3.9594196 23.364743,3.7967919 21.910156,3.7949219 21.910156,2.2608314 21.282754,1 20.019531,1 17.339844,1 14.660156,1 11.980469,1 Z m 1.232422,1.5117188 c 1.858072,-1.689e-4 3.716147,-3.183e-4 5.574218,0 0.562867,-1e-7 0.824219,0.4709706 0.824219,1.21875 -2.407552,0 -4.815104,0 -7.222656,0 0,-0.7477794 0.261352,-1.2187501 0.824219,-1.21875 z M 3.1992188,7.6582031 v 1.2890625 c 0,0.6899536 0.5982191,1.0292969 1.2851562,1.0292969 L 6.1328125,28.591797 c 0,1.191621 0.7616346,2.398437 2.3027344,2.398437 5.1950911,0.0087 10.3789531,0.01957 15.1289061,0 1.5411,0 2.302735,-1.206816 2.302735,-2.398437 L 27.515625,9.9765625 c 0.686937,0 1.285156,-0.3393433 1.285156,-1.0292969 V 7.6582031 c -8.533854,0 -17.067708,0 -25.6015622,0 z m 6.8769532,4.0175779 c 0.939644,0 1.509046,0.64498 1.53125,1.447266 l 0.367187,13.201172 c 0.02008,0.725727 -0.536742,1.310547 -1.386718,1.310547 -0.8499785,0 -1.3486509,-0.585559 -1.384766,-1.310547 L 8.5449219,13.123047 c -0.039925,-0.80147 0.5916048,-1.447266 1.5312501,-1.447266 z m 5.923828,0 c 0.895815,0 1.542093,0.644673 1.533203,1.447266 l -0.146484,13.201172 c -0.008,0.726005 -0.5606,1.310547 -1.386719,1.310547 -0.826119,0 -1.37867,-0.584542 -1.386719,-1.310547 L 14.466797,13.123047 C 14.457902,12.320454 15.104185,11.675781 16,11.675781 Z m 5.923828,0 c 0.939645,0 1.57118,0.645796 1.53125,1.447266 l -0.658203,13.201172 c -0.03611,0.724988 -0.534787,1.310547 -1.384766,1.310547 -0.849976,0 -1.406798,-0.58482 -1.386718,-1.310547 l 0.367187,-13.201172 c 0.0222,-0.802286 0.591606,-1.447266 1.53125,-1.447266 z" />
</svg>
