<?xml version="1.0" encoding="UTF-8" standalone="no"?>
<!-- Created with Inkscape (http://www.inkscape.org/) -->
<svg
   width="32"
   height="32"
   version="1.1"
   xmlns="http://www.w3.org/2000/svg">
  <path d="m 31,6.6953539 c -0.866667,1.2049178 -1.866667,2.2759559 -3.066667,3.1461741 -0.0047,1.994248 0.121805,3.046407 -0.733333,5.756831 -0.855138,2.710424 -2.750757,6.32601 -5.666667,8.836064 -2.91591,2.510054 -6.598031,3.788607 -11.066666,3.815577 -3.4666677,0 -6.5999997,-0.937163 -9.4666671,-2.811475 3.7850879,0.620521 6.9452838,-0.900843 9.1333331,-2.543718 -2.7551705,-0.19108 -5.0124681,-1.876608 -5.7999987,-4.284152 0.9671751,0.2449 1.9102494,0.242511 2.799999,-0.133881 -2.9921322,-0.77894 -4.8988612,-3.395262 -4.9333329,-6.09153 0.8666666,0.468583 1.7999999,0.736343 2.7999999,0.736343 C 2.3005496,11.042 1.7593022,7.3591353 3.066667,4.8879782 6.40271,8.7774646 11.094526,11.094084 15.8,11.381147 15.18052,8.2793434 16.065491,6.7322187 17.29063,5.4844648 18.515769,4.2367109 20.066667,3.7499999 21.8,3.7499999 c 1.733333,0 3.266666,0.6693989 4.466666,1.9412568 1.4,-0.267759 2.666667,-0.7363383 3.933334,-1.4726773 C 29.733333,5.6912567 28.799999,6.829235 27.466666,7.6325135 28.666666,7.4986339 29.8,7.1639349 31,6.6953555 Z" />
</svg>
