<?xml version="1.0" encoding="UTF-8" standalone="no"?>
<svg
   xmlns="http://www.w3.org/2000/svg"
   version="1.1"
   width="36"
   height="29.280001">
  <path d="m 34,4.7555545 c -0.924444,1.2799997 -1.991111,2.4177774 -3.271111,3.3422219 0,0.2133332 0,0.4977779 0,0.8533331 0,1.7777785 -0.213334,3.5555565 -0.782222,5.2622225 -0.497778,1.777778 -1.28,3.484444 -2.346667,5.048889 -0.995556,1.635555 -2.275555,3.057778 -3.697778,4.337776 -1.493333,1.20889 -3.2,2.204443 -5.262222,2.915557 -2.062222,0.782223 -4.266667,1.13778 -6.542222,1.13778 -3.6977782,0 -7.04,-0.995561 -10.097778,-2.986666 0.4977779,0.07109 0.9955558,0.142219 1.5644451,0.142219 3.0577772,0 5.7599992,-0.995552 8.1777769,-2.844444 -1.422222,0 -2.7022215,-0.426666 -3.8399993,-1.28 -1.1377777,-0.853333 -1.9200002,-1.919999 -2.3466668,-3.27111 0.4977779,0.07111 0.9244445,0.142221 1.2799997,0.142221 0.5688892,0 1.1377777,-0.07111 1.706667,-0.284444 C 7.0488888,16.986665 5.7688892,16.204443 4.7733334,15.066666 3.7777784,13.857777 3.2800005,12.435554 3.2800005,10.87111 V 10.8 c 0.9244444,0.497778 1.9199994,0.782222 2.9866666,0.782222 C 5.3422226,11.013334 4.6311115,10.231112 4.1333335,9.3066671 3.5644451,8.3111113 3.351111,7.2444449 3.351111,6.1777785 c 0,-1.2088891 0.2844446,-2.3466668 0.8533339,-3.3422226 1.6355557,1.9911108 3.6266665,3.6266665 5.9733331,4.8355556 2.346667,1.208889 4.906666,1.9200002 7.608889,2.0622221 -0.142223,-0.5688884 -0.213334,-1.0666663 -0.213334,-1.5644442 0,-1.7777776 0.640001,-3.3422227 1.92,-4.6222223 1.280001,-1.2799996 2.844445,-1.9200003 4.693334,-1.9200003 1.848889,0 3.484444,0.7111112 4.764444,2.0622222 C 30.444444,3.4044452 31.795556,2.9066673 33.146667,2.1244448 32.648889,3.688889 31.653333,4.8977781 30.231111,5.7511112 31.511111,5.6088893 32.72,5.2533341 34,4.7555562 Z" />
</svg>
