<?xml version="1.0" encoding="UTF-8" standalone="no"?>
<!-- Created with Inkscape (http://www.inkscape.org/) -->
<svg
   xmlns="http://www.w3.org/2000/svg"
   version="1.1"
   width="15"
   height="36">
  <path d="M 7.4461523,2.0002746 C 5.6837314,2.0106681 3.9388905,2.3159828 2.9533432,2.8849888 2.6398422,3.1985332 2.4825642,3.5124029 2.5609917,3.9043334 L 3.1879848,21.06971 c 0,0.391931 0.2487941,1.019346 1.5501966,1.019346 2.1735973,0 3.5403565,0 5.6892806,0 1.015455,0 1.384562,-0.627415 1.384562,-1.019346 L 12.439017,3.9043334 C 12.51741,3.512403 12.360211,3.1985332 12.046666,2.8849888 10.98911,2.2744088 9.2085733,1.9898812 7.4461523,2.0002746 Z m 0.053852,23.4199214 c -2.369251,0 -4.2908636,1.921613 -4.2908636,4.290864 0,2.369251 1.9216126,4.28894 4.2908636,4.28894 2.369251,0 4.2908637,-1.919689 4.2908637,-4.28894 0,-2.369251 -1.9216127,-4.290864 -4.2908637,-4.290864 z" />
</svg>
