<?xml version="1.0" encoding="UTF-8" standalone="no"?>
<!-- Created with Inkscape (http://www.inkscape.org/) -->
<svg
   width="32"
   height="32"
   version="1.1"
   xmlns="http://www.w3.org/2000/svg">
  <path d="m 15.949507,1.0002573 c -1.652614,0.00974 -3.288746,0.2959765 -4.21289,0.8294196 -0.293969,0.2939479 -0.441447,0.5882007 -0.367906,0.9556356 L 11.95664,18.877853 c 0,0.367435 0.233293,0.955637 1.453613,0.955637 2.038175,0 3.319779,0 5.334817,0 0.952189,0 1.298298,-0.588202 1.298298,-0.955637 L 20.631297,2.7853125 C 20.704807,2.4178777 20.557402,2.1236248 20.263391,1.8296769 19.271725,1.2572581 17.602122,0.99051365 15.949507,1.0002573 Z m 0.0505,21.9561767 c -2.221638,0 -4.023526,1.801512 -4.023526,4.022685 0,2.221172 1.801888,4.020881 4.023526,4.020881 2.221638,0 4.023527,-1.799709 4.023527,-4.020881 0,-2.221173 -1.801889,-4.022685 -4.023527,-4.022685 z" />
</svg>
