<?xml version="1.0" encoding="UTF-8" standalone="no"?>
<!-- Created with Inkscape (http://www.inkscape.org/) -->
<svg
   xmlns="http://www.w3.org/2000/svg"
   version="1.1"
   width="35.67421"
   height="36">
  <path d="m 22.325792,19.59276 c 0.144797,0 0.868779,0.289593 2.02715,0.941176 1.158371,0.579186 1.737556,0.941177 1.809954,1.085973 0.0724,0.0724 0.0724,0.144797 0.0724,0.289593 0,0.506787 -0.144797,1.013575 -0.361991,1.59276 -0.217195,0.506787 -0.723982,1.013575 -1.447964,1.375566 -0.79638,0.361991 -1.447964,0.506787 -2.099548,0.506787 -0.79638,0 -2.099547,-0.434389 -3.9819,-1.230769 -1.303167,-0.651584 -2.461538,-1.447964 -3.475113,-2.461539 -1.013575,-1.013574 -2.027149,-2.316742 -3.040724,-3.837104 -1.013575,-1.447964 -1.520362,-2.823529 -1.520362,-3.9819 v -0.217195 c 0.0724,-1.230769 0.579185,-2.316742 1.520362,-3.257918 0.361991,-0.289593 0.723982,-0.434389 1.085973,-0.434389 0.0724,0 0.217194,0 0.361991,0 0.217194,0.0724 0.361991,0.0724 0.434389,0.0724 0.217194,0 0.434389,0 0.506787,0.144796 0.144797,0.0724 0.217195,0.217195 0.361991,0.506787 0.0724,0.289593 0.361991,0.941177 0.651584,1.882353 0.361991,0.941177 0.506787,1.447964 0.506787,1.520362 0,0.289593 -0.217194,0.651584 -0.651584,1.158371 -0.506787,0.506788 -0.723981,0.868779 -0.723981,1.013575 0,0.0724 0,0.144796 0.0724,0.289593 0.506787,1.013574 1.158371,1.954751 2.099547,2.823529 0.79638,0.723982 1.809955,1.447964 3.113122,2.099548 0.217195,0.0724 0.361991,0.144796 0.506788,0.144796 0.217194,0 0.579185,-0.361991 1.085973,-1.013575 0.579185,-0.651583 0.941176,-1.013574 1.085972,-1.013574 z m -4.199095,11.004525 c 1.737557,0 3.402715,-0.361991 5.067874,-1.085973 1.59276,-0.651584 2.968325,-1.59276 4.126697,-2.751131 1.158371,-1.158371 2.099547,-2.533937 2.751131,-4.126697 0.723982,-1.59276 1.013574,-3.330317 1.013574,-5.067874 0,-1.737556 -0.289592,-3.402714 -1.013574,-4.995475 C 29.420815,10.977375 28.479639,9.529411 27.321268,8.37104 26.162896,7.212669 24.787331,6.343891 23.194571,5.619909 21.529412,4.968325 19.864254,4.606334 18.126697,4.606334 c -1.737556,0 -3.402715,0.361991 -5.067873,1.013575 -1.59276,0.723982 -2.968326,1.59276 -4.1266967,2.751131 -1.158371,1.158371 -2.099547,2.606335 -2.751131,4.199095 -0.723982,1.592761 -1.013575,3.257919 -1.013575,4.995475 0,2.82353 0.79638,5.357467 2.461539,7.60181 l -1.665159,4.850679 4.9954757,-1.59276 c 2.244343,1.447964 4.561086,2.171946 7.16742,2.171946 z M 18.126697,2 c 2.099548,0 4.126697,0.434389 6.081448,1.230769 1.882353,0.79638 3.547512,1.954751 4.923077,3.330317 1.447964,1.375565 2.533937,3.040724 3.330317,4.995475 0.868778,1.882353 1.230769,3.909502 1.230769,6.009049 0,2.099548 -0.361991,4.126697 -1.230769,6.081448 -0.79638,1.882353 -1.882353,3.547512 -3.330317,4.995476 -1.375565,1.375565 -3.040724,2.461538 -4.923077,3.330316 -1.954751,0.79638 -3.9819,1.23077 -6.081448,1.23077 -2.678733,0 -5.212669,-0.651584 -7.529411,-1.954752 L 1.9819013,34 4.7330323,25.60181 c -1.447964,-2.389141 -2.171945,-5.140272 -2.171945,-8.0362 0,-2.099547 0.36199,-4.126696 1.230769,-6.009049 0.79638,-1.9547509 1.882353,-3.61991 3.330317,-4.9954749 C 8.4977383,5.18552 10.162897,4.027149 12.045249,3.230769 14.000001,2.434389 16.02715,2 18.126697,2 Z" />
</svg>
