<?xml version="1.0" encoding="UTF-8" standalone="no"?>
<!-- Created with Inkscape (http://www.inkscape.org/) -->
<svg
   width="32"
   height="32"
   version="1.1"
   xmlns="http://www.w3.org/2000/svg">
  <path d="m 16.340351,0.99999988 c -8.0542208,0 -14.6096499,6.54353632 -14.6096499,14.58314312 0,2.697644 0.7410665,5.224274 2.0264556,7.394078 C 2.7618083,25.959088 1.0499998,31 1.0499998,31 l 8.2799099,-2.633908 c 2.0824713,1.14398 4.4704273,1.798243 7.0104413,1.798243 8.05422,0 14.609649,-6.541584 14.609649,-14.581192 1e-6,-8.0396068 -6.555429,-14.58314312 -14.609649,-14.58314312 z m 0,2.39960952 c 6.755234,0 12.205678,5.440556 12.205678,12.1835336 0,6.742981 -5.450445,12.183534 -12.205678,12.183534 -2.487405,0 -4.796299,-0.740399 -6.7229038,-2.009111 -1.589714,0.504703 -4.7688211,1.515132 -4.7688211,1.515132 0,0 1.0652941,-3.115911 1.5648305,-4.594208 C 4.9806612,20.681663 4.1346721,18.233953 4.1346721,15.583143 4.1346711,8.8401654 9.5851145,3.3996094 16.340351,3.3996094 Z M 10.345094,8.8743898 C 9.5187709,9.5257156 8.9814132,10.774614 8.9132735,11.928083 c -0.073147,3.574998 7.0174775,10.779161 11.3117695,10.992516 1.039204,0.05163 2.387962,-0.43561 3.338956,-1.765051 0.183777,-0.256903 0.495681,-1.600736 0.27189,-1.763098 -0.32372,-0.234862 -3.183631,-1.805232 -3.610846,-1.899772 -0.42671,-0.09443 -1.815791,1.863934 -2.044061,1.899772 -1.740939,-0.842659 -4.514307,-3.266633 -5.451478,-5.021802 0.472311,-0.740277 1.26496,-1.737478 1.292941,-2.052067 0.02903,-0.326412 -1.344148,-3.3535542 -1.566786,-3.5906279 -0.236719,-0.2520677 -1.904955,-0.01563 -2.110565,0.1464367 z" />
</svg>
