<?xml version="1.0" encoding="UTF-8" standalone="no"?>
<!-- Created with Inkscape (http://www.inkscape.org/) -->
<svg
   width="32"
   height="32"
   version="1.1"
   xmlns="http://www.w3.org/2000/svg"><path d="m 22.424788,16.000001 c 0,-0.409289 -0.195211,-0.667944 -0.528456,-0.877048 L 13.323599,9.7437193 c -0.358228,-0.22478 -0.698819,-0.22349 -1.11563,0 -0.346805,0.185956 -0.528456,0.4677607 -0.528456,0.9355207 v 10.641522 c 0,0.467758 0.190325,0.734343 0.528456,0.935518 0.437745,0.260439 0.930094,0.101219 1.262783,-0.106959 l 8.42558,-5.272271 c 0.333507,-0.20869 0.528456,-0.46776 0.528456,-0.877049 z m 8.572732,0 c 0.03073,2.566096 -0.228079,5.839715 -0.558776,7.250267 -0.413769,1.764885 -1.617253,2.777084 -3.199134,3.040434 -2.501035,0.416372 -6.224038,0.409291 -11.273731,0.409291 -5.049691,0 -8.7622586,-0.06073 -11.2737301,-0.409291 C 2.8725611,26.038171 1.923484,24.782751 1.5077633,23.250268 1.1725849,22.014692 1.0000005,18.55436 1.0000005,16.000001 c 0,-2.560361 0.1386283,-5.714745 0.5077628,-7.2502697 0.3755542,-1.562228 1.6025053,-2.777084 3.1843856,-3.040435 2.5010348,-0.416371 6.2240391,-0.409289 11.2737301,-0.409289 5.049693,0 8.762259,0.06073 11.273731,0.409289 1.819588,0.252532 2.734929,1.521818 3.199134,3.040435 0.491089,1.6065687 0.528181,4.6960907 0.558776,7.2502697 z" />
</svg>
