<?xml version="1.0" encoding="UTF-8" standalone="no"?>
<svg
   xmlns="http://www.w3.org/2000/svg"
   version="1.1"
   width="36"
   height="25.734375">
  <path d="m 24.875,12.867188 c 0,-0.4375 -0.1875,-0.75 -0.5625,-0.9375 l -9.125,-5.7500005 c -0.375,-0.25 -0.75,-0.25 -1.1875,0 -0.375,0.1874996 -0.5625,0.5 -0.5625,1 V 18.554687 c 0,0.5 0.1875,0.8125 0.5625,1 0.1875,0.125 0.375,0.1875 0.5625,0.1875 0.25,0 0.4375,-0.0625 0.625,-0.1875 l 9.125,-5.749999 c 0.375,-0.1875 0.5625,-0.5 0.5625,-0.9375 z m 9.125,0 c 0,1.125 0,2.0625 0,2.6875 0,0.624999 -0.0625,1.437499 -0.1875,2.437499 -0.0625,1 -0.1875,1.875 -0.375,2.625 -0.1875,0.875 -0.625,1.625 -1.25,2.1875 -0.625,0.625 -1.375,0.9375 -2.1875,1.0625 -2.6875,0.25 -6.625,0.4375 -12,0.4375 -5.375,0 -9.3125,-0.1875 -12,-0.4375 -0.8125,-0.125 -1.5625,-0.4375 -2.1875,-1.0625 -0.625,-0.5625 -1.0625,-1.3125 -1.25,-2.1875 -0.1875,-0.75 -0.3125,-1.625 -0.375,-2.625 -0.125,-1 -0.1875,-1.8125 -0.1875,-2.437499 0,-0.625 0,-1.5625 0,-2.6875 0,-1.125 0,-2.0625 0,-2.6875 0,-0.6250005 0.0625,-1.4375009 0.1875,-2.4375009 0.0625,-1 0.1875,-1.875 0.375,-2.625 0.1875,-0.875 0.625,-1.625 1.25,-2.1874996 0.625,-0.625 1.375,-0.9375004 2.1875,-1.0625004 2.6875,-0.25 6.625,-0.4374996 12,-0.4374996 5.375,0 9.3125,0.1874996 12,0.4374996 0.8125,0.125 1.5625,0.4375004 2.1875,1.0625004 0.625,0.5624996 1.0625,1.3124996 1.25,2.1874996 0.1875,0.75 0.3125,1.625 0.375,2.625 0.125,1 0.1875,1.8125004 0.1875,2.4375009 0,0.625 0,1.5625 0,2.6875 z" />
</svg>
