<?xml version="1.0" encoding="UTF-8" standalone="no"?>
<svg
   width="32"
   height="32"
   viewBox="0 0 32 32"
   version="1.1"
   xmlns="http://www.w3.org/2000/svg">
  <style>
    :root { color: #222222 }
    @media (prefers-color-scheme: dark) { :root { color: white } }
  </style>
  <rect
     width="29.7"
     height="29.7"
     x="1.15"
     y="1.15"
     ry="3.3"
     style="fill:none;stroke:currentColor;stroke-width:1.3" />
  <path
     style="fill:currentColor"
     d="m 15.319501,23.585061 q 1.095436,0 1.792532,-0.165973 0.730289,-0.199173 1.161825,-0.49793 0.431536,-0.331947 0.597511,-0.763483 0.165973,-0.431535 0.165973,-0.962657 0,-1.12863 -1.06224,-1.85892 -1.06224,-0.763486 -3.651452,-1.626555 -1.128629,-0.398341 -2.25726,-0.896264 -1.128631,-0.53112 -2.024896,-1.294609 -0.8962655,-0.796678 -1.4605815,-1.892113 -0.5643147,-1.128633 -0.5643147,-2.721992 0,-1.5933619 0.5975097,-2.8547726 0.59751,-1.2946058 1.6929465,-2.1908712 1.095435,-0.8962654 2.655601,-1.3609958 1.560166,-0.4979255 3.518673,-0.4979255 2.32365,0 4.016596,0.4979255 1.692946,0.497925 2.788382,1.0954357 l -1.493776,4.082987 q -0.962655,-0.497927 -2.157674,-0.86307 -1.161827,-0.39834 -2.821579,-0.39834 -1.858921,0 -2.688795,0.531121 -0.796681,0.497925 -0.796681,1.5601659 0,0.630707 0.298754,1.062239 0.298755,0.431535 0.829876,0.796679 0.564315,0.331951 1.26141,0.630706 0.730291,0.265563 1.593361,0.564316 1.792532,0.663902 3.120333,1.3278 1.327802,0.630705 2.190871,1.493777 0.896264,0.863071 1.3278,2.024897 0.431536,1.161826 0.431536,2.821575 0,3.21992 -2.257261,5.012448 Q 19.86722,28 15.319501,28 13.792531,28 12.564314,27.800828 11.3361,27.634854 10.373443,27.369293 9.4439824,27.103734 8.7468874,26.804981 8.0829878,26.506225 7.6182575,26.240662 l 1.4605799,-4.11618 q 1.0290476,0.564314 2.5228226,1.029043 1.52697,0.431536 3.717841,0.431536 z" />
</svg>
