<?xml version="1.0" encoding="UTF-8" standalone="no"?><svg viewBox="0 0 32 32" xmlns="http://www.w3.org/2000/svg" xmlns:xlink="http://www.w3.org/1999/xlink"><style>:root>svg{display:none}:root>svg:target{display:block}</style><svg viewBox="0 0 32 32" id="archive" xmlns="http://www.w3.org/2000/svg"><path d="M9.598 3.75c-1.153 0-1.11.754-1.11 1.502h15.077c0-.712.024-1.502-1.11-1.502ZM6.95 6.789c-.862 0-1.558.507-1.558 1.798v1.33h21.139v-1.33c0-1.29-.694-1.798-1.556-1.798zM3.344 8.964c-1.416 0-2.517 1.423-2.322 2.643l2.32 14.5c.188 1.172.949 2.143 2.127 2.143h21.06c1.178 0 1.94-.97 2.127-2.143l2.322-14.5c.195-1.22-.91-2.643-2.326-2.643v2.486H3.344Zm6.596 6.18h2.109v2.4h7.867v-2.4h2.108v3.463c0 .586-.472 1.062-1.054 1.062h-9.976a1.059 1.059 0 0 1-1.054-1.062Z"/></svg><svg viewBox="0 0 32 32" id="arrow" xmlns="http://www.w3.org/2000/svg"><path d="M1.56 9.067c-.782.918-.782 2.072.236 3.088l12.807 11.067a2.162 2.162 0 0 0 2.831 0l12.808-11.067a2.202 2.202 0 0 0 .234-3.088 2.163 2.163 0 0 0-3.065-.237l-11.392 9.843L4.625 8.83c-.927-.924-2.308-.669-3.066.237Z"/></svg><svg viewBox="0 0 32 32" id="author" xmlns="http://www.w3.org/2000/svg"><path d="M15.394 1.25c-3.288 0-5.954 2.659-5.954 5.94 0 3.282 2.666 5.943 5.954 5.943s5.954-2.661 5.954-5.943c0-3.281-2.666-5.94-5.954-5.94zm11.824 10.944c-.404 0-.699.11-.956.366l-1.725 1.76 4.333 4.325 1.763-1.724c.257-.257.367-.586.367-.952 0-.367-.11-.659-.367-.952l-2.461-2.457a1.358 1.358 0 0 0-.954-.366Zm-11.824 2.732c-6.277 0-11.708 3.57-14.394 8.783a18.227 18.227 0 0 0 14.394 7.041c5.63 0 10.945-2.6 14.394-7.041-.57-1.107-1.024-1.811-1.824-2.752l-8.148 8.083-5.572-.036-.057-5.838 7.287-7.15c-1.956-.84-3.814-1.09-6.08-1.09Zm8.445.053-8.703 8.723v4.325h4.334l8.74-8.687zm.33 1.76c.184 0 .259.109.259.255 0 .073-.04.111-.076.184l-5.69 5.643c-.036.074-.11.074-.184.074-.147 0-.22-.074-.22-.22 0-.073 0-.109.073-.182l5.692-5.68a.278.278 0 0 1 .147-.074zm-6.756 6.56 2.461 2.456-.956.952h-1.1V25.35h-1.359v-1.098z"/></svg><svg viewBox="0 0 32 32" id="bank" xmlns="http://www.w3.org/2000/svg"><path d="M16.027 2 31 8.016v1.968h-2.022c0 .88-.34 1.04-1.038 1.04H4.115c-1.005 0-1.093-.362-1.093-1.04H1V8.016ZM6.011 12.008H10v11.976l3.977-.007V12h3.989v11.977l4.045.007V12.008H26v11.976h1.94c.823 0 1.038.377 1.038 1.04v.984H3.022v-.985c0-.728.45-1.039 1.093-1.039H6.01Zm23.896 14.984c.882 0 1.093.339 1.093.985V30H1v-2.023c0-.69.268-.985 1.093-.985z"/></svg><svg viewBox="0 0 32 32" id="calendar" xmlns="http://www.w3.org/2000/svg"><path d="M9 1C7.067 1 6.294 2.01 6.294 3.695v1.582H4.176C2.767 5.277 2 5.927 2 7.445v21.387C2 30.286 2.813 31 4.176 31h23.648C29.288 31 30 30.213 30 28.832V7.445c0-1.429-.958-2.168-2.176-2.168h-2.118V3.695C25.53 1.948 24.677 1 23 1h-1.059c-1.824 0-2.706.924-2.706 2.695v1.582h-6.47V3.695c0-1.979-.99-2.695-2.706-2.695zm0 2.168h1.059c.509 0 .588.212.588.527V8.5c0 .423-.19.527-.588.527H9c-.477 0-.53-.155-.53-.527V3.695c0-.438.204-.527.53-.527zm12.941 0H23c.453 0 .53.162.53.527V8.5c0 .446-.177.527-.53.527h-1.059c-.487 0-.588-.126-.588-.527V3.695c0-.46.244-.527.588-.527zM4.176 11.723H9v4.804H4.176Zm5.883 0h5.412v4.804h-5.412zm6.47 0h5.412v4.804H16.53zm6.471 0h4.824v4.804H23ZM4.176 17.582H9v5.39H4.176Zm5.883 0h5.412v5.39h-5.412zm12.941 0h4.824v5.39H23Zm-5 .623c.31-.084.448.037.448.435v3.19c0 .24-.196.434-.437.434a.435.435 0 0 1-.438-.434v-2.772c-.148.057-.317.071-.465.104a.387.387 0 0 1-.384-.379c0-.177.114-.325.292-.377.343-.092.685-.134.984-.201zm1.153.018h2.185c.248 0 .403.142.403.394a.969.969 0 0 1-.127.43l-1.616 2.92a.576.576 0 0 1-.485.32c-.236 0-.511-.266-.385-.485.167-.29 1.028-1.877 1.567-2.817h-1.542a.38.38 0 0 1-.384-.38c0-.211.171-.382.384-.382zM4.176 24.027H9v4.805H4.176Zm5.883 0h5.412v4.805h-5.412zm6.47 0h5.412v4.805H16.53zm6.471 0h4.824v4.805H23Z"/></svg><svg viewBox="0 0 32 32" id="cash" xmlns="http://www.w3.org/2000/svg"><path d="M22.01 2.05c-4.15 0-7.533 3.384-7.533 7.534 0 .59.072 1.163.201 1.715H4.087A3.1 3.1 0 0 0 1 14.386v12.475a3.101 3.101 0 0 0 3.087 3.089h23.826A3.101 3.101 0 0 0 31 26.86V14.387a3.096 3.096 0 0 0-1.74-2.771 7.492 7.492 0 0 0 .282-2.031c0-4.15-3.383-7.534-7.533-7.534zm0 1.799a5.72 5.72 0 0 1 5.732 5.735 5.719 5.719 0 0 1-5.733 5.733 5.72 5.72 0 0 1-5.734-5.733 5.722 5.722 0 0 1 5.734-5.735zm-17.923 9.25h11.267c1.266 2.386 3.775 4.019 6.655 4.019a7.544 7.544 0 0 0 6.562-3.841c.38.22.63.624.63 1.109v12.475c0 .729-.559 1.288-1.288 1.288H4.087c-.73 0-1.289-.559-1.289-1.288V14.386c0-.73.56-1.287 1.289-1.287zm11.806 2.69a4.813 4.813 0 0 0-4.807 4.809 4.815 4.815 0 0 0 4.807 4.812c2.651 0 4.81-2.16 4.81-4.812s-2.159-4.81-4.81-4.81zm0 .763a4.041 4.041 0 0 1 4.047 4.046 4.043 4.043 0 0 1-4.047 4.048 4.04 4.04 0 0 1-4.044-4.048 4.038 4.038 0 0 1 4.044-4.046zm0 .791c-.486.007-.514.265-.514.77-.713.176-1.31.618-1.31 1.505 0 1.236 2.79 1.355 2.79 2.108 0 .874-1.738.134-2.355-.156-.302-.079-.552.289-.509.598.07.495.854.822 1.384.93 0 .566.032.806.514.811.482.005.51-.289.51-.81.865-.112 1.573-.447 1.573-1.457 0-1.393-2.712-1.44-2.712-2.038 0-1.02 1.32-.322 1.976-.096.31.04.523-.154.523-.466 0-.498-.788-.782-1.36-.929 0-.481-.024-.777-.51-.77z"/></svg><svg viewBox="0 0 32 32" id="cash-alt" xmlns="http://www.w3.org/2000/svg"><path d="M16 1C7.73 1 1 7.73 1 16s6.73 15 15 15 15-6.73 15-15S24.27 1 16 1Zm0 2.381A12.601 12.601 0 0 1 28.619 16 12.601 12.601 0 0 1 16 28.619 12.601 12.601 0 0 1 3.381 16 12.601 12.601 0 0 1 16 3.381Zm-1.608 3.624v1.297c-2.223.548-3.842 2.145-3.842 4.909 0 2.763 2.537 3.61 4.683 4.24 1.69.515 3.074.985 3.074 1.83 0 .845-.573 1.339-1.832 1.303-2.644-.075-3.717-1.265-5.01-1.603-.941-.247-1.853.753-1.717 1.717.307 2.174 2.99 2.697 4.644 3.035v1.235c0 .884.712 1.596 1.597 1.596.884 0 1.596-.712 1.596-1.596v-1.11c2.702-.348 5.149-1.437 5.149-4.586 0-3.148-2.995-4.185-5.142-4.9-1.66-.573-3.12-.973-3.12-1.731 0-.759.544-1.218 1.603-1.218 1.62.103 2.778 1 4.122 1.174.965.125 1.746-.743 1.746-1.717 0-.744-.401-1.317-1.031-1.632a11.206 11.206 0 0 0-3.327-1.053v-1.19c0-.813-.654-1.469-1.596-1.469-.943 0-1.597.656-1.597 1.47z"/></svg><svg viewBox="0 0 32 32" id="cellphone" xmlns="http://www.w3.org/2000/svg"><path d="M9.959 1a3.43 3.43 0 0 0-3.436 3.42L6.5 27.559a3.425 3.425 0 0 0 3.428 3.427l12.11.014a3.43 3.43 0 0 0 3.437-3.422L25.5 4.44a3.429 3.429 0 0 0-3.432-3.425L9.96 1zm11.639 1.78a2.105 2.105 0 0 1 2.101 2.1l-.023 22.225c0 1.16-.943 2.096-2.108 2.094H10.37a2.098 2.098 0 0 1-2.103-2.094L8.289 4.88c0-1.458 1.044-2.094 2.11-2.094l11.199-.006zm-11.27.954a1.078 1.078 0 1 0 0 2.155 1.077 1.077 0 1 0 0-2.154zm.678 19.498c-.952.001-1.723.77-1.723 1.72 0 .947.771 1.717 1.723 1.718a1.72 1.72 0 1 0 0-3.438zm5.002 0c-.953 0-1.725.77-1.725 1.72 0 .948.772 1.718 1.725 1.718.952 0 1.725-.77 1.724-1.719 0-.949-.772-1.719-1.724-1.719zm5 0a1.72 1.72 0 1 0 0 3.438c.952 0 1.725-.77 1.724-1.719 0-.949-.772-1.719-1.724-1.719z"/></svg><svg viewBox="0 0 32 32" id="check" xmlns="http://www.w3.org/2000/svg"><path d="m25.714 5.918-13.39 13.565-6.006-6.274a3.088 3.088 0 0 0-4.461 4.27l8.203 8.568a3.088 3.088 0 0 0 4.428.035l15.62-15.824a3.062 3.062 0 0 0-.026-4.367c-1.311-1.31-3.093-1.248-4.368.027Z"/></svg><svg viewBox="0 0 32 32" id="clock" xmlns="http://www.w3.org/2000/svg"><path d="M16 1C7.733 1 1 7.733 1 16s6.733 15 15 15 15-6.733 15-15S24.267 1 16 1zm0 2.977A12 12 0 0 1 28.023 16 12 12 0 0 1 16 28.023 12 12 0 0 1 3.977 16 12 12 0 0 1 16 3.977zm-.025 2.595c-.936 0-1.438.702-1.438 1.375l.002 5.983a2.54 2.54 0 0 0-.6.595h-2.707a1.49 1.49 0 0 0 .002 2.979l2.725-.002A2.54 2.54 0 0 0 16 18.541 2.54 2.54 0 0 0 18.541 16a2.54 2.54 0 0 0-1.027-2.041V7.947c0-.821-.615-1.375-1.54-1.375z"/></svg><svg viewBox="0 0 32 32" id="cmt" xmlns="http://www.w3.org/2000/svg"><path d="M31 14.01c0 7.812-10.262 11.275-17.446 10.482-2.235 1.926-4.325 3.154-7.266 3.912-.964.261-2.29.498-3.016.223-.323-.318-.177-.797.285-1.392 1.471-1.597 2.426-3.157 3.058-4.96C3.468 20.36 1 17.544 1 14.08 1 6.516 9.687 3.317 15.965 3.25 25.019 3.25 31 8.53 31 14.01Z"/></svg><svg viewBox="0 0 32 32" id="cmts" xmlns="http://www.w3.org/2000/svg"><path d="M14.829 3C9.027 3.062 1 6.013 1 12.989c0 3.194 2.282 5.79 5.189 7.555-.584 1.664-1.467 3.101-2.826 4.573-.427.549-.562.99-.264 1.285.671.254 1.897.035 2.788-.206 2.717-.7 4.648-1.831 6.713-3.607 6.638.731 16.122-2.462 16.122-9.667C28.722 7.87 23.196 3 14.829 3Zm15.024 10.935c-.011 6.887-8.594 10.71-14.709 10.19 1.372 1.25 5.946 2.202 7.155 2.082 1.47 1.263 2.845 2.069 4.777 2.566.634.172 1.506.327 1.984.146.212-.209.116-.523-.188-.913-.967-1.047-1.595-2.07-2.01-3.254 4.068-2.364 5.282-7.854 2.991-10.817z"/></svg><svg viewBox="0 0 32 32" id="cog" xmlns="http://www.w3.org/2000/svg"><path d="M13.808 1c-.429 0-.65.342-.708.757-.161 1.15-.33 2.373-.502 3.485-.622.198-1.221.45-1.792.749-.933-.682-1.861-1.387-2.825-2.113-.336-.252-.733-.339-1.036-.035l-3.102 3.1c-.304.303-.217.7.035 1.036.7.929 1.445 1.916 2.113 2.823-.3.573-.553 1.174-.752 1.797-1.138.173-2.29.332-3.482.5-.415.058-.757.279-.757.708v4.386c0 .43.342.65.757.708 1.15.161 2.374.33 3.486.502.2.621.452 1.22.751 1.79-.686.931-1.39 1.862-2.116 2.828-.253.335-.339.733-.035 1.036l3.102 3.1c.303.304.7.217 1.036-.035.932-.703 1.922-1.45 2.834-2.12.569.296 1.165.547 1.783.745.173 1.143.333 2.299.502 3.496.059.415.279.757.708.757h4.386c.429 0 .647-.342.706-.757.163-1.156.335-2.385.505-3.504a11.228 11.228 0 0 0 1.774-.744c.935.692 1.87 1.396 2.842 2.127.336.252.731.339 1.034.035l3.102-3.1c.304-.303.218-.7-.035-1.036-.705-.936-1.454-1.93-2.13-2.843.296-.565.546-1.158.743-1.773 1.148-.173 2.306-.334 3.508-.504.415-.058.757-.279.757-.708v-4.386c0-.43-.342-.65-.757-.708-1.156-.162-2.385-.333-3.504-.504a11.22 11.22 0 0 0-.743-1.777c.691-.934 1.396-1.868 2.126-2.839.253-.335.339-.733.035-1.036l-3.102-3.1c-.303-.304-.698-.217-1.034.035-.932.703-1.922 1.451-2.834 2.12a11.23 11.23 0 0 0-1.784-.749c-.172-1.142-.333-2.296-.503-3.492-.059-.415-.277-.757-.706-.757Zm2.181 9.709a5.242 5.242 0 0 1 5.287 5.285 5.244 5.244 0 0 1-5.287 5.288c-2.954 0-5.285-2.333-5.285-5.288a5.24 5.24 0 0 1 5.285-5.285z"/></svg><svg viewBox="0 0 32 32" id="cookie" xmlns="http://www.w3.org/2000/svg"><path d="M17.485 1.002C12.667.932 7.898 3.177 4.94 7.419c-4.732 6.788-3.06 16.158 3.727 20.89 6.787 4.732 16.156 3.06 20.888-3.728a1.083 1.083 0 0 0-.318-1.539c-.702-.436-1.463-.824-2.048-1.405-.585-.58-1.027-1.292-1.084-2.613a1.083 1.083 0 0 0-.672-.955c-1.657-.676-2.603-2.042-2.809-3.496-.207-1.454.304-2.968 1.79-4.05a1.083 1.083 0 0 0 .411-1.151c-.395-1.499.676-3.373 1.251-4.145a1.083 1.083 0 0 0-.249-1.535 14.918 14.918 0 0 0-8.343-2.69Zm-.04 2.153c2.135.032 4.262.66 6.216 1.795-.633 1.061-1.266 2.597-1.037 4.319-1.686 1.52-2.425 3.623-2.143 5.608.283 1.994 1.563 3.819 3.548 4.863.206 1.503.854 2.658 1.636 3.434.447.444.92.786 1.35 1.06-4.233 5.028-11.61 6.132-17.109 2.298A12.823 12.823 0 0 1 6.717 8.657a12.813 12.813 0 0 1 10.729-5.502Zm-.364 2.327a2.04 2.04 0 0 0-2.04 2.04 2.04 2.04 0 0 0 2.04 2.04 2.04 2.04 0 0 0 2.04-2.04 2.04 2.04 0 0 0-2.04-2.04zm-4.664 5.955a1.682 1.682 0 0 0-1.682 1.682 1.682 1.682 0 0 0 1.682 1.682 1.682 1.682 0 0 0 1.682-1.682 1.682 1.682 0 0 0-1.682-1.682zm-1.705 5.937a2.382 2.383 0 0 0-2.383 2.383 2.382 2.383 0 0 0 2.383 2.382 2.382 2.383 0 0 0 2.382-2.382 2.382 2.383 0 0 0-2.382-2.383zm7.356 4.127a2.165 2.166 0 0 0-2.166 2.165 2.165 2.166 0 0 0 2.166 2.166 2.165 2.166 0 0 0 2.165-2.166 2.165 2.166 0 0 0-2.165-2.165z"/></svg><svg viewBox="0 0 32 32" id="credit" xmlns="http://www.w3.org/2000/svg"><path d="M4.4 6C2.536 6 1 7.546 1 9.425v13.15C1 24.454 2.535 26 4.4 26h23.2c1.865 0 3.4-1.546 3.4-3.425V9.425C31 7.546 29.465 6 27.6 6Zm0 2.05h23.2c.773 0 1.364.596 1.364 1.375v.942H3.034v-.942c0-.78.593-1.374 1.367-1.374zm-1.366 6.638h25.93v7.887c0 .78-.59 1.376-1.365 1.376H4.401c-.774 0-1.367-.597-1.367-1.376zm5.054 4.589c-.258 0-.466.269-.466.67 0 .4.208.667.466.667h3.197c.258 0 .466-.267.466-.667 0-.401-.208-.67-.466-.67zm7.116 0c-.258 0-.467.269-.467.67 0 .4.209.667.467.667H18.4c.258 0 .465-.267.465-.667 0-.401-.207-.67-.465-.67zm7.113 0c-.258 0-.466.269-.466.67 0 .4.208.667.466.667h3.197c.258 0 .465-.267.465-.667 0-.401-.207-.67-.465-.67z"/></svg><svg viewBox="0 0 32 32" id="cross" xmlns="http://www.w3.org/2000/svg"><path d="M16 1a2.25 2.25 0 0 0-2.25 2.25v10.5H3.25A2.25 2.25 0 0 0 1 16a2.25 2.25 0 0 0 2.25 2.25h10.5v10.5A2.25 2.25 0 0 0 16 31a2.25 2.25 0 0 0 2.25-2.25v-10.5h10.5A2.25 2.25 0 0 0 31 16a2.25 2.25 0 0 0-2.25-2.25h-10.5V3.25A2.25 2.25 0 0 0 16 1z"/></svg><svg viewBox="0 0 32 32" id="csv" xmlns="http://www.w3.org/2000/svg"><path d="M4.778 1C3.702 1 3.2 1.753 3.2 2.582v26.836c0 .915.853 1.582 1.578 1.582h22.444c1.111 0 1.578-.666 1.578-1.582V10.082c0-1.109-.483-1.87-1.11-2.695l-5.202-5.274C21.666 1.416 20.722 1 19.74 1Zm.526 2.168h12.859v6.914c0 1.166.638 1.64 1.578 1.64h6.955v17.11H5.304Zm14.963.117c.32.008.518.129.701.352L26.17 8.91c.184.193.368.372.409.645h-6.312ZM8.179 19.913c-.868 0-1.567.702-1.567 1.577v4.57c0 .874.7 1.578 1.567 1.578h15.642a1.57 1.57 0 0 0 1.567-1.578v-4.57c0-.875-.7-1.577-1.567-1.577zm9.511 1.802c.65.35.307 1.076-.132.912-1.084-.406-2.282-.617-2.35-.015-.102.901 3.066.755 2.976 2.155-.08 1.244-1.156 1.423-1.872 1.446-.605 0-1.582-.093-2.047-.562-.522-.393 0-1.14.541-.866.527.23.789.396 1.31.396 1.312-.054.95-.598.417-.729-1.312-.218-2.438-.741-2.454-1.65-.029-1.58 2.077-1.723 3.611-1.087zm-6.574-.473c.838 0 1.617.432 1.987.863.318.383-.43 1.125-.835.796-.364-.295-.727-.49-1.097-.527-.812-.08-1.376.558-1.376 1.388 0 .83.56 1.388 1.376 1.388.419 0 .738-.28 1.097-.533.586-.41 1.135.44.828.8-.38.446-1.14.864-1.985.864-1.485 0-2.612-1.058-2.612-2.52 0-1.449 1.11-2.496 2.584-2.513a.107.107 0 0 1 .033-.004zm8.928.557c.234.656 1.021 2.374 1.154 2.664.138-.323.973-2.289 1.176-2.748.289-.677 1.32-.249 1.08.43a42.85 42.85 0 0 1-1.728 3.829c-.144.244-.364.352-.573.333-.21-.02-.401-.146-.543-.319-.727-1.298-1.472-3.188-1.682-3.721-.322-.856.825-1.148 1.116-.468z"/></svg><svg viewBox="0 0 32 32" id="discord" xmlns="http://www.w3.org/2000/svg"><path d="M13.906 17.103c0 1.832-1.325 3.318-2.96 3.318-1.634 0-2.959-1.486-2.959-3.318 0-1.833 1.325-3.319 2.96-3.319 1.634 0 2.959 1.486 2.959 3.319zm10.045 0c0 1.832-1.325 3.318-2.96 3.318-1.634 0-2.959-1.486-2.959-3.318 0-1.833 1.325-3.319 2.96-3.319 1.634 0 2.96 1.486 2.96 3.319zM11.745 4.15a32.451 32.451 0 0 0-6.197 1.979c-.215.215-2.597 2.938-3.71 7.826-1.092 4.803-.86 9.368-.704 9.637 2.25 2.045 4.255 3.017 7.507 4.258l1.779-3.071s-2.004-.871-2.444-1.179c-.256-.179-.077-.541.336-.493.287.257 1.85.832 2.868 1.114 3.346.864 6.553.773 9.635 0 1.025-.259 2.581-.857 2.868-1.114.413-.049.592.314.335.493-.44.308-2.443 1.179-2.443 1.179l1.78 3.071c2.848-1.217 5.13-2.014 7.506-4.258.168-.29.388-4.834-.705-9.637-1.112-4.888-3.39-7.442-3.71-7.732C24.41 5.21 22.56 4.639 20.25 4.15l-.61 1.635c-2.517-.181-4.675-.164-7.283 0z"/></svg><svg viewBox="0 0 32 32" id="dots" xmlns="http://www.w3.org/2000/svg"><path d="M4.516 12.484a3.516 3.516 0 1 0-.001 7.03 3.516 3.516 0 0 0 .001-7.03Zm11.484 0a3.516 3.516 0 1 0 0 7.032 3.516 3.516 0 1 0 0-7.032Zm11.484 0a3.516 3.516 0 1 0 .002 7.03 3.516 3.516 0 0 0-.002-7.03z"/></svg><svg viewBox="0 0 32 32" id="download" xmlns="http://www.w3.org/2000/svg"><path d="M13.668 2.2c-.315 0-.567.125-.756.314-.252.251-.379.504-.379.818v8.047h-4.6c-.504 0-.883.251-1.072.691-.189.503-.126.944.252 1.259l8.069 8.046c.252.252.503.378.818.378.315 0 .566-.126.818-.378l8.069-8.046c.378-.315.44-.756.252-1.259-.19-.44-.568-.691-1.073-.691h-4.6V3.332c0-.314-.126-.567-.378-.818a1.043 1.043 0 0 0-.756-.314ZM2.766 20.621c-.505 0-.884.126-1.262.503A1.607 1.607 0 0 0 1 22.318v5.72c0 .504.189.945.504 1.26.378.314.757.502 1.262.502h26.468c.505 0 .884-.188 1.262-.503.315-.314.504-.755.504-1.258v-5.72c0-.504-.189-.88-.504-1.195-.378-.377-.757-.503-1.262-.503h-8.318l-2.459 2.39c-.693.69-1.512 1.004-2.457 1.004-.945 0-1.764-.313-2.457-1.005l-2.397-2.389zm20.148 4.57a1.16 1.157 0 0 1 1.16 1.157 1.16 1.157 0 0 1-1.16 1.157 1.16 1.157 0 0 1-1.16-1.157 1.16 1.157 0 0 1 1.16-1.158zm4.61 0a1.16 1.157 0 0 1 1.16 1.157 1.16 1.157 0 0 1-1.16 1.157 1.16 1.157 0 0 1-1.16-1.157 1.16 1.157 0 0 1 1.16-1.158z"/></svg><svg viewBox="0 0 32 32" id="edit" xmlns="http://www.w3.org/2000/svg"><path d="m8.153 28.5 1.805-1.806-4.652-4.652L3.5 23.847v2.084h2.57V28.5Zm10.416-18.403c0-.278-.138-.486-.486-.486-.07 0-.208.07-.277.139L7.042 20.514c-.14.139-.14.208-.14.347 0 .278.14.417.417.417.14 0 .278 0 .348-.14L18.43 10.445c.069-.138.138-.208.138-.347zm-1.11-3.82 8.263 8.265L9.194 31H1v-8.194ZM31 8.154c0 .694-.208 1.32-.694 1.805l-3.334 3.264-8.194-8.194 3.264-3.334C22.528 1.208 23.083 1 23.847 1c.695 0 1.25.208 1.806.694l4.653 4.653c.486.556.694 1.111.694 1.806Z"/></svg><svg viewBox="0 0 32 32" id="error" xmlns="http://www.w3.org/2000/svg"><path d="M26.185 23.268c-1.067 1.648.724 4.156-.789 5.12-1.512.965-4.17-2.314-5.995-1.836-1.825.478-1.843 3.996-3.397 4.39-1.554.393-1.08-1.262-2.609-2.988-1.528-1.725-5.305 2.235-7.253.911-1.947-1.323 2.26-4.824 1.247-6.702-1.012-1.879-4.782.209-5.339-1.585-.557-1.794 3.692-2.616 3.762-4.634.07-2.017-4.041-2.851-3.762-4.633.28-1.781 3.273-1.045 4.55-2.316 1.278-1.272-.238-4.424.728-5.182.967-.76 3.393 1.959 5.157 1.28 1.765-.68 1.808-4.288 3.519-4.085 1.71.204 1.599 3.678 3.58 4.268 1.98.59 5.409-3.255 6.587-1.904 1.179 1.351-2.021 4.395-1.063 6.305.958 1.91 4.706.53 4.85 1.695.143 1.164-2.574 2.681-3.02 4.2-.445 1.52 3.251 3.812 3.054 4.993-.263 1.579-2.74 1.054-3.807 2.703zm-8.604-.8v-3.232h-3.154v3.232h3.154m0-4.939V9.36h-3.154v8.17h3.154"/></svg><svg viewBox="0 0 32 32" id="facebook" xmlns="http://www.w3.org/2000/svg"><path d="M12.658 30.988V18.862H7.456v-5.769h5.202V8.701c0-7.46 5.706-8.48 11.886-7.272v4.865c-6.013-.291-5.971 1.393-5.87 6.8h5.634l-.876 5.768h-4.758V31Z"/></svg><svg viewBox="0 0 32 32" id="github" xmlns="http://www.w3.org/2000/svg"><path d="M16 1.4C7.717 1.4 1 8.102 1 16.37c0 6.614 4.298 12.225 10.258 14.204.75.139 1.025-.324 1.025-.72 0-.357-.014-1.536-.02-2.787-4.173.906-5.054-1.767-5.054-1.767-.682-1.73-1.666-2.19-1.666-2.19-1.361-.93.102-.91.102-.91 1.507.105 2.3 1.543 2.3 1.543 1.338 2.289 3.51 1.627 4.365 1.245.135-.967.524-1.63.953-2.003-3.332-.378-6.834-1.661-6.834-7.397 0-1.634.586-2.97 1.545-4.019-.155-.377-.67-1.9.145-3.961 0 0 1.261-.402 4.127 1.535A14.41 14.41 0 0 1 16 8.638c1.275.007 2.559.173 3.757.505 2.863-1.937 4.122-1.535 4.122-1.535.817 2.062.302 3.584.147 3.961.961 1.049 1.543 2.385 1.543 4.019 0 5.75-3.508 7.015-6.848 7.386.538.465 1.016 1.376 1.016 2.772 0 2.003-.016 3.615-.016 4.108 0 .399.268.865 1.029.718C26.707 28.591 31 22.982 31 16.37 31 8.102 24.284 1.4 16 1.4ZM6.282 22.69c-.049.066.033.2.142.25.106.05.225.028.258-.046.037-.075-.031-.166-.134-.227-.13-.077-.223-.037-.266.022zm.7.81c.095.105.236.136.308.07.074-.067.054-.207-.044-.313-.07-.075-.16-.112-.27-.056-.11.056-.092.195.006.3zm.562.803c.093.132.245.192.337.128.094-.066.094-.225.001-.36-.07-.1-.17-.157-.3-.109-.129.048-.13.207-.038.34zm.762.904c.128.124.302.147.384.057.088-.09.048-.262-.082-.382-.08-.077-.213-.138-.358-.064-.145.075-.075.269.056.39zm.88.355c-.034.118.078.255.248.307.17.05.339-.004.375-.121.035-.12-.067-.296-.285-.328-.217-.032-.313.06-.337.142zm2.355.197c.023.12.183.193.357.161.178-.033.302-.156.28-.276-.02-.107-.145-.195-.34-.173-.195.022-.318.165-.297.288zm-.83-.14c-.178.003-.32.105-.32.23.003.121.147.22.326.217.179-.003.323-.105.319-.228 0-.123-.146-.223-.324-.22z"/></svg><svg viewBox="0 0 32 32" id="google" xmlns="http://www.w3.org/2000/svg"><path d="M1.305 16c0 8.284 6.94 15 14.705 15 8.995 0 14.685-6.198 14.685-15 0-.72-.052-1.444-.155-2.156-4.775-.007-9.533 0-14.32 0v5.102h8.689c-1.09 4.477-4.68 6.55-8.79 6.55-4.844 0-9.146-4.252-9.146-9.496 0-4.964 4.47-9.435 9.037-9.434 3.175 0 4.56.789 6.296 2.328l3.95-3.849A14.886 14.886 0 0 0 16.01 1C7.638 1 1.305 8.193 1.305 16Z"/></svg><svg viewBox="0 0 32 32" id="heart" xmlns="http://www.w3.org/2000/svg"><path d="M9.027 3.2c-2.52 0-4.511.643-5.918 2.046C1.703 6.648 1 8.519 1 10.974c.047 2.304.662 4.22 2.402 5.961 3.69 4.084 7.865 7.745 11.836 11.573.235.234.469.292.762.292.293 0 .527-.058.762-.292l10.43-9.995C29.71 15.942 31 13.428 31 10.973c0-2.454-.703-4.325-2.11-5.727C27.485 3.843 25.493 3.2 22.974 3.2c-2.826.091-4.994 1.781-6.973 3.565-1.998-1.976-4.213-3.28-6.973-3.565Zm-.716 10.148 7.727 8.22c.518.552.55 1.405.057 1.93-.492.524-1.293.489-1.81-.062l-7.728-8.221c-.518-.552-.608-1.352-.051-1.942.556-.59 1.374-.357 1.805.075z"/></svg><svg viewBox="0 0 32 32" id="help" xmlns="http://www.w3.org/2000/svg"><path d="M16 1C7.728 1 1 7.728 1 16s6.728 15 15 15 15-6.728 15-15S24.272 1 16 1Zm0 2.009c2.181 0 4.233.537 6.036 1.483l-3.47 3.47a8.396 8.396 0 0 0-5.248.042L9.861 4.545A12.953 12.953 0 0 1 16 3.009Zm0 6.562A6.415 6.415 0 0 1 22.43 16 6.416 6.416 0 0 1 16 22.43 6.415 6.415 0 0 1 9.571 16 6.413 6.413 0 0 1 16 9.571zm11.48.342A12.951 12.951 0 0 1 28.992 16c0 2.22-.556 4.308-1.534 6.135L24 18.678a8.387 8.387 0 0 0 .018-5.303zm-23.013.102 3.476 3.478v.002A8.398 8.398 0 0 0 7.563 16c0 .896.14 1.76.401 2.572l-3.47 3.47A12.953 12.953 0 0 1 3.009 16c0-2.161.528-4.195 1.458-5.985zM13.38 24.02a8.387 8.387 0 0 0 5.134.035l3.476 3.477A12.952 12.952 0 0 1 16 28.992c-2.2 0-4.27-.546-6.084-1.508z"/></svg><svg viewBox="0 0 32 32" id="home" xmlns="http://www.w3.org/2000/svg"><path d="M16 1c-1.155 0-1.52.47-2.239 1.099-.196.171-9.657 9.734-10.757 10.825-.43.428-1.713 1.912-1.922 2.685-.208.773-.073 1.76 1.023 2.051 1.096.291 1.724.23 2.722.23v10c0 1.632.057 3.11 2.402 3.11 2.324 0 2.967-.013 5.945 0l.017-9.9c0-.561-.13-1.336.79-1.336h4.038c.92 0 .79.775.79 1.336l.017 9.9c2.978-.013 3.621 0 5.945 0 2.345 0 2.4-1.478 2.4-3.11v-10c.998 0 1.628.061 2.724-.23 1.096-.291 1.231-1.278 1.023-2.051-.21-.773-1.493-2.257-1.924-2.685-1.1-1.09-10.56-10.654-10.755-10.825C17.52 1.47 17.153 1 15.999 1Z"/></svg><svg viewBox="0 0 32 32" id="info" xmlns="http://www.w3.org/2000/svg"><path d="M11.642 5.111c0 2.276 1.943 4.12 4.34 4.12s4.34-1.844 4.34-4.12c0-2.275-1.943-4.12-4.35-4.111-2.407.009-4.33 1.848-4.33 4.111zm-1.378 6.817c-.392 0-.707.15-1.02.373-.956.907-1.027 3.72 0 4.694.313.223.628.373 1.02.373h1.413v8.194c-1.05 0-1.913-.024-2.443.543C8.37 27.03 8.189 31 10.264 31H21.72c2.243 0 2.086-3.987 1.056-4.943-.724-.576-.976-.495-2.469-.495V13.269c0-.937-.552-1.341-1.413-1.341z"/></svg><svg viewBox="0 0 32 32" id="instagram" xmlns="http://www.w3.org/2000/svg"><path d="M9.673 1.106c-4.875 0-8.551 3.52-8.551 8.57 0 0-.122 4.098-.122 6.207 0 2.108.122 6.44.122 6.44 0 5.022 3.713 8.591 8.551 8.591 0 0 4.32.087 6.43.086 2.109-.001 6.224-.086 6.224-.086 5.158 0 8.551-3.787 8.551-8.59 0 0 .122-4.333.122-6.441 0-2.109-.122-6.208-.122-6.208 0-5.14-3.65-8.569-8.551-8.569 0 0-4.115-.106-6.225-.106-2.11 0-6.429.106-6.429.106zm0 2.656s4.32-.118 6.43-.117c2.109 0 6.224.117 6.224.117 3.284.052 5.834 2.615 5.887 5.913 0 0 .1 4.1.1 6.208 0 2.108-.1 6.44-.1 6.44-.053 3.299-2.603 5.86-5.887 5.914 0 0-4.115.1-6.225.101-2.109.001-6.429-.1-6.429-.1-3.284-.051-5.837-2.616-5.887-5.914 0 0-.102-4.333-.1-6.441.002-2.109.1-6.208.1-6.208.055-3.298 2.603-5.862 5.887-5.913zm14.301 2.43c-.99 0-1.791.805-1.791 1.8 0 .993.802 1.799 1.791 1.799.99 0 1.792-.806 1.792-1.8s-.802-1.8-1.792-1.8zm-7.872 2.122c-4.209 0-7.752 3.34-7.752 7.569 0 4.228 3.543 7.801 7.752 7.801 4.21 0 7.548-3.573 7.548-7.801 0-4.229-3.339-7.569-7.548-7.569zm0 2.659c2.78 0 4.902 2.117 4.902 4.91 0 2.792-2.122 5.143-4.902 5.143-2.779 0-5.106-2.351-5.106-5.143 0-2.793 2.327-4.91 5.106-4.91z"/></svg><svg viewBox="0 0 32 32" id="language" xmlns="http://www.w3.org/2000/svg"><path d="M3.748 1C1.988 1 1 2.122 1 3.638V31s5.91-5.56 6.445-6.105c.673-.683 1.118-.561 1.988-.561l17.871.001c2.403 0 3.696-1.407 3.696-3.655V4.26c0-2-1.54-3.258-3.373-3.258L3.747 1Zm9.595 1.95h14.284c.981 0 1.453.508 1.453 1.31v16.42c0 1.269-.85 1.706-1.776 1.706h-9.238zm8.527 3.908v1.535h-3.961v1.948h6.214c-.41.752-.958 1.513-1.562 2.221-.869-.958-1.24-1.622-1.24-1.622l-1.666.968s.498.859 1.59 2.046c-1.337 1.29-2.523 2.151-2.523 2.151l1.107 1.592s1.33-.96 2.806-2.396a20.796 20.796 0 0 0 3.405 2.468l.952-1.693a19.416 19.416 0 0 1-3.027-2.16c.921-1.048 1.776-2.256 2.297-3.575h1.498V8.393h-3.97V6.858ZM7.74 7.31H9.4c1.552 2.727 3.26 6.956 3.26 10.327h-1.92c0-.46-.051-.964-.123-1.485H6.523a11.01 11.01 0 0 0-.122 1.485h-1.92c0-3.333 1.706-7.6 3.258-10.327zm.83 2.156a29.092 29.092 0 0 0-1.66 4.738h3.32a29.105 29.105 0 0 0-1.66-4.738Z"/></svg><svg viewBox="0 0 32 32" id="link" xmlns="http://www.w3.org/2000/svg"><path d="M10.874 30.074c3.322-2.8 4.041-3.558 7.821-7.31-1.55.638-3.196.44-4.46-.072-1.754 1.688-3.1 2.972-4.833 4.382-3.132 2.546-6.885-2.308-4.598-4.717 3.06-3.221 3.512-3.81 7.556-7.64 1.777-1.75 4.086-.188 5.722.768.678.402 1.493 0 1.775-.57.175-.353.343-1.102-.305-1.683-2.395-2.018-5.143-2.871-7.2-2.079-.987.318-1.717.752-2.587 1.54-1.135 1.027-7.178 7.113-7.516 7.57-1.151 1.669-1.307 3.155-1.234 5.095a6.776 6.776 0 0 0 5.191 5.435c1.733.336 3.376.369 4.668-.72zM22.03 19.46c.545-.491 7.078-7.099 7.37-7.39 2.034-2.022 1.901-4.64.856-6.938-.885-1.946-2.827-3.557-4.967-4.004-1.952-.397-3.834.147-5.045 1.28-2.739 2.564-4.134 3.923-7.159 6.962 1.367-.737 2.998-.576 4.376.06 1.728-1.482 2.744-2.627 4.73-4.45 2.625-2.744 7.496 1.52 4.951 4.721-2.885 2.95-4.628 4.966-8.125 8.005-2.366.768-3.818-.469-5.225-1.339-.429-.265-1.226.108-1.575.488a1.549 1.549 0 0 0-.27 1.73c.355.73 1.745 1.81 2.902 2.255 2.67.882 5.216.363 7.181-1.38z"/></svg><svg viewBox="0 0 32 32" id="linkedin" xmlns="http://www.w3.org/2000/svg"><path d="M4.659 1a3.657 3.657 0 0 1 3.658 3.659A3.657 3.657 0 0 1 4.66 8.317 3.657 3.657 0 0 1 1 4.66 3.657 3.657 0 0 1 4.659 1Zm18.803 10.244c5.895 0 7.538 3.128 7.538 8.925V31h-5.854v-9.764c0-2.595-1.037-4.87-3.46-4.87-2.942 0-4.345 1.993-4.345 5.263V31h-5.853V11.488h5.556v2.864c.45-.758 3.347-3.108 6.418-3.108zm-21.73.244h5.853V31H1.732Z"/></svg><svg viewBox="0 0 32 32" id="location" xmlns="http://www.w3.org/2000/svg"><path d="M16 1C10.477 1 6 5.464 6 10.97c.008 1.118.204 2.292.58 3.344 2.25 5.312 5.246 10.487 7.724 15.818.296.632 1.12.884 1.696.867.576.017 1.383-.243 1.696-.867 2.664-5.316 5.474-10.506 7.724-15.818.376-1.052.572-2.226.58-3.344C26 5.464 21.523 1 16 1Zm0 5.057a5.065 5.05 0 0 1 5.066 5.048A5.065 5.05 0 0 1 16 16.155a5.065 5.05 0 0 1-5.066-5.05A5.065 5.05 0 0 1 16 6.057Z"/></svg><svg viewBox="0 0 32 32" id="lock" xmlns="http://www.w3.org/2000/svg"><path d="M16 1c-2.653 0-4.925.896-6.82 2.761-1.893 1.866-2.877 4.18-2.877 6.792v4.03c-1.858 0-2.803.636-2.803 2.089v12.239C3.5 30.242 4.432 31 5.621 31h20.758c1.558 0 2.121-.821 2.121-2.09V16.673c0-1.886-1.398-2.09-2.803-2.09v-4.03c0-2.611-.986-4.925-2.88-6.79C20.923 1.895 18.651 1 16 1Zm0 4.03c1.514 0 2.803.596 3.94 1.64C21 7.717 21.53 8.986 21.53 10.554v4.03H10.47v-4.03c0-1.568.53-2.837 1.591-3.882 1.137-1.045 2.424-1.64 3.94-1.64zM8.105 16.712c.734 0 1.326.67 1.326 1.197v9.817c0 .527-.592 1.196-1.326 1.196-.735 0-1.325-.669-1.325-1.196v-9.817c0-.528.59-1.197 1.325-1.197z"/></svg><svg viewBox="0 0 32 32" id="login" xmlns="http://www.w3.org/2000/svg"><path d="M16 1C7.727 1 1 7.727 1 16.001S7.727 31 16 31s15-6.725 15-14.999C31 7.727 24.273 1 16 1Zm0 1.82c7.29 0 13.18 5.89 13.18 13.181 0 2.815-.881 5.42-2.38 7.56A13.232 13.232 0 0 0 16 17.967a13.231 13.231 0 0 0-10.785 5.615 13.13 13.13 0 0 1-2.395-7.581c0-7.29 5.89-13.18 13.18-13.18Zm0 3.978a4.794 4.794 0 0 0-4.794 4.794A4.794 4.794 0 0 0 16 16.387a4.794 4.794 0 0 0 4.794-4.795A4.794 4.794 0 0 0 16 6.798Z"/></svg><svg viewBox="0 0 32 32" id="logout" xmlns="http://www.w3.org/2000/svg"><path d="M15.02 1c-.813 0-1.47.652-1.47 1.46v14.296c0 .81.657 1.46 1.47 1.46h1.96c.813 0 1.47-.65 1.47-1.46V2.46c0-.81-.657-1.461-1.47-1.461h-1.96ZM8.184 4.154c-.24.012-.486.09-.733.25-3.62 2.594-6.2 6.602-6.201 11.909C1.25 24.425 7.854 31 16 31s14.75-6.575 14.75-14.688c0-5.306-2.581-9.314-6.201-11.908a1.453 1.453 0 0 0-.733-.25c-1.679-.078-3.032 3.102-1.78 3.815 2.453 1.475 4.423 4.619 4.423 8.343 0 5.753-4.683 10.415-10.459 10.415S5.54 22.065 5.541 16.312c0-3.724 1.97-6.868 4.424-8.343 1.25-.713-.102-3.893-1.781-3.815Z"/></svg><svg viewBox="0 0 32 32" id="mail" xmlns="http://www.w3.org/2000/svg"><path d="M1.053 7.994C1.053 5.111 2.46 5 4.76 5h22.486c2.464 0 3.7.093 3.7 2.994 0 0-12.653 9.015-14.943 9.015-2.29 0-14.95-9.015-14.95-9.015zM1 10.194v12.572l9.284-6.59zm11.133 7.046-11.08 7.559c0 2.136 1.889 2.202 3.337 2.201h23.184c1.449 0 3.373-.086 3.373-2.203L19.96 17.24s-2.82 1.828-3.958 1.828c-1.139 0-3.87-1.828-3.87-1.828zm9.678-1.064L31 22.766V10.193Z"/></svg><svg viewBox="0 0 32 32" id="mail-alt" xmlns="http://www.w3.org/2000/svg"><path d="M16.008 1C7.74 1 1 7.736 1 16s6.74 15 15.008 15c5.453 0 9.558-2.983 11.475-5.187-1.933 1.116-4.603 1.217-6.027.395-.582.255-2.768 1.355-5.448 1.355A11.54 11.54 0 0 1 4.439 16 11.54 11.54 0 0 1 16.008 4.437c6.36 0 9.713 4.277 10.965 7.947 1.253 3.67.702 6.117-.664 7.241-.85.7-2.662 1.159-3.844-.274-.695-.843-.545-3.497-.31-4.82.22-1.176.866-4.315 1.037-5.414-3.206-.601-6.946-.686-9.668.516-2.726 1.231-4.544 3.624-5.106 7.123-.38 2.878.786 5.983 4.035 6.316 2.232.19 4.744-1.432 6.4-3.334 1.252 2.567 3.104 3.768 5.95 3.772 2.865.004 4.77-1.573 5.682-3.946.911-2.374.336-5.87.336-5.87C29.49 5.7 22.614 1 16.008 1Zm2.783 10.605c-.613 3.337-1.307 6.302-2.611 7.114-1.572.979-2.963.455-3.475-.324-.765-1.168.102-3.246.97-4.366.868-1.119 2.698-2.248 5.116-2.424z"/></svg><svg viewBox="0 0 32 32" id="pdf" xmlns="http://www.w3.org/2000/svg"><path d="M27.69 7.387c.76.796 1.11 1.629 1.11 2.695v19.336c0 1.085-.656 1.582-1.578 1.582H4.778C3.766 31 3.2 30.34 3.2 29.418V2.582C3.2 1.494 3.84 1 4.778 1h14.963c1.279 0 2.034.39 2.747 1.113zm-7.423-4.102v6.27h6.312c-.117-.293-.234-.528-.41-.645l-5.201-5.273c-.117-.117-.35-.235-.701-.352Zm6.429 25.547v-17.11H19.74c-1.041 0-1.578-.748-1.578-1.64V3.168H5.304v25.664Zm-7.19-8.965c.644-.058 1.287-.117 1.93-.117 1.636 0 2.63.293 2.98.82.176.235.176.528.059.88-.296.529-.87.661-1.378.659-1.478-.006-2.775-.592-4-1.187-2.454.293-4.617.762-6.545 1.406-1.695 2.93-3.04 4.395-4.033 4.395-.731-.051-1.219-.488-1.052-.996.502-1.535 1.922-2.463 3.156-3.164.231-.17.337-.041.409.175 1.433-2.486 2.733-5.054 3.507-7.675a24.294 24.294 0 0 1-.526-2.696c-.12-1.246-.029-2.665.818-2.812.864-.147 1.146.736 1.169 1.856.023 1.12-.196 2.38-.35 3.534.81 2.386 2.024 3.774 3.857 4.922zM8.46 25.785c.55-.307 1.345-1.113 2.338-2.637-.99.767-1.763 1.513-2.338 2.637zm6.663-13.183c.248-.931.357-1.517 0-2.286-.403.487-.325 1.294 0 2.286zm-2.045 8.847a23.41 23.41 0 0 1 4.734-1.347c-.8-.104-2.067-2.198-2.63-3.34-.574 1.832-1.22 3.083-2.104 4.687zm8.161-.649c.82.26 1.916.474 2.732.48-.66-.626-1.938-.746-2.732-.48z"/></svg><svg viewBox="0 0 32 32" id="phone" xmlns="http://www.w3.org/2000/svg"><path d="M3.865 2.262C2.212 3.559 1.137 6.047 1 8.345c-.146 7.121 14.034 21.473 22.622 21.898 2.078.103 4.776-.868 6.678-3.516.367-.512.991-3.19.543-3.513-.647-.468-6.366-3.596-7.22-3.784-.854-.188-3.632 3.713-4.089 3.784-3.481-1.678-9.028-6.507-10.902-10.003.945-1.475 2.53-3.462 2.586-4.088.058-.65-2.688-6.68-3.134-7.153-.473-.502-3.81-.031-4.22.292Z"/></svg><svg viewBox="0 0 32 32" id="pinterest" xmlns="http://www.w3.org/2000/svg"><path d="M16 1C7.716 1 1 7.716 1 16a15 15 0 0 0 8.973 13.72c0-.137.007-2.513.273-3.378l1.918-8.219c-1.364-2.819.256-6.29 2.398-6.3 1.824.075 1.968.833 2.055 2.327-.195 1.889-.827 3.356-1.37 5.274-.4 1.561.561 2.735 2.398 2.945 3.274-.073 4.865-4.868 4.793-8.013-.097-4.253-3.116-5.645-6.301-5.752-4.735.209-6.549 2.784-7.317 5.9-.28 1.13.107 3.574.948 4.236.569.694.043 2.848-.76 2.44-3.297-1.267-3.486-5.616-2.735-8.399C8.121 7.646 12.204 6.278 16.55 6c3.222.027 6.396 1.496 8.355 4.451 1.686 2.734 1.331 6.795.205 9.453-1.126 2.659-3.752 4.934-7.123 5.069-1.487-.09-2.803-.59-3.699-1.918-.548 2.328-.89 3.698-1.027 4.11-.274.958-1.506 3.218-1.506 3.218 1.01.274 3.086.608 4.246.617 8.284 0 15-6.716 15-15 0-8.284-6.716-15-15-15Z"/></svg><svg viewBox="0 0 32 32" id="print" xmlns="http://www.w3.org/2000/svg"><path d="M7.365 1.75c-1.171 0-1.763.525-1.763 1.7v10.696c-2.385 0-4.602.128-4.602 3.461v7.485c0 .408.153.566.566.566h4.036v2.893c0 1.133.367 1.699 1.763 1.699h17.27c1.274 0 1.763-.526 1.763-1.7v-2.892h4.036c.382 0 .566-.096.566-.566v-7.485c0-3.444-1.82-3.46-4.602-3.46V8.604c-.188-1.113-.474-2.061-1.26-2.955l-2.71-2.705c-.906-.644-1.76-1.193-2.961-1.195H7.365zm.569 2.264h11.533v2.894c0 1.044.418 1.697 1.701 1.697h2.898v7.87H7.934V4.014zM27.508 16.44a1.194 1.194 0 0 1 1.195 1.194 1.194 1.194 0 0 1-1.195 1.195 1.194 1.194 0 0 1-1.194-1.195 1.194 1.194 0 0 1 1.194-1.194zM7.934 23.395h16.132v4.591H7.934v-4.591z"/></svg><svg viewBox="0 0 32 32" id="private" xmlns="http://www.w3.org/2000/svg"><path d="M7.36 21.989c-1.2 1.203-2.4 2.407-3.607 3.604-.49.464-.37.657.024 1.059.48.475 1 .928 1.46 1.421.534.504.865.37 1.212-.03 7.176-7.322 15.29-15.235 21.612-21.441.538-.544.506-.821.095-1.196-.461-.459-.926-.913-1.39-1.369-.496-.588-.868-.5-1.09-.215-1.55 1.506-3.193 3.221-4.6 4.532-7.954-3.07-16.01 2.3-20.076 7.498.001 1.037 3.076 3.725 4.548 4.917m20.32-9.879-1.807 1.888c1.402.972 3.312 2.682 3.734 3.359-2.599 2.79-6.607 4.97-9.834 5.669-1.146.208-2.066.198-3.197.145l-2.158 2.25c5.647 1.83 14.087-2.38 17.675-6.817.221-.3.766-.972.716-1.4-.157-.461-1.264-1.655-1.78-2.173-1.173-1.174-3.35-2.921-3.35-2.921m-15.058.393c-.75 1.255-1.113 2.887-.882 4.205.178.934.513 1.805 1.312 2.706-.663.632-1.257 1.286-1.946 1.863-2.095-1.213-3.535-2.231-5.167-4.007 1.964-1.944 4.332-3.88 6.683-4.767m11.25 3.426c-1.98 2.036-4.252 4.109-5.859 5.852 0 0 2.262.225 4.296-1.76 2.034-1.986 1.562-4.092 1.562-4.092z"/></svg><svg viewBox="0 0 32 32" id="quote" xmlns="http://www.w3.org/2000/svg"><path d="M8.038 3.5C4.14 3.54 1 6.694 1 10.57a7.077 7.077 0 0 0 5.143 6.795c1.91.51 2.592 1.102 2.66 2.67.12 2.726-1.933 5.345-5.119 5.936a1.275 1.275 0 0 0-1.03 1.486c.128.692.798 1.149 1.495 1.022 1.244-.228 2.736-.588 4.25-1.61 1.514-1.023 3.016-2.667 4.498-5.326 1.566-2.81 1.999-5.626 2.182-7.137.498-7.755-2.147-10.76-6.967-10.906h-.074zm16.403.002c-3.706-.038-6.751 2.898-6.828 6.581a6.723 6.723 0 0 0 4.753 6.557c1.806.521 2.441 1.098 2.475 2.59.059 2.591-1.942 5.04-4.982 5.538a1.213 1.213 0 0 0-1.008 1.393 1.22 1.22 0 0 0 1.4 1c1.188-.191 2.613-.506 4.072-1.448 1.46-.942 2.918-2.475 4.378-4.972 1.544-2.64 2.012-5.307 2.216-6.74.581-7.04-1.926-10.271-6.407-10.499h-.07z"/></svg><svg viewBox="0 0 32 32" id="reply" xmlns="http://www.w3.org/2000/svg"><path d="M1.1 16.481c-.24-.733-.863-.072 9.626-10.227 1.167-1.13 1.465-1.267 2.098-.966.619.358.643.74.643 6.212 8.853-.161 16.42 1.985 17.475 11.472.13 1.572.06 1.97-.413 2.369-.546.461-1.185.315-1.904-.436-3.806-5.092-10.355-4.884-15.008-4.56 0 4.914.01 6.012-.773 6.465-.396.189-1.315-.34-1.613-.6-.904-.785-8.23-7.652-10.13-9.729z"/></svg><svg viewBox="0 0 32 32" id="search" xmlns="http://www.w3.org/2000/svg"><path d="M13.66 1C6.69 1 1 6.683 1 13.648c0 6.964 5.689 12.647 12.66 12.647 2.74 0 5.278-.879 7.353-2.366 1.47 1.468 4.12 4.485 6.007 6.375.443.442 1.011.696 1.643.696 1.273-.02 2.307-1.084 2.337-2.339 0-.632-.253-1.139-.695-1.582-1.89-1.887-4.832-5.03-6.095-6.292 1.565-2.105 2.11-4.327 2.11-7.14C26.32 6.684 20.633 1 13.66 1zm0 3.404a9.222 9.222 0 0 1 9.254 9.244 9.222 9.222 0 0 1-9.253 9.243 9.224 9.224 0 0 1-9.255-9.243 9.224 9.224 0 0 1 9.255-9.244z"/></svg><svg viewBox="0 0 32 32" id="share" xmlns="http://www.w3.org/2000/svg"><path d="M24.738 1c-4.258 0-6.455 3.729-6.146 6.874l-7.18 3.578a6.199 6.199 0 0 0-4.23-1.654C3.54 9.798 1 12.723 1 16.017c0 3.441 2.69 6.174 6.048 6.216 1.642 0 3.197-.585 4.36-1.683l7.217 3.597c-.39 3.616 2.492 6.808 6.11 6.853 3.706 0 6.223-2.844 6.265-6.21 0-3.546-2.735-6.213-6.197-6.226-1.642-.006-3.071.574-4.234 1.67l-7.187-3.532v-1.37l7.168-3.54c1.184 1.14 3.015 1.634 4.153 1.634 3.487 0 6.26-2.855 6.26-6.186 0-3.52-2.79-6.24-6.225-6.24zm3.41 6.218a3.36 3.36 0 0 1-3.357 3.364 3.36 3.36 0 0 1-3.358-3.364 3.345 3.345 0 0 1 3.34-3.349 3.341 3.341 0 0 1 3.374 3.349zM7.18 12.663a3.341 3.341 0 0 1 3.375 3.35 3.36 3.36 0 0 1-3.358 3.364 3.36 3.36 0 0 1-3.356-3.364 3.345 3.345 0 0 1 3.339-3.35Zm20.966 12.122a3.36 3.36 0 0 1-3.356 3.363 3.36 3.36 0 0 1-3.358-3.363 3.346 3.346 0 0 1 3.341-3.35 3.342 3.342 0 0 1 3.373 3.35z"/></svg><svg viewBox="0 0 32 32" id="shipping" xmlns="http://www.w3.org/2000/svg"><path d="M5.603 5.25c-.6 0-1.08.485-1.08 1.083-.001.599.48 1.084 1.08 1.085H20.62l.3 3.815v10.368h-9.12a3.175 3.175 0 0 0-2.464-1.173 3.175 3.175 0 0 0-2.458 1.173h-.89v-3.664c0-.599-.488-1.084-1.088-1.083-.6 0-1.087.485-1.087 1.083v4.747c0 .599.486 1.085 1.087 1.085h1.277a3.167 3.167 0 0 0 3.159 2.981 3.167 3.167 0 0 0 3.159-2.98h9.396a3.167 3.167 0 0 0 3.159 2.98 3.167 3.167 0 0 0 3.159-2.98h1.705c.601-.001 1.088-.487 1.087-1.086v-6.6c0-.218-.066-.43-.19-.61l-3.147-4.608a1.088 1.088 0 0 0-.898-.472h-3.671l-.302-4.061c0-.598-.486-1.083-1.086-1.083ZM1.844 8.589A.841.841 0 0 0 1 9.426c0 .462.38.836.844.836h12.22a.838.838 0 1 0 0-1.673zm0 2.849a.841.841 0 0 0-.844.836c0 .462.38.836.844.836h7.701a.838.838 0 0 0 .839-.836.838.838 0 0 0-.839-.836zm21.248 1.123h3.098l2.635 3.856v5.184h-1.311a3.175 3.175 0 0 0-2.465-1.173c-.71.003-1.4.243-1.957.683zM1.844 14.194A.841.841 0 0 0 1 15.03c0 .463.38.838.844.838h3.267a.838.838 0 1 0 0-1.674Zm7.49 7.93c.813 0 1.471.656 1.471 1.465.001.81-.657 1.468-1.47 1.468a1.468 1.468 0 0 1-1.47-1.468c0-.81.658-1.465 1.47-1.466zm15.715 0c.812 0 1.47.656 1.47 1.465.001.81-.657 1.468-1.47 1.468a1.468 1.468 0 0 1-1.47-1.468c0-.81.658-1.465 1.47-1.466z"/></svg><svg viewBox="0 0 32 32" id="shopping-cart" xmlns="http://www.w3.org/2000/svg"><path d="M2.198 3.25C1.384 3.25 1 3.655 1 4.39c-.001.881.632 1.208 1.198 1.204h3.654l3.152 14.892-.945 1.901c-.237.552-.116 1.101.188 1.394.56.429 1.16.317 1.914.317a2.322 2.322 0 0 0-2.229 2.325 2.321 2.321 0 0 0 2.315 2.327 2.321 2.321 0 0 0 2.316-2.327c0-1.252-.986-2.28-2.23-2.325h15.976a2.322 2.322 0 0 0-2.23 2.325 2.321 2.321 0 0 0 2.314 2.327 2.321 2.321 0 0 0 2.316-2.327c0-1.252-.985-2.28-2.23-2.325h1.055c.721 0 1.133-.423 1.133-1.142 0-.874-.59-1.14-1.133-1.14H10.957c.315-.57.442-1.013.442-1.203 0-.064-.062-.507-.251-1.267l18.78-2.156c.77-.111 1.072-.623 1.072-1.204v-9.25c0-.816-.543-1.142-1.198-1.142H8.185c-.175-.679-.245-1.295-.45-1.84-.166-.438-.65-.504-.936-.504ZM9.99 7.796l17.84.106c.444.002.81.307.812.689v5.771c.002.518-.406.882-.918.935l-16.107 1.69c-.46.047-.94-.361-1.034-.818L9.15 8.877c-.1-.49.343-1.084.84-1.081Zm.246 17.81c.465-.01.833.36.833.817a.824.824 0 0 1-.822.827.824.824 0 0 1-.822-.827c0-.443.345-.807.81-.817zm16.147 0c.464-.01.832.36.832.817a.824.824 0 0 1-.822.827.824.824 0 0 1-.82-.827c0-.443.346-.807.81-.817z"/></svg><svg viewBox="0 0 32 32" id="sign-in" xmlns="http://www.w3.org/2000/svg"><path d="M19.08 3.5c-.207 0-.476-.027-.476.475v1.593c0 .45.27.485.476.485h6.27c.895 0 1.585.273 2.205.894.62.621.965 1.383.965 2.211v13.684c0 .828-.345 1.59-.965 2.21-.62.622-1.31.895-2.206.895H19.08c-.207 0-.476.034-.476.485v1.593c0 .502.27.475.476.475h6.27c1.584 0 2.892-.55 3.995-1.654A5.538 5.538 0 0 0 31 22.842V9.158c0-1.517-.553-2.9-1.655-4.004C28.242 4.051 26.934 3.5 25.349 3.5Zm-6.893.615c-.342 0-.615.137-.887.41-.205.205-.34.546-.34.887v5.602H2.226c-.34 0-.614.137-.887.341-.272.274-.34.548-.34.89v7.51c0 .342.068.616.34.89.273.204.546.341.887.341h8.732v5.602c0 .341.136.682.34.887.273.273.546.41.888.41.34 0 .614-.137.887-.41l10.573-10.586c.273-.274.409-.547.409-.889 0-.342-.136-.615-.409-.889L13.074 4.525c-.273-.273-.546-.41-.887-.41Z"/></svg><svg viewBox="0 0 32 32" id="sign-out" xmlns="http://www.w3.org/2000/svg"><path d="M12.92 28.5c.207 0 .476.027.476-.475v-1.593c0-.45-.27-.485-.476-.485H6.65c-.895 0-1.585-.273-2.205-.894-.62-.621-.965-1.383-.965-2.211V9.158c0-.828.345-1.59.965-2.21.62-.622 1.31-.895 2.206-.895h6.269c.207 0 .476-.034.476-.485V3.975c0-.502-.27-.475-.476-.475H6.65c-1.584 0-2.892.55-3.995 1.654A5.538 5.538 0 0 0 1 9.158v13.684c0 1.517.553 2.9 1.655 4.004C3.758 27.949 5.066 28.5 6.651 28.5Zm6.21-24.385c-.34 0-.613.137-.886.41-.205.205-.34.546-.34.887v5.602H9.171c-.342 0-.615.137-.887.341-.273.274-.34.548-.34.89v7.51c0 .342.067.616.34.89.272.204.545.341.887.341h8.731v5.602c0 .341.136.682.34.887.274.273.547.41.888.41.34 0 .614-.137.887-.41L30.59 16.889c.273-.274.409-.547.409-.889 0-.342-.136-.615-.409-.889L20.018 4.525c-.273-.273-.546-.41-.887-.41Z"/></svg><svg viewBox="0 0 32 32" id="spinner" xmlns="http://www.w3.org/2000/svg"><path d="M14.455 1C6.917 1.78 1 8.203 1 15.96 1 24.24 7.742 31 16 31s15-6.76 15-15.04C31 8.607 25.684 2.455 18.71 1.17l-.85 4.28a10.627 10.627 0 0 1 8.784 10.511c0 5.92-4.74 10.672-10.644 10.672A10.625 10.625 0 0 1 5.356 15.96c0-5.071 3.48-9.287 8.188-10.39z"/></svg><svg viewBox="0 0 32 32" id="spotify" xmlns="http://www.w3.org/2000/svg"><path d="M16 1C7.716 1 1 7.716 1 16c0 8.284 6.716 15 15 15 8.284 0 15-6.716 15-15 0-8.284-6.716-15-15-15Zm10.576 11.162a1.363 1.363 0 0 1-.005 1.947c-.318.313-.777.46-1.214.388-5.32-2.854-12.542-3.453-17.778-1.924-.486.14-.787.124-1.167-.06-.998-.68-.93-1.496-.357-2.202.2-.195.413-.303.83-.42 4.847-1.563 14.637-1.192 19.691 2.27Zm-2.09 4.894c.29.247.441.658.382 1.036-.07.443-.447.846-.882.945-.453.104-.767-.125-1.117-.276-5.087-2.706-10.291-2.824-14.548-1.635-.346.096-.58.113-.793.057a1.151 1.151 0 0 1-.868-1.104c.097-.76.53-.93 1.049-1.178 5.38-1.58 12.427-.658 16.777 2.155zm-2.077 4.133c.373.22.534.423.587.74.066.392-.162.806-.538.977-.173.08-.524.096-.682.032-4.66-2.769-9.32-2.341-13.125-1.56-.353.076-.556.082-.735.021-.765-.338-.785-1.067-.378-1.5.204-.212.305-.247 1.256-.436 4.52-.966 9.495-.73 13.615 1.726Z"/></svg><svg viewBox="0 0 32 32" id="star" xmlns="http://www.w3.org/2000/svg"><path d="M15.998 1.75a.7.7 0 0 0-.625.389l-4.257 8.593-9.517 1.377a.697.697 0 0 0-.387 1.19l6.886 6.688-1.627 9.445a.7.7 0 0 0 1.016.736L16 25.708l8.51 4.46a.7.7 0 0 0 1.015-.734L23.9 19.989l6.886-6.687a.697.697 0 0 0-.386-1.191l-9.517-1.38-4.256-8.592a.7.7 0 0 0-.629-.389Z"/></svg><svg viewBox="0 0 32 32" id="star-half" xmlns="http://www.w3.org/2000/svg"><path d="M15.824 1.876s-.712-.035-1.082.94l-3.744 7.958-9.406 1.361a.689.689 0 0 0-.382 1.176l6.805 6.61-1.608 9.336c-.098.564.496.923 1.004.657l8.413-4.336c1.703 1.085 5.047 2.888 7.295 4.336 1.44.76 3.284-.657 3.013-2.258v-.002l-1.325-7.758 5.61-5.486c1.17-1.137.47-3.313-1.147-3.548l-7.805-1.138-4.04-6.795c-.66-1.124-1.6-1.053-1.6-1.053Zm.002 3.73 3.815 6.598 7.781 1.136-5.67 5.546 1.206 7.413-7.134-4.333z"/></svg><svg viewBox="0 0 32 32" id="sticky" xmlns="http://www.w3.org/2000/svg"><path d="M14.346 14.263V6.266c-.006-.454-.245-.655-.63-.655-.384 0-.567.259-.567.655v7.997c-.013.416.218.569.567.569s.63-.198.63-.569zM26.35 20.58c0 .8-.49 1.2-1.197 1.2H17.56l-.945 8.716c-.051.423-.373.505-.567.505-.315 0-.504-.19-.567-.505l-1.387-8.716H6.847c-.812 0-1.197-.524-1.197-1.2 0-3.094 1.742-5.747 4.663-5.747V5.61c-1.633 0-2.331-1.03-2.331-2.337C7.982 1.774 9 1 10.313 1h11.47c1.522 0 2.331.97 2.331 2.274 0 1.509-1.074 2.337-2.332 2.337v9.22c2.89 0 4.523 2.373 4.568 5.748z"/></svg><svg viewBox="0 0 32 32" id="tags" xmlns="http://www.w3.org/2000/svg"><path d="M2.985 4c-.551 0-.992.165-1.378.551C1.166 4.993 1 5.436 1 5.988v6.573c0 1.322.155 2.148 1.435 3.424l11.252 11.324c.9.898 1.923.944 2.869 0l7.722-7.788c.92-.918.884-1.936 0-2.818L13.025 5.437C12.031 4.445 11.065 4 9.551 4Zm9.102 0c1.27.156 2.245.265 3.42 1.437l11.309 11.266c.82.819 1.019 1.801 0 2.818l-7.447 7.456c.55.541 1.001.881 1.765.884.552 0 1.048-.165 1.435-.552l7.778-7.788c.845-.844.896-1.923 0-2.818L19.037 5.437C18.178 4.577 16.994 4 15.618 4Zm-6.03 3.014a2.01 2.004 0 0 1 2.009 2.004 2.01 2.004 0 0 1-2.01 2.005 2.01 2.004 0 0 1-2.01-2.005 2.01 2.004 0 0 1 2.01-2.004Z"/></svg><svg viewBox="0 0 32 32" id="telegram" xmlns="http://www.w3.org/2000/svg"><path d="M26.41 27.259c.045-.173 4.123-19.729 4.499-21.523.192-1.08.092-1.698-.405-2.204-.5-.32-1.02.033-1.319.117C20.11 7.109 9.891 11.171 1.58 14.383c-.913.378-.72.996.383 1.459 2.334.722 4.624 1.39 6.716 2.067.403.131.734-.066.848-.14 5.934-2.921 11.714-7.244 14.68-8.935.557-.318.629.207.46.373-3.962 3.91-11.347 10.134-11.615 10.385-.265.247-.027.545.105.65 3.983 2.93 7.103 5.379 10.984 8.093 1.027.59 1.933.176 2.27-1.076z"/></svg><svg viewBox="0 0 32 32" id="thumb" xmlns="http://www.w3.org/2000/svg"><path d="M19.732 1.755c-1.019.158-1.515 1.055-1.847 2.213-.312 1.23-.43 2.957-1.451 4.034-1.362 1.546-2.43 2.958-3.76 4.488-.66.716-1.076 1.072-1.45 1.105-.771 0-1.187.361-1.187 1.171v11.97c0 .83.44 1.074 1.424 1.074 4.242 1.216 5.55 2.44 12.492 2.44 1.65 0 2.904-.455 3.695-1.431.726-.846 1.054-1.951.922-3.382.888-1.126 1.444-2.293 1.057-3.905.659-1.123 1.03-2.564.527-3.968 1.238-1.504 1.032-4.074-.066-5.27-.726-.715-1.583-1.04-2.506-1.04h-5.277c1.05-1.63 1.68-3.15 1.672-5.076.003-2.764-1.486-4.538-4.245-4.423zM2.254 13.595C1.459 13.595 1 14 1 14.833v11.904c0 .803.289 1.17 1.254 1.17h5.408c.735 0 1.188-.382 1.188-1.17V14.833c0-.717-.319-1.238-1.188-1.238zM4.61 23.11a1.276 1.277 0 0 1 1.278 1.277 1.276 1.277 0 0 1-1.278 1.278 1.276 1.277 0 0 1-1.275-1.278A1.276 1.277 0 0 1 4.61 23.11z"/></svg><svg viewBox="0 0 32 32" id="tiktok" xmlns="http://www.w3.org/2000/svg"><path d="M17.114 1v20.875c0 2.608-2.119 4.675-4.72 4.675-2.61 0-4.721-2.042-4.721-4.675 0-2.483 1.82-4.642 5.194-4.642V12.8c-7.355 0-9.574 5.725-9.616 9.058C3.168 26.892 7.315 31 12.344 31c5.02 0 9.1-4.108 9.1-9.142v-11.9c1.654 1.725 3.491 3.25 7.306 3.25v-5.1C23.53 7.633 22.035 4 21.444 1z"/></svg><svg viewBox="0 0 32 32" id="twitter" xmlns="http://www.w3.org/2000/svg"><path d="M31 6.695c-.867 1.205-1.867 2.276-3.067 3.147-.004 1.994.122 3.046-.733 5.756-.855 2.71-2.75 6.326-5.667 8.836-2.916 2.51-6.598 3.789-11.066 3.816-3.467 0-6.6-.937-9.467-2.811 3.785.62 6.945-.901 9.133-2.544-2.755-.191-5.012-1.877-5.8-4.284.968.245 1.91.242 2.8-.134-2.992-.78-4.899-3.395-4.933-6.092.867.469 1.8.737 2.8.737-2.7-2.08-3.24-5.763-1.933-8.234 3.336 3.89 8.028 6.206 12.733 6.493-.62-3.102.265-4.649 1.49-5.897 1.226-1.247 2.777-1.734 4.51-1.734 1.733 0 3.267.67 4.467 1.941A12.2 12.2 0 0 0 30.2 4.22c-.467 1.472-1.4 2.61-2.733 3.414 1.2-.134 2.333-.47 3.533-.938Z"/></svg><svg viewBox="0 0 32 32" id="warning" xmlns="http://www.w3.org/2000/svg"><path d="M15.95 1c-1.653.01-3.29.296-4.213.83-.294.294-.442.588-.368.955l.588 16.093c0 .367.233.955 1.453.955h5.335c.952 0 1.298-.588 1.298-.955l.588-16.093c.074-.367-.074-.661-.368-.955-.991-.573-2.66-.84-4.313-.83ZM16 22.956A4.022 4.022 0 1 0 16 31a4.022 4.022 0 1 0 0-8.044z"/></svg><svg viewBox="0 0 32 32" id="whatsapp" xmlns="http://www.w3.org/2000/svg"><path d="M16.34 1C8.286 1 1.73 7.544 1.73 15.583c0 2.698.742 5.224 2.027 7.394C2.762 25.96 1.05 31 1.05 31l8.28-2.634a14.516 14.516 0 0 0 7.01 1.798c8.055 0 14.61-6.541 14.61-14.58C30.95 7.543 24.395 1 16.34 1zm0 2.4c6.756 0 12.206 5.44 12.206 12.183 0 6.743-5.45 12.184-12.206 12.184a12.18 12.18 0 0 1-6.723-2.01L4.85 27.274s1.065-3.116 1.564-4.595a12.125 12.125 0 0 1-2.278-7.095C4.135 8.84 9.585 3.4 16.34 3.4Zm-5.995 5.474c-.826.652-1.364 1.9-1.432 3.054-.073 3.575 7.018 10.78 11.312 10.993 1.04.051 2.388-.436 3.339-1.765.184-.257.496-1.601.272-1.764-.324-.234-3.184-1.805-3.611-1.9-.427-.094-1.816 1.865-2.044 1.9-1.741-.842-4.514-3.266-5.451-5.021.472-.74 1.264-1.738 1.292-2.052.03-.327-1.344-3.354-1.566-3.591-.237-.252-1.905-.016-2.11.146z"/></svg><svg viewBox="0 0 32 32" id="youtube" xmlns="http://www.w3.org/2000/svg"><path d="M22.425 16c0-.41-.195-.668-.529-.877l-8.572-5.38c-.359-.224-.7-.223-1.116 0-.347.187-.528.468-.528.936v10.642c0 .468.19.734.528.935.438.26.93.101 1.263-.107l8.425-5.272c.334-.209.529-.468.529-.877zm8.573 0c.03 2.566-.229 5.84-.56 7.25-.413 1.765-1.617 2.777-3.198 3.04-2.501.417-6.224.41-11.274.41-5.05 0-8.762-.06-11.274-.41-1.82-.252-2.769-1.507-3.184-3.04C1.173 22.015 1 18.554 1 16c0-2.56.139-5.715.508-7.25.375-1.562 1.602-2.777 3.184-3.04 2.501-.417 6.224-.41 11.274-.41 5.05 0 8.762.06 11.274.41 1.82.252 2.735 1.521 3.199 3.04.49 1.606.528 4.696.559 7.25z"/></svg></svg>