<?xml version="1.0" encoding="UTF-8" standalone="no"?><svg viewBox="0 0 36 36" xmlns="http://www.w3.org/2000/svg" xmlns:xlink="http://www.w3.org/1999/xlink"><style>:root>svg{display:none}:root>svg:target{display:block}</style><svg viewBox="0 0 36 29.369" id="archive" xmlns="http://www.w3.org/2000/svg"><path d="M29.4 6.535V8.19H6.668V6.535c0-.51.191-.828.446-1.147.318-.254.573-.445.828-.509H27.744c.127 0 .318.064.446.064.19 0 .446.19.764.445.255.319.446.637.446 1.146m-4.84-4.902c.128 0 .255 0 .446.063.191 0 .446.128.7.446.319.255.51.637.51 1.146H9.979c0-.51.128-.891.382-1.146.319-.318.573-.446.828-.51h13.372m8.086 6.559c.764.7 1.146 1.146 1.21 1.464.19.383.19 1.02 0 1.783l-2.42 14.645c-.127.51-.318.892-.7 1.146a1.858 1.858 0 0 1-.892.51H6.668c-1.082 0-1.783-.573-1.91-1.656-.127-.573-.573-2.992-1.274-7.259-.7-4.266-1.146-6.749-1.273-7.386-.255-.509-.255-.955-.127-1.464.19-.446.254-.764.318-.828.064-.064.318-.318.7-.637l.319-.318L4.44 7.171v2.61h27.252v-2.61l.955 1.019m-8.087 8.787V13.73h-2.292v2.61H13.8v-2.61H11.57v3.247c0 1.082.51 1.592 1.592 1.592h9.742c.51 0 .891-.128 1.146-.382.318-.255.446-.51.446-.764l.063-.446"/></svg><svg viewBox="0 0 36 18.77" id="arrow" xmlns="http://www.w3.org/2000/svg"><path d="M34 3.616c0 .336-.112.56-.336.783l-14.88 12.993c-.24.208-.56.335-.784.335-.224 0-.56-.111-.783-.335L2.336 4.399C2.097 4.191 2 3.952 2 3.616c0-.224.112-.447.336-.671l1.678-1.678c.112-.112.448-.224.671-.224.336 0 .56.112.784.224L18 12.02 30.531 1.267c.224-.112.448-.224.784-.224.223 0 .56.112.671.224l1.678 1.678c.224.224.336.447.336.671Z"/></svg><svg viewBox="0 0 36 36" id="author" xmlns="http://www.w3.org/2000/svg"><path d="M17.344 2a6.445 6.445 0 1 0 0 12.89 6.445 6.445 0 1 0 0-12.89zm12.801 11.872c-.437 0-.757.119-1.035.397l-1.868 1.909 4.692 4.691L33.842 19c.279-.278.398-.635.398-1.033a1.47 1.47 0 0 0-.398-1.032l-2.664-2.665a1.47 1.47 0 0 0-1.033-.397Zm-12.8 2.963c-6.796 0-12.677 3.873-15.585 9.527a19.719 19.719 0 0 0 31.168 0c-.618-1.2-1.11-1.964-1.975-2.984l-8.822 8.768-6.032-.04-.062-6.333 7.89-7.755c-2.119-.912-4.13-1.183-6.583-1.183zm9.141.058-9.421 9.462v4.691h4.691l9.463-9.423zm.359 1.909c.199 0 .28.117.28.276 0 .08-.043.12-.083.2l-6.16 6.121c-.04.08-.12.08-.2.08-.158 0-.238-.08-.238-.238 0-.08 0-.118.08-.198l6.162-6.162a.3.3 0 0 1 .159-.08zm-7.315 7.115 2.664 2.665-1.035 1.032h-1.191v-1.47h-1.47v-1.192z"/></svg><svg viewBox="0 0 36 33.574" id="bank" xmlns="http://www.w3.org/2000/svg"><path d="M18.03 1.865 34 8.277v2.098h-2.157c0 .292-.116.583-.291.758a1.15 1.15 0 0 1-.816.35H5.322c-.35 0-.582-.117-.816-.35-.233-.175-.35-.466-.35-.758H2V8.277ZM6.312 12.532h4.255v12.765h2.099V12.532h4.255v12.765h2.156V12.532h4.255v12.765h2.157V12.532h4.255v12.765h.99c.292 0 .584.116.817.35.175.174.291.466.291.757v1.05H4.157v-1.05c0-.291.116-.583.35-.757.233-.234.466-.35.815-.35h.991Zm26.521 15.97c.35 0 .583.117.816.35a.83.83 0 0 1 .35.7v2.157H2v-2.157a.83.83 0 0 1 .35-.7 1.15 1.15 0 0 1 .816-.35z"/></svg><svg viewBox="0 0 33.469 36" id="calendar" xmlns="http://www.w3.org/2000/svg"><path d="M9.297 2c-.75 0-1.438.25-2 .813-.563.562-.875 1.25-.875 2.062v1.688h-2.25a2.27 2.27 0 0 0-1.625.687 2.27 2.27 0 0 0-.688 1.625v22.813c0 .625.25 1.187.688 1.625.437.437 1 .687 1.625.687h25.125a2.27 2.27 0 0 0 1.625-.688c.437-.437.687-1 .687-1.624V8.875a2.27 2.27 0 0 0-.687-1.625 2.27 2.27 0 0 0-1.625-.688h-2.25V4.875c0-.813-.313-1.5-.875-2.063-.563-.562-1.25-.812-2-.812h-1.125c-.813 0-1.5.25-2.063.813-.562.562-.812 1.25-.812 2.062v1.688h-6.875V4.875c0-.813-.25-1.5-.813-2.063C11.922 2.25 11.234 2 10.422 2Zm0 2.313h1.125c.187 0 .312 0 .437.125s.188.25.188.437V10c0 .125-.063.313-.188.375a.567.567 0 0 1-.437.188H9.297c-.125 0-.25-.063-.375-.188-.125-.063-.188-.25-.188-.375V4.875c0-.188.063-.313.188-.438s.25-.125.375-.125zm13.75 0h1.125c.125 0 .25 0 .375.125s.187.25.187.437V10c0 .125-.062.313-.187.375-.125.125-.25.188-.375.188h-1.125a.567.567 0 0 1-.438-.188c-.125-.063-.187-.25-.187-.375V4.875c0-.188.062-.313.187-.438s.25-.125.438-.125zM4.172 13.438h5.125v5.124H4.172zm6.25 0h5.75v5.124h-5.75zm6.875 0h5.75v5.124h-5.75zm6.875 0h5.125v5.124h-5.125zm-20 6.25h5.125v5.75H4.172zm6.25 0h5.75v5.75h-5.75zm13.75 0h5.125v5.75h-5.125zm-5.313.62h.012c.256 0 .465.209.465.465v3.446a.463.463 0 0 1-.465.463.463.463 0 0 1-.465-.463v-2.957l-.328.086a.78.78 0 0 1-.166.025.412.412 0 0 1-.408-.404c0-.19.12-.348.31-.403l.606-.177c.177-.05.31-.08.44-.08zm1.225.063h2.322c.263 0 .428.151.428.42 0 .14-.055.312-.135.459l-1.716 3.115c-.123.226-.268.317-.452.317-.25 0-.482-.152-.482-.42a.69.69 0 0 1 .084-.293l1.59-2.785h-1.639a.404.404 0 0 1-.408-.405c0-.226.182-.408.408-.408zM4.172 26.563h5.125v5.125H4.172zm6.25 0h5.75v5.125h-5.75zm6.875 0h5.75v5.125h-5.75zm6.875 0h5.125v5.125h-5.125z"/></svg><svg viewBox="0 0 36 33.425" id="cash" xmlns="http://www.w3.org/2000/svg"><path d="M24.36 1.857a8.14 8.14 0 0 0-1.08.069 7.65 7.65 0 0 0-4.117 2.061c-.754.729-1.245 1.4-1.675 2.29-.368.761-.563 1.384-.746 2.384-.07.386-.075 2.096-.007 2.385.026.11.058.268.072.35l.024.15-5.863.01-5.863.01-.313.09a3.792 3.792 0 0 0-1.62.909c-.583.55-.924 1.166-1.128 2.038C2.012 14.74 2 16.73 2 21.556v6.762l.1.401c.202.82.655 1.518 1.342 2.07.47.38 1.086.636 1.804.755.099.017 5.906.027 12.904.024 13.878-.008 12.686.01 13.365-.21.898-.29 1.705-1.026 2.145-1.958.368-.775.34-.123.34-7.874v-6.833l-.088-.3c-.22-.755-.5-1.243-.997-1.74a4.236 4.236 0 0 0-.548-.46c-.441-.287-.432-.278-.395-.376.018-.05.075-.333.125-.63.126-.75.127-1.873.002-2.626-.094-.567-.084-.53-.323-1.282a7.89 7.89 0 0 0-3.95-4.623c-.826-.412-1.424-.597-2.404-.747a7.603 7.603 0 0 0-1.062-.052Zm.022 1.728c.191-.001.382.007.573.025a5.577 5.577 0 0 1 2.1.605c1.68.835 2.874 2.426 3.277 4.366.112.54.15 1.47.083 2.044-.314 2.7-2.229 4.856-4.811 5.418-.282.062-.557.086-1.062.095a9.955 9.955 0 0 1-.782-.007c-1.125-.198-1.757-.43-2.507-.917-1.63-1.057-2.67-2.838-2.821-4.828-.161-2.118.662-4.115 2.237-5.426a5.874 5.874 0 0 1 3.713-1.375zm-7.014 9.684.18.348c.402.772.851 1.384 1.475 2.006a7.385 7.385 0 0 0 1.892 1.403c2.672 1.403 5.986 1.073 8.296-.826a8.421 8.421 0 0 0 1.963-2.32l.17-.291.166.135c.232.189.52.58.632.856l.094.233v6.753c0 6.582-.002 6.757-.077 6.953-.261.673-.853 1.179-1.523 1.3-.28.05-24.977.052-25.27.002a2.163 2.163 0 0 1-1.09-.587c-.218-.225-.455-.708-.51-1.038-.033-.204-.043-2.009-.034-6.79.011-6.01.017-6.527.08-6.705.123-.347.282-.59.559-.85.287-.272.39-.337.75-.475l.225-.086 6.011-.01zm.627 3.2a5.072 5.072 0 0 0-5.065 5.065 5.072 5.072 0 0 0 5.065 5.065 5.072 5.072 0 0 0 5.066-5.065 5.072 5.072 0 0 0-5.066-5.066zm0 .837a4.222 4.222 0 0 1 4.228 4.228 4.222 4.222 0 0 1-4.228 4.228 4.222 4.222 0 0 1-4.228-4.228 4.222 4.222 0 0 1 4.228-4.228zm-.033.447c-.263-.006-.523.15-.598.41-.031.11-.071.145-.22.199-.524.188-.768.557-1.034.96-.268.612-.205 1.1-.007 1.663.199.564.726.872 1.746 1.161.845.24 1.014.39.97.87-.044.499-.257.695-.75.691-.662-.097-.846-.63-1.163-.797-.318-.168-.563.042-.71.258-.171.252-.077.64.258 1.062.136.172.497.431.75.54.15.064.184.098.184.18.16.494.488.421.712.421.225 0 .392-.222.43-.396.022-.098.059-.13.221-.183.404-.134.83-.49 1.012-.842.204-.376.199-.834.224-1.137-.031-1.139-.979-1.62-1.757-1.83-.522-.137-.962-.333-1.05-.467-.154-.234-.123-.6.07-.83.152-.18.402-.26.743-.235.488.038.47.286.738.563.088.14.38.31.533.31.152 0 .364-.12.478-.27.323-.423-.15-1.295-.885-1.636-.239-.11-.29-.153-.362-.301-.043-.286-.358-.355-.533-.364z"/></svg><svg viewBox="0 0 36 36" id="cash-alt" xmlns="http://www.w3.org/2000/svg"><path d="M18 2C9.178 2 2 9.178 2 18s7.178 16 16 16 16-7.178 16-16S26.822 2 18 2Zm0 2.54c7.449 0 13.46 6.011 13.46 13.46 0 7.449-6.011 13.46-13.46 13.46A13.441 13.441 0 0 1 4.54 18C4.54 10.551 10.55 4.54 18 4.54Zm-.15 2.299c-.867 0-1.565.699-1.565 1.567v1.382c-2.372.586-4.098 2.289-4.098 4.948v.061c0 3.176 2.595 4.245 4.885 4.917 1.802.55 3.39.884 3.39 1.892v.063c0 .732-.612 1.22-1.956 1.22-1.312 0-2.87-.488-4.427-1.465a1.78 1.78 0 0 0-.916-.245 1.798 1.798 0 0 0-1.831 1.832c0 .733.397 1.283.886 1.589a11.627 11.627 0 0 0 4.067 1.649v1.317c0 .943.76 1.702 1.703 1.702.943 0 1.703-.759 1.703-1.702V26.38c2.882-.37 5.492-1.532 5.492-4.954v-.066c0-3.229-3.195-4.335-5.485-5.098-1.771-.611-3.328-1.037-3.328-1.953v-.06c0-.642.58-1.132 1.71-1.132.977 0 2.228.398 3.541 1.04.306.152.52.213.855.213 1.039 0 1.863-.794 1.863-1.832 0-.794-.428-1.405-1.1-1.741-1.12-.56-2.332-.94-3.548-1.124V8.406c0-.868-.698-1.567-1.565-1.567z"/></svg><svg viewBox="0 0 22.717 36" id="cellphone" xmlns="http://www.w3.org/2000/svg"><path d="M3.69 25.114c0 1.232 1.001 2.236 2.238 2.236l10.84.013a2.233 2.233 0 0 0 2.24-2.234l.017-17.03a2.242 2.242 0 0 0-2.234-2.24L5.95 5.85A2.235 2.235 0 0 0 3.71 8.083Zm7.651 7.476a1.925 1.925 0 0 0 .006-3.849 1.922 1.922 0 0 0-1.925 1.92 1.924 1.924 0 0 0 1.92 1.929m2.087-28.126L9.315 4.46l.002.663 4.111.004zM4.939 2l12.87.015a3.648 3.648 0 0 1 3.646 3.652l-.027 24.685A3.651 3.651 0 0 1 17.774 34l-12.868-.014a3.645 3.645 0 0 1-3.644-3.654l.025-24.686A3.65 3.65 0 0 1 4.94 2"/></svg><svg viewBox="0 0 36 27.692" id="check" xmlns="http://www.w3.org/2000/svg"><path d="M34 6.39c0 .506-.145 1.013-.58 1.375L18.508 22.75l-2.824 2.824c-.434.362-.869.579-1.448.579a1.978 1.978 0 0 1-1.375-.58L2.58 15.295c-.435-.434-.58-.869-.58-1.448 0-3.043 1.999-4.778 4.778-4.778.507 0 1.014.217 1.376.58l6.081 6.08 13.611-13.61c.362-.362.869-.58 1.376-.58C32.173 1.538 34 3.584 34 6.39z"/></svg><svg viewBox="0 0 36 36" id="clock" xmlns="http://www.w3.org/2000/svg"><path d="M20.703 10.621v9.352c0 .219-.073.365-.219.511a.663.663 0 0 1-.511.22h-6.649a.663.663 0 0 1-.511-.22c-.073-.146-.146-.292-.146-.511v-1.315c0-.22.073-.366.146-.439a.663.663 0 0 1 .511-.219H18v-7.379c0-.146.073-.292.22-.438.072-.146.218-.22.438-.22h1.315c.219 0 .365.074.511.22.146.146.22.292.22.438zM30.863 18c0-2.258-.58-4.355-1.66-6.29-1.161-1.936-2.738-3.469-4.73-4.598A13.72 13.72 0 0 0 18 5.5a13.72 13.72 0 0 0-6.473 1.613c-1.992 1.13-3.569 2.662-4.73 4.597-1.08 1.936-1.66 4.033-1.66 6.291s.58 4.355 1.66 6.29c1.161 1.936 2.738 3.469 4.73 4.598A13.72 13.72 0 0 0 18 30.5a13.72 13.72 0 0 0 6.473-1.613c1.992-1.13 3.569-2.662 4.73-4.597 1.08-1.936 1.66-4.033 1.66-6.291zM34 18c0 2.922-.658 5.626-2.119 8.037-1.46 2.484-3.36 4.383-5.844 5.844C23.626 33.342 20.922 34 18 34c-2.922 0-5.626-.658-8.037-2.119-2.484-1.46-4.383-3.36-5.844-5.844C2.658 23.626 2 20.922 2 18c0-2.922.658-5.626 2.119-8.037C5.579 7.48 7.479 5.58 9.963 4.12 12.374 2.658 15.078 2 18 2c2.922 0 5.626.658 8.037 2.119 2.484 1.46 4.383 3.36 5.844 5.844C33.342 12.374 34 15.078 34 18Z"/></svg><svg viewBox="0 0 36 30.867" id="cmt" xmlns="http://www.w3.org/2000/svg"><path d="M34 13.152c0 2.063-.687 4-2.125 5.75s-3.375 3.125-5.813 4.125c-2.5 1.063-5.187 1.563-8.062 1.563-.813 0-1.687-.063-2.563-.125-2.375 2.062-4.596 3.378-7.721 4.19-1.025.28-2.434.533-3.206.238-.343-.34-.188-.853.303-1.49 1.563-1.71 2.578-3.381 3.25-5.313-1.876-1.063-3.376-2.375-4.438-3.938C2.562 16.59 2 14.965 2 13.152c0-1.562.437-3 1.25-4.437.875-1.438 2-2.625 3.437-3.625 1.438-1.063 3.126-1.875 5.126-2.438 1.937-.625 4-.937 6.187-.937 2.875 0 5.563.5 8.062 1.562 2.438 1 4.375 2.375 5.813 4.125C33.313 9.152 34 11.09 34 13.152Z"/></svg><svg viewBox="0 0 36 28.293" id="cmts" xmlns="http://www.w3.org/2000/svg"><path d="M14.559 1.608c-1.717 0-3.335.25-4.856.75-1.57.45-2.896 1.1-4.024 1.95A9.42 9.42 0 0 0 2.98 7.21C2.342 8.36 2 9.51 2 10.76c0 1.45.441 2.75 1.275 4.001.834 1.25 2.012 2.301 3.483 3.151-.527 1.547-1.322 2.885-2.55 4.253-.385.51-.507.92-.238 1.193.606.236 1.712.032 2.517-.191 2.453-.65 4.196-1.702 6.06-3.353.687.05 1.374.1 2.012.1 2.256 0 4.366-.402 6.328-1.252 1.913-.8 3.435-1.9 4.563-3.3 1.128-1.4 1.667-2.951 1.667-4.602 0-1.65-.539-3.201-1.667-4.602-1.128-1.4-2.65-2.501-4.563-3.302-1.962-.85-4.072-1.25-6.328-1.25Zm14.433 6.435c2.717 9.553-8.123 14.856-15.995 14.059.85.534 1.544.957 3.135 1.536 1.592.58 3.053.838 5.31.838.637 0 1.324-.05 2.01-.1 2.682 1.708 7.586 2.76 8.117 2.12.314-.376.12-.51-.265-1.02-.875-1-1.535-1.453-2.062-3 1.471-.85 2.649-1.9 3.483-3.15.834-1.251 1.275-2.553 1.275-4.004 0-1.25-.342-2.399-.98-3.55-1.153-2.258-3.627-3.496-4.028-3.729Z"/></svg><svg viewBox="0 0 36 36" id="cog" xmlns="http://www.w3.org/2000/svg"><path d="M23.333 18c0-1.461-.511-2.703-1.534-3.8-1.096-1.022-2.338-1.533-3.799-1.533-1.461 0-2.703.511-3.8 1.534-1.022 1.096-1.533 2.338-1.533 3.799 0 1.461.511 2.703 1.534 3.8 1.096 1.022 2.338 1.533 3.799 1.533 1.461 0 2.703-.511 3.8-1.534 1.022-1.096 1.533-2.338 1.533-3.799ZM34 15.735v4.603c0 .22 0 .365-.146.511-.073.146-.22.22-.438.293l-3.8.584c-.292.73-.584 1.388-.876 1.9.511.657 1.242 1.607 2.265 2.849a.79.79 0 0 1 .219.511c0 .22-.073.366-.22.512-.365.511-1.022 1.242-2.045 2.265-1.023.95-1.68 1.46-1.973 1.46a.79.79 0 0 1-.511-.218l-2.922-2.265c-.585.365-1.242.584-1.9.803-.22 1.9-.438 3.215-.585 3.873-.073.438-.365.584-.73.584h-4.676c-.146 0-.365 0-.511-.146-.146-.146-.22-.292-.22-.438l-.584-3.873c-.658-.219-1.315-.438-1.9-.73l-2.922 2.192a.663.663 0 0 1-.511.219.663.663 0 0 1-.512-.22c-1.753-1.607-2.922-2.776-3.434-3.506-.146-.146-.146-.293-.146-.512 0-.146 0-.292.146-.438.22-.292.585-.804 1.023-1.388.512-.658.877-1.17 1.17-1.534a12.314 12.314 0 0 1-.877-2.046l-3.8-.585c-.219 0-.365-.073-.438-.219C2 20.63 2 20.484 2 20.265v-4.603c0-.22 0-.365.146-.511.073-.146.22-.22.365-.293l3.873-.584c.219-.585.511-1.242.876-1.9a42.058 42.058 0 0 0-2.265-2.849c-.146-.22-.219-.365-.219-.511 0-.146.073-.293.22-.512.365-.511 1.022-1.242 2.045-2.191 1.023-1.023 1.68-1.535 1.973-1.535a.79.79 0 0 1 .511.22l2.922 2.264c.585-.365 1.242-.584 1.9-.803.22-1.9.438-3.215.585-3.873.073-.438.365-.584.73-.584h4.676c.146 0 .365 0 .511.146.146.146.22.292.22.438l.584 3.873c.658.219 1.315.438 1.9.73l2.922-2.192a.663.663 0 0 1 .511-.219c.22 0 .366.073.512.22 1.826 1.68 2.995 2.849 3.434 3.58.146.072.146.219.146.438 0 .146 0 .292-.146.438-.22.292-.585.804-1.023 1.388-.512.658-.877 1.17-1.17 1.534.366.658.658 1.315.877 2.046l3.8.585c.219 0 .365.073.438.219.146.146.146.292.146.511Z"/></svg><svg viewBox="0 0 33 36" id="cookie" xmlns="http://www.w3.org/2000/svg"><path d="M18.083 2.002c-5.138-.074-10.225 2.32-13.38 6.845C-.342 16.087 1.44 26.082 8.68 31.13c7.24 5.048 17.233 3.264 22.28-3.976a1.155 1.155 0 0 0-.338-1.641c-.75-.465-1.56-.88-2.185-1.499-.624-.62-1.095-1.378-1.156-2.787a1.155 1.155 0 0 0-.717-1.02c-1.768-.72-2.776-2.177-2.996-3.728-.22-1.552.324-3.167 1.91-4.32a1.155 1.155 0 0 0 .437-1.228c-.421-1.598.722-3.598 1.335-4.421a1.155 1.155 0 0 0-.265-1.638 15.912 15.912 0 0 0-8.9-2.87Zm-.04 2.297c2.276.034 4.545.703 6.629 1.914-.676 1.132-1.35 2.77-1.107 4.607-1.798 1.622-2.586 3.865-2.285 5.982.302 2.127 1.667 4.074 3.784 5.187.22 1.603.912 2.835 1.745 3.663.477.474.98.839 1.44 1.132-4.515 5.362-12.384 6.54-18.25 2.45a13.678 13.678 0 0 1-3.4-19.066 13.667 13.667 0 0 1 11.443-5.87Zm-.39 2.482a2.176 2.176 0 0 0-2.176 2.176 2.176 2.176 0 0 0 2.176 2.176 2.176 2.176 0 0 0 2.176-2.176 2.176 2.176 0 0 0-2.176-2.176Zm-4.975 6.352a1.794 1.794 0 0 0-1.794 1.793 1.794 1.794 0 0 0 1.794 1.795 1.794 1.794 0 0 0 1.794-1.795 1.794 1.794 0 0 0-1.794-1.793zm-1.819 6.333a2.541 2.541 0 0 0-2.541 2.541 2.541 2.541 0 0 0 2.541 2.541 2.541 2.541 0 0 0 2.541-2.54 2.541 2.541 0 0 0-2.541-2.542zm7.846 4.401a2.31 2.31 0 0 0-2.31 2.31 2.31 2.31 0 0 0 2.31 2.31 2.31 2.31 0 0 0 2.31-2.31 2.31 2.31 0 0 0-2.31-2.31z"/></svg><svg viewBox="0 0 36 23.505" id="credit" xmlns="http://www.w3.org/2000/svg"><path d="M4.3 22.193A2.456 2.456 0 0 1 2.97 21.7a3.02 3.02 0 0 1-.471-.473 2.432 2.432 0 0 1-.49-1.298c-.013-.156-.013-16.182 0-16.346.035-.49.209-.94.515-1.338.088-.113.327-.349.442-.435a2.454 2.454 0 0 1 1.237-.491c.137-.016 27.455-.016 27.592 0 .205.025.408.07.579.132.224.08.51.24.7.39.098.079.326.31.4.404.306.397.48.848.516 1.338.012.163.012 16.178 0 16.341-.036.49-.21.94-.516 1.338a3.498 3.498 0 0 1-.432.428 2.5 2.5 0 0 1-1.235.499c-.055.008-3.035.01-13.737.01-7.517.001-13.714 0-13.771-.008zm26.27-2.212c.163-.034.265-.068.387-.128a1.472 1.472 0 0 0 .794-1.016l.022-.092.003-4.174.003-4.21H4.202l.003 4.21.002 4.174.022.092c.033.14.069.24.128.358.222.446.662.748 1.162.799h12.52c1.823 0 12.474 0 12.531-.014zm-16.858-3.733c-.15-.022-.295-.197-.363-.327a.527.527 0 0 1 .277-.735l.061-.023h3.584l.058.019c.152.048.268.184.328.341.018.05.021.069.021.16 0 .092-.003.111-.021.16-.061.161-.178.345-.34.395-.043.013-.178.014-1.805.015-.967 0-1.777 0-1.8-.009zm5.934 0a.518.518 0 0 1-.35-.217.72.72 0 0 1-.082-.35c0-.076.003-.097.024-.159a.528.528 0 0 1 .324-.342l.059-.02h3.575l.058.02a.544.544 0 0 1 .341.397c.054.253-.09.57-.341.654l-.058.02h-1.763c-.97 0-1.774-.002-1.787 0zm5.91 0c-.205-.034-.368-.264-.41-.466a.398.398 0 0 1 0-.195.544.544 0 0 1 .337-.404l.054-.02h3.583l.059.019a.541.541 0 0 1 .354.502c0 .217-.15.487-.367.554-.042.014-.175.014-1.808.016-.97 0-1.78 0-1.802-.009zm6.252-10.914c-.002-.576-.003-.591-.021-.68A1.47 1.47 0 0 0 30.6 3.493c-.074-.014-8.948-.015-12.6-.015-3.05 0-12.497 0-12.57.015a1.392 1.392 0 0 0-.768.393c-.25.237-.437.502-.437.842l-.004.598-.004.598H31.81z"/></svg><svg viewBox="0 0 36 36" id="cross" xmlns="http://www.w3.org/2000/svg"><path d="M16.984 2c-.822 0-1.484.662-1.484 1.484V15.5H3.484C2.662 15.5 2 16.162 2 16.984v2.032c0 .822.662 1.484 1.484 1.484H15.5v12.016c0 .822.662 1.484 1.484 1.484h2.032c.822 0 1.484-.662 1.484-1.484V20.5h12.016c.822 0 1.484-.662 1.484-1.484v-2.032c0-.822-.662-1.484-1.484-1.484H20.5V3.484C20.5 2.662 19.838 2 19.016 2z"/></svg><svg viewBox="0 0 30.797 36" id="csv" xmlns="http://www.w3.org/2000/svg"><path d="M3.398 2a1.6 1.6 0 0 0-1.187.5c-.375.313-.5.75-.5 1.188v28.625c0 .437.125.874.5 1.187a1.6 1.6 0 0 0 1.187.5h24a1.6 1.6 0 0 0 1.188-.5c.375-.313.5-.75.5-1.188V11.689c0-.438-.063-1-.313-1.563s-.562-1-.875-1.313l-5.562-5.624c-.313-.313-.813-.563-1.375-.813-.563-.25-1.063-.375-1.563-.375Zm.563 2.313h13.75v7.375c0 .5.125.937.5 1.25a1.6 1.6 0 0 0 1.187.5h7.438v18.25H3.96Zm16 .125c.375.125.625.25.75.375l5.562 5.625c.188.124.313.374.438.687h-6.75zM7.035 22.174c-.928 0-1.676.749-1.676 1.681v4.875c0 .933.748 1.684 1.676 1.684h16.727c.928 0 1.675-.751 1.675-1.684v-4.875c0-.932-.747-1.681-1.675-1.681zm8.506 1.416c.636 0 1.263.12 1.78.46.29.193.362.534.267.794a.528.528 0 0 1-.272.304.545.545 0 0 1-.459-.025c-.563-.266-1.085-.418-1.496-.418-.324 0-.537.062-.66.147a.346.346 0 0 0-.168.308c0 .083.03.137.098.197a.98.98 0 0 0 .312.168c.276.1.663.176 1.055.28.392.103.792.235 1.104.47.311.236.529.587.529 1.077 0 .45-.203.864-.588 1.156-.385.292-.947.465-1.672.465-.647 0-1.331-.178-1.828-.678-.262-.263-.31-.587-.184-.815.127-.227.428-.33.743-.193.563.247.863.506 1.421.506.327 0 .546-.056.672-.135.126-.078.168-.166.168-.285a.242.242 0 0 0-.092-.2.903.903 0 0 0-.302-.157c-.268-.093-.645-.155-1.028-.246-.382-.092-.774-.215-1.08-.444-.305-.23-.517-.576-.517-1.07 0-.454.186-.879.556-1.182.371-.303.92-.484 1.641-.484zm-5.365.002c.896 0 1.729.46 2.125.92a.54.54 0 0 1 .13.426.614.614 0 0 1-.193.363.644.644 0 0 1-.83.06c-.236-.176-.42-.32-.597-.416a1.14 1.14 0 0 0-.577-.146c-.872 0-1.47.595-1.47 1.48 0 .886.598 1.48 1.47 1.48.448 0 .802-.283 1.174-.568a.547.547 0 0 1 .416-.093c.142.02.278.08.389.17.11.089.197.208.225.35.027.14-.02.3-.145.427-.438.446-1.22.922-2.123.922-1.588 0-2.793-1.13-2.793-2.688 0-1.546 1.188-2.663 2.764-2.681a.112.112 0 0 1 .035-.004zm8.74.012c.303-.031.653.153.807.582.25.7 1.092 2.532 1.234 2.841.147-.345 1.04-2.441 1.258-2.931.134-.302.414-.482.683-.487a.486.486 0 0 1 .368.147.637.637 0 0 1 .154.447c0 .215-.107.536-.264.945-.156.41-.365.894-.584 1.372-.437.954-.903 1.87-1.05 2.119-.155.26-.39.376-.614.355-.224-.02-.428-.156-.58-.34a1.81 1.81 0 0 1-.17-.275c-.07-.13-.153-.296-.246-.486a41.69 41.69 0 0 1-.625-1.352c-.216-.489-.426-.985-.588-1.396-.162-.412-.277-.725-.303-.903a.548.548 0 0 1 .13-.443.6.6 0 0 1 .39-.193z"/></svg><svg viewBox="0 0 36 28.46" id="discord" xmlns="http://www.w3.org/2000/svg"><path d="M15.766 15.407a3.157 3.542 0 0 1-3.156 3.542 3.157 3.542 0 0 1-3.157-3.542 3.157 3.542 0 0 1 3.157-3.542 3.157 3.542 0 0 1 3.156 3.542zm10.715 0a3.157 3.542 0 0 1-3.156 3.542 3.157 3.542 0 0 1-3.157-3.542 3.157 3.542 0 0 1 3.157-3.542 3.157 3.542 0 0 1 3.156 3.542zM13.461 1.581s-1.738.304-3.45.922c-1.42.512-2.93.96-3.16 1.19-.229.23-2.77 3.137-3.956 8.354-1.166 5.127-.918 10-.752 10.287.166.288.92 1.079 3.395 2.442a33.221 33.221 0 0 0 4.612 2.103l1.898-3.278s-2.137-.93-2.607-1.258c-.273-.192-.082-.578.359-.527.305.275 1.972.889 3.058 1.19 1.668.462 2.99.677 5.14.677 2.149 0 3.454-.251 5.138-.677 1.093-.277 2.753-.915 3.059-1.19.44-.051.631.335.358.527-.47.328-2.606 1.258-2.606 1.258l1.898 3.278s2.137-.74 4.612-2.103c2.475-1.363 3.216-2.132 3.395-2.442.178-.31.413-5.16-.752-10.287-1.186-5.217-3.616-7.944-3.957-8.254-.34-.31-1.74-.778-3.159-1.29-1.712-.618-3.451-.922-3.451-.922l-.652 1.746s-2.068-.152-3.884-.152c-1.815 0-3.883.152-3.883.152z"/></svg><svg viewBox="0 0 36 11.501" id="dots" xmlns="http://www.w3.org/2000/svg"><path d="M5.75 2a3.75 3.75 0 1 0 0 7.5 3.75 3.75 0 0 0 0-7.5zM18 2a3.75 3.75 0 1 0 0 7.501A3.75 3.75 0 1 0 18 2Zm12.25 0a3.75 3.75 0 1 0 .002 7.5A3.75 3.75 0 0 0 30.25 2z"/></svg><svg viewBox="0 0 36 33.202" id="download" xmlns="http://www.w3.org/2000/svg"><path d="M26.605 27.66c0-.336-.134-.605-.336-.874-.269-.202-.538-.336-.874-.336-.336 0-.672.134-.874.336-.269.269-.403.538-.403.874 0 .336.134.605.403.874.202.201.538.336.874.336.336 0 .605-.135.874-.336.202-.27.336-.538.336-.874zm4.908 0c0-.336-.135-.605-.337-.874-.268-.202-.537-.336-.873-.336-.337 0-.606.134-.874.336-.27.269-.337.538-.337.874 0 .336.068.605.337.874.268.201.537.336.874.336.336 0 .605-.135.873-.336.202-.27.337-.538.337-.874zM34 23.357v6.118c0 .538-.202 1.008-.538 1.344-.403.336-.807.538-1.344.538H3.882c-.537 0-.94-.202-1.344-.538A1.877 1.877 0 0 1 2 29.475v-6.118c0-.538.202-.941.538-1.277.403-.404.807-.538 1.344-.538h8.942l2.554 2.555c.74.74 1.614 1.075 2.622 1.075 1.008 0 1.882-.336 2.622-1.075l2.622-2.555h8.874c.537 0 .94.134 1.344.538.336.336.538.74.538 1.277zM27.748 12.4c.202.538.134 1.009-.269 1.345l-8.605 8.605c-.269.269-.538.403-.874.403-.336 0-.605-.134-.874-.403l-8.605-8.605c-.403-.336-.47-.807-.269-1.345.202-.47.605-.74 1.143-.74h4.908V3.056c0-.337.134-.605.403-.874.202-.202.47-.336.807-.336h4.974c.337 0 .605.134.807.336.269.269.403.537.403.874v8.605h4.908c.538 0 .941.269 1.143.74z"/></svg><svg viewBox="0 0 36 36" id="edit" xmlns="http://www.w3.org/2000/svg"><path d="m9.63 31.333 1.926-1.926-4.963-4.963-1.926 1.926v2.223h2.74v2.74zm11.11-19.63c0-.296-.147-.518-.518-.518-.074 0-.222.074-.296.148L8.444 22.815c-.148.148-.148.222-.148.37 0 .296.148.445.445.445.148 0 .296 0 .37-.149l11.482-11.407c.074-.148.148-.222.148-.37zM19.557 7.63l8.814 8.814L10.74 34H2v-8.74zM34 9.63c0 .74-.222 1.407-.74 1.926l-3.556 3.481-8.741-8.74 3.481-3.556C24.963 2.222 25.556 2 26.37 2c.741 0 1.334.222 1.926.74l4.963 4.964c.519.592.741 1.185.741 1.926Z"/></svg><svg viewBox="0 0 33.795 36" id="error" xmlns="http://www.w3.org/2000/svg"><path d="M31.357 21.875c.456.391.651.717.521 1.108-.065.39-.39.65-.912.781l-2.605.717c-.521.13-.977.456-1.303.977-.39.456-.52.977-.456 1.563l.13 2.735c0 .521-.13.912-.52 1.173-.326.195-.782.195-1.238 0l-2.866-1.498c-.52-.26-1.042-.326-1.563-.13-.586.195-.977.52-1.172.976l-1.564 2.931c-.26.521-.586.782-.911.782-.391.065-.782-.195-1.108-.586l-1.693-2.605c-.782-1.108-1.759-1.303-2.931-.717l-3.364 1.426c-.702.44-1.14.527-1.492.264-.263-.176-.35-.702-.087-1.404l1.556-4.259a1.725 1.725 0 0 0-.13-1.498c-.26-.39-.717-.651-1.238-.717l-3.517-.39c-.52-.065-.847-.26-.977-.587-.13-.325.065-.65.521-1.042l2.866-2.54c.456-.325.651-.781.651-1.368 0-.52-.195-.977-.651-1.367l-2.866-2.475c-.456-.391-.651-.782-.52-1.108.064-.39.39-.651.911-.781l2.605-.717c.521-.13.977-.456 1.368-.977.39-.456.521-.977.521-1.563l-.195-2.735c0-.587.13-.977.456-1.238.325-.195.781-.195 1.237 0l2.67 1.303c.522.195 1.108.26 1.629.065.586-.196.977-.521 1.237-1.042l1.564-2.67c.26-.457.586-.717.977-.652.39 0 .716.26.977.781l1.693 2.866c.26.456.651.782 1.172.912.522.196.977.13 1.499-.195l3.857-1.732c.602-.43 1.46-.364 1.717-.107.258.172.228.95-.03 1.638l-2.027 3.913c-.196.521-.196.977.065 1.368.26.456.716.651 1.302.717l3.778.39c.586.066.912.196.977.521.13.326-.065.652-.52 1.043L28.49 16.6c-.39.39-.586.846-.586 1.367 0 .587.195 1.043.586 1.368l2.866 2.54m-12.766 3.062v-3.452h-3.387v3.452h3.387m0-5.276v-8.728h-3.387v8.728h3.387"/></svg><svg viewBox="0 0 36 36" id="facebook" xmlns="http://www.w3.org/2000/svg"><path d="M5.813 2A3.805 3.805 0 0 0 2 5.813v24.374C2 32.3 3.7 34 5.813 34h9.503V23.046h-4.591v-5.092h4.591v-3.877c0-4.355 2.59-6.81 6.402-6.81 2.056 0 4.09.391 4.09.391v4.294s-1.362.03-2.291.03c-2.143 0-2.89 1.305-2.89 2.728v3.244H25.6l-.772 5.092h-4.2V34h9.56C32.3 34 34 32.3 34 30.187V5.813C34 3.7 32.3 2 30.187 2Z"/></svg><svg viewBox="0 0 36 35.111" id="github" xmlns="http://www.w3.org/2000/svg"><path d="M18 1.95c-8.835 0-16 7.164-16 16 0 7.07 4.584 13.067 10.941 15.183.8.148 1.094-.347 1.094-.77 0-.381-.014-1.642-.021-2.979-4.452.968-5.39-1.888-5.39-1.888-.729-1.85-1.778-2.342-1.778-2.342-1.452-.993.11-.973.11-.973 1.606.113 2.452 1.65 2.452 1.65 1.427 2.447 3.743 1.74 4.656 1.33.144-1.033.558-1.74 1.016-2.14-3.554-.404-7.289-1.775-7.289-7.906 0-1.747.625-3.174 1.648-4.295-.166-.403-.714-2.03.155-4.234 0 0 1.345-.43 4.402 1.64A15.341 15.341 0 0 1 18 9.687a15.4 15.4 0 0 1 4.008.54c3.054-2.07 4.396-1.641 4.396-1.641.871 2.204.323 3.831.157 4.234 1.025 1.12 1.646 2.548 1.646 4.295 0 6.146-3.742 7.498-7.305 7.894.574.497 1.084 1.47 1.084 2.963 0 2.141-.017 3.864-.017 4.391 0 .426.286.924 1.097.768C29.421 31.013 34 25.018 34 17.95c0-8.837-7.164-16-16-16zM7.77 24.653c-.06.005-.108.032-.127.078-.038.08.026.19.142.242.114.055.24.031.276-.048.04-.08-.027-.19-.143-.243a.292.292 0 0 0-.148-.029zm.644.55a.15.15 0 0 0-.08.038c-.077.072-.058.22.047.332.1.112.252.145.328.074.08-.072.058-.22-.047-.334-.075-.08-.17-.12-.248-.11zm.654.817a.159.159 0 0 0-.084.03c-.1.068-.101.238-.004.38.1.142.262.206.36.137.1-.07.1-.24.001-.385-.075-.105-.182-.167-.273-.162zm.766.91a.188.188 0 0 0-.133.059c-.087.097-.048.28.092.408.137.132.322.157.41.06.093-.095.051-.279-.088-.408a.4.4 0 0 0-.281-.119zm1.133.696c-.115.008-.209.063-.235.15-.036.127.083.273.264.328.181.053.362-.004.4-.129.038-.127-.08-.273-.261-.328a.468.468 0 0 0-.168-.021zm2.644.054a.536.536 0 0 0-.07.008c-.186.035-.32.167-.297.3.024.127.195.205.381.171.189-.035.322-.166.299-.295-.021-.114-.153-.189-.313-.183zm-1.252.157c-.19.004-.341.113-.341.246.002.13.156.236.347.232.19-.003.344-.112.34-.244 0-.13-.155-.238-.346-.234z"/></svg><svg viewBox="0 0 35.269 36" id="google" xmlns="http://www.w3.org/2000/svg"><path d="M1.96 18c0 8.836 7.403 16 15.686 16 9.594 0 15.664-6.611 15.664-16 0-.767-.056-1.54-.166-2.3-5.094-.007-10.169 0-15.274 0v5.442h9.267c-1.162 4.776-4.992 6.986-9.375 6.986-5.167 0-9.757-4.534-9.757-10.128 0-5.295 4.768-10.064 9.64-10.063 3.387 0 4.864.842 6.716 2.483l4.214-4.105A15.878 15.878 0 0 0 17.645 2C8.716 2 1.96 9.673 1.96 18Z"/></svg><svg viewBox="0 0 36 30.797" id="heart" xmlns="http://www.w3.org/2000/svg"><path d="M10.563 1.71c-2.688 0-4.813.688-6.313 2.188-1.5 1.5-2.25 3.5-2.25 6.125 0 .813.125 1.625.438 2.5.25.813.562 1.563.937 2.125.375.625.75 1.188 1.188 1.75.5.563.812.938 1 1.188.25.187.375.375.5.437l11.125 10.75c.25.25.5.313.812.313.313 0 .563-.063.813-.313l11.125-10.687C32.624 15.336 34 12.648 34 10.023c0-2.625-.75-4.625-2.25-6.125s-3.625-2.187-6.313-2.187c-.687 0-1.437.125-2.25.375-.75.25-1.437.562-2.125 1-.687.437-1.25.875-1.687 1.25-.5.375-.938.75-1.375 1.187a12.498 12.498 0 0 0-1.375-1.187c-.438-.375-1-.813-1.688-1.25a9.404 9.404 0 0 0-2.124-1c-.813-.25-1.563-.375-2.25-.375zM8.823 12.097c.347.015.699.172.975.466l8.242 8.792c.552.589.586 1.5.076 2.044l-.031.036c-.51.543-1.364.505-1.916-.084l-8.242-8.791c-.553-.59-.588-1.502-.078-2.045l.033-.035c.255-.272.595-.398.941-.383z"/></svg><svg viewBox="0 0 36 36" id="help" xmlns="http://www.w3.org/2000/svg"><path d="M18 2c2.188 0 4.25.438 6.188 1.25 2 .875 3.687 2 5.125 3.438 1.437 1.437 2.562 3.125 3.437 5.125.813 1.937 1.25 4 1.25 6.187 0 2.188-.438 4.25-1.25 6.188-.875 2-2 3.687-3.438 5.125-1.437 1.437-3.125 2.562-5.125 3.437-1.937.813-4 1.25-6.187 1.25-2.188 0-4.25-.438-6.187-1.25-2-.875-3.688-2-5.126-3.438-1.437-1.437-2.562-3.125-3.437-5.125C2.437 22.25 2 20.188 2 18c0-2.188.438-4.25 1.25-6.187.875-2 2-3.688 3.438-5.126C8.124 5.25 9.813 4.126 11.813 3.25 13.75 2.437 15.813 2 18 2Zm0 2.313c-2.25 0-4.438.5-6.438 1.562L15 9.375c1-.375 2-.5 3-.5s2 .125 3 .5l3.438-3.5c-2-1.063-4.188-1.563-6.438-1.563ZM5.875 24.438 9.375 21c-.375-1-.5-2-.5-3s.125-2 .5-3l-3.5-3.437c-1.063 2-1.563 4.187-1.563 6.437s.5 4.438 1.563 6.438zM18 31.688c2.25 0 4.438-.5 6.438-1.563L21 26.625c-1 .375-2 .5-3 .5s-2-.125-3-.5l-3.437 3.5c2 1.063 4.187 1.563 6.437 1.563Zm0-6.813c1.875 0 3.5-.688 4.875-2 1.313-1.375 2-3 2-4.875s-.688-3.5-2-4.875c-1.375-1.312-3-2-4.875-2s-3.5.688-4.875 2c-1.312 1.375-2 3-2 4.875s.688 3.5 2 4.875c1.375 1.313 3 2 4.875 2zM26.625 21l3.5 3.438c1.063-2 1.563-4.188 1.563-6.438s-.5-4.438-1.563-6.438L26.625 15c.375 1 .5 2 .5 3s-.125 2-.5 3z"/></svg><svg viewBox="0 0 35.492 36" id="home" xmlns="http://www.w3.org/2000/svg"><path d="M17.745 2c-1.22 0-1.607.502-2.368 1.172-.207.183-10.217 10.384-11.38 11.547-.457.456-1.813 2.039-2.034 2.864-.221.825-.078 1.877 1.082 2.188 1.16.31 1.823.246 2.88.246v10.666c0 1.74.06 3.317 2.54 3.317 2.46 0 3.14-.014 6.291 0 .005-3.698.012-6.863.018-10.56 0-.599-.138-1.425.836-1.425h4.272c.973 0 .836.826.836 1.424L20.736 34c3.15-.014 3.831 0 6.29 0 2.48 0 2.54-1.577 2.54-3.317V20.017c1.055 0 1.721.065 2.88-.246 1.16-.31 1.304-1.363 1.083-2.188-.221-.825-1.58-2.408-2.035-2.864-1.164-1.163-11.172-11.364-11.38-11.547-.76-.67-1.148-1.172-2.37-1.172Z"/></svg><svg viewBox="0 0 19.299 36" id="info" xmlns="http://www.w3.org/2000/svg"><path d="M9.605 1.936a4.403 4.403 0 0 0-4.369 4.402A4.403 4.403 0 0 0 9.64 10.74a4.403 4.403 0 0 0 4.402-4.402 4.403 4.403 0 0 0-4.402-4.402 4.403 4.403 0 0 0-.034 0zM3.838 13.62c-.398 0-.717.16-1.035.399-.97.97-1.041 3.974 0 5.015.318.239.637.399 1.035.399H5.27v8.755H3.838c-.398 0-.717.16-1.035.399-1.112 1.112-1.042 3.892 0 4.933.318.319.637.479 1.035.479H15.46c.398 0 .715-.16 1.033-.479 1.06-1.059 1.097-3.836 0-4.933-.318-.239-.635-.399-1.033-.399h-1.434V15.055c0-.398-.16-.717-.478-1.035a1.318 1.318 0 0 0-.955-.399H3.838z"/></svg><svg viewBox="0 0 36 36" id="instagram" xmlns="http://www.w3.org/2000/svg"><path d="M30.42 29.032V15.516h-2.85c.293.877.44 1.826.44 2.776 0 1.754-.44 3.361-1.316 4.822-.95 1.461-2.119 2.63-3.653 3.507-1.534.877-3.215 1.315-5.041 1.315-2.703 0-5.041-.95-7.014-2.85-1.972-1.899-2.922-4.164-2.922-6.794 0-.95.146-1.9.438-2.776H5.507v13.516c0 .365.146.73.365.95.292.219.585.365.95.365h22.283c.365 0 .658-.146.95-.365.219-.22.365-.585.365-.95zm-5.918-11.105c0-1.68-.657-3.215-1.9-4.384-1.314-1.242-2.776-1.826-4.602-1.826-1.753 0-3.288.584-4.53 1.826a5.917 5.917 0 0 0-1.9 4.384c0 1.753.658 3.215 1.9 4.457 1.242 1.169 2.777 1.826 4.53 1.826 1.826 0 3.288-.657 4.603-1.826 1.242-1.242 1.9-2.704 1.9-4.457zm5.918-7.525V6.968c0-.365-.146-.73-.438-1.023-.293-.292-.585-.438-1.023-.438h-3.653c-.365 0-.73.146-1.023.438-.292.292-.365.658-.365 1.023v3.434c0 .438.073.73.365 1.023.292.292.658.438 1.023.438h3.653c.438 0 .73-.146 1.023-.438.292-.293.438-.585.438-1.023zM34 6.092v23.817c0 1.169-.365 2.118-1.169 2.922-.804.804-1.753 1.169-2.922 1.169H6.09c-1.169 0-2.118-.365-2.922-1.169C2.365 32.027 2 31.078 2 29.909V6.09c0-1.169.365-2.118 1.169-2.922C3.973 2.365 4.922 2 6.091 2H29.91c1.169 0 2.118.365 2.922 1.169C33.635 3.973 34 4.922 34 6.09Z"/></svg><svg viewBox="0 0 36 35.469" id="language" xmlns="http://www.w3.org/2000/svg"><path d="M4.931 1.97C3.054 1.97 2 3.15 2 4.744V33.5s6.303-5.845 6.875-6.416c.718-.718 1.193-.59 2.12-.59h7.604v.001h11.459c1.423 0 2.536-.512 3.17-1.317.632-.804.772-1.748.772-2.524V5.396c0-.914-.313-1.81-.963-2.45-.65-.639-1.59-.974-2.635-.974H14.223v-.001zm10.235 2.05h15.236c.632 0 .98.173 1.198.387.217.214.352.516.352.989v17.257c0 .51-.112.977-.334 1.259-.222.282-.569.534-1.56.534h-9.854Zm9.095 4.107V9.74h-4.225v2.048h6.628c-.436.79-1.022 1.59-1.665 2.334-.927-1.008-1.323-1.706-1.323-1.706l-1.778 1.018s.532.902 1.696 2.15c-1.426 1.357-2.69 2.26-2.69 2.26l1.18 1.674s1.419-1.01 2.993-2.518c.97.848 2.151 1.747 3.632 2.594l1.016-1.78a20.707 20.707 0 0 1-3.229-2.27c.983-1.101 1.895-2.37 2.45-3.756h1.598V9.74H26.31V8.127Zm-15.073.475h1.773c1.656 2.866 3.477 7.31 3.477 10.852H12.39c0-.482-.054-1.012-.131-1.56H7.89c-.077.548-.13 1.078-.13 1.56H5.713c0-3.502 1.82-7.986 3.475-10.852zm.887 2.266a30.274 30.274 0 0 0-1.771 4.979h3.542a30.287 30.287 0 0 0-1.771-4.98z"/></svg><svg viewBox="0 0 36 36" id="link" xmlns="http://www.w3.org/2000/svg"><path d="M17.186 33.978A16.029 16.029 0 0 1 5.033 27.37 16.012 16.012 0 0 1 2.03 17.033C2.342 12.036 4.898 7.56 9.053 4.73 13.73 1.547 19.918 1.112 25.009 3.61a15.462 15.462 0 0 1 4.16 2.938 15.339 15.339 0 0 1 1.884 2.19c2.458 3.462 3.426 7.7 2.724 11.928-.722 4.354-3.267 8.251-6.994 10.708a16.094 16.094 0 0 1-9.597 2.604zm-4.132-5.474c.382-.066.889-.23 1.217-.395.68-.341.753-.407 3.293-2.943l2.415-2.41-.249.09a3.817 3.817 0 0 1-1.283.208c-.47 0-.844-.067-1.305-.234l-.32-.115-1.553 1.546c-1.662 1.654-1.75 1.727-2.31 1.923-.273.096-.348.106-.792.104-.43-.002-.525-.014-.768-.1a2.381 2.381 0 0 1-.969-.614c-.3-.3-.47-.569-.614-.969-.088-.244-.1-.333-.1-.767-.002-.442.009-.52.104-.793.205-.583.205-.582 2.91-3.297 1.393-1.398 2.637-2.617 2.765-2.709.47-.338.926-.486 1.485-.482.692.004 1.209.228 1.803.78.441.41.608.494.972.495.45 0 .847-.247 1.047-.653.124-.25.121-.744-.004-.985-.21-.404-1.167-1.188-1.8-1.477-.714-.325-1.197-.427-2.018-.428-.679-.002-.945.037-1.49.213-.7.227-1.216.536-1.832 1.096-.804.731-5.08 5.063-5.32 5.388a5.188 5.188 0 0 0-.88 2.094c-.058.352-.055 1.176.006 1.532a4.811 4.811 0 0 0 3.675 3.868c.626.14 1.242.15 1.915.034zm6.72-6.83c.996-.16 1.76-.537 2.567-1.27.386-.349 5.032-5.032 5.218-5.258.649-.791 1.019-1.847 1.024-2.926.004-.8-.131-1.41-.467-2.108-.66-1.37-1.854-2.296-3.369-2.615a5.176 5.176 0 0 0-1.867 0c-.685.144-1.2.365-1.804.772-.277.188-.774.663-2.708 2.588a230.918 230.918 0 0 0-2.36 2.367c.006.004.154-.04.33-.1.789-.263 1.71-.254 2.45.026.138.052.28.104.319.116.053.016.425-.334 1.604-1.508.939-.935 1.616-1.58 1.743-1.66.787-.49 1.659-.539 2.485-.139.641.31 1.153.966 1.312 1.68a2.617 2.617 0 0 1-.291 1.82c-.092.158-.83.921-2.787 2.88-2.57 2.57-2.673 2.67-2.965 2.818a2.323 2.323 0 0 1-1.151.286c-.448.003-.682-.051-1.119-.26-.278-.133-.415-.231-.71-.51-.44-.414-.615-.503-.984-.503-.357 0-.603.11-.85.38a1.107 1.107 0 0 0-.191 1.232c.251.52 1.236 1.289 2.054 1.605.848.328 1.676.423 2.517.288z"/></svg><svg viewBox="0 0 36 34.521" id="linkedin" xmlns="http://www.w3.org/2000/svg"><path d="M9.233 11.927v20.676H2.365V11.927Zm.438-6.43c0 1.024-.292 1.9-1.023 2.558-.73.657-1.68 1.023-2.849 1.023-1.169 0-2.119-.366-2.776-1.023C2.293 7.397 2 6.52 2 5.498s.292-1.9 1.023-2.557c.73-.658 1.68-1.023 2.85-1.023 1.168 0 2.045.365 2.775 1.023.658.657 1.023 1.534 1.023 2.557zM34 20.695v11.909h-6.868V21.498c0-1.461-.219-2.557-.803-3.434-.585-.804-1.461-1.242-2.63-1.242a3.59 3.59 0 0 0-2.192.73 4.221 4.221 0 0 0-1.388 1.827c-.146.365-.22.95-.22 1.68v11.544h-6.867c.073-5.553.073-10.082.073-13.516v-6.21l-.073-.95H19.9v2.995c.292-.438.511-.876.803-1.169.292-.365.73-.73 1.242-1.095.439-.366 1.096-.731 1.754-.95.73-.22 1.534-.292 2.41-.292 2.412 0 4.311.803 5.772 2.337C33.342 15.361 34 17.7 34 20.694Z"/></svg><svg viewBox="0 0 26 36" id="location" xmlns="http://www.w3.org/2000/svg"><path d="M18.333 12.766c0-1.474-.511-2.802-1.534-3.834C15.703 7.899 14.461 7.383 13 7.383c-1.461 0-2.703.516-3.8 1.549-1.022 1.032-1.533 2.36-1.533 3.834 0 1.475.511 2.729 1.534 3.835 1.096 1.032 2.338 1.549 3.799 1.549 1.461 0 2.703-.517 3.8-1.549 1.022-1.106 1.533-2.36 1.533-3.835zm5.334 0c0 1.549-.22 2.803-.658 3.761l-7.952 16.236c-.187.37-.499.68-.873.928-.374.247-.748.309-1.184.309-.436 0-.81-.062-1.184-.31-.374-.247-.686-.556-.873-.927L2.99 16.527c-.438-.958-.658-2.212-.658-3.76 0-3.024 1.023-5.531 3.142-7.67C7.52 3.032 10.078 2 13 2c2.922 0 5.48 1.032 7.525 3.097 2.119 2.139 3.142 4.646 3.142 7.67z"/></svg><svg viewBox="0 0 36 36" id="lock" xmlns="http://www.w3.org/2000/svg"><path d="M17.999 2c-2.786 0-5.174.955-7.164 2.945-1.99 1.99-3.023 4.458-3.023 7.244v4.3h-.717c-.637 0-1.114.238-1.592.636-.398.478-.637.955-.637 1.592V31.77c0 .637.239 1.194.637 1.592.478.398.955.637 1.592.637h21.81c.637 0 1.114-.239 1.592-.637.398-.398.637-.955.637-1.592V18.717c0-.637-.239-1.114-.637-1.592-.478-.398-.955-.637-1.592-.637h-.717V12.19c0-2.786-1.035-5.254-3.025-7.244C23.173 2.955 20.785 2 18 2Zm0 4.299c1.592 0 2.947.635 4.14 1.75 1.115 1.114 1.673 2.469 1.673 4.14v4.3H12.188v-4.3c0-1.671.558-3.026 1.672-4.14 1.194-1.115 2.547-1.75 4.139-1.75zm-8.294 12.46c.772 0 1.394.714 1.394 1.277v10.471c0 .563-.622 1.276-1.394 1.276-.771 0-1.391-.713-1.391-1.276V20.036c0-.563.62-1.276 1.391-1.276z"/></svg><svg viewBox="0 0 36 36" id="login" xmlns="http://www.w3.org/2000/svg"><path d="M18 2C9.163 2 2 9.163 2 18c0 3.692 1.263 7.082 3.363 9.79l-.008.013c.064.082.133.158.198.238a16.05 16.05 0 0 0 1.074 1.209c.065.066.134.128.201.193.287.28.583.55.889.807.05.042.098.086.148.127a15.989 15.989 0 0 0 1.342.982c.343.226.694.442 1.053.641.106.059.214.113.322.17.334.175.672.337 1.018.488.113.05.226.1.341.147.343.14.693.266 1.045.382.14.046.278.093.418.135a15.974 15.974 0 0 0 1.565.383c.43.083.864.152 1.302.2.089.009.178.013.266.02.484.045.972.075 1.463.075.491 0 .979-.03 1.463-.074.088-.008.177-.012.266-.022a15.963 15.963 0 0 0 1.68-.275c.4-.087.795-.19 1.187-.307.14-.042.279-.089.418-.134.352-.117.702-.243 1.045-.383.115-.047.228-.097.341-.147.346-.15.684-.313 1.018-.488.108-.057.216-.111.322-.17a16.014 16.014 0 0 0 1.356-.844c.355-.246.703-.504 1.039-.779.05-.041.098-.085.148-.127.306-.257.602-.526.889-.807.067-.065.136-.127.201-.193a16.016 16.016 0 0 0 1.074-1.209c.065-.08.134-.156.198-.238l-.008-.014A15.913 15.913 0 0 0 34 18c0-8.837-7.163-16-16-16zm-.14 1.78a14.22 14.22 0 0 1 .14 0A14.22 14.22 0 0 1 32.22 18a14.22 14.22 0 0 1-2.57 8.154c-2.569-3.675-6.825-6.082-11.65-6.082S8.919 22.48 6.35 26.154A14.22 14.22 0 0 1 3.78 18 14.22 14.22 0 0 1 17.86 3.78ZM18 8.034a5.23 5.23 0 1 0 0 10.46 5.23 5.23 0 1 0 0-10.459z"/></svg><svg viewBox="0 0 36 36" id="logout" xmlns="http://www.w3.org/2000/svg"><path d="M16.958 2c-.863 0-1.559.696-1.559 1.559v15.247c0 .863.696 1.56 1.559 1.56h2.039c.863 0 1.557-.697 1.557-1.56V3.56c0-.863-.694-1.559-1.557-1.559zm9.274 3.36c-1.833-.127-3.056 3.235-1.744 4.207 2.76 1.945 4.622 4.792 4.622 8.765 0 6.136-4.974 11.11-11.11 11.11-6.136 0-11.11-4.974-11.11-11.11 0-3.973 2.093-7.324 4.7-8.898 1.518-.869-.576-5.177-2.671-3.803-3.845 2.767-6.586 7.04-6.587 12.701C2.332 26.985 9.347 34 18 34c8.653 0 15.667-7.015 15.668-15.668 0-5.61-3.14-10.527-6.62-12.687a1.749 1.749 0 0 0-.816-.285Z"/></svg><svg viewBox="0 0 36 28.208" id="mail" xmlns="http://www.w3.org/2000/svg"><path d="M2 4.816c0-3.128 1.505-3.25 3.968-3.249h24.07c2.638 0 3.962.101 3.962 3.25 0 0-13.545 10.239-15.997 10.239S2 4.816 2 4.816Zm0 2.386v14.844l9.939-7.895zm11.86 8.104L2 24.252c0 2.318 2.021 2.39 3.572 2.389H30.39c1.55 0 3.61-.094 3.61-2.39l-11.76-8.945s-3.018 1.984-4.237 1.984c-1.219 0-3.354-1.599-4.143-1.984zm10.303-1.155L34 22.046V7.202c-3.862 2.648-5.978 4.3-9.837 6.95z"/></svg><svg viewBox="0 0 36 36" id="mail-alt" xmlns="http://www.w3.org/2000/svg"><path d="M18 2C9.178 2 2 9.178 2 18s7.178 16 16 16c3.715 0 7.282-1.334 10-3.466-.46.059-2.168-.03-2.816-.215-.649-.185-1.607-.744-2.127-1.08-1.768.947-2.906 1.165-5.057 1.165-6.957 0-12.404-5.447-12.404-12.404S11.043 5.596 18 5.596 30.404 11.043 30.404 18c0 2.513-.162 4.245-.874 5.553-.712 1.308-1.601 1.895-2.359 1.907-1.056 0-1.797-1.226-2.08-1.76-.274-1.04-.296-4.816-.296-7.356s-.175-3.998-1.418-5.24c-1.243-1.244-2.53-1.727-4.984-1.727s-4.13.34-5.278.77c-1.43.693-.664 3.2 1.149 2.775 1.242-.124 2.56-.644 4.914-.436 2.353.208 2.299 1.364 2.345 3.382-1.211-.414-2.668-.454-4.389-.454-4.047 0-6.84 2.153-6.84 5.997s3.664 5.731 6.177 5.79c2.358 0 4.34-1.284 5.52-2.59.762 4.458 5.78 5.684 8.87 2.8C33.61 24.881 33.945 20.954 34 18c0-8.822-7.178-16-16-16Zm-.705 16.135c1.982 0 3.292.52 3.292 2.605 0 2.134-1.594 3.171-3.782 3.171-1.863 0-2.973-.902-2.973-2.834 0-2.212 2.158-2.912 3.463-2.942z"/></svg><svg viewBox="0 0 30.797 36" id="pdf" xmlns="http://www.w3.org/2000/svg"><path d="M27.898 8.813c.313.312.625.75.875 1.312.25.563.313 1.125.313 1.563v20.625c0 .437-.125.874-.5 1.187a1.6 1.6 0 0 1-1.188.5h-24a1.6 1.6 0 0 1-1.187-.5c-.375-.313-.5-.75-.5-1.188V3.689c0-.438.125-.876.5-1.188A1.6 1.6 0 0 1 3.398 2h16c.5 0 1 .125 1.563.375.562.25 1.062.5 1.375.813zm-7.937-4.376v6.688h6.75c-.125-.313-.25-.563-.438-.688l-5.562-5.624c-.125-.125-.375-.25-.75-.375zm6.875 27.25v-18.25h-7.438a1.6 1.6 0 0 1-1.187-.5c-.375-.312-.5-.75-.5-1.25V4.314H3.96v27.375zm-9.188-10.562c.375.313.875.625 1.5 1 .688-.063 1.375-.125 2.063-.125 1.75 0 2.812.313 3.187.875.188.25.188.563.063.938h-.063v.062c-.062.5-.5.688-1.312.688-.563 0-1.25-.125-2-.375a8.553 8.553 0 0 1-2.375-.938c-2.625.313-4.938.813-7 1.5-1.813 3.125-3.25 4.688-4.313 4.688-.187 0-.312-.063-.5-.125l-.437-.25L6.398 29c-.125-.125-.187-.313-.125-.625.125-.5.438-1.063 1-1.625.563-.625 1.375-1.188 2.375-1.75.125-.125.313-.063.375.125.063 0 .063 0 .063.063.625-1 1.25-2.188 1.875-3.5.812-1.625 1.437-3.188 1.875-4.688-.25-1-.438-1.938-.563-2.875-.062-.938 0-1.688.125-2.25.125-.5.375-.75.75-.75h.438c.25 0 .437.125.625.313.187.25.25.624.125 1.187 0 .063-.063.125-.063.125v.688c0 1.5-.062 2.624-.25 3.437.688 1.938 1.563 3.375 2.625 4.25zM7.336 28.438c.625-.25 1.437-1.188 2.5-2.813-.625.5-1.125 1-1.563 1.5-.437.563-.75 1-.937 1.313zm7.125-16.375c-.188.5-.188 1.25 0 2.312 0-.063 0-.313.125-.75 0-.063 0-.313.125-.813 0 0 0-.062.062-.124h-.062v-.063c0-.25-.063-.5-.25-.688V12zm-2.188 11.75a25.082 25.082 0 0 1 5.063-1.438c-.063 0-.125-.063-.25-.125l-.25-.25c-.938-.813-1.688-1.875-2.313-3.188-.312 1.063-.812 2.25-1.437 3.563-.375.625-.625 1.125-.813 1.438zm11.5-.25c-.25-.313-1.125-.438-2.5-.438.938.313 1.688.5 2.25.5h.313s0-.063-.063-.063z"/></svg><svg viewBox="0 0 36 36" id="phone" xmlns="http://www.w3.org/2000/svg"><path d="M34 27.234c0 .398-.08.955-.239 1.592a9.892 9.892 0 0 1-.477 1.592c-.319.796-1.194 1.592-2.786 2.388-1.354.796-2.787 1.194-4.22 1.194-.397 0-.795 0-1.193-.08a9.9 9.9 0 0 1-1.274-.318c-.478-.08-.876-.239-1.114-.318-.24-.08-.637-.24-1.274-.478-.557-.239-.955-.318-1.115-.398-1.432-.557-2.786-1.114-3.98-1.91-1.91-1.195-3.9-2.787-5.97-4.856-2.07-2.07-3.741-4.06-4.935-6.05-.717-1.114-1.353-2.468-1.831-3.98-.08-.08-.239-.478-.478-1.114-.159-.558-.318-1.035-.398-1.274-.08-.239-.238-.557-.398-1.035-.08-.478-.159-.955-.238-1.353C2 10.517 2 10.119 2 9.642c0-1.353.398-2.786 1.114-4.22.876-1.512 1.672-2.467 2.468-2.785.318-.16.876-.319 1.513-.478C7.81 2.08 8.289 2 8.687 2h.477c.319.16.717.716 1.274 1.751.159.319.398.717.637 1.274.318.477.557.955.796 1.433l.716 1.194c.08.08.16.239.398.557.239.318.398.637.478.796.08.239.159.478.159.637 0 .318-.239.716-.637 1.194-.398.398-.876.875-1.433 1.194-.477.398-.955.796-1.353 1.273-.478.398-.716.717-.716 1.035 0 .08.08.319.159.478.08.239.159.398.159.478.08.08.16.318.318.557.16.239.24.398.319.398 1.114 2.07 2.467 3.9 3.9 5.333a22.743 22.743 0 0 0 5.334 3.98c.08 0 .238.08.477.239.24.16.398.318.557.318.08.08.24.16.478.24.16.079.318.079.478.079.238 0 .637-.16 1.035-.637.398-.398.875-.876 1.194-1.433.398-.477.796-.955 1.273-1.353.478-.478.796-.637 1.115-.637.238 0 .477 0 .636.16.24.079.558.238.876.477.318.16.478.318.557.398.319.239.796.478 1.194.716.398.24.876.478 1.433.796.557.24.955.478 1.274.637 1.035.557 1.592.955 1.671 1.194.08.16.08.319.08.478Z"/></svg><svg viewBox="0 0 36 36" id="pinterest" xmlns="http://www.w3.org/2000/svg"><path d="M34 18c0 2.922-.658 5.626-2.119 8.037-1.46 2.484-3.36 4.383-5.844 5.844C23.626 33.342 20.922 34 18 34c-1.534 0-3.068-.22-4.53-.658.804-1.242 1.315-2.41 1.608-3.433.146-.439.511-1.9 1.096-4.384.292.585.803 1.023 1.534 1.388.73.439 1.534.658 2.41.658 1.681 0 3.142-.512 4.53-1.461 1.315-.95 2.338-2.265 3.069-3.946.657-1.68 1.023-3.506 1.023-5.625 0-1.607-.366-3.069-1.242-4.457-.804-1.388-1.973-2.557-3.58-3.434-1.534-.876-3.36-1.315-5.334-1.315-1.46 0-2.776.22-4.09.658-1.243.365-2.339.877-3.215 1.607a11.09 11.09 0 0 0-2.265 2.265 8.652 8.652 0 0 0-1.388 2.703 9.54 9.54 0 0 0-.439 2.776c0 1.462.292 2.777.804 3.873.584 1.096 1.388 1.826 2.484 2.264.365.22.657.074.73-.365.074-.146.147-.365.22-.657.073-.366.146-.585.146-.658.073-.292 0-.584-.22-.877-.73-.876-1.095-1.9-1.095-3.141 0-2.119.73-3.945 2.191-5.407 1.462-1.534 3.361-2.264 5.7-2.264 2.118 0 3.725.584 4.967 1.68 1.17 1.169 1.754 2.63 1.754 4.457 0 2.337-.512 4.383-1.462 6.064-.95 1.607-2.191 2.484-3.653 2.484-.876 0-1.534-.366-2.045-.95-.512-.585-.658-1.315-.512-2.192.146-.438.293-1.096.585-1.9.292-.876.438-1.534.657-2.191.146-.585.22-1.17.22-1.535 0-.73-.22-1.315-.585-1.753-.365-.438-.877-.73-1.607-.73-.877 0-1.608.438-2.192 1.241-.585.804-.877 1.754-.877 2.923 0 1.023.146 1.9.512 2.557l-2.046 8.767c-.292.95-.365 2.192-.292 3.653-2.85-1.242-5.187-3.215-6.94-5.845C2.876 24.21 2 21.215 2 18c0-2.922.658-5.626 2.119-8.037C5.579 7.48 7.479 5.58 9.963 4.12 12.374 2.658 15.078 2 18 2c2.922 0 5.626.658 8.037 2.119 2.484 1.46 4.383 3.36 5.844 5.844C33.342 12.374 34 15.078 34 18Z"/></svg><svg viewBox="0 0 36 33.126" id="print" xmlns="http://www.w3.org/2000/svg"><path d="M9.395 28.866h17.21v-4.908H9.395Zm0-12.303h17.21V9.168h-3.092c-.471 0-.942-.134-1.278-.538a1.837 1.837 0 0 1-.538-1.277V4.26H9.395Zm22.118 1.21c0-.336-.135-.605-.337-.874-.268-.202-.537-.336-.873-.336-.337 0-.606.134-.874.336-.27.27-.337.538-.337.874 0 .336.068.672.337.874.268.269.537.403.874.403.336 0 .605-.134.873-.403.202-.202.337-.538.337-.874zm2.487 0v8a.61.61 0 0 1-.202.47c-.134.068-.269.135-.403.135h-4.303v3.093c0 .537-.201.94-.537 1.277-.404.403-.807.538-1.345.538H8.79c-.538 0-.941-.135-1.345-.538a1.721 1.721 0 0 1-.537-1.277v-3.093H2.605c-.134 0-.269-.067-.403-.134a.61.61 0 0 1-.202-.47v-8c0-1.01.403-1.883 1.076-2.556.74-.739 1.613-1.142 2.621-1.142h1.21V3.656c0-.538.202-.942.538-1.278.404-.403.807-.538 1.345-.538h12.907c.471 0 1.076.068 1.681.336a6.22 6.22 0 0 1 1.48.942l2.89 2.89c.336.404.672.874.941 1.48.269.604.403 1.21.403 1.68v4.908h1.21c1.009 0 1.883.403 2.622 1.142.673.673 1.076 1.547 1.076 2.555z"/></svg><svg viewBox="0 0 36 30.231" id="private" xmlns="http://www.w3.org/2000/svg"><path d="M8.799 21.526s-2.128 2.15-3.02 3.046l-.833.832c-.112.113-.298.243-.351.397-.108.313.182.547.377.742.512.512 1.068.999 1.56 1.53.195.21.417.559.758.462.232-.067.377-.332.536-.494.41-.418.826-.829 1.242-1.242 1.518-1.507 3.072-2.99 4.543-4.542.845-.891 1.752-1.723 2.62-2.59 3.334-3.334 6.68-6.659 9.988-10.018 1.094-1.112 2.185-2.242 3.316-3.316.347-.329.663-.69 1.017-1.012.26-.237.661-.55.834-.863.167-.302-.177-.583-.368-.774-.492-.493-.989-.982-1.485-1.472-.185-.184-.376-.48-.652-.527-.236-.04-.367.143-.512.295-.32.335-.669.643-.984.98-.897.962-1.872 1.851-2.794 2.788-.268.273-.529.554-.808.816-.09.086-.207.255-.329.292-.2.06-.594-.177-.794-.233-.714-.2-1.422-.381-2.15-.518-1.787-.336-3.667-.25-5.446.072-3.897.707-7.514 3.005-10.432 5.597a25.84 25.84 0 0 0-1.914 1.88c-.329.36-.677.756-.713 1.27-.072 1.006.698 1.677 1.355 2.327a32.564 32.564 0 0 0 3.393 2.907m21.82-10.573-1.93 2.031s.777.612 1.014.772a15.38 15.38 0 0 1 2.222 1.855c.187.187.936.723.754.987-.622.897-1.742 1.674-2.604 2.326-2.391 1.81-4.954 3.162-7.903 3.774-1.225.223-2.208.213-3.416.155l-2.305 2.422c1.453.322 3.065.506 4.416.419 4.315-.296 8.07-2.355 11.435-4.942 1.075-.828 2.152-1.776 3.033-2.812.408-.48.811-1.004.689-1.682-.146-.804-.795-1.357-1.347-1.914-1.253-1.264-4.057-3.391-4.057-3.391m-16.089.422s-.464.803-.625 1.24c-.368.993-.507 2.279-.317 3.284.19 1.006.547 1.943 1.401 2.912-.709.68-1.343 1.384-2.079 2.005-1.29-.766-1.886-1.084-3.166-2.091-1.28-1.007-2.354-1.972-2.354-2.22.985-.993 2.908-2.73 4.167-3.594a17.966 17.966 0 0 1 2.075-1.19c.26-.131.898-.346.898-.346m12.018 3.686s-.882.87-1.293 1.28c-.984.984-1.96 1.985-2.956 2.956-.345.337-.677.718-1.039 1.034-.327.287-.97 1.027-.97 1.027s2.416.242 4.589-1.894c2.173-2.137 1.67-4.403 1.67-4.403z"/></svg><svg viewBox="0 0 36 30.046" id="quote" xmlns="http://www.w3.org/2000/svg"><path d="M9.475 1.67A7.553 7.553 0 0 0 7.462 16.48c2.03.544 2.753 1.178 2.825 2.853.126 2.911-2.053 5.71-5.436 6.34a1.362 1.362 0 1 0 .493 2.68c1.32-.243 2.906-.629 4.514-1.72 1.608-1.093 3.203-2.85 4.776-5.69 1.664-3.001 2.124-6.01 2.318-7.624.194-1.615.154-3.376.154-4.098A7.553 7.553 0 0 0 9.475 1.67zm17.419.001a7.178 7.178 0 0 0-2.203 14.036c1.917.556 2.592 1.172 2.628 2.766.063 2.769-2.063 5.384-5.29 5.917a1.295 1.295 0 1 0 .417 2.556c1.26-.204 2.774-.54 4.323-1.547 1.55-1.006 3.099-2.644 4.65-5.312 1.64-2.82 2.137-5.669 2.353-7.2.216-1.53.212-3.203.226-3.889a7.181 7.181 0 0 0-7.03-7.327h-.074z"/></svg><svg viewBox="0 0 36 26.106" id="reply" xmlns="http://www.w3.org/2000/svg"><path d="M13.604 24.533c-.154-.07-2.779-2.5-5.831-5.401-4.12-3.916-5.58-5.365-5.666-5.625-.257-.78-.92-.077 10.267-10.882 1.245-1.203 1.563-1.348 2.239-1.028.665.316.685.428.685 3.69v2.92l2.381.062c4.56.118 7.441.7 10.23 2.066 3.797 1.859 5.6 4.872 6.03 10.079.138 1.673.064 2.095-.441 2.52-.583.49-1.265.335-2.03-.464-1.061-1.105-2.95-2.496-4.4-3.24-2.576-1.32-6.83-2.082-10.04-1.798-.776.069-1.483.153-1.57.186-.138.053-.16.475-.16 3.09 0 3.367-.02 3.484-.665 3.79-.422.2-.644.208-1.029.035z"/></svg><svg viewBox="0 0 36 35.924" id="search" xmlns="http://www.w3.org/2000/svg"><path d="M25.35 15.508c0-2.766-.922-5.072-2.844-6.993-1.921-1.922-4.227-2.844-6.993-2.844-2.69 0-4.996.922-6.917 2.844-1.922 1.921-2.92 4.227-2.92 6.993 0 2.69.998 4.996 2.92 6.917 1.921 1.922 4.227 2.92 6.917 2.92 2.766 0 5.072-.998 6.993-2.92 1.922-1.921 2.844-4.227 2.844-6.917zM34 31.441c0 .672-.269 1.277-.74 1.748-.47.47-1.075.74-1.747.74a2.441 2.441 0 0 1-1.748-.74l-6.589-6.588c-2.285 1.613-4.84 2.42-7.663 2.42-1.816 0-3.563-.336-5.244-1.076-1.68-.74-3.093-1.68-4.303-2.89-1.21-1.21-2.15-2.622-2.89-4.303C2.403 19.072 2 17.324 2 15.508c0-1.882.403-3.63 1.076-5.243.74-1.681 1.68-3.16 2.89-4.37 1.21-1.21 2.622-2.151 4.303-2.89a13.992 13.992 0 0 1 5.244-1.01c1.882 0 3.63.337 5.31 1.01 1.614.739 3.093 1.68 4.303 2.89 1.21 1.21 2.151 2.689 2.89 4.37.673 1.613 1.076 3.361 1.076 5.243 0 2.824-.806 5.379-2.42 7.664l6.589 6.589c.47.47.739 1.008.739 1.68Z"/></svg><svg viewBox="0 0 36 36" id="share" xmlns="http://www.w3.org/2000/svg"><path d="M27.352 2c-1.827 0-3.433.585-4.748 1.9-1.316 1.315-1.9 2.922-1.9 4.748v.73l-7.526 3.727c-1.242-1.168-2.776-1.753-4.53-1.753-1.826 0-3.433.585-4.748 1.9C2.585 14.567 2 16.174 2 18s.585 3.433 1.9 4.748c1.315 1.315 2.922 1.9 4.748 1.9 1.754 0 3.288-.585 4.53-1.753l7.525 3.726v.73c0 1.827.585 3.434 1.9 4.749 1.316 1.315 2.922 1.9 4.749 1.9 1.826 0 3.433-.585 4.748-1.9 1.315-1.315 1.9-2.922 1.9-4.748 0-1.827-.585-3.433-1.9-4.748-1.315-1.316-2.922-1.9-4.748-1.9-1.754 0-3.288.584-4.53 1.753l-7.525-3.727v-1.46l7.525-3.727c1.242 1.169 2.776 1.754 4.53 1.754 1.826 0 3.433-.585 4.748-1.9 1.315-1.316 1.9-2.922 1.9-4.749 0-1.826-.585-3.433-1.9-4.748C30.785 2.585 29.178 2 27.352 2zm-.004 3.041a3.584 3.584 0 0 1 .002 0 3.584 3.584 0 0 1 .058 0 3.584 3.584 0 0 1 3.584 3.584 3.584 3.584 0 0 1-3.584 3.584 3.584 3.584 0 0 1-3.586-3.584 3.584 3.584 0 0 1 3.526-3.584zm-18.79 9.37a3.584 3.584 0 0 1 .061 0 3.584 3.584 0 0 1 3.586 3.585A3.584 3.584 0 0 1 8.62 21.58a3.584 3.584 0 0 1-3.584-3.584A3.584 3.584 0 0 1 8.56 14.41zm18.792 9.347a3.584 3.584 0 0 1 .058 0 3.584 3.584 0 0 1 3.584 3.584 3.584 3.584 0 0 1-3.584 3.584 3.584 3.584 0 0 1-3.586-3.584 3.584 3.584 0 0 1 3.528-3.584z"/></svg><svg viewBox="0 0 36 30.403" id="shopping-cart" xmlns="http://www.w3.org/2000/svg"><path d="M3.277 1.69c-.336 0-.671.133-.873.402A.959.959 0 0 0 2 2.898c0 .337.135.674.404.875.202.27.537.403.873.403h3.899l3.361 15.799c0 .067-.066.268-.267.537-.202.336-.338.605-.405.806-.134.202-.201.405-.336.674-.067.27-.134.47-.134.604 0 .336.134.606.335.875.27.201.54.336.875.336h1.166a2.47 2.47 0 0 0-2.376 2.466 2.47 2.47 0 0 0 2.468 2.47 2.47 2.47 0 0 0 2.471-2.47 2.47 2.47 0 0 0-2.379-2.466h17.041a2.47 2.47 0 0 0-2.379 2.466 2.47 2.47 0 0 0 2.469 2.47 2.47 2.47 0 0 0 2.47-2.47 2.47 2.47 0 0 0-2.378-2.466h1.125c.336 0 .604-.135.873-.336.201-.27.336-.54.336-.875 0-.336-.135-.604-.336-.873-.27-.202-.537-.336-.873-.336H12.62c.336-.605.47-1.076.47-1.278 0-.067-.065-.537-.267-1.343l20.033-2.287c.337-.068.605-.202.807-.471.202-.202.336-.47.336-.807V5.387c0-.336-.135-.606-.404-.875-.202-.202-.537-.336-.873-.336H9.664a1.9 1.9 0 0 0-.068-.537c-.068-.202-.066-.403-.133-.537 0-.135-.068-.338-.135-.54-.067-.201-.135-.336-.27-.47a1.464 1.464 0 0 0-.335-.268c-.202-.067-.336-.135-.537-.135H3.277zm8.43 5.064h18.6c.62 0 1.119.5 1.119 1.121v5.387c0 .62-.502 1.057-1.12 1.12l-16.824 1.725c-.615.064-1.256-.48-1.382-1.087l-1.442-6.924c-.126-.608.428-1.342 1.049-1.342zm.117 18.642a.877.877 0 0 1 .04 0 .877.877 0 0 1 .876.877.877.877 0 0 1-.877.877.877.877 0 0 1-.877-.877.877.877 0 0 1 .838-.877zm17.225 0a.877.877 0 0 1 .037 0 .877.877 0 0 1 .877.877.877.877 0 0 1-.877.877.877.877 0 0 1-.875-.877.877.877 0 0 1 .838-.877z"/></svg><svg viewBox="0 0 36 30.082" id="sign-in" xmlns="http://www.w3.org/2000/svg"><path d="M26.694 15.041c0 .365-.146.658-.438.95L14.932 27.315c-.293.292-.585.438-.95.438-.366 0-.658-.146-.95-.438-.22-.22-.365-.584-.365-.95v-5.99H3.315c-.365 0-.657-.147-.95-.366-.292-.292-.365-.584-.365-.95v-8.036c0-.365.073-.658.365-.95.293-.22.585-.365.95-.365h9.352V3.717c0-.365.146-.73.365-.95.292-.292.584-.438.95-.438.365 0 .657.146.95.438l11.324 11.324c.292.293.438.585.438.95zM34 7.662V22.42c0 1.607-.584 3.069-1.753 4.238-1.17 1.168-2.558 1.753-4.238 1.753h-6.648a.663.663 0 0 1-.512-.22c-.146-.145-.146-.291-.146-.438 0-.073-.073-.219-.073-.438v-.584c0-.147.073-.293.073-.439 0-.219.073-.365.22-.438.072-.073.219-.146.438-.146h6.648c.95 0 1.68-.292 2.338-.95.658-.658 1.023-1.461 1.023-2.338V7.662c0-.877-.365-1.68-1.023-2.338-.658-.657-1.388-.95-2.338-.95h-6.502l-.22-.073h-.292l-.146-.146-.146-.219v-.22c0-.072-.073-.218-.073-.437v-.585c0-.146.073-.292.073-.438 0-.22.073-.366.22-.439.072-.073.219-.146.438-.146h6.648c1.68 0 3.069.585 4.238 1.754C33.416 4.594 34 6.055 34 7.662Z"/></svg><svg viewBox="0 0 36 29.411" id="sign-out" xmlns="http://www.w3.org/2000/svg"><path d="M15.071 25.777v.428c.072.215.072.429.072.572-.072.143-.072.285-.072.428-.071.215-.142.357-.214.429-.143.071-.286.143-.428.143h-6.5c-1.643 0-3-.572-4.215-1.715A5.721 5.721 0 0 1 2 21.92V7.49c0-1.571.571-3 1.714-4.143C4.93 2.205 6.286 1.634 7.93 1.634h6.5c.142 0 .357.071.428.214.143.143.214.286.214.429v.428c.072.215.072.429.072.572-.072.143-.072.285-.072.428-.071.215-.142.357-.214.429-.143.071-.286.143-.428.143h-6.5c-.929 0-1.715.285-2.358.928-.642.643-.928 1.429-.928 2.286V21.92c0 .857.286 1.642.928 2.285.643.643 1.429.929 2.358.929h6.357l.214.071h.214l.215.143.142.214zM34 14.705c0 .357-.143.643-.357.929L22.5 26.705c-.214.286-.5.429-.857.429s-.714-.143-.929-.429c-.285-.214-.428-.571-.428-.928V19.92h-9.143c-.357 0-.643-.143-.929-.358-.214-.285-.357-.57-.357-.928v-7.857c0-.357.143-.643.357-.929.286-.214.572-.357.929-.357h9.143V3.634c0-.357.143-.714.428-.929.215-.285.572-.428.929-.428.357 0 .643.143.857.428l11.143 11.072c.214.285.357.571.357.928z"/></svg><svg viewBox="0 0 36 35.789" id="spinner" xmlns="http://www.w3.org/2000/svg"><defs><style/></defs><path d="M34 17.8c0 2.188-.438 4.25-1.25 6.188-.875 2-2 3.688-3.438 5.125-1.437 1.438-3.125 2.563-5.125 3.438-1.937.812-4 1.25-6.187 1.25-2.188 0-4.25-.438-6.188-1.25-2-.875-3.687-2-5.124-3.438-1.438-1.437-2.563-3.125-3.438-5.125-.813-1.937-1.25-4-1.25-6.187 0-2.625.625-5.125 1.813-7.375A15.474 15.474 0 0 1 8.75 4.738c2.063-1.5 4.96-2.562 7.57-2.75l-.948 4.625c-2.625.5-4.497 1.813-6.185 3.938-1.75 2.125-2.624 4.5-2.624 7.25 0 1.562.312 3 .937 4.437a9.773 9.773 0 0 0 2.438 3.625 9.773 9.773 0 0 0 3.624 2.438c1.438.625 2.876.937 4.438.937 1.563 0 3-.312 4.438-.937a9.773 9.773 0 0 0 3.625-2.438 9.773 9.773 0 0 0 2.437-3.625c.625-1.437.938-2.875.938-4.437 0-2.75-.875-5.125-2.625-7.25-1.688-2.125-4.191-3.438-6.816-3.938l.949-4.625c1.827.49 4.242 1.25 6.304 2.75a15.474 15.474 0 0 1 4.938 5.688A15.703 15.703 0 0 1 34 17.8Z" style="transform-origin:center;transform:rotate(0deg);animation:spin .8s infinite linear"/></svg><svg viewBox="0 0 36 34.336" id="star" xmlns="http://www.w3.org/2000/svg"><path d="M34 13.74c0 .268-.202.605-.538.94l-6.924 6.79 1.613 9.614v.336c0 .27-.067.538-.201.672-.135.202-.27.337-.538.337-.27 0-.538-.135-.807-.27L18 27.656 9.395 32.16c-.269.134-.538.269-.807.269a.706.706 0 0 1-.605-.337c-.134-.134-.201-.403-.201-.672 0-.067 0-.202.067-.336l1.613-9.613-6.991-6.79C2.2 14.277 2 14.008 2 13.739c0-.47.403-.806 1.076-.873l9.68-1.412 4.303-8.74c.269-.538.538-.806.941-.806.403 0 .672.268.941.806l4.303 8.74 9.68 1.412c.673.067 1.076.403 1.076.873Z"/></svg><svg viewBox="0 0 36 36" id="sticky" xmlns="http://www.w3.org/2000/svg"><path d="M16.181 16.147V7.524a.612.612 0 0 0-.202-.471c-.135-.068-.27-.135-.472-.135-.134 0-.27.067-.404.135a.612.612 0 0 0-.202.471v8.623c0 .202.067.337.202.405.135.134.27.202.404.202a.612.612 0 0 0 .472-.202c.135-.068.202-.203.202-.405zm12.935 6.737c0 .337-.135.674-.404.876-.203.27-.54.404-.876.404h-8.22l-1.01 9.297c0 .135-.067.27-.202.404-.067.068-.202.135-.404.135-.337 0-.539-.202-.606-.539l-1.482-9.297H8.164c-.337 0-.673-.135-.876-.404-.27-.202-.404-.539-.404-.876 0-1.55.54-2.964 1.55-4.244 1.01-1.28 2.155-1.886 3.435-1.886V6.918c-.673 0-1.28-.27-1.751-.741a2.446 2.446 0 0 1-.741-1.752c0-.673.27-1.212.74-1.751C10.59 2.202 11.197 2 11.87 2h12.262c.673 0 1.28.202 1.751.674.472.539.741 1.078.741 1.751 0 .674-.27 1.28-.74 1.752a2.446 2.446 0 0 1-1.752.74v9.837c1.28 0 2.425.606 3.435 1.886 1.01 1.28 1.55 2.695 1.55 4.244z"/></svg><svg viewBox="0 0 36 28.694" id="tags" xmlns="http://www.w3.org/2000/svg"><path d="M9.557 6.967c0-.59-.236-1.122-.65-1.535a2.144 2.144 0 0 0-1.534-.65c-.59 0-1.122.236-1.535.65-.414.413-.59.944-.59 1.535 0 .59.176 1.122.59 1.535.413.413.944.65 1.535.65.59 0 1.121-.237 1.535-.65.413-.413.65-.945.65-1.535zm18.008 9.741c0 .59-.237 1.063-.65 1.477l-8.266 8.324c-.472.414-.944.59-1.535.59-.59 0-1.121-.176-1.535-.59L3.535 14.406c-.472-.413-.827-.945-1.122-1.712C2.118 11.985 2 11.336 2 10.745V3.72c0-.59.177-1.063.65-1.535.413-.414.885-.59 1.475-.59h7.026c.59 0 1.24.117 2.008.412.708.296 1.24.65 1.712 1.122l12.044 12.044c.413.414.65.945.65 1.535zm6.435 0c0 .59-.177 1.063-.59 1.477l-8.325 8.324c-.413.414-.945.59-1.535.59-.354 0-.709-.058-.945-.236-.295-.118-.59-.413-.944-.708l7.97-7.97c.413-.414.59-.886.59-1.477 0-.59-.177-1.121-.59-1.535L17.528 3.13c-.414-.472-1.004-.826-1.713-1.122-.708-.295-1.357-.413-1.948-.413h3.779c.59 0 1.24.118 1.948.413.709.296 1.299.65 1.712 1.122L33.41 15.173c.413.414.59.945.59 1.535Z"/></svg><svg viewBox="0 0 36 34.503" id="thumb" xmlns="http://www.w3.org/2000/svg"><path d="M7.112 26.214c0-.35-.07-.63-.35-.91-.28-.21-.56-.35-.91-.35s-.631.14-.911.35c-.21.28-.35.56-.35.91s.14.63.35.91c.28.28.56.35.91.35s.63-.07.91-.35c.28-.28.35-.56.35-.91zm3.22-10.223v12.814c0 .35-.14.63-.35.84-.28.28-.56.42-.91.42H3.33c-.35 0-.7-.14-.91-.42a.998.998 0 0 1-.42-.84V15.991c0-.35.14-.7.42-.91.21-.28.56-.42.91-.42h5.742c.35 0 .63.14.91.42.21.21.35.56.35.91zm23.668 0c0 1.12-.35 2.1-1.05 2.941.21.63.28 1.12.28 1.54.07.981-.28 1.961-.84 2.732.21.77.21 1.54 0 2.38-.21.7-.56 1.33-1.12 1.82.14 1.541-.21 2.732-.981 3.642-.84 1.05-2.17 1.54-3.921 1.54h-2.591c-.84 0-1.82-.07-2.871-.28-1.05-.21-1.82-.42-2.45-.56-.561-.21-1.331-.49-2.382-.84-1.68-.56-2.73-.84-3.15-.84-.35 0-.7-.14-.91-.42a.998.998 0 0 1-.421-.84V15.92c0-.28.14-.56.42-.84.21-.28.49-.35.84-.42.28 0 .84-.42 1.54-1.19.631-.77 1.331-1.541 1.961-2.381.91-1.19 1.611-1.96 2.031-2.451.28-.21.49-.56.63-.91.21-.42.28-.77.35-.98.07-.28.14-.63.28-1.191.07-.56.21-.98.28-1.26.07-.28.14-.63.35-1.05.21-.35.42-.701.7-.981.211-.28.561-.35.911-.35.56 0 1.12.07 1.61.21.49.14.911.28 1.191.49.35.21.63.49.84.84.21.28.35.63.49.84.07.28.14.63.21 1.05.07.351.07.701.14.911v.77c0 .49-.07.98-.21 1.47-.14.561-.28.911-.35 1.261-.14.28-.35.63-.56 1.12-.07.07-.14.14-.21.35-.07.14-.21.28-.21.42-.07.14-.14.281-.21.491h5.602c.98 0 1.89.35 2.66 1.12.77.77 1.121 1.68 1.121 2.731z"/></svg><svg viewBox="0 0 36 29.28" id="twitter" xmlns="http://www.w3.org/2000/svg"><path d="M34 4.756c-.924 1.28-1.991 2.417-3.271 3.342v.853c0 1.778-.213 3.556-.782 5.262a17.17 17.17 0 0 1-2.347 5.05c-.996 1.635-2.276 3.057-3.698 4.337a17.08 17.08 0 0 1-5.262 2.916c-2.062.782-4.267 1.137-6.542 1.137-3.698 0-7.04-.995-10.098-2.986.498.07.996.142 1.564.142 3.058 0 5.76-.996 8.178-2.845a6.24 6.24 0 0 1-3.84-1.28c-1.138-.853-1.92-1.92-2.346-3.27.497.07.924.142 1.28.142.568 0 1.137-.072 1.706-.285-1.493-.284-2.773-1.067-3.769-2.204-.995-1.21-1.493-2.631-1.493-4.196V10.8c.924.498 1.92.782 2.987.782a5.953 5.953 0 0 1-2.134-2.275c-.569-.996-.782-2.063-.782-3.13 0-1.208.285-2.346.853-3.341a18.851 18.851 0 0 0 5.974 4.835 18.664 18.664 0 0 0 7.609 2.062 6.342 6.342 0 0 1-.214-1.564c0-1.778.64-3.342 1.92-4.622 1.28-1.28 2.845-1.92 4.694-1.92 1.849 0 3.484.71 4.764 2.062a13.046 13.046 0 0 0 4.196-1.565c-.498 1.565-1.494 2.774-2.916 3.627 1.28-.142 2.489-.498 3.769-.995Z"/></svg><svg viewBox="0 0 15 36" id="warning" xmlns="http://www.w3.org/2000/svg"><path d="M7.446 2c-1.762.01-3.507.316-4.493.885-.313.314-.47.627-.392 1.02l.627 17.165c0 .392.249 1.02 1.55 1.02h5.69c1.015 0 1.384-.628 1.384-1.02l.627-17.166c.078-.392-.079-.705-.392-1.019-1.058-.61-2.838-.895-4.6-.885ZM7.5 25.42a4.29 4.29 0 1 0 0 8.58 4.29 4.29 0 1 0 0-8.58z"/></svg><svg viewBox="0 0 35.674 36" id="whatsapp" xmlns="http://www.w3.org/2000/svg"><path d="M22.326 19.593c.145 0 .869.29 2.027.94 1.158.58 1.737.942 1.81 1.087.072.072.072.145.072.29 0 .506-.145 1.013-.362 1.592-.217.507-.724 1.014-1.448 1.376-.796.362-1.448.507-2.1.507-.796 0-2.099-.435-3.981-1.231-1.303-.652-2.462-1.448-3.475-2.462-1.014-1.013-2.027-2.316-3.04-3.837-1.015-1.448-1.521-2.823-1.521-3.982v-.217c.072-1.23.579-2.317 1.52-3.258.362-.29.724-.434 1.086-.434h.362c.217.072.362.072.434.072.218 0 .435 0 .507.145.145.072.217.217.362.507.073.29.362.941.652 1.882.362.941.507 1.448.507 1.52 0 .29-.218.652-.652 1.159-.507.507-.724.869-.724 1.013 0 .073 0 .145.072.29a9.56 9.56 0 0 0 2.1 2.824c.796.724 1.81 1.448 3.113 2.1.217.072.362.144.507.144.217 0 .579-.362 1.086-1.014.579-.651.941-1.013 1.086-1.013zm-4.2 11.004c1.738 0 3.403-.362 5.069-1.086a12.497 12.497 0 0 0 4.126-2.75 12.497 12.497 0 0 0 2.751-4.128c.724-1.592 1.014-3.33 1.014-5.067 0-1.738-.29-3.403-1.014-4.996-.651-1.593-1.592-3.04-2.75-4.199-1.16-1.158-2.535-2.027-4.127-2.751-1.666-.652-3.33-1.014-5.068-1.014-1.738 0-3.403.362-5.068 1.014-1.593.724-2.969 1.593-4.127 2.751s-2.1 2.606-2.751 4.2c-.724 1.592-1.014 3.257-1.014 4.995 0 2.823.797 5.357 2.462 7.601l-1.665 4.851 4.995-1.593c2.245 1.448 4.561 2.172 7.168 2.172zm0-28.597c2.1 0 4.127.434 6.082 1.23a15.56 15.56 0 0 1 4.923 3.331c1.448 1.376 2.534 3.04 3.33 4.996.87 1.882 1.231 3.91 1.231 6.009 0 2.1-.362 4.126-1.23 6.081-.797 1.882-1.883 3.548-3.33 4.996-1.376 1.375-3.042 2.461-4.924 3.33-1.955.796-3.982 1.23-6.081 1.23-2.679 0-5.213-.651-7.53-1.954L1.982 34l2.751-8.398c-1.448-2.39-2.172-5.14-2.172-8.036 0-2.1.362-4.127 1.23-6.01.797-1.954 1.883-3.62 3.331-4.995a15.56 15.56 0 0 1 4.923-3.33C14 2.434 16.027 2 18.127 2Z"/></svg><svg viewBox="0 0 36 25.734" id="youtube" xmlns="http://www.w3.org/2000/svg"><path d="M24.875 12.867c0-.437-.188-.75-.563-.937l-9.125-5.75c-.374-.25-.75-.25-1.187 0-.375.187-.563.5-.563 1v11.375c0 .5.188.812.563 1 .188.125.375.187.563.187.25 0 .437-.062.624-.187l9.126-5.75c.375-.188.562-.5.562-.938zm9.125 0v2.688c0 .625-.063 1.437-.188 2.437-.062 1-.187 1.875-.374 2.625a4.055 4.055 0 0 1-1.25 2.188c-.626.625-1.376.937-2.188 1.062-2.688.25-6.625.438-12 .438s-9.313-.188-12-.438c-.813-.125-1.563-.437-2.188-1.062a4.055 4.055 0 0 1-1.25-2.188c-.187-.75-.312-1.625-.374-2.625-.126-1-.188-1.812-.188-2.437V10.18c0-.625.063-1.438.188-2.438.062-1 .187-1.875.374-2.625a4.055 4.055 0 0 1 1.25-2.187C4.439 2.305 5.188 1.992 6 1.867c2.688-.25 6.625-.437 12-.437s9.313.187 12 .437c.813.125 1.563.438 2.188 1.063a4.055 4.055 0 0 1 1.25 2.187c.187.75.312 1.625.374 2.625.126 1 .188 1.813.188 2.438v2.687z"/></svg></svg>